G04 #@! TF.GenerationSoftware,KiCad,Pcbnew,no-vcs-found*
G04 #@! TF.CreationDate,2018-07-23T22:45:22+02:00*
G04 #@! TF.ProjectId,earthboot_withnewsoldermask,6561727468626F6F745F776974686E65,rev?*
G04 #@! TF.SameCoordinates,Original
G04 #@! TF.FileFunction,Copper,L2,Bot,Signal*
G04 #@! TF.FilePolarity,Positive*
%FSLAX46Y46*%
G04 Gerber Fmt 4.6, Leading zero omitted, Abs format (unit mm)*
G04 Created by KiCad (PCBNEW no-vcs-found) date Mon Jul 23 22:45:22 2018*
%MOMM*%
%LPD*%
G01*
G04 APERTURE LIST*
%ADD10R,1.700000X1.700000*%
%ADD11O,1.700000X1.700000*%
%ADD12C,0.800000*%
%ADD13C,0.600000*%
%ADD14C,0.800000*%
%ADD15C,0.400000*%
%ADD16C,0.254000*%
G04 APERTURE END LIST*
D10*
X76581000Y-71691500D03*
X72009000Y-26136600D03*
D11*
X74549000Y-26136600D03*
X77089000Y-26136600D03*
X79629000Y-26136600D03*
X82169000Y-26136600D03*
X84709000Y-26136600D03*
D12*
X72948800Y-55854600D03*
X68008500Y-55714900D03*
X86238400Y-36898900D03*
X81762600Y-32270700D03*
X89763600Y-47967900D03*
X91592400Y-47510700D03*
X92925900Y-42100500D03*
X92964000Y-40157400D03*
X84201000Y-38328600D03*
X81953100Y-39052500D03*
X79476600Y-47815500D03*
X79171800Y-56235600D03*
X80810100Y-55816500D03*
X78867000Y-30937200D03*
X66751200Y-38252400D03*
X64592200Y-57365900D03*
X74180700Y-34874200D03*
X73291700Y-38608000D03*
X74295000Y-31216600D03*
X72097900Y-32816800D03*
X65493900Y-63931800D03*
X68618100Y-65151000D03*
X61696600Y-47244000D03*
X67322700Y-51777900D03*
X66167000Y-31457900D03*
X63842900Y-31572200D03*
X67589400Y-53835300D03*
X66636900Y-62636400D03*
X61988700Y-51168300D03*
X67398900Y-50711100D03*
X73761600Y-54825900D03*
X83718400Y-52387500D03*
X82334100Y-59055000D03*
X85102700Y-62280800D03*
X90271600Y-68084700D03*
X86563200Y-47510700D03*
X87922100Y-48094900D03*
X75260200Y-32283400D03*
X72821800Y-36144200D03*
X76555600Y-37807900D03*
X76301600Y-35534600D03*
X75399900Y-48387000D03*
X70104000Y-54444900D03*
X72567800Y-46913800D03*
X66725800Y-48463200D03*
X84188300Y-51447700D03*
X88366600Y-57035700D03*
D13*
X68148200Y-55854600D02*
X72948800Y-55854600D01*
X68008500Y-55714900D02*
X68148200Y-55854600D01*
D14*
X86238400Y-36898900D02*
X86220300Y-36880800D01*
X79629000Y-26136600D02*
X79629000Y-30175200D01*
X79629000Y-30175200D02*
X78867000Y-30937200D01*
D13*
X66751200Y-44805600D02*
X66751200Y-38252400D01*
X60883800Y-50673000D02*
X66751200Y-44805600D01*
X60883800Y-54178200D02*
X60883800Y-50673000D01*
X64592200Y-57365900D02*
X60883800Y-54178200D01*
X74180700Y-37719000D02*
X74180700Y-34874200D01*
X73291700Y-38608000D02*
X74180700Y-37719000D01*
X73698100Y-31216600D02*
X74295000Y-31216600D01*
X72097900Y-32816800D02*
X73698100Y-31216600D01*
D14*
X65493900Y-63931800D02*
X65659000Y-63931800D01*
X66878200Y-65151000D02*
X68618100Y-65151000D01*
X65659000Y-63931800D02*
X66878200Y-65151000D01*
X61772800Y-47688500D02*
X61772800Y-47320200D01*
X61772800Y-47320200D02*
X61696600Y-47244000D01*
X67322700Y-51777900D02*
X67335400Y-51777900D01*
X66268600Y-33896300D02*
X66268600Y-31559500D01*
X66268600Y-31559500D02*
X66167000Y-31457900D01*
X63842900Y-31572200D02*
X63817500Y-31572200D01*
D13*
X66751200Y-54673500D02*
X67589400Y-53835300D01*
X66751200Y-62522100D02*
X66751200Y-54673500D01*
X66636900Y-62636400D02*
X66751200Y-62522100D01*
D14*
X61988700Y-51168300D02*
X62445900Y-50711100D01*
X62445900Y-50711100D02*
X67398900Y-50711100D01*
X76581000Y-71691500D02*
X76581000Y-57645300D01*
X76581000Y-57645300D02*
X73761600Y-54825900D01*
D15*
X83718400Y-57670700D02*
X83718400Y-52387500D01*
X82334100Y-59055000D02*
X83718400Y-57670700D01*
D13*
X85102700Y-62915800D02*
X85102700Y-62280800D01*
X90271600Y-68084700D02*
X85102700Y-62915800D01*
D15*
X77724000Y-32118300D02*
X72009000Y-26403300D01*
X77724000Y-38671500D02*
X77724000Y-32118300D01*
X86563200Y-47510700D02*
X77724000Y-38671500D01*
X72009000Y-26403300D02*
X72009000Y-26136600D01*
X74549000Y-26136600D02*
X74549000Y-28003500D01*
X87922100Y-47409100D02*
X87922100Y-48094900D01*
X78676500Y-38163500D02*
X87922100Y-47409100D01*
X78676500Y-32131000D02*
X78676500Y-38163500D01*
X74549000Y-28003500D02*
X78676500Y-32131000D01*
D14*
X73012300Y-34531300D02*
X75260200Y-32283400D01*
X73012300Y-35953700D02*
X73012300Y-34531300D01*
X72821800Y-36144200D02*
X73012300Y-35953700D01*
D13*
X76555600Y-35788600D02*
X76555600Y-37807900D01*
X76301600Y-35534600D02*
X76555600Y-35788600D01*
X71704200Y-52082700D02*
X75399900Y-48387000D01*
X71704200Y-52844700D02*
X71704200Y-52082700D01*
X70104000Y-54444900D02*
X71704200Y-52844700D01*
X72567800Y-46913800D02*
X71018400Y-48463200D01*
X71018400Y-48463200D02*
X66725800Y-48463200D01*
D15*
X84696300Y-51955700D02*
X84188300Y-51447700D01*
X84696300Y-53365400D02*
X84696300Y-51955700D01*
X88366600Y-57035700D02*
X84696300Y-53365400D01*
D16*
G36*
X93065054Y-26702551D02*
X93084140Y-26748281D01*
X93119274Y-26783225D01*
X93151704Y-26796555D01*
X96860584Y-45517571D01*
X91550021Y-74106102D01*
X80119598Y-74280612D01*
X78401904Y-62485771D01*
X84067521Y-62485771D01*
X84167700Y-62728224D01*
X84167700Y-62915800D01*
X84238873Y-63273609D01*
X84441555Y-63576945D01*
X89294258Y-68429647D01*
X89393658Y-68670215D01*
X89684554Y-68961619D01*
X90064823Y-69119520D01*
X90476571Y-69119879D01*
X90857115Y-68962642D01*
X91148519Y-68671746D01*
X91306420Y-68291477D01*
X91306779Y-67879729D01*
X91149542Y-67499185D01*
X90858646Y-67207781D01*
X90616368Y-67107179D01*
X86096223Y-62587033D01*
X86137520Y-62487577D01*
X86137879Y-62075829D01*
X85980642Y-61695285D01*
X85689746Y-61403881D01*
X85309477Y-61245980D01*
X84897729Y-61245621D01*
X84517185Y-61402858D01*
X84225781Y-61693754D01*
X84067880Y-62074023D01*
X84067521Y-62485771D01*
X78401904Y-62485771D01*
X77932127Y-59259971D01*
X81298921Y-59259971D01*
X81456158Y-59640515D01*
X81747054Y-59931919D01*
X82127323Y-60089820D01*
X82539071Y-60090179D01*
X82919615Y-59932942D01*
X83211019Y-59642046D01*
X83368920Y-59261777D01*
X83368973Y-59200995D01*
X84308834Y-58261134D01*
X84470074Y-58019821D01*
X84489839Y-57990241D01*
X84553400Y-57670700D01*
X84553400Y-54403368D01*
X87331473Y-57181441D01*
X87331421Y-57240671D01*
X87488658Y-57621215D01*
X87779554Y-57912619D01*
X88159823Y-58070520D01*
X88571571Y-58070879D01*
X88952115Y-57913642D01*
X89243519Y-57622746D01*
X89401420Y-57242477D01*
X89401779Y-56830729D01*
X89244542Y-56450185D01*
X88953646Y-56158781D01*
X88573377Y-56000880D01*
X88512595Y-56000827D01*
X85531300Y-53019532D01*
X85531300Y-51955700D01*
X85467739Y-51636159D01*
X85341815Y-51447700D01*
X85286734Y-51365265D01*
X85223427Y-51301958D01*
X85223479Y-51242729D01*
X85066242Y-50862185D01*
X84775346Y-50570781D01*
X84395077Y-50412880D01*
X83983329Y-50412521D01*
X83602785Y-50569758D01*
X83311381Y-50860654D01*
X83153480Y-51240923D01*
X83153253Y-51501142D01*
X83132885Y-51509558D01*
X82841481Y-51800454D01*
X82683580Y-52180723D01*
X82683221Y-52592471D01*
X82840458Y-52973015D01*
X82883400Y-53016032D01*
X82883400Y-57324832D01*
X82188359Y-58019873D01*
X82129129Y-58019821D01*
X81748585Y-58177058D01*
X81457181Y-58467954D01*
X81299280Y-58848223D01*
X81298921Y-59259971D01*
X77932127Y-59259971D01*
X77470256Y-56088459D01*
X77482651Y-55642226D01*
X77482700Y-55638964D01*
X77515967Y-39644335D01*
X85528073Y-47656442D01*
X85528021Y-47715671D01*
X85685258Y-48096215D01*
X85976154Y-48387619D01*
X86356423Y-48545520D01*
X86768171Y-48545879D01*
X86956429Y-48468093D01*
X87044158Y-48680415D01*
X87335054Y-48971819D01*
X87715323Y-49129720D01*
X88127071Y-49130079D01*
X88507615Y-48972842D01*
X88799019Y-48681946D01*
X88956920Y-48301677D01*
X88957279Y-47889929D01*
X88800042Y-47509385D01*
X88757100Y-47466368D01*
X88757100Y-47409100D01*
X88693539Y-47089559D01*
X88512534Y-46818666D01*
X79511500Y-37817632D01*
X79511500Y-32131000D01*
X79447939Y-31811459D01*
X79357436Y-31676012D01*
X79266934Y-31540565D01*
X77536421Y-29810052D01*
X77541099Y-27560765D01*
X77657285Y-27537654D01*
X78139054Y-27215747D01*
X78366702Y-26875047D01*
X78433817Y-27017958D01*
X78862076Y-27408245D01*
X79272110Y-27578076D01*
X79502000Y-27456755D01*
X79502000Y-26263600D01*
X79482000Y-26263600D01*
X79482000Y-26009600D01*
X79502000Y-26009600D01*
X79502000Y-25989600D01*
X79756000Y-25989600D01*
X79756000Y-26009600D01*
X79776000Y-26009600D01*
X79776000Y-26263600D01*
X79756000Y-26263600D01*
X79756000Y-27456755D01*
X79985890Y-27578076D01*
X80395924Y-27408245D01*
X80824183Y-27017958D01*
X80891298Y-26875047D01*
X81118946Y-27215747D01*
X81600715Y-27537654D01*
X82169000Y-27650693D01*
X82737285Y-27537654D01*
X83219054Y-27215747D01*
X83439000Y-26886574D01*
X83658946Y-27215747D01*
X84140715Y-27537654D01*
X84709000Y-27650693D01*
X85277285Y-27537654D01*
X85759054Y-27215747D01*
X86080961Y-26733978D01*
X86194000Y-26165693D01*
X86194000Y-26107507D01*
X86080961Y-25539222D01*
X85759054Y-25057453D01*
X85277285Y-24735546D01*
X84709000Y-24622507D01*
X84140715Y-24735546D01*
X83658946Y-25057453D01*
X83439000Y-25386626D01*
X83219054Y-25057453D01*
X82737285Y-24735546D01*
X82433982Y-24675215D01*
X92430709Y-23557934D01*
X93065054Y-26702551D01*
X93065054Y-26702551D01*
G37*
X93065054Y-26702551D02*
X93084140Y-26748281D01*
X93119274Y-26783225D01*
X93151704Y-26796555D01*
X96860584Y-45517571D01*
X91550021Y-74106102D01*
X80119598Y-74280612D01*
X78401904Y-62485771D01*
X84067521Y-62485771D01*
X84167700Y-62728224D01*
X84167700Y-62915800D01*
X84238873Y-63273609D01*
X84441555Y-63576945D01*
X89294258Y-68429647D01*
X89393658Y-68670215D01*
X89684554Y-68961619D01*
X90064823Y-69119520D01*
X90476571Y-69119879D01*
X90857115Y-68962642D01*
X91148519Y-68671746D01*
X91306420Y-68291477D01*
X91306779Y-67879729D01*
X91149542Y-67499185D01*
X90858646Y-67207781D01*
X90616368Y-67107179D01*
X86096223Y-62587033D01*
X86137520Y-62487577D01*
X86137879Y-62075829D01*
X85980642Y-61695285D01*
X85689746Y-61403881D01*
X85309477Y-61245980D01*
X84897729Y-61245621D01*
X84517185Y-61402858D01*
X84225781Y-61693754D01*
X84067880Y-62074023D01*
X84067521Y-62485771D01*
X78401904Y-62485771D01*
X77932127Y-59259971D01*
X81298921Y-59259971D01*
X81456158Y-59640515D01*
X81747054Y-59931919D01*
X82127323Y-60089820D01*
X82539071Y-60090179D01*
X82919615Y-59932942D01*
X83211019Y-59642046D01*
X83368920Y-59261777D01*
X83368973Y-59200995D01*
X84308834Y-58261134D01*
X84470074Y-58019821D01*
X84489839Y-57990241D01*
X84553400Y-57670700D01*
X84553400Y-54403368D01*
X87331473Y-57181441D01*
X87331421Y-57240671D01*
X87488658Y-57621215D01*
X87779554Y-57912619D01*
X88159823Y-58070520D01*
X88571571Y-58070879D01*
X88952115Y-57913642D01*
X89243519Y-57622746D01*
X89401420Y-57242477D01*
X89401779Y-56830729D01*
X89244542Y-56450185D01*
X88953646Y-56158781D01*
X88573377Y-56000880D01*
X88512595Y-56000827D01*
X85531300Y-53019532D01*
X85531300Y-51955700D01*
X85467739Y-51636159D01*
X85341815Y-51447700D01*
X85286734Y-51365265D01*
X85223427Y-51301958D01*
X85223479Y-51242729D01*
X85066242Y-50862185D01*
X84775346Y-50570781D01*
X84395077Y-50412880D01*
X83983329Y-50412521D01*
X83602785Y-50569758D01*
X83311381Y-50860654D01*
X83153480Y-51240923D01*
X83153253Y-51501142D01*
X83132885Y-51509558D01*
X82841481Y-51800454D01*
X82683580Y-52180723D01*
X82683221Y-52592471D01*
X82840458Y-52973015D01*
X82883400Y-53016032D01*
X82883400Y-57324832D01*
X82188359Y-58019873D01*
X82129129Y-58019821D01*
X81748585Y-58177058D01*
X81457181Y-58467954D01*
X81299280Y-58848223D01*
X81298921Y-59259971D01*
X77932127Y-59259971D01*
X77470256Y-56088459D01*
X77482651Y-55642226D01*
X77482700Y-55638964D01*
X77515967Y-39644335D01*
X85528073Y-47656442D01*
X85528021Y-47715671D01*
X85685258Y-48096215D01*
X85976154Y-48387619D01*
X86356423Y-48545520D01*
X86768171Y-48545879D01*
X86956429Y-48468093D01*
X87044158Y-48680415D01*
X87335054Y-48971819D01*
X87715323Y-49129720D01*
X88127071Y-49130079D01*
X88507615Y-48972842D01*
X88799019Y-48681946D01*
X88956920Y-48301677D01*
X88957279Y-47889929D01*
X88800042Y-47509385D01*
X88757100Y-47466368D01*
X88757100Y-47409100D01*
X88693539Y-47089559D01*
X88512534Y-46818666D01*
X79511500Y-37817632D01*
X79511500Y-32131000D01*
X79447939Y-31811459D01*
X79357436Y-31676012D01*
X79266934Y-31540565D01*
X77536421Y-29810052D01*
X77541099Y-27560765D01*
X77657285Y-27537654D01*
X78139054Y-27215747D01*
X78366702Y-26875047D01*
X78433817Y-27017958D01*
X78862076Y-27408245D01*
X79272110Y-27578076D01*
X79502000Y-27456755D01*
X79502000Y-26263600D01*
X79482000Y-26263600D01*
X79482000Y-26009600D01*
X79502000Y-26009600D01*
X79502000Y-25989600D01*
X79756000Y-25989600D01*
X79756000Y-26009600D01*
X79776000Y-26009600D01*
X79776000Y-26263600D01*
X79756000Y-26263600D01*
X79756000Y-27456755D01*
X79985890Y-27578076D01*
X80395924Y-27408245D01*
X80824183Y-27017958D01*
X80891298Y-26875047D01*
X81118946Y-27215747D01*
X81600715Y-27537654D01*
X82169000Y-27650693D01*
X82737285Y-27537654D01*
X83219054Y-27215747D01*
X83439000Y-26886574D01*
X83658946Y-27215747D01*
X84140715Y-27537654D01*
X84709000Y-27650693D01*
X85277285Y-27537654D01*
X85759054Y-27215747D01*
X86080961Y-26733978D01*
X86194000Y-26165693D01*
X86194000Y-26107507D01*
X86080961Y-25539222D01*
X85759054Y-25057453D01*
X85277285Y-24735546D01*
X84709000Y-24622507D01*
X84140715Y-24735546D01*
X83658946Y-25057453D01*
X83439000Y-25386626D01*
X83219054Y-25057453D01*
X82737285Y-24735546D01*
X82433982Y-24675215D01*
X92430709Y-23557934D01*
X93065054Y-26702551D01*
G36*
X74681053Y-30256222D02*
X74501777Y-30181780D01*
X74090029Y-30181421D01*
X73847576Y-30281600D01*
X73698105Y-30281600D01*
X73698100Y-30281599D01*
X73399656Y-30340964D01*
X73340291Y-30352773D01*
X73058404Y-30541123D01*
X73036955Y-30555455D01*
X71752952Y-31839458D01*
X71512385Y-31938858D01*
X71220981Y-32229754D01*
X71063080Y-32610023D01*
X71062721Y-33021771D01*
X71219958Y-33402315D01*
X71510854Y-33693719D01*
X71891123Y-33851620D01*
X72245375Y-33851929D01*
X72056085Y-34135223D01*
X71977299Y-34531300D01*
X71977300Y-34531305D01*
X71977300Y-35524792D01*
X71944881Y-35557154D01*
X71786980Y-35937423D01*
X71786800Y-36144196D01*
X71786799Y-36144200D01*
X71786800Y-36144204D01*
X71786621Y-36349171D01*
X71943858Y-36729715D01*
X72234754Y-37021119D01*
X72615023Y-37179020D01*
X72821796Y-37179200D01*
X72821800Y-37179201D01*
X72821804Y-37179200D01*
X73026771Y-37179379D01*
X73245700Y-37088920D01*
X73245700Y-37331710D01*
X72946752Y-37630658D01*
X72706185Y-37730058D01*
X72414781Y-38020954D01*
X72256880Y-38401223D01*
X72256521Y-38812971D01*
X72413758Y-39193515D01*
X72704654Y-39484919D01*
X73084923Y-39642820D01*
X73496671Y-39643179D01*
X73877215Y-39485942D01*
X74168619Y-39195046D01*
X74269221Y-38952769D01*
X74841845Y-38380145D01*
X75044527Y-38076809D01*
X75115700Y-37719000D01*
X75115700Y-35321371D01*
X75215520Y-35080977D01*
X75215879Y-34669229D01*
X75058642Y-34288685D01*
X74888783Y-34118529D01*
X75991417Y-33015894D01*
X76137119Y-32870446D01*
X76295020Y-32490177D01*
X76295200Y-32283404D01*
X76295201Y-32283400D01*
X76295200Y-32283396D01*
X76295379Y-32078429D01*
X76149004Y-31724173D01*
X76496154Y-32071323D01*
X76488101Y-34499762D01*
X76096629Y-34499421D01*
X75716085Y-34656658D01*
X75424681Y-34947554D01*
X75266780Y-35327823D01*
X75266421Y-35739571D01*
X75423658Y-36120115D01*
X75620600Y-36317401D01*
X75620600Y-37360729D01*
X75520780Y-37601123D01*
X75520421Y-38012871D01*
X75677658Y-38393415D01*
X75968554Y-38684819D01*
X76348823Y-38842720D01*
X76473700Y-38842829D01*
X76415901Y-56273279D01*
X76417362Y-56292915D01*
X79061427Y-73567471D01*
X68265732Y-73306284D01*
X67601215Y-71977250D01*
X75096000Y-71977250D01*
X75096000Y-72667810D01*
X75192673Y-72901199D01*
X75371302Y-73079827D01*
X75604691Y-73176500D01*
X76295250Y-73176500D01*
X76454000Y-73017750D01*
X76454000Y-71818500D01*
X76708000Y-71818500D01*
X76708000Y-73017750D01*
X76866750Y-73176500D01*
X77557309Y-73176500D01*
X77790698Y-73079827D01*
X77969327Y-72901199D01*
X78066000Y-72667810D01*
X78066000Y-71977250D01*
X77907250Y-71818500D01*
X76708000Y-71818500D01*
X76454000Y-71818500D01*
X75254750Y-71818500D01*
X75096000Y-71977250D01*
X67601215Y-71977250D01*
X66970185Y-70715190D01*
X75096000Y-70715190D01*
X75096000Y-71405750D01*
X75254750Y-71564500D01*
X76454000Y-71564500D01*
X76454000Y-70365250D01*
X76708000Y-70365250D01*
X76708000Y-71564500D01*
X77907250Y-71564500D01*
X78066000Y-71405750D01*
X78066000Y-70715190D01*
X77969327Y-70481801D01*
X77790698Y-70303173D01*
X77557309Y-70206500D01*
X76866750Y-70206500D01*
X76708000Y-70365250D01*
X76454000Y-70365250D01*
X76295250Y-70206500D01*
X75604691Y-70206500D01*
X75371302Y-70303173D01*
X75192673Y-70481801D01*
X75096000Y-70715190D01*
X66970185Y-70715190D01*
X62796569Y-62367958D01*
X61746732Y-56152923D01*
X63645549Y-57785126D01*
X63714258Y-57951415D01*
X64005154Y-58242819D01*
X64385423Y-58400720D01*
X64797171Y-58401079D01*
X65177715Y-58243842D01*
X65469119Y-57952946D01*
X65627020Y-57572677D01*
X65627379Y-57160929D01*
X65470142Y-56780385D01*
X65179246Y-56488981D01*
X64844872Y-56350137D01*
X64344324Y-55919871D01*
X66973321Y-55919871D01*
X67130558Y-56300415D01*
X67421454Y-56591819D01*
X67801723Y-56749720D01*
X67948353Y-56749848D01*
X68148200Y-56789600D01*
X72501629Y-56789600D01*
X72742023Y-56889420D01*
X73153771Y-56889779D01*
X73534315Y-56732542D01*
X73825719Y-56441646D01*
X73983620Y-56061377D01*
X73983979Y-55649629D01*
X73826742Y-55269085D01*
X73535846Y-54977681D01*
X73155577Y-54819780D01*
X72743829Y-54819421D01*
X72501376Y-54919600D01*
X71027569Y-54919600D01*
X71081521Y-54789669D01*
X72365345Y-53505845D01*
X72509644Y-53289885D01*
X72568027Y-53202509D01*
X72604788Y-53017700D01*
X72639201Y-52844700D01*
X72639200Y-52844695D01*
X72639200Y-52469990D01*
X75744848Y-49364342D01*
X75985415Y-49264942D01*
X76276819Y-48974046D01*
X76434720Y-48593777D01*
X76435079Y-48182029D01*
X76277842Y-47801485D01*
X75986946Y-47510081D01*
X75606677Y-47352180D01*
X75194929Y-47351821D01*
X74814385Y-47509058D01*
X74522981Y-47799954D01*
X74422379Y-48042231D01*
X71043055Y-51421555D01*
X70840373Y-51724891D01*
X70769200Y-52082700D01*
X70769200Y-52457410D01*
X69759052Y-53467558D01*
X69518485Y-53566958D01*
X69227081Y-53857854D01*
X69069180Y-54238123D01*
X69068821Y-54649871D01*
X69180270Y-54919600D01*
X68677023Y-54919600D01*
X68595546Y-54837981D01*
X68215277Y-54680080D01*
X67803529Y-54679721D01*
X67422985Y-54836958D01*
X67131581Y-55127854D01*
X66973680Y-55508123D01*
X66973321Y-55919871D01*
X64344324Y-55919871D01*
X61818800Y-53748959D01*
X61818800Y-51060290D01*
X64210919Y-48668171D01*
X65690621Y-48668171D01*
X65847858Y-49048715D01*
X66138754Y-49340119D01*
X66519023Y-49498020D01*
X66930771Y-49498379D01*
X67173224Y-49398200D01*
X71018400Y-49398200D01*
X71376209Y-49327027D01*
X71679545Y-49124345D01*
X72912747Y-47891142D01*
X73153315Y-47791742D01*
X73444719Y-47500846D01*
X73602620Y-47120577D01*
X73602979Y-46708829D01*
X73445742Y-46328285D01*
X73154846Y-46036881D01*
X72774577Y-45878980D01*
X72362829Y-45878621D01*
X71982285Y-46035858D01*
X71690881Y-46326754D01*
X71590279Y-46569032D01*
X70631110Y-47528200D01*
X67172971Y-47528200D01*
X66932577Y-47428380D01*
X66520829Y-47428021D01*
X66140285Y-47585258D01*
X65848881Y-47876154D01*
X65690980Y-48256423D01*
X65690621Y-48668171D01*
X64210919Y-48668171D01*
X67412345Y-45466745D01*
X67615027Y-45163409D01*
X67686200Y-44805600D01*
X67686200Y-38699571D01*
X67786020Y-38459177D01*
X67786379Y-38047429D01*
X67629142Y-37666885D01*
X67338246Y-37375481D01*
X66957977Y-37217580D01*
X66546229Y-37217221D01*
X66165685Y-37374458D01*
X65874281Y-37665354D01*
X65716380Y-38045623D01*
X65716021Y-38457371D01*
X65816200Y-38699824D01*
X65816200Y-44418310D01*
X60639052Y-49595458D01*
X60578250Y-49235512D01*
X59334084Y-31639443D01*
X59319070Y-31587912D01*
X58264375Y-29640783D01*
X73990268Y-29565436D01*
X74681053Y-30256222D01*
X74681053Y-30256222D01*
G37*
X74681053Y-30256222D02*
X74501777Y-30181780D01*
X74090029Y-30181421D01*
X73847576Y-30281600D01*
X73698105Y-30281600D01*
X73698100Y-30281599D01*
X73399656Y-30340964D01*
X73340291Y-30352773D01*
X73058404Y-30541123D01*
X73036955Y-30555455D01*
X71752952Y-31839458D01*
X71512385Y-31938858D01*
X71220981Y-32229754D01*
X71063080Y-32610023D01*
X71062721Y-33021771D01*
X71219958Y-33402315D01*
X71510854Y-33693719D01*
X71891123Y-33851620D01*
X72245375Y-33851929D01*
X72056085Y-34135223D01*
X71977299Y-34531300D01*
X71977300Y-34531305D01*
X71977300Y-35524792D01*
X71944881Y-35557154D01*
X71786980Y-35937423D01*
X71786800Y-36144196D01*
X71786799Y-36144200D01*
X71786800Y-36144204D01*
X71786621Y-36349171D01*
X71943858Y-36729715D01*
X72234754Y-37021119D01*
X72615023Y-37179020D01*
X72821796Y-37179200D01*
X72821800Y-37179201D01*
X72821804Y-37179200D01*
X73026771Y-37179379D01*
X73245700Y-37088920D01*
X73245700Y-37331710D01*
X72946752Y-37630658D01*
X72706185Y-37730058D01*
X72414781Y-38020954D01*
X72256880Y-38401223D01*
X72256521Y-38812971D01*
X72413758Y-39193515D01*
X72704654Y-39484919D01*
X73084923Y-39642820D01*
X73496671Y-39643179D01*
X73877215Y-39485942D01*
X74168619Y-39195046D01*
X74269221Y-38952769D01*
X74841845Y-38380145D01*
X75044527Y-38076809D01*
X75115700Y-37719000D01*
X75115700Y-35321371D01*
X75215520Y-35080977D01*
X75215879Y-34669229D01*
X75058642Y-34288685D01*
X74888783Y-34118529D01*
X75991417Y-33015894D01*
X76137119Y-32870446D01*
X76295020Y-32490177D01*
X76295200Y-32283404D01*
X76295201Y-32283400D01*
X76295200Y-32283396D01*
X76295379Y-32078429D01*
X76149004Y-31724173D01*
X76496154Y-32071323D01*
X76488101Y-34499762D01*
X76096629Y-34499421D01*
X75716085Y-34656658D01*
X75424681Y-34947554D01*
X75266780Y-35327823D01*
X75266421Y-35739571D01*
X75423658Y-36120115D01*
X75620600Y-36317401D01*
X75620600Y-37360729D01*
X75520780Y-37601123D01*
X75520421Y-38012871D01*
X75677658Y-38393415D01*
X75968554Y-38684819D01*
X76348823Y-38842720D01*
X76473700Y-38842829D01*
X76415901Y-56273279D01*
X76417362Y-56292915D01*
X79061427Y-73567471D01*
X68265732Y-73306284D01*
X67601215Y-71977250D01*
X75096000Y-71977250D01*
X75096000Y-72667810D01*
X75192673Y-72901199D01*
X75371302Y-73079827D01*
X75604691Y-73176500D01*
X76295250Y-73176500D01*
X76454000Y-73017750D01*
X76454000Y-71818500D01*
X76708000Y-71818500D01*
X76708000Y-73017750D01*
X76866750Y-73176500D01*
X77557309Y-73176500D01*
X77790698Y-73079827D01*
X77969327Y-72901199D01*
X78066000Y-72667810D01*
X78066000Y-71977250D01*
X77907250Y-71818500D01*
X76708000Y-71818500D01*
X76454000Y-71818500D01*
X75254750Y-71818500D01*
X75096000Y-71977250D01*
X67601215Y-71977250D01*
X66970185Y-70715190D01*
X75096000Y-70715190D01*
X75096000Y-71405750D01*
X75254750Y-71564500D01*
X76454000Y-71564500D01*
X76454000Y-70365250D01*
X76708000Y-70365250D01*
X76708000Y-71564500D01*
X77907250Y-71564500D01*
X78066000Y-71405750D01*
X78066000Y-70715190D01*
X77969327Y-70481801D01*
X77790698Y-70303173D01*
X77557309Y-70206500D01*
X76866750Y-70206500D01*
X76708000Y-70365250D01*
X76454000Y-70365250D01*
X76295250Y-70206500D01*
X75604691Y-70206500D01*
X75371302Y-70303173D01*
X75192673Y-70481801D01*
X75096000Y-70715190D01*
X66970185Y-70715190D01*
X62796569Y-62367958D01*
X61746732Y-56152923D01*
X63645549Y-57785126D01*
X63714258Y-57951415D01*
X64005154Y-58242819D01*
X64385423Y-58400720D01*
X64797171Y-58401079D01*
X65177715Y-58243842D01*
X65469119Y-57952946D01*
X65627020Y-57572677D01*
X65627379Y-57160929D01*
X65470142Y-56780385D01*
X65179246Y-56488981D01*
X64844872Y-56350137D01*
X64344324Y-55919871D01*
X66973321Y-55919871D01*
X67130558Y-56300415D01*
X67421454Y-56591819D01*
X67801723Y-56749720D01*
X67948353Y-56749848D01*
X68148200Y-56789600D01*
X72501629Y-56789600D01*
X72742023Y-56889420D01*
X73153771Y-56889779D01*
X73534315Y-56732542D01*
X73825719Y-56441646D01*
X73983620Y-56061377D01*
X73983979Y-55649629D01*
X73826742Y-55269085D01*
X73535846Y-54977681D01*
X73155577Y-54819780D01*
X72743829Y-54819421D01*
X72501376Y-54919600D01*
X71027569Y-54919600D01*
X71081521Y-54789669D01*
X72365345Y-53505845D01*
X72509644Y-53289885D01*
X72568027Y-53202509D01*
X72604788Y-53017700D01*
X72639201Y-52844700D01*
X72639200Y-52844695D01*
X72639200Y-52469990D01*
X75744848Y-49364342D01*
X75985415Y-49264942D01*
X76276819Y-48974046D01*
X76434720Y-48593777D01*
X76435079Y-48182029D01*
X76277842Y-47801485D01*
X75986946Y-47510081D01*
X75606677Y-47352180D01*
X75194929Y-47351821D01*
X74814385Y-47509058D01*
X74522981Y-47799954D01*
X74422379Y-48042231D01*
X71043055Y-51421555D01*
X70840373Y-51724891D01*
X70769200Y-52082700D01*
X70769200Y-52457410D01*
X69759052Y-53467558D01*
X69518485Y-53566958D01*
X69227081Y-53857854D01*
X69069180Y-54238123D01*
X69068821Y-54649871D01*
X69180270Y-54919600D01*
X68677023Y-54919600D01*
X68595546Y-54837981D01*
X68215277Y-54680080D01*
X67803529Y-54679721D01*
X67422985Y-54836958D01*
X67131581Y-55127854D01*
X66973680Y-55508123D01*
X66973321Y-55919871D01*
X64344324Y-55919871D01*
X61818800Y-53748959D01*
X61818800Y-51060290D01*
X64210919Y-48668171D01*
X65690621Y-48668171D01*
X65847858Y-49048715D01*
X66138754Y-49340119D01*
X66519023Y-49498020D01*
X66930771Y-49498379D01*
X67173224Y-49398200D01*
X71018400Y-49398200D01*
X71376209Y-49327027D01*
X71679545Y-49124345D01*
X72912747Y-47891142D01*
X73153315Y-47791742D01*
X73444719Y-47500846D01*
X73602620Y-47120577D01*
X73602979Y-46708829D01*
X73445742Y-46328285D01*
X73154846Y-46036881D01*
X72774577Y-45878980D01*
X72362829Y-45878621D01*
X71982285Y-46035858D01*
X71690881Y-46326754D01*
X71590279Y-46569032D01*
X70631110Y-47528200D01*
X67172971Y-47528200D01*
X66932577Y-47428380D01*
X66520829Y-47428021D01*
X66140285Y-47585258D01*
X65848881Y-47876154D01*
X65690980Y-48256423D01*
X65690621Y-48668171D01*
X64210919Y-48668171D01*
X67412345Y-45466745D01*
X67615027Y-45163409D01*
X67686200Y-44805600D01*
X67686200Y-38699571D01*
X67786020Y-38459177D01*
X67786379Y-38047429D01*
X67629142Y-37666885D01*
X67338246Y-37375481D01*
X66957977Y-37217580D01*
X66546229Y-37217221D01*
X66165685Y-37374458D01*
X65874281Y-37665354D01*
X65716380Y-38045623D01*
X65716021Y-38457371D01*
X65816200Y-38699824D01*
X65816200Y-44418310D01*
X60639052Y-49595458D01*
X60578250Y-49235512D01*
X59334084Y-31639443D01*
X59319070Y-31587912D01*
X58264375Y-29640783D01*
X73990268Y-29565436D01*
X74681053Y-30256222D01*
M02*
