M48
;DRILL file {KiCad no-vcs-found} date Mon Jul 23 22:45:28 2018
;FORMAT={-:-/ absolute / inch / decimal}
FMAT,2
INCH,TZ
T1C0.016
T2C0.039
%
G90
G05
M72
T1
X2.429Y-1.86
X2.4405Y-2.0145
X2.5135Y-1.243
X2.543Y-2.2585
X2.5785Y-2.517
X2.605Y-1.2385
X2.6235Y-2.466
X2.627Y-1.908
X2.628Y-1.506
X2.6505Y-2.0385
X2.6535Y-1.9965
X2.661Y-2.1195
X2.6775Y-2.1935
X2.7015Y-2.565
X2.76Y-2.1435
X2.8385Y-1.292
X2.857Y-1.847
X2.867Y-1.423
X2.872Y-2.199
X2.8855Y-1.52
X2.904Y-2.1585
X2.9205Y-1.373
X2.925Y-1.229
X2.963Y-1.271
X2.9685Y-1.905
X3.004Y-1.399
X3.014Y-1.4885
X3.105Y-1.218
X3.117Y-2.214
X3.129Y-1.8825
X3.1815Y-2.1975
X3.219Y-1.2705
X3.2265Y-1.5375
X3.2415Y-2.325
X3.296Y-2.0625
X3.3145Y-2.0255
X3.315Y-1.509
X3.3505Y-2.452
X3.3952Y-1.4527
X3.408Y-1.8705
X3.4615Y-1.8935
X3.479Y-2.2455
X3.534Y-1.8885
X3.554Y-2.6805
X3.606Y-1.8705
X3.6585Y-1.6575
X3.66Y-1.581
T2
X2.835Y-1.029
X2.935Y-1.029
X3.035Y-1.029
X3.135Y-1.029
X3.235Y-1.029
X3.335Y-1.029
X3.015Y-2.8225
T0
M30
