G04 #@! TF.GenerationSoftware,KiCad,Pcbnew,no-vcs-found*
G04 #@! TF.CreationDate,2018-07-23T22:45:22+02:00*
G04 #@! TF.ProjectId,earthboot_withnewsoldermask,6561727468626F6F745F776974686E65,rev?*
G04 #@! TF.SameCoordinates,Original
G04 #@! TF.FileFunction,Copper,L1,Top,Signal*
G04 #@! TF.FilePolarity,Positive*
%FSLAX46Y46*%
G04 Gerber Fmt 4.6, Leading zero omitted, Abs format (unit mm)*
G04 Created by KiCad (PCBNEW no-vcs-found) date Mon Jul 23 22:45:22 2018*
%MOMM*%
%LPD*%
G01*
G04 APERTURE LIST*
%ADD10R,1.200000X0.400000*%
%ADD11R,1.300000X1.500000*%
%ADD12R,1.300000X0.700000*%
%ADD13R,1.250000X1.500000*%
%ADD14R,1.500000X1.250000*%
%ADD15R,3.200000X1.500000*%
%ADD16R,1.700000X1.700000*%
%ADD17O,1.700000X1.700000*%
%ADD18R,1.500000X1.300000*%
%ADD19R,1.143000X0.508000*%
%ADD20C,0.800000*%
%ADD21C,0.600000*%
%ADD22C,0.400000*%
%ADD23C,0.800000*%
%ADD24C,0.254000*%
G04 APERTURE END LIST*
D10*
X81817800Y-49185400D03*
X81817800Y-49835400D03*
X81817800Y-50485400D03*
X81817800Y-51135400D03*
X81817800Y-51785400D03*
X81817800Y-52435400D03*
X81817800Y-53085400D03*
X81817800Y-53735400D03*
X89317800Y-53735400D03*
X89317800Y-53085400D03*
X89317800Y-52435400D03*
X89317800Y-51785400D03*
X89317800Y-51135400D03*
X89317800Y-50485400D03*
X89317800Y-49835400D03*
X89317800Y-49185400D03*
D11*
X64731900Y-61649600D03*
X64731900Y-58949600D03*
D12*
X85610700Y-73149500D03*
X85610700Y-71249500D03*
D13*
X76669900Y-52824700D03*
X76669900Y-50324700D03*
X73837800Y-68153600D03*
X73837800Y-65653600D03*
X71259700Y-65653600D03*
X71259700Y-68153600D03*
D14*
X69616000Y-34632900D03*
X72116000Y-34632900D03*
D13*
X66332100Y-36403600D03*
X66332100Y-33903600D03*
X80721200Y-36898900D03*
X80721200Y-34398900D03*
D15*
X81832700Y-30048200D03*
X85832700Y-30048200D03*
D13*
X81076800Y-58490800D03*
X81076800Y-60990800D03*
X93433900Y-49600800D03*
X93433900Y-52100800D03*
D15*
X85388700Y-43027600D03*
X89388700Y-43027600D03*
D13*
X91300300Y-52100800D03*
X91300300Y-49600800D03*
D15*
X89388700Y-40182800D03*
X85388700Y-40182800D03*
D13*
X93611700Y-46766800D03*
X93611700Y-44266800D03*
D15*
X85210900Y-45961300D03*
X89210900Y-45961300D03*
D16*
X76581000Y-71691500D03*
D12*
X82981800Y-71186000D03*
X82981800Y-73086000D03*
D16*
X72009000Y-26136600D03*
D17*
X74549000Y-26136600D03*
X77089000Y-26136600D03*
X79629000Y-26136600D03*
X82169000Y-26136600D03*
X84709000Y-26136600D03*
D11*
X63309500Y-53412400D03*
X63309500Y-56112400D03*
X74269600Y-52924700D03*
X74269600Y-50224700D03*
X78206600Y-58454300D03*
X78206600Y-61154300D03*
X75819000Y-61167000D03*
X75819000Y-58467000D03*
D18*
X70971400Y-63373000D03*
X68271400Y-63373000D03*
X68754000Y-31089600D03*
X71454000Y-31089600D03*
D11*
X76835000Y-46168300D03*
X76835000Y-43468300D03*
X63868300Y-36554400D03*
X63868300Y-33854400D03*
X64770000Y-47730400D03*
X64770000Y-45030400D03*
X65100200Y-41977300D03*
X65100200Y-39277300D03*
X80022700Y-66475600D03*
X80022700Y-63775600D03*
X77863700Y-66501000D03*
X77863700Y-63801000D03*
X82537300Y-65147200D03*
X82537300Y-67847200D03*
X88988900Y-61179700D03*
X88988900Y-58479700D03*
X86410800Y-58479700D03*
X86410800Y-61179700D03*
X83743800Y-58390800D03*
X83743800Y-61090800D03*
X79298800Y-52988200D03*
X79298800Y-50288200D03*
D19*
X71856600Y-54381400D03*
X71856600Y-53111400D03*
X71856600Y-51841400D03*
X71856600Y-50571400D03*
X65506600Y-50571400D03*
X65506600Y-51841400D03*
X65506600Y-53111400D03*
X65506600Y-54381400D03*
X66706750Y-60902850D03*
X66706750Y-59632850D03*
X66706750Y-58362850D03*
X66706750Y-57092850D03*
X73056750Y-57092850D03*
X73056750Y-58362850D03*
X73056750Y-59632850D03*
X73056750Y-60902850D03*
X67398900Y-47332900D03*
X67398900Y-46062900D03*
X67398900Y-44792900D03*
X67398900Y-43522900D03*
X73748900Y-43522900D03*
X73748900Y-44792900D03*
X73748900Y-46062900D03*
X73748900Y-47332900D03*
X85280500Y-64427100D03*
X85280500Y-65697100D03*
X85280500Y-66967100D03*
X85280500Y-68237100D03*
X91630500Y-68237100D03*
X91630500Y-66967100D03*
X91630500Y-65697100D03*
X91630500Y-64427100D03*
X90474800Y-33121600D03*
X90474800Y-34391600D03*
X90474800Y-35661600D03*
X90474800Y-36931600D03*
X84124800Y-36931600D03*
X84124800Y-35661600D03*
X84124800Y-34391600D03*
X84124800Y-33121600D03*
X68567300Y-40487600D03*
X68567300Y-39217600D03*
X68567300Y-37947600D03*
X68567300Y-36677600D03*
X74917300Y-36677600D03*
X74917300Y-37947600D03*
X74917300Y-39217600D03*
X74917300Y-40487600D03*
D20*
X72948800Y-55854600D03*
X68008500Y-55714900D03*
X86238400Y-36898900D03*
X81762600Y-32270700D03*
X89763600Y-47967900D03*
X91592400Y-47510700D03*
X92925900Y-42100500D03*
X92964000Y-40157400D03*
X84201000Y-38328600D03*
X81953100Y-39052500D03*
X79476600Y-47815500D03*
X79171800Y-56235600D03*
X80810100Y-55816500D03*
X78867000Y-30937200D03*
X66751200Y-38252400D03*
X64592200Y-57365900D03*
X74180700Y-34874200D03*
X73291700Y-38608000D03*
X74295000Y-31216600D03*
X72097900Y-32816800D03*
X65493900Y-63931800D03*
X68618100Y-65151000D03*
X61696600Y-47244000D03*
X67322700Y-51777900D03*
X66167000Y-31457900D03*
X63842900Y-31572200D03*
X67589400Y-53835300D03*
X66636900Y-62636400D03*
X61988700Y-51168300D03*
X67398900Y-50711100D03*
X73761600Y-54825900D03*
X83718400Y-52387500D03*
X82334100Y-59055000D03*
X85102700Y-62280800D03*
X90271600Y-68084700D03*
X86563200Y-47510700D03*
X87922100Y-48094900D03*
X75260200Y-32283400D03*
X72821800Y-36144200D03*
X76555600Y-37807900D03*
X76301600Y-35534600D03*
X75399900Y-48387000D03*
X70104000Y-54444900D03*
X72567800Y-46913800D03*
X66725800Y-48463200D03*
X84188300Y-51447700D03*
X88366600Y-57035700D03*
D21*
X63309500Y-56112400D02*
X65629800Y-56112400D01*
X75526900Y-55537100D02*
X75526900Y-52824700D01*
X75209400Y-55854600D02*
X75526900Y-55537100D01*
X72948800Y-55854600D02*
X75209400Y-55854600D01*
X66027300Y-55714900D02*
X68008500Y-55714900D01*
X65629800Y-56112400D02*
X66027300Y-55714900D01*
X71856600Y-51841400D02*
X73186300Y-51841400D01*
X73186300Y-51841400D02*
X74169600Y-52824700D01*
X74169600Y-52824700D02*
X75526900Y-52824700D01*
X75526900Y-52824700D02*
X76669900Y-52824700D01*
D22*
X89317800Y-50485400D02*
X89317800Y-51135400D01*
X89317800Y-50485400D02*
X89317800Y-51785400D01*
D21*
X89317800Y-51135400D02*
X90025100Y-51135400D01*
X90025100Y-51135400D02*
X91300300Y-49860200D01*
X91300300Y-49860200D02*
X91300300Y-49600800D01*
D23*
X80721200Y-36898900D02*
X84092100Y-36898900D01*
X89388700Y-40049200D02*
X86238400Y-36898900D01*
X86238400Y-36898900D02*
X84092100Y-36898900D01*
X84092100Y-36898900D02*
X84124800Y-36931600D01*
X84092100Y-36898900D02*
X84124800Y-36931600D01*
X91267600Y-49600800D02*
X91300300Y-49600800D01*
X74917300Y-36677600D02*
X77883700Y-36677600D01*
X77883700Y-36677600D02*
X78105000Y-36898900D01*
X78105000Y-36898900D02*
X80721200Y-36898900D01*
X78206600Y-58454300D02*
X78206600Y-55092600D01*
X77978000Y-51632800D02*
X76669900Y-50324700D01*
X77978000Y-54864000D02*
X77978000Y-51632800D01*
X78206600Y-55092600D02*
X77978000Y-54864000D01*
X79791050Y-31861250D02*
X79791050Y-32089850D01*
X78867000Y-30937200D02*
X79791050Y-31861250D01*
X89388700Y-43027600D02*
X89388700Y-40182800D01*
X78105000Y-36898900D02*
X78105000Y-33775900D01*
X78105000Y-33775900D02*
X79791050Y-32089850D01*
X79791050Y-32089850D02*
X81832700Y-30048200D01*
X89388700Y-40182800D02*
X89388700Y-40049200D01*
X89210900Y-45961300D02*
X89210900Y-40360600D01*
D21*
X89210900Y-40360600D02*
X89388700Y-40182800D01*
X89210900Y-45961300D02*
X90360500Y-45961300D01*
D23*
X90360500Y-45961300D02*
X92055000Y-44266800D01*
X92055000Y-44266800D02*
X93611700Y-44266800D01*
D21*
X91300300Y-49600800D02*
X91300300Y-48666400D01*
D23*
X91300300Y-48666400D02*
X89210900Y-46577000D01*
D21*
X89210900Y-46577000D02*
X89210900Y-45961300D01*
D23*
X78206600Y-58454300D02*
X78206600Y-58343800D01*
X78206600Y-58343800D02*
X79933800Y-56616600D01*
X81969600Y-56616600D02*
X83743800Y-58390800D01*
X79933800Y-56616600D02*
X81969600Y-56616600D01*
X91300300Y-49600800D02*
X93433900Y-49600800D01*
D21*
X77863700Y-63801000D02*
X77863700Y-63500000D01*
X77863700Y-63500000D02*
X78930500Y-62433200D01*
X78930500Y-62433200D02*
X79298800Y-62433200D01*
X79298800Y-62433200D02*
X79679800Y-62052200D01*
X79679800Y-62052200D02*
X79679800Y-59927500D01*
X79679800Y-59927500D02*
X78206600Y-58454300D01*
D23*
X73787000Y-36677600D02*
X74917300Y-36677600D01*
D21*
X73787000Y-36677600D02*
X76542900Y-36677600D01*
X76764200Y-36898900D02*
X76542900Y-36677600D01*
X78105000Y-36898900D02*
X76764200Y-36898900D01*
X80721200Y-36898900D02*
X78105000Y-36898900D01*
D23*
X72174100Y-41732200D02*
X73748900Y-43307000D01*
X73787000Y-36677600D02*
X72174100Y-38290500D01*
X72174100Y-38290500D02*
X72174100Y-41732200D01*
D21*
X73748900Y-43307000D02*
X73748900Y-43522900D01*
X80499900Y-36677600D02*
X80721200Y-36898900D01*
X74269600Y-50224700D02*
X74037200Y-50224700D01*
D23*
X74037200Y-50224700D02*
X71666100Y-47853600D01*
X72339200Y-43522900D02*
X73748900Y-43522900D01*
X71272400Y-45383450D02*
X72339200Y-43522900D01*
X71272400Y-45173900D02*
X71272400Y-45383450D01*
X71666100Y-47853600D02*
X71272400Y-45173900D01*
D21*
X71856600Y-50571400D02*
X73922900Y-50571400D01*
X73922900Y-50571400D02*
X74169600Y-50324700D01*
X74169600Y-50324700D02*
X76669900Y-50324700D01*
X73056750Y-57092850D02*
X74021950Y-57092850D01*
X74021950Y-57092850D02*
X75396100Y-58467000D01*
D23*
X75396100Y-58467000D02*
X78193900Y-58467000D01*
D21*
X78193900Y-58467000D02*
X78206600Y-58454300D01*
X71259700Y-65653600D02*
X71417500Y-65653600D01*
X71417500Y-65653600D02*
X75819000Y-61252100D01*
X75819000Y-61252100D02*
X75819000Y-61167000D01*
X75819000Y-61167000D02*
X75098900Y-61167000D01*
X75098900Y-61167000D02*
X73564750Y-59632850D01*
X73564750Y-59632850D02*
X73056750Y-59632850D01*
X71259700Y-65653600D02*
X71506400Y-65653600D01*
X71259700Y-65653600D02*
X71259700Y-65481200D01*
X73056750Y-58362850D02*
X73501250Y-58362850D01*
X73501250Y-58362850D02*
X74904600Y-59766200D01*
X74904600Y-59766200D02*
X76818500Y-59766200D01*
X76818500Y-59766200D02*
X78206600Y-61154300D01*
X73837800Y-65653600D02*
X73837800Y-65392300D01*
X73837800Y-65392300D02*
X78075800Y-61154300D01*
X78075800Y-61154300D02*
X78206600Y-61154300D01*
X73837800Y-65653600D02*
X73944800Y-65653600D01*
X64731900Y-58949600D02*
X64731900Y-58712100D01*
X64731900Y-58712100D02*
X65633600Y-57810400D01*
X65633600Y-57810400D02*
X65633600Y-57092850D01*
X66706750Y-57092850D02*
X65633600Y-57092850D01*
X65633600Y-57092850D02*
X65360550Y-57092850D01*
X67056000Y-37947600D02*
X68567300Y-37947600D01*
X66751200Y-38252400D02*
X67056000Y-37947600D01*
X65360550Y-57092850D02*
X64592200Y-57365900D01*
X68567300Y-37947600D02*
X69202300Y-37947600D01*
X69761100Y-37388800D02*
X69761100Y-34778000D01*
X69202300Y-37947600D02*
X69761100Y-37388800D01*
X69761100Y-34778000D02*
X69616000Y-34632900D01*
X74917300Y-39217600D02*
X73901300Y-39217600D01*
X73939400Y-34632900D02*
X72116000Y-34632900D01*
X74180700Y-34874200D02*
X73939400Y-34632900D01*
X73901300Y-39217600D02*
X73291700Y-38608000D01*
X76835000Y-43468300D02*
X76835000Y-40030400D01*
X76022200Y-39217600D02*
X74917300Y-39217600D01*
X76835000Y-40030400D02*
X76022200Y-39217600D01*
X66332100Y-36403600D02*
X66332100Y-36042600D01*
X66332100Y-36042600D02*
X67894200Y-34480500D01*
X77089000Y-28422600D02*
X77089000Y-26136600D01*
X74295000Y-31216600D02*
X77089000Y-28422600D01*
X68986400Y-32816800D02*
X72097900Y-32816800D01*
X67894200Y-33909000D02*
X68986400Y-32816800D01*
X67894200Y-34480500D02*
X67894200Y-33909000D01*
X65100200Y-39277300D02*
X65100200Y-37635500D01*
X65100200Y-37635500D02*
X66332100Y-36403600D01*
D23*
X64731900Y-63169800D02*
X65493900Y-63931800D01*
X64731900Y-61649600D02*
X64731900Y-63169800D01*
X61696600Y-47244000D02*
X61760100Y-47244000D01*
X63868300Y-33854400D02*
X63868300Y-31597600D01*
X63868300Y-31597600D02*
X63842900Y-31572200D01*
D21*
X64731900Y-61649600D02*
X65650100Y-61649600D01*
X68370450Y-53054250D02*
X68560950Y-53054250D01*
X67589400Y-53835300D02*
X68370450Y-53054250D01*
X65650100Y-61649600D02*
X66636900Y-62636400D01*
D23*
X63868300Y-33854400D02*
X63033900Y-33854400D01*
X63033900Y-33854400D02*
X61760100Y-35128200D01*
X61760100Y-35128200D02*
X61760100Y-47244000D01*
X61760100Y-47244000D02*
X61760100Y-50939700D01*
X61760100Y-50939700D02*
X61988700Y-51168300D01*
X67398900Y-50711100D02*
X67322700Y-50787300D01*
X67322700Y-50787300D02*
X67322700Y-51777900D01*
X67322700Y-51777900D02*
X67322700Y-51841400D01*
D21*
X73761600Y-54825900D02*
X72986900Y-54051200D01*
X72986900Y-54051200D02*
X72986900Y-53441600D01*
D23*
X72986900Y-53441600D02*
X72656700Y-53111400D01*
X72656700Y-53111400D02*
X71856600Y-53111400D01*
X63868300Y-33854400D02*
X66282900Y-33854400D01*
X66282900Y-33854400D02*
X68754000Y-31383300D01*
D21*
X68754000Y-31383300D02*
X68754000Y-31089600D01*
X65506600Y-51841400D02*
X67322700Y-51841400D01*
X67322700Y-51841400D02*
X67348100Y-51841400D01*
X67348100Y-51841400D02*
X68560950Y-53054250D01*
X68560950Y-53054250D02*
X68618100Y-53111400D01*
X68618100Y-53111400D02*
X71856600Y-53111400D01*
D23*
X84124800Y-34391600D02*
X85979000Y-34391600D01*
X86715600Y-30931100D02*
X85832700Y-30048200D01*
X86715600Y-33655000D02*
X86715600Y-30931100D01*
X85979000Y-34391600D02*
X86715600Y-33655000D01*
X80721200Y-34398900D02*
X84117500Y-34398900D01*
X84117500Y-34398900D02*
X84124800Y-34391600D01*
X85832700Y-30048200D02*
X85832700Y-27260300D01*
X85832700Y-27260300D02*
X84709000Y-26136600D01*
D22*
X81076800Y-58490800D02*
X81769900Y-58490800D01*
X83670500Y-52435400D02*
X81817800Y-52435400D01*
X83718400Y-52387500D02*
X83670500Y-52435400D01*
X81769900Y-58490800D02*
X82334100Y-59055000D01*
D21*
X91630500Y-68237100D02*
X90424000Y-68237100D01*
X85102700Y-62280800D02*
X85102700Y-61090800D01*
X90424000Y-68237100D02*
X90271600Y-68084700D01*
X81076800Y-60990800D02*
X83643800Y-60990800D01*
X83643800Y-60990800D02*
X83743800Y-61090800D01*
X86410800Y-61179700D02*
X86321900Y-61090800D01*
X86321900Y-61090800D02*
X85102700Y-61090800D01*
X85102700Y-61090800D02*
X81176800Y-61090800D01*
X81176800Y-61090800D02*
X81076800Y-60990800D01*
D22*
X89317800Y-52435400D02*
X89317800Y-53085400D01*
D23*
X86410800Y-58479700D02*
X86410800Y-53759100D01*
X87223600Y-52946300D02*
X87223600Y-53085400D01*
X86410800Y-53759100D02*
X87223600Y-52946300D01*
X85210900Y-45961300D02*
X85210900Y-48634900D01*
X85210900Y-48634900D02*
X86741000Y-50165000D01*
X86741000Y-50165000D02*
X86741000Y-52463700D01*
X86741000Y-52463700D02*
X87362700Y-53085400D01*
X87362700Y-53085400D02*
X87223600Y-53085400D01*
X87223600Y-53085400D02*
X89317800Y-53085400D01*
D21*
X89317800Y-53085400D02*
X90315700Y-53085400D01*
X90315700Y-53085400D02*
X91300300Y-52100800D01*
D22*
X89317800Y-53735400D02*
X89317800Y-52435400D01*
D23*
X93822200Y-46766800D02*
X95250000Y-45339000D01*
X95250000Y-45339000D02*
X95250000Y-39814500D01*
X95250000Y-39814500D02*
X92468700Y-37033200D01*
X92468700Y-37033200D02*
X92468700Y-36042600D01*
X92468700Y-36042600D02*
X92087700Y-35661600D01*
X92087700Y-35661600D02*
X90474800Y-35661600D01*
X85388700Y-43027600D02*
X85388700Y-40182800D01*
X93611700Y-46766800D02*
X93822200Y-46766800D01*
X85210900Y-45961300D02*
X85210900Y-40360600D01*
X85210900Y-40360600D02*
X85388700Y-40182800D01*
D21*
X93433900Y-52100800D02*
X93771400Y-52100800D01*
X93771400Y-52100800D02*
X94754700Y-51117500D01*
X94754700Y-47909800D02*
X93611700Y-46766800D01*
X94754700Y-51117500D02*
X94754700Y-47909800D01*
X91300300Y-52100800D02*
X93433900Y-52100800D01*
D22*
X90965700Y-52435400D02*
X91300300Y-52100800D01*
D21*
X80022700Y-63775600D02*
X83353900Y-63775600D01*
X87731600Y-59800500D02*
X86410800Y-58479700D01*
X87731600Y-62674500D02*
X87731600Y-59800500D01*
X86982300Y-63423800D02*
X87731600Y-62674500D01*
X83705700Y-63423800D02*
X86982300Y-63423800D01*
X83353900Y-63775600D02*
X83705700Y-63423800D01*
X85610700Y-73149500D02*
X85610700Y-72542400D01*
X75178600Y-69494400D02*
X73837800Y-68153600D01*
X78562200Y-69494400D02*
X75178600Y-69494400D01*
X81191100Y-72123300D02*
X78562200Y-69494400D01*
X85191600Y-72123300D02*
X81191100Y-72123300D01*
X85610700Y-72542400D02*
X85191600Y-72123300D01*
X86055200Y-78765400D02*
X86055200Y-73594000D01*
X86055200Y-73594000D02*
X85610700Y-73149500D01*
X82981800Y-73086000D02*
X79999800Y-73086000D01*
X79552800Y-73533000D02*
X71374000Y-73533000D01*
X79999800Y-73086000D02*
X79552800Y-73533000D01*
X71374000Y-79248000D02*
X71374000Y-73533000D01*
X71374000Y-73533000D02*
X71374000Y-68267900D01*
X71374000Y-68267900D02*
X71259700Y-68153600D01*
X85610700Y-71249500D02*
X85610700Y-71132700D01*
X85610700Y-71132700D02*
X89776300Y-66967100D01*
X89776300Y-66967100D02*
X91630500Y-66967100D01*
X91630500Y-66967100D02*
X91630500Y-65697100D01*
X82981800Y-69710300D02*
X85775800Y-69710300D01*
X86283800Y-65697100D02*
X85280500Y-65697100D01*
X86944200Y-66357500D02*
X86283800Y-65697100D01*
X86944200Y-68541900D02*
X86944200Y-66357500D01*
X85775800Y-69710300D02*
X86944200Y-68541900D01*
X82981800Y-71186000D02*
X82981800Y-69710300D01*
X82981800Y-69710300D02*
X82981800Y-68291700D01*
X82981800Y-68291700D02*
X82537300Y-67847200D01*
D22*
X89317800Y-49835400D02*
X88418000Y-49835400D01*
X86563200Y-47980600D02*
X86563200Y-47510700D01*
X88418000Y-49835400D02*
X86563200Y-47980600D01*
X87922100Y-48094900D02*
X89012600Y-49185400D01*
X89012600Y-49185400D02*
X89317800Y-49185400D01*
D23*
X63309500Y-53412400D02*
X63859400Y-53412400D01*
X63859400Y-53412400D02*
X64160400Y-53111400D01*
X64160400Y-53111400D02*
X65506600Y-53111400D01*
X68567300Y-39217600D02*
X69164200Y-39217600D01*
X80606900Y-27698700D02*
X82169000Y-26136600D01*
X79844900Y-27698700D02*
X80606900Y-27698700D01*
X75260200Y-32283400D02*
X79844900Y-27698700D01*
X70561200Y-38404800D02*
X72821800Y-36144200D01*
X69164200Y-39217600D02*
X70561200Y-38404800D01*
D21*
X66706750Y-59632850D02*
X66300350Y-59632850D01*
X66300350Y-59632850D02*
X65570100Y-60363100D01*
D23*
X62014100Y-54343300D02*
X62945000Y-53412400D01*
X62014100Y-57150000D02*
X62014100Y-54343300D01*
X63284100Y-58420000D02*
X62014100Y-57150000D01*
X63284100Y-59982100D02*
X63284100Y-58420000D01*
X63665100Y-60363100D02*
X63284100Y-59982100D01*
D21*
X65570100Y-60363100D02*
X63665100Y-60363100D01*
X62945000Y-53412400D02*
X63309500Y-53412400D01*
D23*
X68033900Y-46062900D02*
X68160900Y-46062900D01*
X67576700Y-39217600D02*
X68567300Y-39217600D01*
X67144900Y-39649400D02*
X67576700Y-39217600D01*
X67144900Y-41541700D02*
X67144900Y-39649400D01*
X68732400Y-43129200D02*
X67144900Y-41541700D01*
X68732400Y-45491400D02*
X68732400Y-43129200D01*
X68160900Y-46062900D02*
X68732400Y-45491400D01*
X63309500Y-53412400D02*
X63309500Y-50152300D01*
X68326000Y-46062900D02*
X68033900Y-46062900D01*
X68948300Y-46685200D02*
X68326000Y-46062900D01*
X68948300Y-47980600D02*
X68948300Y-46685200D01*
X67379850Y-49549050D02*
X68948300Y-47980600D01*
X64058800Y-49403000D02*
X67379850Y-49549050D01*
X63309500Y-50152300D02*
X64058800Y-49403000D01*
D21*
X68033900Y-46062900D02*
X67398900Y-46062900D01*
X63610500Y-53111400D02*
X63309500Y-53412400D01*
X71219050Y-63188850D02*
X71219050Y-62740550D01*
X71219050Y-62740550D02*
X73056750Y-60902850D01*
X68519050Y-63188850D02*
X68519050Y-62715150D01*
X68519050Y-62715150D02*
X66706750Y-60902850D01*
X71454000Y-31089600D02*
X72351900Y-31089600D01*
X76415900Y-37947600D02*
X74917300Y-37947600D01*
X76555600Y-37807900D02*
X76415900Y-37947600D01*
X76301600Y-35039300D02*
X76301600Y-35534600D01*
X72351900Y-31089600D02*
X76301600Y-35039300D01*
X66706750Y-58362850D02*
X68014850Y-58362850D01*
X76835000Y-46951900D02*
X76835000Y-46168300D01*
X75399900Y-48387000D02*
X76835000Y-46951900D01*
X70104000Y-56273700D02*
X70104000Y-54444900D01*
X68014850Y-58362850D02*
X70104000Y-56273700D01*
X73748900Y-44792900D02*
X74142600Y-44792900D01*
X74142600Y-44792900D02*
X75518000Y-46168300D01*
X75518000Y-46168300D02*
X76835000Y-46168300D01*
X73748900Y-46062900D02*
X73418700Y-46062900D01*
X73418700Y-46062900D02*
X72567800Y-46913800D01*
X66725800Y-48463200D02*
X65993000Y-47730400D01*
X65993000Y-47730400D02*
X64770000Y-47730400D01*
X64770000Y-47730400D02*
X63795900Y-47730400D01*
X63474600Y-47409100D02*
X63474600Y-36948100D01*
X63795900Y-47730400D02*
X63474600Y-47409100D01*
X63474600Y-36948100D02*
X63868300Y-36554400D01*
X64770000Y-45030400D02*
X67161400Y-45030400D01*
X67161400Y-45030400D02*
X67398900Y-44792900D01*
X64770000Y-45030400D02*
X64770000Y-42307500D01*
X64770000Y-42307500D02*
X65100200Y-41977300D01*
X77863700Y-66501000D02*
X79997300Y-66501000D01*
X79997300Y-66501000D02*
X80022700Y-66475600D01*
X85280500Y-66967100D02*
X83832700Y-66967100D01*
X83341200Y-66475600D02*
X77889100Y-66475600D01*
X83832700Y-66967100D02*
X83341200Y-66475600D01*
X77889100Y-66475600D02*
X77863700Y-66501000D01*
X85280500Y-64427100D02*
X88036400Y-64427100D01*
X88988900Y-63474600D02*
X88988900Y-61179700D01*
X88036400Y-64427100D02*
X88988900Y-63474600D01*
X82537300Y-65147200D02*
X83239600Y-65147200D01*
X83959700Y-64427100D02*
X85280500Y-64427100D01*
X83239600Y-65147200D02*
X83959700Y-64427100D01*
D22*
X88988900Y-58479700D02*
X88988900Y-57658000D01*
X82854800Y-51739800D02*
X81863400Y-51739800D01*
X83146900Y-51447700D02*
X82854800Y-51739800D01*
X84188300Y-51447700D02*
X83146900Y-51447700D01*
X88988900Y-57658000D02*
X88366600Y-57035700D01*
X81863400Y-51739800D02*
X81817800Y-51785400D01*
X79298800Y-52988200D02*
X79298800Y-52959000D01*
X79298800Y-52959000D02*
X80472400Y-51785400D01*
X80472400Y-51785400D02*
X81817800Y-51785400D01*
X81817800Y-51135400D02*
X80146000Y-51135400D01*
X80146000Y-51135400D02*
X79298800Y-50288200D01*
D24*
G36*
X92305425Y-75562687D02*
X80482249Y-137893106D01*
X80517927Y-75527394D01*
X92305425Y-75562687D01*
X92305425Y-75562687D01*
G37*
X92305425Y-75562687D02*
X80482249Y-137893106D01*
X80517927Y-75527394D01*
X92305425Y-75562687D01*
G36*
X76275396Y-137768329D02*
X64335826Y-75675286D01*
X76263524Y-75603863D01*
X76275396Y-137768329D01*
X76275396Y-137768329D01*
G37*
X76275396Y-137768329D02*
X64335826Y-75675286D01*
X76263524Y-75603863D01*
X76275396Y-137768329D01*
G36*
X95456426Y-38557215D02*
X93503700Y-36604488D01*
X93503700Y-36042600D01*
X93443783Y-35741377D01*
X93424915Y-35646522D01*
X93282846Y-35433901D01*
X93200556Y-35310744D01*
X93200553Y-35310742D01*
X92819556Y-34929744D01*
X92483777Y-34705385D01*
X92087700Y-34626599D01*
X92087695Y-34626600D01*
X91693740Y-34626600D01*
X91693740Y-34137600D01*
X91644457Y-33889835D01*
X91555432Y-33756600D01*
X91644457Y-33623365D01*
X91693740Y-33375600D01*
X91693740Y-32867600D01*
X91644457Y-32619835D01*
X91504109Y-32409791D01*
X91294065Y-32269443D01*
X91046300Y-32220160D01*
X89903300Y-32220160D01*
X89655535Y-32269443D01*
X89445491Y-32409791D01*
X89305143Y-32619835D01*
X89255860Y-32867600D01*
X89255860Y-33375600D01*
X89305143Y-33623365D01*
X89394168Y-33756600D01*
X89305143Y-33889835D01*
X89255860Y-34137600D01*
X89255860Y-34645600D01*
X89305143Y-34893365D01*
X89394168Y-35026600D01*
X89305143Y-35159835D01*
X89255860Y-35407600D01*
X89255860Y-35915600D01*
X89305143Y-36163365D01*
X89394168Y-36296600D01*
X89305143Y-36429835D01*
X89255860Y-36677600D01*
X89255860Y-37185600D01*
X89305143Y-37433365D01*
X89445491Y-37643409D01*
X89655535Y-37783757D01*
X89903300Y-37833040D01*
X91046300Y-37833040D01*
X91294065Y-37783757D01*
X91504109Y-37643409D01*
X91579836Y-37530076D01*
X91736844Y-37765056D01*
X94215000Y-40243211D01*
X94215000Y-42881800D01*
X93897450Y-42881800D01*
X93738700Y-43040550D01*
X93738700Y-44139800D01*
X93758700Y-44139800D01*
X93758700Y-44393800D01*
X93738700Y-44393800D01*
X93738700Y-44413800D01*
X93484700Y-44413800D01*
X93484700Y-44393800D01*
X92510450Y-44393800D01*
X92351700Y-44552550D01*
X92351700Y-45143109D01*
X92448373Y-45376498D01*
X92590020Y-45518146D01*
X92528891Y-45558991D01*
X92388543Y-45769035D01*
X92339260Y-46016800D01*
X92339260Y-47516800D01*
X92388543Y-47764565D01*
X92528891Y-47974609D01*
X92738935Y-48114957D01*
X92986700Y-48164240D01*
X93686850Y-48164240D01*
X93738410Y-48215800D01*
X93719650Y-48215800D01*
X93560900Y-48374550D01*
X93560900Y-49473800D01*
X93580900Y-49473800D01*
X93580900Y-49727800D01*
X93560900Y-49727800D01*
X93560900Y-49747800D01*
X93306900Y-49747800D01*
X93306900Y-49727800D01*
X91427300Y-49727800D01*
X91427300Y-49747800D01*
X91173300Y-49747800D01*
X91173300Y-49727800D01*
X91153300Y-49727800D01*
X91153300Y-49473800D01*
X91173300Y-49473800D01*
X91173300Y-48374550D01*
X91427300Y-48374550D01*
X91427300Y-49473800D01*
X93306900Y-49473800D01*
X93306900Y-48374550D01*
X93148150Y-48215800D01*
X92682590Y-48215800D01*
X92449201Y-48312473D01*
X92367100Y-48394574D01*
X92284999Y-48312473D01*
X92051610Y-48215800D01*
X91586050Y-48215800D01*
X91427300Y-48374550D01*
X91173300Y-48374550D01*
X91014550Y-48215800D01*
X90548990Y-48215800D01*
X90315601Y-48312473D01*
X90210684Y-48417391D01*
X90165565Y-48387243D01*
X89917800Y-48337960D01*
X89346028Y-48337960D01*
X88957227Y-47949159D01*
X88957279Y-47889929D01*
X88800042Y-47509385D01*
X88637241Y-47346300D01*
X88925150Y-47346300D01*
X89083900Y-47187550D01*
X89083900Y-46088300D01*
X89337900Y-46088300D01*
X89337900Y-47187550D01*
X89496650Y-47346300D01*
X90937209Y-47346300D01*
X91170598Y-47249627D01*
X91349227Y-47070999D01*
X91445900Y-46837610D01*
X91445900Y-46247050D01*
X91287150Y-46088300D01*
X89337900Y-46088300D01*
X89083900Y-46088300D01*
X89063900Y-46088300D01*
X89063900Y-45834300D01*
X89083900Y-45834300D01*
X89083900Y-44735050D01*
X89337900Y-44735050D01*
X89337900Y-45834300D01*
X91287150Y-45834300D01*
X91445900Y-45675550D01*
X91445900Y-45084990D01*
X91349227Y-44851601D01*
X91170598Y-44672973D01*
X90937209Y-44576300D01*
X89496650Y-44576300D01*
X89337900Y-44735050D01*
X89083900Y-44735050D01*
X88925150Y-44576300D01*
X87484591Y-44576300D01*
X87251202Y-44672973D01*
X87209947Y-44714227D01*
X87058665Y-44613143D01*
X86810900Y-44563860D01*
X86245900Y-44563860D01*
X86245900Y-44425040D01*
X86988700Y-44425040D01*
X87236465Y-44375757D01*
X87387747Y-44274673D01*
X87429002Y-44315927D01*
X87662391Y-44412600D01*
X89102950Y-44412600D01*
X89261700Y-44253850D01*
X89261700Y-43154600D01*
X89515700Y-43154600D01*
X89515700Y-44253850D01*
X89674450Y-44412600D01*
X91115009Y-44412600D01*
X91348398Y-44315927D01*
X91527027Y-44137299D01*
X91623700Y-43903910D01*
X91623700Y-43390491D01*
X92351700Y-43390491D01*
X92351700Y-43981050D01*
X92510450Y-44139800D01*
X93484700Y-44139800D01*
X93484700Y-43040550D01*
X93325950Y-42881800D01*
X92860390Y-42881800D01*
X92627001Y-42978473D01*
X92448373Y-43157102D01*
X92351700Y-43390491D01*
X91623700Y-43390491D01*
X91623700Y-43313350D01*
X91464950Y-43154600D01*
X89515700Y-43154600D01*
X89261700Y-43154600D01*
X89241700Y-43154600D01*
X89241700Y-42900600D01*
X89261700Y-42900600D01*
X89261700Y-41801350D01*
X89515700Y-41801350D01*
X89515700Y-42900600D01*
X91464950Y-42900600D01*
X91623700Y-42741850D01*
X91623700Y-42151290D01*
X91527027Y-41917901D01*
X91348398Y-41739273D01*
X91115009Y-41642600D01*
X89674450Y-41642600D01*
X89515700Y-41801350D01*
X89261700Y-41801350D01*
X89102950Y-41642600D01*
X87662391Y-41642600D01*
X87429002Y-41739273D01*
X87387747Y-41780527D01*
X87236465Y-41679443D01*
X86988700Y-41630160D01*
X86423700Y-41630160D01*
X86423700Y-41580240D01*
X86988700Y-41580240D01*
X87236465Y-41530957D01*
X87387747Y-41429873D01*
X87429002Y-41471127D01*
X87662391Y-41567800D01*
X89102950Y-41567800D01*
X89261700Y-41409050D01*
X89261700Y-40309800D01*
X89515700Y-40309800D01*
X89515700Y-41409050D01*
X89674450Y-41567800D01*
X91115009Y-41567800D01*
X91348398Y-41471127D01*
X91527027Y-41292499D01*
X91623700Y-41059110D01*
X91623700Y-40468550D01*
X91464950Y-40309800D01*
X89515700Y-40309800D01*
X89261700Y-40309800D01*
X89241700Y-40309800D01*
X89241700Y-40055800D01*
X89261700Y-40055800D01*
X89261700Y-38956550D01*
X89515700Y-38956550D01*
X89515700Y-40055800D01*
X91464950Y-40055800D01*
X91623700Y-39897050D01*
X91623700Y-39306490D01*
X91527027Y-39073101D01*
X91348398Y-38894473D01*
X91115009Y-38797800D01*
X89674450Y-38797800D01*
X89515700Y-38956550D01*
X89261700Y-38956550D01*
X89102950Y-38797800D01*
X87662391Y-38797800D01*
X87429002Y-38894473D01*
X87387747Y-38935727D01*
X87236465Y-38834643D01*
X86988700Y-38785360D01*
X83788700Y-38785360D01*
X83540935Y-38834643D01*
X83330891Y-38974991D01*
X83190543Y-39185035D01*
X83141260Y-39432800D01*
X83141260Y-40932800D01*
X83190543Y-41180565D01*
X83330891Y-41390609D01*
X83540935Y-41530957D01*
X83788700Y-41580240D01*
X84175900Y-41580240D01*
X84175900Y-41630160D01*
X83788700Y-41630160D01*
X83540935Y-41679443D01*
X83330891Y-41819791D01*
X83190543Y-42029835D01*
X83141260Y-42277600D01*
X83141260Y-43777600D01*
X83190543Y-44025365D01*
X83330891Y-44235409D01*
X83540935Y-44375757D01*
X83788700Y-44425040D01*
X84175900Y-44425040D01*
X84175900Y-44563860D01*
X83610900Y-44563860D01*
X83363135Y-44613143D01*
X83153091Y-44753491D01*
X83012743Y-44963535D01*
X82963460Y-45211300D01*
X82963460Y-46711300D01*
X83012743Y-46959065D01*
X83153091Y-47169109D01*
X83363135Y-47309457D01*
X83610900Y-47358740D01*
X84175900Y-47358740D01*
X84175900Y-48634895D01*
X84175899Y-48634900D01*
X84254685Y-49030977D01*
X84479044Y-49366756D01*
X85706000Y-50593711D01*
X85706000Y-52463695D01*
X85705999Y-52463700D01*
X85784785Y-52859777D01*
X85809469Y-52896719D01*
X85678944Y-53027244D01*
X85454585Y-53363023D01*
X85375799Y-53759100D01*
X85375800Y-53759105D01*
X85375800Y-57223241D01*
X85302991Y-57271891D01*
X85162643Y-57481935D01*
X85113360Y-57729700D01*
X85113360Y-59229700D01*
X85162643Y-59477465D01*
X85302991Y-59687509D01*
X85513035Y-59827857D01*
X85522300Y-59829700D01*
X85513035Y-59831543D01*
X85302991Y-59971891D01*
X85180106Y-60155800D01*
X85004442Y-60155800D01*
X84991957Y-60093035D01*
X84851609Y-59882991D01*
X84641565Y-59742643D01*
X84613591Y-59737079D01*
X84753499Y-59679127D01*
X84932127Y-59500498D01*
X85028800Y-59267109D01*
X85028800Y-58676550D01*
X84870050Y-58517800D01*
X83870800Y-58517800D01*
X83870800Y-58537800D01*
X83616800Y-58537800D01*
X83616800Y-58517800D01*
X83596800Y-58517800D01*
X83596800Y-58263800D01*
X83616800Y-58263800D01*
X83616800Y-57164550D01*
X83870800Y-57164550D01*
X83870800Y-58263800D01*
X84870050Y-58263800D01*
X85028800Y-58105050D01*
X85028800Y-57514491D01*
X84932127Y-57281102D01*
X84753499Y-57102473D01*
X84520110Y-57005800D01*
X84029550Y-57005800D01*
X83870800Y-57164550D01*
X83616800Y-57164550D01*
X83458050Y-57005800D01*
X82967490Y-57005800D01*
X82734101Y-57102473D01*
X82555473Y-57281102D01*
X82458800Y-57514491D01*
X82458800Y-57998832D01*
X82360334Y-57900366D01*
X82349240Y-57892953D01*
X82349240Y-57740800D01*
X82299957Y-57493035D01*
X82159609Y-57282991D01*
X81949565Y-57142643D01*
X81701800Y-57093360D01*
X80451800Y-57093360D01*
X80204035Y-57142643D01*
X79993991Y-57282991D01*
X79853643Y-57493035D01*
X79804360Y-57740800D01*
X79804360Y-59240800D01*
X79853643Y-59488565D01*
X79993991Y-59698609D01*
X80057134Y-59740800D01*
X79993991Y-59782991D01*
X79853643Y-59993035D01*
X79804360Y-60240800D01*
X79804360Y-61740800D01*
X79853643Y-61988565D01*
X79993991Y-62198609D01*
X80204035Y-62338957D01*
X80401124Y-62378160D01*
X79372700Y-62378160D01*
X79255497Y-62401473D01*
X79314409Y-62362109D01*
X79454757Y-62152065D01*
X79504040Y-61904300D01*
X79504040Y-60404300D01*
X79454757Y-60156535D01*
X79314409Y-59946491D01*
X79104365Y-59806143D01*
X79076391Y-59800579D01*
X79216299Y-59742627D01*
X79394927Y-59563998D01*
X79491600Y-59330609D01*
X79491600Y-58740050D01*
X79332850Y-58581300D01*
X78333600Y-58581300D01*
X78333600Y-58601300D01*
X78079600Y-58601300D01*
X78079600Y-58581300D01*
X78059600Y-58581300D01*
X78059600Y-58327300D01*
X78079600Y-58327300D01*
X78079600Y-57228050D01*
X78333600Y-57228050D01*
X78333600Y-58327300D01*
X79332850Y-58327300D01*
X79491600Y-58168550D01*
X79491600Y-57577991D01*
X79394927Y-57344602D01*
X79216299Y-57165973D01*
X78982910Y-57069300D01*
X78492350Y-57069300D01*
X78333600Y-57228050D01*
X78079600Y-57228050D01*
X77920850Y-57069300D01*
X77613097Y-57069300D01*
X77470256Y-56088459D01*
X77482651Y-55642226D01*
X77482700Y-55638964D01*
X77485726Y-54184183D01*
X77542665Y-54172857D01*
X77752709Y-54032509D01*
X77893057Y-53822465D01*
X77942340Y-53574700D01*
X77942340Y-52074700D01*
X77893057Y-51826935D01*
X77752709Y-51616891D01*
X77691580Y-51576046D01*
X77833227Y-51434398D01*
X77929900Y-51201009D01*
X77929900Y-50610450D01*
X77771150Y-50451700D01*
X77493489Y-50451700D01*
X77494017Y-50197700D01*
X77771150Y-50197700D01*
X77929900Y-50038950D01*
X77929900Y-49538200D01*
X78001360Y-49538200D01*
X78001360Y-51038200D01*
X78050643Y-51285965D01*
X78190991Y-51496009D01*
X78401035Y-51636357D01*
X78410300Y-51638200D01*
X78401035Y-51640043D01*
X78190991Y-51780391D01*
X78050643Y-51990435D01*
X78001360Y-52238200D01*
X78001360Y-53738200D01*
X78050643Y-53985965D01*
X78190991Y-54196009D01*
X78401035Y-54336357D01*
X78648800Y-54385640D01*
X79948800Y-54385640D01*
X80196565Y-54336357D01*
X80406609Y-54196009D01*
X80546957Y-53985965D01*
X80570360Y-53868309D01*
X80570360Y-53935400D01*
X80619643Y-54183165D01*
X80759991Y-54393209D01*
X80970035Y-54533557D01*
X81217800Y-54582840D01*
X82417800Y-54582840D01*
X82665565Y-54533557D01*
X82875609Y-54393209D01*
X83015957Y-54183165D01*
X83065240Y-53935400D01*
X83065240Y-53535400D01*
X83040376Y-53410400D01*
X83065240Y-53285400D01*
X83065240Y-53270400D01*
X83145758Y-53270400D01*
X83511623Y-53422320D01*
X83923371Y-53422679D01*
X84303915Y-53265442D01*
X84595319Y-52974546D01*
X84753220Y-52594277D01*
X84753447Y-52334058D01*
X84773815Y-52325642D01*
X85065219Y-52034746D01*
X85223120Y-51654477D01*
X85223479Y-51242729D01*
X85066242Y-50862185D01*
X84775346Y-50570781D01*
X84395077Y-50412880D01*
X83983329Y-50412521D01*
X83602785Y-50569758D01*
X83559768Y-50612700D01*
X83146900Y-50612700D01*
X83065240Y-50628943D01*
X83065240Y-50285400D01*
X83040376Y-50160400D01*
X83065240Y-50035400D01*
X83065240Y-49635400D01*
X83040376Y-49510400D01*
X83065240Y-49385400D01*
X83065240Y-48985400D01*
X83015957Y-48737635D01*
X82875609Y-48527591D01*
X82665565Y-48387243D01*
X82417800Y-48337960D01*
X81217800Y-48337960D01*
X80970035Y-48387243D01*
X80759991Y-48527591D01*
X80619643Y-48737635D01*
X80570360Y-48985400D01*
X80570360Y-49385400D01*
X80595224Y-49510400D01*
X80592967Y-49521746D01*
X80546957Y-49290435D01*
X80406609Y-49080391D01*
X80196565Y-48940043D01*
X79948800Y-48890760D01*
X78648800Y-48890760D01*
X78401035Y-48940043D01*
X78190991Y-49080391D01*
X78050643Y-49290435D01*
X78001360Y-49538200D01*
X77929900Y-49538200D01*
X77929900Y-49448391D01*
X77833227Y-49215002D01*
X77654599Y-49036373D01*
X77496569Y-48970915D01*
X77499403Y-47608169D01*
X77534306Y-47555932D01*
X77732765Y-47516457D01*
X77942809Y-47376109D01*
X78083157Y-47166065D01*
X78132440Y-46918300D01*
X78132440Y-45418300D01*
X78083157Y-45170535D01*
X77942809Y-44960491D01*
X77732765Y-44820143D01*
X77723500Y-44818300D01*
X77732765Y-44816457D01*
X77942809Y-44676109D01*
X78083157Y-44466065D01*
X78132440Y-44218300D01*
X78132440Y-42718300D01*
X78083157Y-42470535D01*
X77942809Y-42260491D01*
X77770000Y-42145023D01*
X77770000Y-40030400D01*
X77698827Y-39672591D01*
X77516475Y-39399682D01*
X77518998Y-38186680D01*
X77590420Y-38014677D01*
X77590779Y-37602929D01*
X77520566Y-37433000D01*
X77521082Y-37184650D01*
X79461200Y-37184650D01*
X79461200Y-37775209D01*
X79557873Y-38008598D01*
X79736501Y-38187227D01*
X79969890Y-38283900D01*
X80435450Y-38283900D01*
X80594200Y-38125150D01*
X80594200Y-37025900D01*
X80848200Y-37025900D01*
X80848200Y-38125150D01*
X81006950Y-38283900D01*
X81472510Y-38283900D01*
X81705899Y-38187227D01*
X81884527Y-38008598D01*
X81981200Y-37775209D01*
X81981200Y-37217350D01*
X82918300Y-37217350D01*
X82918300Y-37311909D01*
X83014973Y-37545298D01*
X83193601Y-37723927D01*
X83426990Y-37820600D01*
X83839050Y-37820600D01*
X83997800Y-37661850D01*
X83997800Y-37058600D01*
X84251800Y-37058600D01*
X84251800Y-37661850D01*
X84410550Y-37820600D01*
X84822610Y-37820600D01*
X85055999Y-37723927D01*
X85234627Y-37545298D01*
X85331300Y-37311909D01*
X85331300Y-37217350D01*
X85172550Y-37058600D01*
X84251800Y-37058600D01*
X83997800Y-37058600D01*
X83077050Y-37058600D01*
X82918300Y-37217350D01*
X81981200Y-37217350D01*
X81981200Y-37184650D01*
X81822450Y-37025900D01*
X80848200Y-37025900D01*
X80594200Y-37025900D01*
X79619950Y-37025900D01*
X79461200Y-37184650D01*
X77521082Y-37184650D01*
X77532959Y-31474353D01*
X78673361Y-30333950D01*
X79597700Y-30333950D01*
X79597700Y-30924510D01*
X79694373Y-31157899D01*
X79873002Y-31336527D01*
X80106391Y-31433200D01*
X81546950Y-31433200D01*
X81705700Y-31274450D01*
X81705700Y-30175200D01*
X79756450Y-30175200D01*
X79597700Y-30333950D01*
X78673361Y-30333950D01*
X79597700Y-29409611D01*
X79597700Y-29762450D01*
X79756450Y-29921200D01*
X81705700Y-29921200D01*
X81705700Y-28821950D01*
X81546950Y-28663200D01*
X80961326Y-28663200D01*
X81002977Y-28654915D01*
X81338756Y-28430556D01*
X82126978Y-27642334D01*
X82169000Y-27650693D01*
X82737285Y-27537654D01*
X83219054Y-27215747D01*
X83439000Y-26886574D01*
X83658946Y-27215747D01*
X84140715Y-27537654D01*
X84709000Y-27650693D01*
X84751023Y-27642334D01*
X84797700Y-27689011D01*
X84797700Y-28650760D01*
X84232700Y-28650760D01*
X83984935Y-28700043D01*
X83833653Y-28801127D01*
X83792398Y-28759873D01*
X83559009Y-28663200D01*
X82118450Y-28663200D01*
X81959700Y-28821950D01*
X81959700Y-29921200D01*
X81979700Y-29921200D01*
X81979700Y-30175200D01*
X81959700Y-30175200D01*
X81959700Y-31274450D01*
X82118450Y-31433200D01*
X83559009Y-31433200D01*
X83792398Y-31336527D01*
X83833653Y-31295273D01*
X83984935Y-31396357D01*
X84232700Y-31445640D01*
X85680600Y-31445640D01*
X85680600Y-33226289D01*
X85550288Y-33356600D01*
X85343740Y-33356600D01*
X85343740Y-32867600D01*
X85294457Y-32619835D01*
X85154109Y-32409791D01*
X84944065Y-32269443D01*
X84696300Y-32220160D01*
X83553300Y-32220160D01*
X83305535Y-32269443D01*
X83095491Y-32409791D01*
X82955143Y-32619835D01*
X82905860Y-32867600D01*
X82905860Y-33363900D01*
X81919477Y-33363900D01*
X81804009Y-33191091D01*
X81593965Y-33050743D01*
X81346200Y-33001460D01*
X80096200Y-33001460D01*
X79848435Y-33050743D01*
X79638391Y-33191091D01*
X79498043Y-33401135D01*
X79448760Y-33648900D01*
X79448760Y-35148900D01*
X79498043Y-35396665D01*
X79638391Y-35606709D01*
X79699520Y-35647554D01*
X79557873Y-35789202D01*
X79461200Y-36022591D01*
X79461200Y-36613150D01*
X79619950Y-36771900D01*
X80594200Y-36771900D01*
X80594200Y-36751900D01*
X80848200Y-36751900D01*
X80848200Y-36771900D01*
X81822450Y-36771900D01*
X81981200Y-36613150D01*
X81981200Y-36022591D01*
X81884527Y-35789202D01*
X81742880Y-35647554D01*
X81804009Y-35606709D01*
X81919477Y-35433900D01*
X82905860Y-35433900D01*
X82905860Y-35915600D01*
X82955143Y-36163365D01*
X83041007Y-36291868D01*
X83014973Y-36317902D01*
X82918300Y-36551291D01*
X82918300Y-36645850D01*
X83077050Y-36804600D01*
X83997800Y-36804600D01*
X83997800Y-36784600D01*
X84251800Y-36784600D01*
X84251800Y-36804600D01*
X85172550Y-36804600D01*
X85331300Y-36645850D01*
X85331300Y-36551291D01*
X85234627Y-36317902D01*
X85208593Y-36291868D01*
X85294457Y-36163365D01*
X85343740Y-35915600D01*
X85343740Y-35426600D01*
X85978995Y-35426600D01*
X85979000Y-35426601D01*
X86375077Y-35347815D01*
X86710856Y-35123456D01*
X87447453Y-34386858D01*
X87447456Y-34386856D01*
X87671815Y-34051077D01*
X87681413Y-34002823D01*
X87750601Y-33655000D01*
X87750600Y-33654995D01*
X87750600Y-31349494D01*
X87890509Y-31256009D01*
X88030857Y-31045965D01*
X88080140Y-30798200D01*
X88080140Y-29298200D01*
X88030857Y-29050435D01*
X87890509Y-28840391D01*
X87680465Y-28700043D01*
X87432700Y-28650760D01*
X86867700Y-28650760D01*
X86867700Y-27260305D01*
X86867701Y-27260300D01*
X86788915Y-26864223D01*
X86707573Y-26742485D01*
X86564556Y-26528444D01*
X86564553Y-26528442D01*
X86194000Y-26157889D01*
X86194000Y-26107507D01*
X86080961Y-25539222D01*
X85759054Y-25057453D01*
X85277285Y-24735546D01*
X84709000Y-24622507D01*
X84140715Y-24735546D01*
X83658946Y-25057453D01*
X83439000Y-25386626D01*
X83219054Y-25057453D01*
X82737285Y-24735546D01*
X82433982Y-24675215D01*
X92430709Y-23557934D01*
X95456426Y-38557215D01*
X95456426Y-38557215D01*
G37*
X95456426Y-38557215D02*
X93503700Y-36604488D01*
X93503700Y-36042600D01*
X93443783Y-35741377D01*
X93424915Y-35646522D01*
X93282846Y-35433901D01*
X93200556Y-35310744D01*
X93200553Y-35310742D01*
X92819556Y-34929744D01*
X92483777Y-34705385D01*
X92087700Y-34626599D01*
X92087695Y-34626600D01*
X91693740Y-34626600D01*
X91693740Y-34137600D01*
X91644457Y-33889835D01*
X91555432Y-33756600D01*
X91644457Y-33623365D01*
X91693740Y-33375600D01*
X91693740Y-32867600D01*
X91644457Y-32619835D01*
X91504109Y-32409791D01*
X91294065Y-32269443D01*
X91046300Y-32220160D01*
X89903300Y-32220160D01*
X89655535Y-32269443D01*
X89445491Y-32409791D01*
X89305143Y-32619835D01*
X89255860Y-32867600D01*
X89255860Y-33375600D01*
X89305143Y-33623365D01*
X89394168Y-33756600D01*
X89305143Y-33889835D01*
X89255860Y-34137600D01*
X89255860Y-34645600D01*
X89305143Y-34893365D01*
X89394168Y-35026600D01*
X89305143Y-35159835D01*
X89255860Y-35407600D01*
X89255860Y-35915600D01*
X89305143Y-36163365D01*
X89394168Y-36296600D01*
X89305143Y-36429835D01*
X89255860Y-36677600D01*
X89255860Y-37185600D01*
X89305143Y-37433365D01*
X89445491Y-37643409D01*
X89655535Y-37783757D01*
X89903300Y-37833040D01*
X91046300Y-37833040D01*
X91294065Y-37783757D01*
X91504109Y-37643409D01*
X91579836Y-37530076D01*
X91736844Y-37765056D01*
X94215000Y-40243211D01*
X94215000Y-42881800D01*
X93897450Y-42881800D01*
X93738700Y-43040550D01*
X93738700Y-44139800D01*
X93758700Y-44139800D01*
X93758700Y-44393800D01*
X93738700Y-44393800D01*
X93738700Y-44413800D01*
X93484700Y-44413800D01*
X93484700Y-44393800D01*
X92510450Y-44393800D01*
X92351700Y-44552550D01*
X92351700Y-45143109D01*
X92448373Y-45376498D01*
X92590020Y-45518146D01*
X92528891Y-45558991D01*
X92388543Y-45769035D01*
X92339260Y-46016800D01*
X92339260Y-47516800D01*
X92388543Y-47764565D01*
X92528891Y-47974609D01*
X92738935Y-48114957D01*
X92986700Y-48164240D01*
X93686850Y-48164240D01*
X93738410Y-48215800D01*
X93719650Y-48215800D01*
X93560900Y-48374550D01*
X93560900Y-49473800D01*
X93580900Y-49473800D01*
X93580900Y-49727800D01*
X93560900Y-49727800D01*
X93560900Y-49747800D01*
X93306900Y-49747800D01*
X93306900Y-49727800D01*
X91427300Y-49727800D01*
X91427300Y-49747800D01*
X91173300Y-49747800D01*
X91173300Y-49727800D01*
X91153300Y-49727800D01*
X91153300Y-49473800D01*
X91173300Y-49473800D01*
X91173300Y-48374550D01*
X91427300Y-48374550D01*
X91427300Y-49473800D01*
X93306900Y-49473800D01*
X93306900Y-48374550D01*
X93148150Y-48215800D01*
X92682590Y-48215800D01*
X92449201Y-48312473D01*
X92367100Y-48394574D01*
X92284999Y-48312473D01*
X92051610Y-48215800D01*
X91586050Y-48215800D01*
X91427300Y-48374550D01*
X91173300Y-48374550D01*
X91014550Y-48215800D01*
X90548990Y-48215800D01*
X90315601Y-48312473D01*
X90210684Y-48417391D01*
X90165565Y-48387243D01*
X89917800Y-48337960D01*
X89346028Y-48337960D01*
X88957227Y-47949159D01*
X88957279Y-47889929D01*
X88800042Y-47509385D01*
X88637241Y-47346300D01*
X88925150Y-47346300D01*
X89083900Y-47187550D01*
X89083900Y-46088300D01*
X89337900Y-46088300D01*
X89337900Y-47187550D01*
X89496650Y-47346300D01*
X90937209Y-47346300D01*
X91170598Y-47249627D01*
X91349227Y-47070999D01*
X91445900Y-46837610D01*
X91445900Y-46247050D01*
X91287150Y-46088300D01*
X89337900Y-46088300D01*
X89083900Y-46088300D01*
X89063900Y-46088300D01*
X89063900Y-45834300D01*
X89083900Y-45834300D01*
X89083900Y-44735050D01*
X89337900Y-44735050D01*
X89337900Y-45834300D01*
X91287150Y-45834300D01*
X91445900Y-45675550D01*
X91445900Y-45084990D01*
X91349227Y-44851601D01*
X91170598Y-44672973D01*
X90937209Y-44576300D01*
X89496650Y-44576300D01*
X89337900Y-44735050D01*
X89083900Y-44735050D01*
X88925150Y-44576300D01*
X87484591Y-44576300D01*
X87251202Y-44672973D01*
X87209947Y-44714227D01*
X87058665Y-44613143D01*
X86810900Y-44563860D01*
X86245900Y-44563860D01*
X86245900Y-44425040D01*
X86988700Y-44425040D01*
X87236465Y-44375757D01*
X87387747Y-44274673D01*
X87429002Y-44315927D01*
X87662391Y-44412600D01*
X89102950Y-44412600D01*
X89261700Y-44253850D01*
X89261700Y-43154600D01*
X89515700Y-43154600D01*
X89515700Y-44253850D01*
X89674450Y-44412600D01*
X91115009Y-44412600D01*
X91348398Y-44315927D01*
X91527027Y-44137299D01*
X91623700Y-43903910D01*
X91623700Y-43390491D01*
X92351700Y-43390491D01*
X92351700Y-43981050D01*
X92510450Y-44139800D01*
X93484700Y-44139800D01*
X93484700Y-43040550D01*
X93325950Y-42881800D01*
X92860390Y-42881800D01*
X92627001Y-42978473D01*
X92448373Y-43157102D01*
X92351700Y-43390491D01*
X91623700Y-43390491D01*
X91623700Y-43313350D01*
X91464950Y-43154600D01*
X89515700Y-43154600D01*
X89261700Y-43154600D01*
X89241700Y-43154600D01*
X89241700Y-42900600D01*
X89261700Y-42900600D01*
X89261700Y-41801350D01*
X89515700Y-41801350D01*
X89515700Y-42900600D01*
X91464950Y-42900600D01*
X91623700Y-42741850D01*
X91623700Y-42151290D01*
X91527027Y-41917901D01*
X91348398Y-41739273D01*
X91115009Y-41642600D01*
X89674450Y-41642600D01*
X89515700Y-41801350D01*
X89261700Y-41801350D01*
X89102950Y-41642600D01*
X87662391Y-41642600D01*
X87429002Y-41739273D01*
X87387747Y-41780527D01*
X87236465Y-41679443D01*
X86988700Y-41630160D01*
X86423700Y-41630160D01*
X86423700Y-41580240D01*
X86988700Y-41580240D01*
X87236465Y-41530957D01*
X87387747Y-41429873D01*
X87429002Y-41471127D01*
X87662391Y-41567800D01*
X89102950Y-41567800D01*
X89261700Y-41409050D01*
X89261700Y-40309800D01*
X89515700Y-40309800D01*
X89515700Y-41409050D01*
X89674450Y-41567800D01*
X91115009Y-41567800D01*
X91348398Y-41471127D01*
X91527027Y-41292499D01*
X91623700Y-41059110D01*
X91623700Y-40468550D01*
X91464950Y-40309800D01*
X89515700Y-40309800D01*
X89261700Y-40309800D01*
X89241700Y-40309800D01*
X89241700Y-40055800D01*
X89261700Y-40055800D01*
X89261700Y-38956550D01*
X89515700Y-38956550D01*
X89515700Y-40055800D01*
X91464950Y-40055800D01*
X91623700Y-39897050D01*
X91623700Y-39306490D01*
X91527027Y-39073101D01*
X91348398Y-38894473D01*
X91115009Y-38797800D01*
X89674450Y-38797800D01*
X89515700Y-38956550D01*
X89261700Y-38956550D01*
X89102950Y-38797800D01*
X87662391Y-38797800D01*
X87429002Y-38894473D01*
X87387747Y-38935727D01*
X87236465Y-38834643D01*
X86988700Y-38785360D01*
X83788700Y-38785360D01*
X83540935Y-38834643D01*
X83330891Y-38974991D01*
X83190543Y-39185035D01*
X83141260Y-39432800D01*
X83141260Y-40932800D01*
X83190543Y-41180565D01*
X83330891Y-41390609D01*
X83540935Y-41530957D01*
X83788700Y-41580240D01*
X84175900Y-41580240D01*
X84175900Y-41630160D01*
X83788700Y-41630160D01*
X83540935Y-41679443D01*
X83330891Y-41819791D01*
X83190543Y-42029835D01*
X83141260Y-42277600D01*
X83141260Y-43777600D01*
X83190543Y-44025365D01*
X83330891Y-44235409D01*
X83540935Y-44375757D01*
X83788700Y-44425040D01*
X84175900Y-44425040D01*
X84175900Y-44563860D01*
X83610900Y-44563860D01*
X83363135Y-44613143D01*
X83153091Y-44753491D01*
X83012743Y-44963535D01*
X82963460Y-45211300D01*
X82963460Y-46711300D01*
X83012743Y-46959065D01*
X83153091Y-47169109D01*
X83363135Y-47309457D01*
X83610900Y-47358740D01*
X84175900Y-47358740D01*
X84175900Y-48634895D01*
X84175899Y-48634900D01*
X84254685Y-49030977D01*
X84479044Y-49366756D01*
X85706000Y-50593711D01*
X85706000Y-52463695D01*
X85705999Y-52463700D01*
X85784785Y-52859777D01*
X85809469Y-52896719D01*
X85678944Y-53027244D01*
X85454585Y-53363023D01*
X85375799Y-53759100D01*
X85375800Y-53759105D01*
X85375800Y-57223241D01*
X85302991Y-57271891D01*
X85162643Y-57481935D01*
X85113360Y-57729700D01*
X85113360Y-59229700D01*
X85162643Y-59477465D01*
X85302991Y-59687509D01*
X85513035Y-59827857D01*
X85522300Y-59829700D01*
X85513035Y-59831543D01*
X85302991Y-59971891D01*
X85180106Y-60155800D01*
X85004442Y-60155800D01*
X84991957Y-60093035D01*
X84851609Y-59882991D01*
X84641565Y-59742643D01*
X84613591Y-59737079D01*
X84753499Y-59679127D01*
X84932127Y-59500498D01*
X85028800Y-59267109D01*
X85028800Y-58676550D01*
X84870050Y-58517800D01*
X83870800Y-58517800D01*
X83870800Y-58537800D01*
X83616800Y-58537800D01*
X83616800Y-58517800D01*
X83596800Y-58517800D01*
X83596800Y-58263800D01*
X83616800Y-58263800D01*
X83616800Y-57164550D01*
X83870800Y-57164550D01*
X83870800Y-58263800D01*
X84870050Y-58263800D01*
X85028800Y-58105050D01*
X85028800Y-57514491D01*
X84932127Y-57281102D01*
X84753499Y-57102473D01*
X84520110Y-57005800D01*
X84029550Y-57005800D01*
X83870800Y-57164550D01*
X83616800Y-57164550D01*
X83458050Y-57005800D01*
X82967490Y-57005800D01*
X82734101Y-57102473D01*
X82555473Y-57281102D01*
X82458800Y-57514491D01*
X82458800Y-57998832D01*
X82360334Y-57900366D01*
X82349240Y-57892953D01*
X82349240Y-57740800D01*
X82299957Y-57493035D01*
X82159609Y-57282991D01*
X81949565Y-57142643D01*
X81701800Y-57093360D01*
X80451800Y-57093360D01*
X80204035Y-57142643D01*
X79993991Y-57282991D01*
X79853643Y-57493035D01*
X79804360Y-57740800D01*
X79804360Y-59240800D01*
X79853643Y-59488565D01*
X79993991Y-59698609D01*
X80057134Y-59740800D01*
X79993991Y-59782991D01*
X79853643Y-59993035D01*
X79804360Y-60240800D01*
X79804360Y-61740800D01*
X79853643Y-61988565D01*
X79993991Y-62198609D01*
X80204035Y-62338957D01*
X80401124Y-62378160D01*
X79372700Y-62378160D01*
X79255497Y-62401473D01*
X79314409Y-62362109D01*
X79454757Y-62152065D01*
X79504040Y-61904300D01*
X79504040Y-60404300D01*
X79454757Y-60156535D01*
X79314409Y-59946491D01*
X79104365Y-59806143D01*
X79076391Y-59800579D01*
X79216299Y-59742627D01*
X79394927Y-59563998D01*
X79491600Y-59330609D01*
X79491600Y-58740050D01*
X79332850Y-58581300D01*
X78333600Y-58581300D01*
X78333600Y-58601300D01*
X78079600Y-58601300D01*
X78079600Y-58581300D01*
X78059600Y-58581300D01*
X78059600Y-58327300D01*
X78079600Y-58327300D01*
X78079600Y-57228050D01*
X78333600Y-57228050D01*
X78333600Y-58327300D01*
X79332850Y-58327300D01*
X79491600Y-58168550D01*
X79491600Y-57577991D01*
X79394927Y-57344602D01*
X79216299Y-57165973D01*
X78982910Y-57069300D01*
X78492350Y-57069300D01*
X78333600Y-57228050D01*
X78079600Y-57228050D01*
X77920850Y-57069300D01*
X77613097Y-57069300D01*
X77470256Y-56088459D01*
X77482651Y-55642226D01*
X77482700Y-55638964D01*
X77485726Y-54184183D01*
X77542665Y-54172857D01*
X77752709Y-54032509D01*
X77893057Y-53822465D01*
X77942340Y-53574700D01*
X77942340Y-52074700D01*
X77893057Y-51826935D01*
X77752709Y-51616891D01*
X77691580Y-51576046D01*
X77833227Y-51434398D01*
X77929900Y-51201009D01*
X77929900Y-50610450D01*
X77771150Y-50451700D01*
X77493489Y-50451700D01*
X77494017Y-50197700D01*
X77771150Y-50197700D01*
X77929900Y-50038950D01*
X77929900Y-49538200D01*
X78001360Y-49538200D01*
X78001360Y-51038200D01*
X78050643Y-51285965D01*
X78190991Y-51496009D01*
X78401035Y-51636357D01*
X78410300Y-51638200D01*
X78401035Y-51640043D01*
X78190991Y-51780391D01*
X78050643Y-51990435D01*
X78001360Y-52238200D01*
X78001360Y-53738200D01*
X78050643Y-53985965D01*
X78190991Y-54196009D01*
X78401035Y-54336357D01*
X78648800Y-54385640D01*
X79948800Y-54385640D01*
X80196565Y-54336357D01*
X80406609Y-54196009D01*
X80546957Y-53985965D01*
X80570360Y-53868309D01*
X80570360Y-53935400D01*
X80619643Y-54183165D01*
X80759991Y-54393209D01*
X80970035Y-54533557D01*
X81217800Y-54582840D01*
X82417800Y-54582840D01*
X82665565Y-54533557D01*
X82875609Y-54393209D01*
X83015957Y-54183165D01*
X83065240Y-53935400D01*
X83065240Y-53535400D01*
X83040376Y-53410400D01*
X83065240Y-53285400D01*
X83065240Y-53270400D01*
X83145758Y-53270400D01*
X83511623Y-53422320D01*
X83923371Y-53422679D01*
X84303915Y-53265442D01*
X84595319Y-52974546D01*
X84753220Y-52594277D01*
X84753447Y-52334058D01*
X84773815Y-52325642D01*
X85065219Y-52034746D01*
X85223120Y-51654477D01*
X85223479Y-51242729D01*
X85066242Y-50862185D01*
X84775346Y-50570781D01*
X84395077Y-50412880D01*
X83983329Y-50412521D01*
X83602785Y-50569758D01*
X83559768Y-50612700D01*
X83146900Y-50612700D01*
X83065240Y-50628943D01*
X83065240Y-50285400D01*
X83040376Y-50160400D01*
X83065240Y-50035400D01*
X83065240Y-49635400D01*
X83040376Y-49510400D01*
X83065240Y-49385400D01*
X83065240Y-48985400D01*
X83015957Y-48737635D01*
X82875609Y-48527591D01*
X82665565Y-48387243D01*
X82417800Y-48337960D01*
X81217800Y-48337960D01*
X80970035Y-48387243D01*
X80759991Y-48527591D01*
X80619643Y-48737635D01*
X80570360Y-48985400D01*
X80570360Y-49385400D01*
X80595224Y-49510400D01*
X80592967Y-49521746D01*
X80546957Y-49290435D01*
X80406609Y-49080391D01*
X80196565Y-48940043D01*
X79948800Y-48890760D01*
X78648800Y-48890760D01*
X78401035Y-48940043D01*
X78190991Y-49080391D01*
X78050643Y-49290435D01*
X78001360Y-49538200D01*
X77929900Y-49538200D01*
X77929900Y-49448391D01*
X77833227Y-49215002D01*
X77654599Y-49036373D01*
X77496569Y-48970915D01*
X77499403Y-47608169D01*
X77534306Y-47555932D01*
X77732765Y-47516457D01*
X77942809Y-47376109D01*
X78083157Y-47166065D01*
X78132440Y-46918300D01*
X78132440Y-45418300D01*
X78083157Y-45170535D01*
X77942809Y-44960491D01*
X77732765Y-44820143D01*
X77723500Y-44818300D01*
X77732765Y-44816457D01*
X77942809Y-44676109D01*
X78083157Y-44466065D01*
X78132440Y-44218300D01*
X78132440Y-42718300D01*
X78083157Y-42470535D01*
X77942809Y-42260491D01*
X77770000Y-42145023D01*
X77770000Y-40030400D01*
X77698827Y-39672591D01*
X77516475Y-39399682D01*
X77518998Y-38186680D01*
X77590420Y-38014677D01*
X77590779Y-37602929D01*
X77520566Y-37433000D01*
X77521082Y-37184650D01*
X79461200Y-37184650D01*
X79461200Y-37775209D01*
X79557873Y-38008598D01*
X79736501Y-38187227D01*
X79969890Y-38283900D01*
X80435450Y-38283900D01*
X80594200Y-38125150D01*
X80594200Y-37025900D01*
X80848200Y-37025900D01*
X80848200Y-38125150D01*
X81006950Y-38283900D01*
X81472510Y-38283900D01*
X81705899Y-38187227D01*
X81884527Y-38008598D01*
X81981200Y-37775209D01*
X81981200Y-37217350D01*
X82918300Y-37217350D01*
X82918300Y-37311909D01*
X83014973Y-37545298D01*
X83193601Y-37723927D01*
X83426990Y-37820600D01*
X83839050Y-37820600D01*
X83997800Y-37661850D01*
X83997800Y-37058600D01*
X84251800Y-37058600D01*
X84251800Y-37661850D01*
X84410550Y-37820600D01*
X84822610Y-37820600D01*
X85055999Y-37723927D01*
X85234627Y-37545298D01*
X85331300Y-37311909D01*
X85331300Y-37217350D01*
X85172550Y-37058600D01*
X84251800Y-37058600D01*
X83997800Y-37058600D01*
X83077050Y-37058600D01*
X82918300Y-37217350D01*
X81981200Y-37217350D01*
X81981200Y-37184650D01*
X81822450Y-37025900D01*
X80848200Y-37025900D01*
X80594200Y-37025900D01*
X79619950Y-37025900D01*
X79461200Y-37184650D01*
X77521082Y-37184650D01*
X77532959Y-31474353D01*
X78673361Y-30333950D01*
X79597700Y-30333950D01*
X79597700Y-30924510D01*
X79694373Y-31157899D01*
X79873002Y-31336527D01*
X80106391Y-31433200D01*
X81546950Y-31433200D01*
X81705700Y-31274450D01*
X81705700Y-30175200D01*
X79756450Y-30175200D01*
X79597700Y-30333950D01*
X78673361Y-30333950D01*
X79597700Y-29409611D01*
X79597700Y-29762450D01*
X79756450Y-29921200D01*
X81705700Y-29921200D01*
X81705700Y-28821950D01*
X81546950Y-28663200D01*
X80961326Y-28663200D01*
X81002977Y-28654915D01*
X81338756Y-28430556D01*
X82126978Y-27642334D01*
X82169000Y-27650693D01*
X82737285Y-27537654D01*
X83219054Y-27215747D01*
X83439000Y-26886574D01*
X83658946Y-27215747D01*
X84140715Y-27537654D01*
X84709000Y-27650693D01*
X84751023Y-27642334D01*
X84797700Y-27689011D01*
X84797700Y-28650760D01*
X84232700Y-28650760D01*
X83984935Y-28700043D01*
X83833653Y-28801127D01*
X83792398Y-28759873D01*
X83559009Y-28663200D01*
X82118450Y-28663200D01*
X81959700Y-28821950D01*
X81959700Y-29921200D01*
X81979700Y-29921200D01*
X81979700Y-30175200D01*
X81959700Y-30175200D01*
X81959700Y-31274450D01*
X82118450Y-31433200D01*
X83559009Y-31433200D01*
X83792398Y-31336527D01*
X83833653Y-31295273D01*
X83984935Y-31396357D01*
X84232700Y-31445640D01*
X85680600Y-31445640D01*
X85680600Y-33226289D01*
X85550288Y-33356600D01*
X85343740Y-33356600D01*
X85343740Y-32867600D01*
X85294457Y-32619835D01*
X85154109Y-32409791D01*
X84944065Y-32269443D01*
X84696300Y-32220160D01*
X83553300Y-32220160D01*
X83305535Y-32269443D01*
X83095491Y-32409791D01*
X82955143Y-32619835D01*
X82905860Y-32867600D01*
X82905860Y-33363900D01*
X81919477Y-33363900D01*
X81804009Y-33191091D01*
X81593965Y-33050743D01*
X81346200Y-33001460D01*
X80096200Y-33001460D01*
X79848435Y-33050743D01*
X79638391Y-33191091D01*
X79498043Y-33401135D01*
X79448760Y-33648900D01*
X79448760Y-35148900D01*
X79498043Y-35396665D01*
X79638391Y-35606709D01*
X79699520Y-35647554D01*
X79557873Y-35789202D01*
X79461200Y-36022591D01*
X79461200Y-36613150D01*
X79619950Y-36771900D01*
X80594200Y-36771900D01*
X80594200Y-36751900D01*
X80848200Y-36751900D01*
X80848200Y-36771900D01*
X81822450Y-36771900D01*
X81981200Y-36613150D01*
X81981200Y-36022591D01*
X81884527Y-35789202D01*
X81742880Y-35647554D01*
X81804009Y-35606709D01*
X81919477Y-35433900D01*
X82905860Y-35433900D01*
X82905860Y-35915600D01*
X82955143Y-36163365D01*
X83041007Y-36291868D01*
X83014973Y-36317902D01*
X82918300Y-36551291D01*
X82918300Y-36645850D01*
X83077050Y-36804600D01*
X83997800Y-36804600D01*
X83997800Y-36784600D01*
X84251800Y-36784600D01*
X84251800Y-36804600D01*
X85172550Y-36804600D01*
X85331300Y-36645850D01*
X85331300Y-36551291D01*
X85234627Y-36317902D01*
X85208593Y-36291868D01*
X85294457Y-36163365D01*
X85343740Y-35915600D01*
X85343740Y-35426600D01*
X85978995Y-35426600D01*
X85979000Y-35426601D01*
X86375077Y-35347815D01*
X86710856Y-35123456D01*
X87447453Y-34386858D01*
X87447456Y-34386856D01*
X87671815Y-34051077D01*
X87681413Y-34002823D01*
X87750601Y-33655000D01*
X87750600Y-33654995D01*
X87750600Y-31349494D01*
X87890509Y-31256009D01*
X88030857Y-31045965D01*
X88080140Y-30798200D01*
X88080140Y-29298200D01*
X88030857Y-29050435D01*
X87890509Y-28840391D01*
X87680465Y-28700043D01*
X87432700Y-28650760D01*
X86867700Y-28650760D01*
X86867700Y-27260305D01*
X86867701Y-27260300D01*
X86788915Y-26864223D01*
X86707573Y-26742485D01*
X86564556Y-26528444D01*
X86564553Y-26528442D01*
X86194000Y-26157889D01*
X86194000Y-26107507D01*
X86080961Y-25539222D01*
X85759054Y-25057453D01*
X85277285Y-24735546D01*
X84709000Y-24622507D01*
X84140715Y-24735546D01*
X83658946Y-25057453D01*
X83439000Y-25386626D01*
X83219054Y-25057453D01*
X82737285Y-24735546D01*
X82433982Y-24675215D01*
X92430709Y-23557934D01*
X95456426Y-38557215D01*
G36*
X89444800Y-51282400D02*
X89190800Y-51282400D01*
X89190800Y-50988400D01*
X89444800Y-50988400D01*
X89444800Y-51282400D01*
X89444800Y-51282400D01*
G37*
X89444800Y-51282400D02*
X89190800Y-51282400D01*
X89190800Y-50988400D01*
X89444800Y-50988400D01*
X89444800Y-51282400D01*
G36*
X79756000Y-26009600D02*
X79776000Y-26009600D01*
X79776000Y-26263600D01*
X79756000Y-26263600D01*
X79756000Y-26283600D01*
X79502000Y-26283600D01*
X79502000Y-26263600D01*
X79482000Y-26263600D01*
X79482000Y-26009600D01*
X79502000Y-26009600D01*
X79502000Y-25989600D01*
X79756000Y-25989600D01*
X79756000Y-26009600D01*
X79756000Y-26009600D01*
G37*
X79756000Y-26009600D02*
X79776000Y-26009600D01*
X79776000Y-26263600D01*
X79756000Y-26263600D01*
X79756000Y-26283600D01*
X79502000Y-26283600D01*
X79502000Y-26263600D01*
X79482000Y-26263600D01*
X79482000Y-26009600D01*
X79502000Y-26009600D01*
X79502000Y-25989600D01*
X79756000Y-25989600D01*
X79756000Y-26009600D01*
G36*
X62552244Y-60713956D02*
X62933244Y-61094955D01*
X63269022Y-61319315D01*
X63446900Y-61354697D01*
X63446900Y-61363850D01*
X63605650Y-61522600D01*
X64604900Y-61522600D01*
X64604900Y-61502600D01*
X64858900Y-61502600D01*
X64858900Y-61522600D01*
X64878900Y-61522600D01*
X64878900Y-61776600D01*
X64858900Y-61776600D01*
X64858900Y-62875850D01*
X65017650Y-63034600D01*
X65508210Y-63034600D01*
X65741599Y-62937927D01*
X65920227Y-62759298D01*
X66016900Y-62525909D01*
X66016900Y-61935350D01*
X65858152Y-61776602D01*
X65996052Y-61776602D01*
X66135250Y-61804290D01*
X66285900Y-61804290D01*
X66936702Y-62455092D01*
X66923243Y-62475235D01*
X66873960Y-62723000D01*
X66873960Y-64023000D01*
X66923243Y-64270765D01*
X67063591Y-64480809D01*
X67273635Y-64621157D01*
X67521400Y-64670440D01*
X69021400Y-64670440D01*
X69269165Y-64621157D01*
X69479209Y-64480809D01*
X69619557Y-64270765D01*
X69621400Y-64261500D01*
X69623243Y-64270765D01*
X69763591Y-64480809D01*
X69973635Y-64621157D01*
X70049616Y-64636270D01*
X70036543Y-64655835D01*
X69987260Y-64903600D01*
X69987260Y-66403600D01*
X70036543Y-66651365D01*
X70176891Y-66861409D01*
X70240034Y-66903600D01*
X70176891Y-66945791D01*
X70036543Y-67155835D01*
X69987260Y-67403600D01*
X69987260Y-68903600D01*
X70036543Y-69151365D01*
X70176891Y-69361409D01*
X70386935Y-69501757D01*
X70439000Y-69512113D01*
X70439000Y-73358863D01*
X68265732Y-73306284D01*
X62796569Y-62367958D01*
X62723494Y-61935350D01*
X63446900Y-61935350D01*
X63446900Y-62525909D01*
X63543573Y-62759298D01*
X63722201Y-62937927D01*
X63955590Y-63034600D01*
X64446150Y-63034600D01*
X64604900Y-62875850D01*
X64604900Y-61776600D01*
X63605650Y-61776600D01*
X63446900Y-61935350D01*
X62723494Y-61935350D01*
X62505312Y-60643717D01*
X62552244Y-60713956D01*
X62552244Y-60713956D01*
G37*
X62552244Y-60713956D02*
X62933244Y-61094955D01*
X63269022Y-61319315D01*
X63446900Y-61354697D01*
X63446900Y-61363850D01*
X63605650Y-61522600D01*
X64604900Y-61522600D01*
X64604900Y-61502600D01*
X64858900Y-61502600D01*
X64858900Y-61522600D01*
X64878900Y-61522600D01*
X64878900Y-61776600D01*
X64858900Y-61776600D01*
X64858900Y-62875850D01*
X65017650Y-63034600D01*
X65508210Y-63034600D01*
X65741599Y-62937927D01*
X65920227Y-62759298D01*
X66016900Y-62525909D01*
X66016900Y-61935350D01*
X65858152Y-61776602D01*
X65996052Y-61776602D01*
X66135250Y-61804290D01*
X66285900Y-61804290D01*
X66936702Y-62455092D01*
X66923243Y-62475235D01*
X66873960Y-62723000D01*
X66873960Y-64023000D01*
X66923243Y-64270765D01*
X67063591Y-64480809D01*
X67273635Y-64621157D01*
X67521400Y-64670440D01*
X69021400Y-64670440D01*
X69269165Y-64621157D01*
X69479209Y-64480809D01*
X69619557Y-64270765D01*
X69621400Y-64261500D01*
X69623243Y-64270765D01*
X69763591Y-64480809D01*
X69973635Y-64621157D01*
X70049616Y-64636270D01*
X70036543Y-64655835D01*
X69987260Y-64903600D01*
X69987260Y-66403600D01*
X70036543Y-66651365D01*
X70176891Y-66861409D01*
X70240034Y-66903600D01*
X70176891Y-66945791D01*
X70036543Y-67155835D01*
X69987260Y-67403600D01*
X69987260Y-68903600D01*
X70036543Y-69151365D01*
X70176891Y-69361409D01*
X70386935Y-69501757D01*
X70439000Y-69512113D01*
X70439000Y-73358863D01*
X68265732Y-73306284D01*
X62796569Y-62367958D01*
X62723494Y-61935350D01*
X63446900Y-61935350D01*
X63446900Y-62525909D01*
X63543573Y-62759298D01*
X63722201Y-62937927D01*
X63955590Y-63034600D01*
X64446150Y-63034600D01*
X64604900Y-62875850D01*
X64604900Y-61776600D01*
X63605650Y-61776600D01*
X63446900Y-61935350D01*
X62723494Y-61935350D01*
X62505312Y-60643717D01*
X62552244Y-60713956D01*
G36*
X72565360Y-66403600D02*
X72614643Y-66651365D01*
X72754991Y-66861409D01*
X72818134Y-66903600D01*
X72754991Y-66945791D01*
X72614643Y-67155835D01*
X72565360Y-67403600D01*
X72565360Y-68903600D01*
X72614643Y-69151365D01*
X72754991Y-69361409D01*
X72965035Y-69501757D01*
X73212800Y-69551040D01*
X73912950Y-69551040D01*
X74517455Y-70155545D01*
X74820791Y-70358227D01*
X74856098Y-70365250D01*
X75178600Y-70429401D01*
X75178605Y-70429400D01*
X75245074Y-70429400D01*
X75192673Y-70481801D01*
X75096000Y-70715190D01*
X75096000Y-71405750D01*
X75254750Y-71564500D01*
X76454000Y-71564500D01*
X76454000Y-71544500D01*
X76708000Y-71544500D01*
X76708000Y-71564500D01*
X77907250Y-71564500D01*
X78066000Y-71405750D01*
X78066000Y-70715190D01*
X77969327Y-70481801D01*
X77916926Y-70429400D01*
X78174910Y-70429400D01*
X78654520Y-70909010D01*
X78913039Y-72598000D01*
X78066000Y-72598000D01*
X78066000Y-71977250D01*
X77907250Y-71818500D01*
X76708000Y-71818500D01*
X76708000Y-71838500D01*
X76454000Y-71838500D01*
X76454000Y-71818500D01*
X75254750Y-71818500D01*
X75096000Y-71977250D01*
X75096000Y-72598000D01*
X72309000Y-72598000D01*
X72309000Y-69383799D01*
X72342509Y-69361409D01*
X72482857Y-69151365D01*
X72532140Y-68903600D01*
X72532140Y-67403600D01*
X72482857Y-67155835D01*
X72342509Y-66945791D01*
X72279366Y-66903600D01*
X72342509Y-66861409D01*
X72482857Y-66651365D01*
X72532140Y-66403600D01*
X72532140Y-65861250D01*
X72565360Y-65828030D01*
X72565360Y-66403600D01*
X72565360Y-66403600D01*
G37*
X72565360Y-66403600D02*
X72614643Y-66651365D01*
X72754991Y-66861409D01*
X72818134Y-66903600D01*
X72754991Y-66945791D01*
X72614643Y-67155835D01*
X72565360Y-67403600D01*
X72565360Y-68903600D01*
X72614643Y-69151365D01*
X72754991Y-69361409D01*
X72965035Y-69501757D01*
X73212800Y-69551040D01*
X73912950Y-69551040D01*
X74517455Y-70155545D01*
X74820791Y-70358227D01*
X74856098Y-70365250D01*
X75178600Y-70429401D01*
X75178605Y-70429400D01*
X75245074Y-70429400D01*
X75192673Y-70481801D01*
X75096000Y-70715190D01*
X75096000Y-71405750D01*
X75254750Y-71564500D01*
X76454000Y-71564500D01*
X76454000Y-71544500D01*
X76708000Y-71544500D01*
X76708000Y-71564500D01*
X77907250Y-71564500D01*
X78066000Y-71405750D01*
X78066000Y-70715190D01*
X77969327Y-70481801D01*
X77916926Y-70429400D01*
X78174910Y-70429400D01*
X78654520Y-70909010D01*
X78913039Y-72598000D01*
X78066000Y-72598000D01*
X78066000Y-71977250D01*
X77907250Y-71818500D01*
X76708000Y-71818500D01*
X76708000Y-71838500D01*
X76454000Y-71838500D01*
X76454000Y-71818500D01*
X75254750Y-71818500D01*
X75096000Y-71977250D01*
X75096000Y-72598000D01*
X72309000Y-72598000D01*
X72309000Y-69383799D01*
X72342509Y-69361409D01*
X72482857Y-69151365D01*
X72532140Y-68903600D01*
X72532140Y-67403600D01*
X72482857Y-67155835D01*
X72342509Y-66945791D01*
X72279366Y-66903600D01*
X72342509Y-66861409D01*
X72482857Y-66651365D01*
X72532140Y-66403600D01*
X72532140Y-65861250D01*
X72565360Y-65828030D01*
X72565360Y-66403600D01*
G36*
X71139100Y-41732195D02*
X71139099Y-41732200D01*
X71217885Y-42128277D01*
X71442244Y-42464056D01*
X71695119Y-42716931D01*
X71662835Y-42753966D01*
X71607344Y-42791044D01*
X71531281Y-42904881D01*
X71441324Y-43008077D01*
X70673849Y-44346590D01*
X70646762Y-44371072D01*
X70540544Y-44442044D01*
X70498320Y-44505237D01*
X70441935Y-44556199D01*
X70387155Y-44671608D01*
X70316185Y-44777823D01*
X70301358Y-44852365D01*
X70268768Y-44921024D01*
X70262323Y-45048605D01*
X70237400Y-45173900D01*
X70237400Y-45383450D01*
X70264109Y-45517723D01*
X70273470Y-45654310D01*
X70303166Y-45714077D01*
X70312676Y-45761886D01*
X70642093Y-48004047D01*
X70684962Y-48124385D01*
X70709885Y-48249677D01*
X70752109Y-48312870D01*
X70777614Y-48384465D01*
X70863272Y-48479238D01*
X70934244Y-48585456D01*
X71985188Y-49636400D01*
X71856600Y-49636400D01*
X71687883Y-49669960D01*
X71285100Y-49669960D01*
X71037335Y-49719243D01*
X70827291Y-49859591D01*
X70686943Y-50069635D01*
X70637660Y-50317400D01*
X70637660Y-50825400D01*
X70686943Y-51073165D01*
X70775968Y-51206400D01*
X70686943Y-51339635D01*
X70637660Y-51587400D01*
X70637660Y-52095400D01*
X70686943Y-52343165D01*
X70772807Y-52471668D01*
X70746773Y-52497702D01*
X70650100Y-52731091D01*
X70650100Y-52825650D01*
X70808850Y-52984400D01*
X71729600Y-52984400D01*
X71729600Y-52964400D01*
X71983600Y-52964400D01*
X71983600Y-52984400D01*
X72003600Y-52984400D01*
X72003600Y-53238400D01*
X71983600Y-53238400D01*
X71983600Y-53258400D01*
X71729600Y-53258400D01*
X71729600Y-53238400D01*
X70808850Y-53238400D01*
X70650100Y-53397150D01*
X70650100Y-53491709D01*
X70679750Y-53563291D01*
X70310777Y-53410080D01*
X69899029Y-53409721D01*
X69518485Y-53566958D01*
X69227081Y-53857854D01*
X69069180Y-54238123D01*
X69068821Y-54649871D01*
X69169000Y-54892324D01*
X69169000Y-55886410D01*
X68979119Y-56076291D01*
X69043320Y-55921677D01*
X69043679Y-55509929D01*
X68886442Y-55129385D01*
X68595546Y-54837981D01*
X68215277Y-54680080D01*
X67803529Y-54679721D01*
X67561076Y-54779900D01*
X66696797Y-54779900D01*
X66725540Y-54635400D01*
X66725540Y-54127400D01*
X66676257Y-53879635D01*
X66587232Y-53746400D01*
X66676257Y-53613165D01*
X66725540Y-53365400D01*
X66725540Y-52857400D01*
X66676257Y-52609635D01*
X66590393Y-52481132D01*
X66616427Y-52455098D01*
X66713100Y-52221709D01*
X66713100Y-52127150D01*
X66554350Y-51968400D01*
X65633600Y-51968400D01*
X65633600Y-51988400D01*
X65379600Y-51988400D01*
X65379600Y-51968400D01*
X65359600Y-51968400D01*
X65359600Y-51714400D01*
X65379600Y-51714400D01*
X65379600Y-51694400D01*
X65633600Y-51694400D01*
X65633600Y-51714400D01*
X66554350Y-51714400D01*
X66713100Y-51555650D01*
X66713100Y-51461091D01*
X66616427Y-51227702D01*
X66590393Y-51201668D01*
X66676257Y-51073165D01*
X66725540Y-50825400D01*
X66725540Y-50556276D01*
X67334378Y-50583051D01*
X67357200Y-50579546D01*
X67379850Y-50584051D01*
X67556018Y-50549008D01*
X67733534Y-50521743D01*
X67753279Y-50509770D01*
X67775927Y-50505265D01*
X67925262Y-50405483D01*
X68078846Y-50312353D01*
X68092506Y-50293735D01*
X68111706Y-50280906D01*
X69680153Y-48712458D01*
X69680156Y-48712456D01*
X69868681Y-48430307D01*
X69904515Y-48376678D01*
X69983300Y-47980600D01*
X69983300Y-46685205D01*
X69983301Y-46685200D01*
X69904515Y-46289123D01*
X69880148Y-46252655D01*
X69680156Y-45953344D01*
X69680153Y-45953342D01*
X69658844Y-45932033D01*
X69688615Y-45887477D01*
X69710088Y-45779527D01*
X69767401Y-45491400D01*
X69767400Y-45491395D01*
X69767400Y-43129205D01*
X69767401Y-43129200D01*
X69688615Y-42733123D01*
X69678711Y-42718300D01*
X69464256Y-42397344D01*
X69464253Y-42397342D01*
X68455952Y-41389040D01*
X69138800Y-41389040D01*
X69386565Y-41339757D01*
X69596609Y-41199409D01*
X69736957Y-40989365D01*
X69786240Y-40741600D01*
X69786240Y-40233600D01*
X69754064Y-40071841D01*
X71081695Y-39299400D01*
X71139100Y-39248716D01*
X71139100Y-41732195D01*
X71139100Y-41732195D01*
G37*
X71139100Y-41732195D02*
X71139099Y-41732200D01*
X71217885Y-42128277D01*
X71442244Y-42464056D01*
X71695119Y-42716931D01*
X71662835Y-42753966D01*
X71607344Y-42791044D01*
X71531281Y-42904881D01*
X71441324Y-43008077D01*
X70673849Y-44346590D01*
X70646762Y-44371072D01*
X70540544Y-44442044D01*
X70498320Y-44505237D01*
X70441935Y-44556199D01*
X70387155Y-44671608D01*
X70316185Y-44777823D01*
X70301358Y-44852365D01*
X70268768Y-44921024D01*
X70262323Y-45048605D01*
X70237400Y-45173900D01*
X70237400Y-45383450D01*
X70264109Y-45517723D01*
X70273470Y-45654310D01*
X70303166Y-45714077D01*
X70312676Y-45761886D01*
X70642093Y-48004047D01*
X70684962Y-48124385D01*
X70709885Y-48249677D01*
X70752109Y-48312870D01*
X70777614Y-48384465D01*
X70863272Y-48479238D01*
X70934244Y-48585456D01*
X71985188Y-49636400D01*
X71856600Y-49636400D01*
X71687883Y-49669960D01*
X71285100Y-49669960D01*
X71037335Y-49719243D01*
X70827291Y-49859591D01*
X70686943Y-50069635D01*
X70637660Y-50317400D01*
X70637660Y-50825400D01*
X70686943Y-51073165D01*
X70775968Y-51206400D01*
X70686943Y-51339635D01*
X70637660Y-51587400D01*
X70637660Y-52095400D01*
X70686943Y-52343165D01*
X70772807Y-52471668D01*
X70746773Y-52497702D01*
X70650100Y-52731091D01*
X70650100Y-52825650D01*
X70808850Y-52984400D01*
X71729600Y-52984400D01*
X71729600Y-52964400D01*
X71983600Y-52964400D01*
X71983600Y-52984400D01*
X72003600Y-52984400D01*
X72003600Y-53238400D01*
X71983600Y-53238400D01*
X71983600Y-53258400D01*
X71729600Y-53258400D01*
X71729600Y-53238400D01*
X70808850Y-53238400D01*
X70650100Y-53397150D01*
X70650100Y-53491709D01*
X70679750Y-53563291D01*
X70310777Y-53410080D01*
X69899029Y-53409721D01*
X69518485Y-53566958D01*
X69227081Y-53857854D01*
X69069180Y-54238123D01*
X69068821Y-54649871D01*
X69169000Y-54892324D01*
X69169000Y-55886410D01*
X68979119Y-56076291D01*
X69043320Y-55921677D01*
X69043679Y-55509929D01*
X68886442Y-55129385D01*
X68595546Y-54837981D01*
X68215277Y-54680080D01*
X67803529Y-54679721D01*
X67561076Y-54779900D01*
X66696797Y-54779900D01*
X66725540Y-54635400D01*
X66725540Y-54127400D01*
X66676257Y-53879635D01*
X66587232Y-53746400D01*
X66676257Y-53613165D01*
X66725540Y-53365400D01*
X66725540Y-52857400D01*
X66676257Y-52609635D01*
X66590393Y-52481132D01*
X66616427Y-52455098D01*
X66713100Y-52221709D01*
X66713100Y-52127150D01*
X66554350Y-51968400D01*
X65633600Y-51968400D01*
X65633600Y-51988400D01*
X65379600Y-51988400D01*
X65379600Y-51968400D01*
X65359600Y-51968400D01*
X65359600Y-51714400D01*
X65379600Y-51714400D01*
X65379600Y-51694400D01*
X65633600Y-51694400D01*
X65633600Y-51714400D01*
X66554350Y-51714400D01*
X66713100Y-51555650D01*
X66713100Y-51461091D01*
X66616427Y-51227702D01*
X66590393Y-51201668D01*
X66676257Y-51073165D01*
X66725540Y-50825400D01*
X66725540Y-50556276D01*
X67334378Y-50583051D01*
X67357200Y-50579546D01*
X67379850Y-50584051D01*
X67556018Y-50549008D01*
X67733534Y-50521743D01*
X67753279Y-50509770D01*
X67775927Y-50505265D01*
X67925262Y-50405483D01*
X68078846Y-50312353D01*
X68092506Y-50293735D01*
X68111706Y-50280906D01*
X69680153Y-48712458D01*
X69680156Y-48712456D01*
X69868681Y-48430307D01*
X69904515Y-48376678D01*
X69983300Y-47980600D01*
X69983300Y-46685205D01*
X69983301Y-46685200D01*
X69904515Y-46289123D01*
X69880148Y-46252655D01*
X69680156Y-45953344D01*
X69680153Y-45953342D01*
X69658844Y-45932033D01*
X69688615Y-45887477D01*
X69710088Y-45779527D01*
X69767401Y-45491400D01*
X69767400Y-45491395D01*
X69767400Y-43129205D01*
X69767401Y-43129200D01*
X69688615Y-42733123D01*
X69678711Y-42718300D01*
X69464256Y-42397344D01*
X69464253Y-42397342D01*
X68455952Y-41389040D01*
X69138800Y-41389040D01*
X69386565Y-41339757D01*
X69596609Y-41199409D01*
X69736957Y-40989365D01*
X69786240Y-40741600D01*
X69786240Y-40233600D01*
X69754064Y-40071841D01*
X71081695Y-39299400D01*
X71139100Y-39248716D01*
X71139100Y-41732195D01*
G36*
X73161791Y-54132509D02*
X73371835Y-54272857D01*
X73619600Y-54322140D01*
X74591900Y-54322140D01*
X74591900Y-54919600D01*
X73395971Y-54919600D01*
X73155577Y-54819780D01*
X73038885Y-54819678D01*
X73075540Y-54635400D01*
X73075540Y-54127400D01*
X73040428Y-53950878D01*
X73161791Y-54132509D01*
X73161791Y-54132509D01*
G37*
X73161791Y-54132509D02*
X73371835Y-54272857D01*
X73619600Y-54322140D01*
X74591900Y-54322140D01*
X74591900Y-54919600D01*
X73395971Y-54919600D01*
X73155577Y-54819780D01*
X73038885Y-54819678D01*
X73075540Y-54635400D01*
X73075540Y-54127400D01*
X73040428Y-53950878D01*
X73161791Y-54132509D01*
G36*
X73950052Y-30239258D02*
X73709485Y-30338658D01*
X73418081Y-30629554D01*
X73358245Y-30773655D01*
X73013045Y-30428455D01*
X72824113Y-30302215D01*
X72802157Y-30191835D01*
X72661809Y-29981791D01*
X72451765Y-29841443D01*
X72204000Y-29792160D01*
X70704000Y-29792160D01*
X70456235Y-29841443D01*
X70246191Y-29981791D01*
X70105843Y-30191835D01*
X70100279Y-30219809D01*
X70042327Y-30079901D01*
X69863698Y-29901273D01*
X69630309Y-29804600D01*
X69039750Y-29804600D01*
X68881000Y-29963350D01*
X68881000Y-30962600D01*
X68901000Y-30962600D01*
X68901000Y-31216600D01*
X68881000Y-31216600D01*
X68881000Y-31236600D01*
X68627000Y-31236600D01*
X68627000Y-31216600D01*
X67527750Y-31216600D01*
X67369000Y-31375350D01*
X67369000Y-31865910D01*
X67465673Y-32099299D01*
X67644302Y-32277927D01*
X67877691Y-32374600D01*
X68106310Y-32374600D01*
X67551540Y-32929370D01*
X67495427Y-32793902D01*
X67316799Y-32615273D01*
X67083410Y-32518600D01*
X66617850Y-32518600D01*
X66459100Y-32677350D01*
X66459100Y-33776600D01*
X66479100Y-33776600D01*
X66479100Y-34030600D01*
X66459100Y-34030600D01*
X66459100Y-34050600D01*
X66205100Y-34050600D01*
X66205100Y-34030600D01*
X65230850Y-34030600D01*
X65137300Y-34124150D01*
X64994550Y-33981400D01*
X63995300Y-33981400D01*
X63995300Y-34001400D01*
X63741300Y-34001400D01*
X63741300Y-33981400D01*
X62742050Y-33981400D01*
X62583300Y-34140150D01*
X62583300Y-34730709D01*
X62679973Y-34964098D01*
X62858601Y-35142727D01*
X62998509Y-35200679D01*
X62970535Y-35206243D01*
X62760491Y-35346591D01*
X62620143Y-35556635D01*
X62570860Y-35804400D01*
X62570860Y-36790946D01*
X62539600Y-36948100D01*
X62539600Y-47409100D01*
X62610773Y-47766909D01*
X62813455Y-48070245D01*
X63134755Y-48391545D01*
X63436521Y-48593178D01*
X63359804Y-48639697D01*
X63346142Y-48658317D01*
X63326944Y-48671145D01*
X62577644Y-49420444D01*
X62353285Y-49756223D01*
X62274499Y-50152300D01*
X62274500Y-50152305D01*
X62274500Y-52155941D01*
X62201691Y-52204591D01*
X62061343Y-52414635D01*
X62012060Y-52662400D01*
X62012060Y-52881629D01*
X61312343Y-53581345D01*
X60578250Y-49235512D01*
X59428736Y-32978091D01*
X62583300Y-32978091D01*
X62583300Y-33568650D01*
X62742050Y-33727400D01*
X63741300Y-33727400D01*
X63741300Y-32628150D01*
X63995300Y-32628150D01*
X63995300Y-33727400D01*
X64994550Y-33727400D01*
X65088100Y-33633850D01*
X65230850Y-33776600D01*
X66205100Y-33776600D01*
X66205100Y-32677350D01*
X66046350Y-32518600D01*
X65580790Y-32518600D01*
X65347401Y-32615273D01*
X65168773Y-32793902D01*
X65122890Y-32904674D01*
X65056627Y-32744702D01*
X64877999Y-32566073D01*
X64644610Y-32469400D01*
X64154050Y-32469400D01*
X63995300Y-32628150D01*
X63741300Y-32628150D01*
X63582550Y-32469400D01*
X63091990Y-32469400D01*
X62858601Y-32566073D01*
X62679973Y-32744702D01*
X62583300Y-32978091D01*
X59428736Y-32978091D01*
X59334084Y-31639443D01*
X59319070Y-31587912D01*
X58628650Y-30313290D01*
X67369000Y-30313290D01*
X67369000Y-30803850D01*
X67527750Y-30962600D01*
X68627000Y-30962600D01*
X68627000Y-29963350D01*
X68468250Y-29804600D01*
X67877691Y-29804600D01*
X67644302Y-29901273D01*
X67465673Y-30079901D01*
X67369000Y-30313290D01*
X58628650Y-30313290D01*
X58264375Y-29640783D01*
X74626924Y-29562386D01*
X73950052Y-30239258D01*
X73950052Y-30239258D01*
G37*
X73950052Y-30239258D02*
X73709485Y-30338658D01*
X73418081Y-30629554D01*
X73358245Y-30773655D01*
X73013045Y-30428455D01*
X72824113Y-30302215D01*
X72802157Y-30191835D01*
X72661809Y-29981791D01*
X72451765Y-29841443D01*
X72204000Y-29792160D01*
X70704000Y-29792160D01*
X70456235Y-29841443D01*
X70246191Y-29981791D01*
X70105843Y-30191835D01*
X70100279Y-30219809D01*
X70042327Y-30079901D01*
X69863698Y-29901273D01*
X69630309Y-29804600D01*
X69039750Y-29804600D01*
X68881000Y-29963350D01*
X68881000Y-30962600D01*
X68901000Y-30962600D01*
X68901000Y-31216600D01*
X68881000Y-31216600D01*
X68881000Y-31236600D01*
X68627000Y-31236600D01*
X68627000Y-31216600D01*
X67527750Y-31216600D01*
X67369000Y-31375350D01*
X67369000Y-31865910D01*
X67465673Y-32099299D01*
X67644302Y-32277927D01*
X67877691Y-32374600D01*
X68106310Y-32374600D01*
X67551540Y-32929370D01*
X67495427Y-32793902D01*
X67316799Y-32615273D01*
X67083410Y-32518600D01*
X66617850Y-32518600D01*
X66459100Y-32677350D01*
X66459100Y-33776600D01*
X66479100Y-33776600D01*
X66479100Y-34030600D01*
X66459100Y-34030600D01*
X66459100Y-34050600D01*
X66205100Y-34050600D01*
X66205100Y-34030600D01*
X65230850Y-34030600D01*
X65137300Y-34124150D01*
X64994550Y-33981400D01*
X63995300Y-33981400D01*
X63995300Y-34001400D01*
X63741300Y-34001400D01*
X63741300Y-33981400D01*
X62742050Y-33981400D01*
X62583300Y-34140150D01*
X62583300Y-34730709D01*
X62679973Y-34964098D01*
X62858601Y-35142727D01*
X62998509Y-35200679D01*
X62970535Y-35206243D01*
X62760491Y-35346591D01*
X62620143Y-35556635D01*
X62570860Y-35804400D01*
X62570860Y-36790946D01*
X62539600Y-36948100D01*
X62539600Y-47409100D01*
X62610773Y-47766909D01*
X62813455Y-48070245D01*
X63134755Y-48391545D01*
X63436521Y-48593178D01*
X63359804Y-48639697D01*
X63346142Y-48658317D01*
X63326944Y-48671145D01*
X62577644Y-49420444D01*
X62353285Y-49756223D01*
X62274499Y-50152300D01*
X62274500Y-50152305D01*
X62274500Y-52155941D01*
X62201691Y-52204591D01*
X62061343Y-52414635D01*
X62012060Y-52662400D01*
X62012060Y-52881629D01*
X61312343Y-53581345D01*
X60578250Y-49235512D01*
X59428736Y-32978091D01*
X62583300Y-32978091D01*
X62583300Y-33568650D01*
X62742050Y-33727400D01*
X63741300Y-33727400D01*
X63741300Y-32628150D01*
X63995300Y-32628150D01*
X63995300Y-33727400D01*
X64994550Y-33727400D01*
X65088100Y-33633850D01*
X65230850Y-33776600D01*
X66205100Y-33776600D01*
X66205100Y-32677350D01*
X66046350Y-32518600D01*
X65580790Y-32518600D01*
X65347401Y-32615273D01*
X65168773Y-32793902D01*
X65122890Y-32904674D01*
X65056627Y-32744702D01*
X64877999Y-32566073D01*
X64644610Y-32469400D01*
X64154050Y-32469400D01*
X63995300Y-32628150D01*
X63741300Y-32628150D01*
X63582550Y-32469400D01*
X63091990Y-32469400D01*
X62858601Y-32566073D01*
X62679973Y-32744702D01*
X62583300Y-32978091D01*
X59428736Y-32978091D01*
X59334084Y-31639443D01*
X59319070Y-31587912D01*
X58628650Y-30313290D01*
X67369000Y-30313290D01*
X67369000Y-30803850D01*
X67527750Y-30962600D01*
X68627000Y-30962600D01*
X68627000Y-29963350D01*
X68468250Y-29804600D01*
X67877691Y-29804600D01*
X67644302Y-29901273D01*
X67465673Y-30079901D01*
X67369000Y-30313290D01*
X58628650Y-30313290D01*
X58264375Y-29640783D01*
X74626924Y-29562386D01*
X73950052Y-30239258D01*
M02*
