G04 #@! TF.GenerationSoftware,KiCad,Pcbnew,no-vcs-found*
G04 #@! TF.CreationDate,2018-07-23T22:53:43+02:00*
G04 #@! TF.ProjectId,mycelium_pcb_sensor,6D7963656C69756D5F7063625F73656E,rev?*
G04 #@! TF.SameCoordinates,Original
G04 #@! TF.FileFunction,Copper,L2,Bot,Signal*
G04 #@! TF.FilePolarity,Positive*
%FSLAX46Y46*%
G04 Gerber Fmt 4.6, Leading zero omitted, Abs format (unit mm)*
G04 Created by KiCad (PCBNEW no-vcs-found) date Mon Jul 23 22:53:43 2018*
%MOMM*%
%LPD*%
G01*
G04 APERTURE LIST*
%ADD10O,2.000000X2.000000*%
%ADD11R,2.000000X2.000000*%
%ADD12C,2.800000*%
%ADD13C,0.800000*%
%ADD14C,0.250000*%
%ADD15C,0.800000*%
%ADD16C,1.000000*%
%ADD17C,0.600000*%
%ADD18C,0.254000*%
G04 APERTURE END LIST*
D10*
X87210900Y-45999400D03*
D11*
X87210900Y-48539400D03*
X82677000Y-51206400D03*
D10*
X82677000Y-48666400D03*
D12*
X31559500Y-47802800D03*
X51917600Y-96786700D03*
X67729100Y-93599000D03*
D13*
X69964300Y-70142100D03*
X68224400Y-63030100D03*
X54648100Y-94996000D03*
X59397900Y-99301300D03*
X56210200Y-90474800D03*
X45770800Y-71132700D03*
X69062600Y-76225400D03*
X54254400Y-75438000D03*
X42799000Y-53759100D03*
X45707300Y-55600600D03*
X56883300Y-62750700D03*
X52920900Y-65874900D03*
X64312800Y-66217800D03*
X71755000Y-60236100D03*
X77952600Y-55765700D03*
X61353700Y-63423800D03*
X61798200Y-60858400D03*
X59397900Y-83667600D03*
X59931300Y-77533500D03*
X64033400Y-62865000D03*
X67386200Y-66611500D03*
X47726600Y-57327800D03*
X46888400Y-59626500D03*
X49453800Y-72580500D03*
X44234100Y-46786800D03*
X61607700Y-67627500D03*
X54178200Y-70866000D03*
X67703700Y-80835500D03*
X63119000Y-93573600D03*
X66522600Y-80581500D03*
X60655200Y-94322900D03*
X53187600Y-73914000D03*
X59880500Y-71666100D03*
D14*
X52920900Y-65874900D02*
X52920900Y-65887600D01*
D15*
X61353700Y-63423800D02*
X61798200Y-62979300D01*
X61798200Y-62979300D02*
X61798200Y-60858400D01*
X59397900Y-83667600D02*
X59931300Y-83134200D01*
X59931300Y-83134200D02*
X59931300Y-77533500D01*
X64033400Y-63258700D02*
X64033400Y-62865000D01*
X67386200Y-66611500D02*
X64033400Y-63258700D01*
D16*
X47726600Y-58788300D02*
X47726600Y-57327800D01*
X46888400Y-59626500D02*
X47726600Y-58788300D01*
D17*
X49453800Y-72580500D02*
X44234100Y-67360800D01*
X44234100Y-67360800D02*
X44234100Y-46786800D01*
X57416700Y-67627500D02*
X61607700Y-67627500D01*
X54178200Y-70866000D02*
X57416700Y-67627500D01*
X66306700Y-82232500D02*
X67703700Y-80835500D01*
X66306700Y-90385900D02*
X66306700Y-82232500D01*
X63119000Y-93573600D02*
X66306700Y-90385900D01*
X64312800Y-82791300D02*
X66522600Y-80581500D01*
X64312800Y-90665300D02*
X64312800Y-82791300D01*
X60655200Y-94322900D02*
X64312800Y-90665300D01*
X53187600Y-73914000D02*
X55460900Y-71666100D01*
X55460900Y-71666100D02*
X59880500Y-71666100D01*
D18*
G36*
X85989931Y-59001694D02*
X72915876Y-80961030D01*
X72908062Y-80976457D01*
X68379461Y-91665588D01*
X68135662Y-91564354D01*
X67326089Y-91563648D01*
X66577871Y-91872805D01*
X66004917Y-92444760D01*
X65694454Y-93192438D01*
X65693748Y-94002011D01*
X66002905Y-94750229D01*
X66574860Y-95323183D01*
X66791719Y-95413231D01*
X58919644Y-113994163D01*
X51484199Y-98810202D01*
X51511038Y-98821346D01*
X52320611Y-98822052D01*
X53068829Y-98512895D01*
X53641783Y-97940940D01*
X53952246Y-97193262D01*
X53952952Y-96383689D01*
X53643795Y-95635471D01*
X53071840Y-95062517D01*
X52324162Y-94752054D01*
X51514589Y-94751348D01*
X50766371Y-95060505D01*
X50193417Y-95632460D01*
X50071668Y-95925664D01*
X49387182Y-94527871D01*
X59620021Y-94527871D01*
X59777258Y-94908415D01*
X60068154Y-95199819D01*
X60448423Y-95357720D01*
X60860171Y-95358079D01*
X61240715Y-95200842D01*
X61532119Y-94909946D01*
X61632721Y-94667669D01*
X62211883Y-94088507D01*
X62241058Y-94159115D01*
X62531954Y-94450519D01*
X62912223Y-94608420D01*
X63323971Y-94608779D01*
X63704515Y-94451542D01*
X63995919Y-94160646D01*
X64096521Y-93918369D01*
X66967845Y-91047045D01*
X66983839Y-91023108D01*
X67170527Y-90743709D01*
X67186124Y-90665300D01*
X67241701Y-90385900D01*
X67241700Y-90385895D01*
X67241700Y-82619790D01*
X68048648Y-81812842D01*
X68289215Y-81713442D01*
X68580619Y-81422546D01*
X68738520Y-81042277D01*
X68738879Y-80630529D01*
X68581642Y-80249985D01*
X68290746Y-79958581D01*
X67910477Y-79800680D01*
X67498729Y-79800321D01*
X67290930Y-79886182D01*
X67109646Y-79704581D01*
X66729377Y-79546680D01*
X66317629Y-79546321D01*
X65937085Y-79703558D01*
X65645681Y-79994454D01*
X65545079Y-80236731D01*
X63651655Y-82130155D01*
X63448973Y-82433491D01*
X63377800Y-82791300D01*
X63377800Y-90278010D01*
X60310252Y-93345558D01*
X60069685Y-93444958D01*
X59778281Y-93735854D01*
X59620380Y-94116123D01*
X59620021Y-94527871D01*
X49387182Y-94527871D01*
X46979143Y-89610402D01*
X44682224Y-83872571D01*
X58362721Y-83872571D01*
X58519958Y-84253115D01*
X58810854Y-84544519D01*
X59191123Y-84702420D01*
X59397896Y-84702600D01*
X59397900Y-84702601D01*
X59397904Y-84702600D01*
X59602871Y-84702779D01*
X59983415Y-84545542D01*
X60274819Y-84254646D01*
X60274999Y-84254213D01*
X60663153Y-83866058D01*
X60663156Y-83866056D01*
X60887515Y-83530277D01*
X60900971Y-83462629D01*
X60966301Y-83134200D01*
X60966300Y-83134195D01*
X60966300Y-77533500D01*
X60966479Y-77328529D01*
X60809242Y-76947985D01*
X60518346Y-76656581D01*
X60138077Y-76498680D01*
X59726329Y-76498321D01*
X59345785Y-76655558D01*
X59054381Y-76946454D01*
X58896480Y-77326723D01*
X58896121Y-77738471D01*
X58896300Y-77738904D01*
X58896300Y-82705488D01*
X58666109Y-82935679D01*
X58520981Y-83080554D01*
X58363080Y-83460823D01*
X58362900Y-83667596D01*
X58362899Y-83667600D01*
X58362900Y-83667604D01*
X58362721Y-83872571D01*
X44682224Y-83872571D01*
X40777745Y-74118971D01*
X52152421Y-74118971D01*
X52309658Y-74499515D01*
X52600554Y-74790919D01*
X52980823Y-74948820D01*
X53392571Y-74949179D01*
X53773115Y-74791942D01*
X54064519Y-74501046D01*
X54162616Y-74264801D01*
X55845116Y-72601100D01*
X59433329Y-72601100D01*
X59673723Y-72700920D01*
X60085471Y-72701279D01*
X60466015Y-72544042D01*
X60757419Y-72253146D01*
X60915320Y-71872877D01*
X60915679Y-71461129D01*
X60758442Y-71080585D01*
X60467546Y-70789181D01*
X60087277Y-70631280D01*
X59675529Y-70630921D01*
X59433076Y-70731100D01*
X55635390Y-70731100D01*
X57803990Y-68562500D01*
X61160529Y-68562500D01*
X61400923Y-68662320D01*
X61812671Y-68662679D01*
X62193215Y-68505442D01*
X62484619Y-68214546D01*
X62642520Y-67834277D01*
X62642879Y-67422529D01*
X62485642Y-67041985D01*
X62194746Y-66750581D01*
X61814477Y-66592680D01*
X61402729Y-66592321D01*
X61160276Y-66692500D01*
X57416700Y-66692500D01*
X57058891Y-66763673D01*
X56755555Y-66966355D01*
X53833252Y-69888658D01*
X53592685Y-69988058D01*
X53301281Y-70278954D01*
X53143380Y-70659223D01*
X53143021Y-71070971D01*
X53300258Y-71451515D01*
X53591154Y-71742919D01*
X53916718Y-71878105D01*
X52848753Y-72934137D01*
X52602085Y-73036058D01*
X52310681Y-73326954D01*
X52152780Y-73707223D01*
X52152421Y-74118971D01*
X40777745Y-74118971D01*
X31038557Y-49789951D01*
X31152938Y-49837446D01*
X31962511Y-49838152D01*
X32710729Y-49528995D01*
X33283683Y-48957040D01*
X33594146Y-48209362D01*
X33594852Y-47399789D01*
X33426263Y-46991771D01*
X43198921Y-46991771D01*
X43299100Y-47234224D01*
X43299100Y-67360800D01*
X43370273Y-67718609D01*
X43572955Y-68021945D01*
X48476458Y-72925448D01*
X48575858Y-73166015D01*
X48866754Y-73457419D01*
X49247023Y-73615320D01*
X49658771Y-73615679D01*
X50039315Y-73458442D01*
X50330719Y-73167546D01*
X50488620Y-72787277D01*
X50488979Y-72375529D01*
X50331742Y-71994985D01*
X50040846Y-71703581D01*
X49798569Y-71602979D01*
X45169100Y-66973510D01*
X45169100Y-63628771D01*
X60318521Y-63628771D01*
X60475758Y-64009315D01*
X60766654Y-64300719D01*
X61146923Y-64458620D01*
X61353696Y-64458800D01*
X61353700Y-64458801D01*
X61353704Y-64458800D01*
X61558671Y-64458979D01*
X61939215Y-64301742D01*
X62230619Y-64010846D01*
X62230799Y-64010413D01*
X62530053Y-63711158D01*
X62530056Y-63711156D01*
X62754415Y-63375377D01*
X62777624Y-63258700D01*
X62815165Y-63069971D01*
X62998221Y-63069971D01*
X62998400Y-63070404D01*
X62998400Y-63258695D01*
X62998399Y-63258700D01*
X63077185Y-63654777D01*
X63301544Y-63990556D01*
X66653706Y-67342717D01*
X66799154Y-67488419D01*
X67179423Y-67646320D01*
X67386196Y-67646500D01*
X67386200Y-67646501D01*
X67386204Y-67646500D01*
X67591171Y-67646679D01*
X67971715Y-67489442D01*
X68263119Y-67198546D01*
X68421020Y-66818277D01*
X68421200Y-66611504D01*
X68421201Y-66611500D01*
X68421200Y-66611496D01*
X68421379Y-66406529D01*
X68264142Y-66025985D01*
X67973246Y-65734581D01*
X67972812Y-65734401D01*
X65068431Y-62830019D01*
X65068579Y-62660029D01*
X64911342Y-62279485D01*
X64620446Y-61988081D01*
X64240177Y-61830180D01*
X63828429Y-61829821D01*
X63447885Y-61987058D01*
X63156481Y-62277954D01*
X62998580Y-62658223D01*
X62998221Y-63069971D01*
X62815165Y-63069971D01*
X62833201Y-62979300D01*
X62833200Y-62979295D01*
X62833200Y-60858400D01*
X62833379Y-60653429D01*
X62676142Y-60272885D01*
X62385246Y-59981481D01*
X62004977Y-59823580D01*
X61593229Y-59823221D01*
X61212685Y-59980458D01*
X60921281Y-60271354D01*
X60763380Y-60651623D01*
X60763021Y-61063371D01*
X60763200Y-61063804D01*
X60763200Y-62550588D01*
X60621909Y-62691879D01*
X60476781Y-62836754D01*
X60318880Y-63217023D01*
X60318700Y-63423796D01*
X60318699Y-63423800D01*
X60318700Y-63423804D01*
X60318521Y-63628771D01*
X45169100Y-63628771D01*
X45169100Y-59626500D01*
X45753400Y-59626500D01*
X45839797Y-60060845D01*
X46085834Y-60429066D01*
X46454055Y-60675103D01*
X46888400Y-60761500D01*
X47322745Y-60675103D01*
X47690966Y-60429066D01*
X48529166Y-59590866D01*
X48643520Y-59419723D01*
X48775203Y-59222646D01*
X48861600Y-58788300D01*
X48861600Y-57327800D01*
X48775203Y-56893454D01*
X48529166Y-56525234D01*
X48160946Y-56279197D01*
X47726600Y-56192800D01*
X47292254Y-56279197D01*
X46924034Y-56525234D01*
X46677997Y-56893454D01*
X46591600Y-57327800D01*
X46591600Y-58318168D01*
X46085834Y-58823934D01*
X45839797Y-59192155D01*
X45753400Y-59626500D01*
X45169100Y-59626500D01*
X45169100Y-51492150D01*
X81042000Y-51492150D01*
X81042000Y-52332710D01*
X81138673Y-52566099D01*
X81317302Y-52744727D01*
X81550691Y-52841400D01*
X82391250Y-52841400D01*
X82550000Y-52682650D01*
X82550000Y-51333400D01*
X82804000Y-51333400D01*
X82804000Y-52682650D01*
X82962750Y-52841400D01*
X83803309Y-52841400D01*
X84036698Y-52744727D01*
X84215327Y-52566099D01*
X84312000Y-52332710D01*
X84312000Y-51492150D01*
X84153250Y-51333400D01*
X82804000Y-51333400D01*
X82550000Y-51333400D01*
X81200750Y-51333400D01*
X81042000Y-51492150D01*
X45169100Y-51492150D01*
X45169100Y-48666400D01*
X81009968Y-48666400D01*
X81134425Y-49292087D01*
X81370834Y-49645899D01*
X81317302Y-49668073D01*
X81138673Y-49846701D01*
X81042000Y-50080090D01*
X81042000Y-50920650D01*
X81200750Y-51079400D01*
X82550000Y-51079400D01*
X82550000Y-51059400D01*
X82804000Y-51059400D01*
X82804000Y-51079400D01*
X84153250Y-51079400D01*
X84312000Y-50920650D01*
X84312000Y-50080090D01*
X84215327Y-49846701D01*
X84036698Y-49668073D01*
X83983166Y-49645899D01*
X84219575Y-49292087D01*
X84312454Y-48825150D01*
X85575900Y-48825150D01*
X85575900Y-49665710D01*
X85672573Y-49899099D01*
X85851202Y-50077727D01*
X86084591Y-50174400D01*
X86925150Y-50174400D01*
X87083900Y-50015650D01*
X87083900Y-48666400D01*
X87337900Y-48666400D01*
X87337900Y-50015650D01*
X87496650Y-50174400D01*
X88337209Y-50174400D01*
X88570598Y-50077727D01*
X88749227Y-49899099D01*
X88845900Y-49665710D01*
X88845900Y-48825150D01*
X88687150Y-48666400D01*
X87337900Y-48666400D01*
X87083900Y-48666400D01*
X85734650Y-48666400D01*
X85575900Y-48825150D01*
X84312454Y-48825150D01*
X84344032Y-48666400D01*
X84219575Y-48040713D01*
X83865152Y-47510280D01*
X83334719Y-47155857D01*
X82709032Y-47031400D01*
X82644968Y-47031400D01*
X82019281Y-47155857D01*
X81488848Y-47510280D01*
X81134425Y-48040713D01*
X81009968Y-48666400D01*
X45169100Y-48666400D01*
X45169100Y-47233971D01*
X45268920Y-46993577D01*
X45269279Y-46581829D01*
X45112042Y-46201285D01*
X44910509Y-45999400D01*
X85543868Y-45999400D01*
X85668325Y-46625087D01*
X85904734Y-46978899D01*
X85851202Y-47001073D01*
X85672573Y-47179701D01*
X85575900Y-47413090D01*
X85575900Y-48253650D01*
X85734650Y-48412400D01*
X87083900Y-48412400D01*
X87083900Y-48392400D01*
X87337900Y-48392400D01*
X87337900Y-48412400D01*
X88687150Y-48412400D01*
X88845900Y-48253650D01*
X88845900Y-47413090D01*
X88749227Y-47179701D01*
X88570598Y-47001073D01*
X88517066Y-46978899D01*
X88753475Y-46625087D01*
X88877932Y-45999400D01*
X88753475Y-45373713D01*
X88399052Y-44843280D01*
X87868619Y-44488857D01*
X87242932Y-44364400D01*
X87178868Y-44364400D01*
X86553181Y-44488857D01*
X86022748Y-44843280D01*
X85668325Y-45373713D01*
X85543868Y-45999400D01*
X44910509Y-45999400D01*
X44821146Y-45909881D01*
X44440877Y-45751980D01*
X44029129Y-45751621D01*
X43648585Y-45908858D01*
X43357181Y-46199754D01*
X43199280Y-46580023D01*
X43198921Y-46991771D01*
X33426263Y-46991771D01*
X33285695Y-46651571D01*
X32713740Y-46078617D01*
X31966062Y-45768154D01*
X31156489Y-45767448D01*
X30408271Y-46076605D01*
X29835317Y-46648560D01*
X29627389Y-47149305D01*
X26895964Y-42671559D01*
X91517255Y-42545346D01*
X85989931Y-59001694D01*
X85989931Y-59001694D01*
G37*
X85989931Y-59001694D02*
X72915876Y-80961030D01*
X72908062Y-80976457D01*
X68379461Y-91665588D01*
X68135662Y-91564354D01*
X67326089Y-91563648D01*
X66577871Y-91872805D01*
X66004917Y-92444760D01*
X65694454Y-93192438D01*
X65693748Y-94002011D01*
X66002905Y-94750229D01*
X66574860Y-95323183D01*
X66791719Y-95413231D01*
X58919644Y-113994163D01*
X51484199Y-98810202D01*
X51511038Y-98821346D01*
X52320611Y-98822052D01*
X53068829Y-98512895D01*
X53641783Y-97940940D01*
X53952246Y-97193262D01*
X53952952Y-96383689D01*
X53643795Y-95635471D01*
X53071840Y-95062517D01*
X52324162Y-94752054D01*
X51514589Y-94751348D01*
X50766371Y-95060505D01*
X50193417Y-95632460D01*
X50071668Y-95925664D01*
X49387182Y-94527871D01*
X59620021Y-94527871D01*
X59777258Y-94908415D01*
X60068154Y-95199819D01*
X60448423Y-95357720D01*
X60860171Y-95358079D01*
X61240715Y-95200842D01*
X61532119Y-94909946D01*
X61632721Y-94667669D01*
X62211883Y-94088507D01*
X62241058Y-94159115D01*
X62531954Y-94450519D01*
X62912223Y-94608420D01*
X63323971Y-94608779D01*
X63704515Y-94451542D01*
X63995919Y-94160646D01*
X64096521Y-93918369D01*
X66967845Y-91047045D01*
X66983839Y-91023108D01*
X67170527Y-90743709D01*
X67186124Y-90665300D01*
X67241701Y-90385900D01*
X67241700Y-90385895D01*
X67241700Y-82619790D01*
X68048648Y-81812842D01*
X68289215Y-81713442D01*
X68580619Y-81422546D01*
X68738520Y-81042277D01*
X68738879Y-80630529D01*
X68581642Y-80249985D01*
X68290746Y-79958581D01*
X67910477Y-79800680D01*
X67498729Y-79800321D01*
X67290930Y-79886182D01*
X67109646Y-79704581D01*
X66729377Y-79546680D01*
X66317629Y-79546321D01*
X65937085Y-79703558D01*
X65645681Y-79994454D01*
X65545079Y-80236731D01*
X63651655Y-82130155D01*
X63448973Y-82433491D01*
X63377800Y-82791300D01*
X63377800Y-90278010D01*
X60310252Y-93345558D01*
X60069685Y-93444958D01*
X59778281Y-93735854D01*
X59620380Y-94116123D01*
X59620021Y-94527871D01*
X49387182Y-94527871D01*
X46979143Y-89610402D01*
X44682224Y-83872571D01*
X58362721Y-83872571D01*
X58519958Y-84253115D01*
X58810854Y-84544519D01*
X59191123Y-84702420D01*
X59397896Y-84702600D01*
X59397900Y-84702601D01*
X59397904Y-84702600D01*
X59602871Y-84702779D01*
X59983415Y-84545542D01*
X60274819Y-84254646D01*
X60274999Y-84254213D01*
X60663153Y-83866058D01*
X60663156Y-83866056D01*
X60887515Y-83530277D01*
X60900971Y-83462629D01*
X60966301Y-83134200D01*
X60966300Y-83134195D01*
X60966300Y-77533500D01*
X60966479Y-77328529D01*
X60809242Y-76947985D01*
X60518346Y-76656581D01*
X60138077Y-76498680D01*
X59726329Y-76498321D01*
X59345785Y-76655558D01*
X59054381Y-76946454D01*
X58896480Y-77326723D01*
X58896121Y-77738471D01*
X58896300Y-77738904D01*
X58896300Y-82705488D01*
X58666109Y-82935679D01*
X58520981Y-83080554D01*
X58363080Y-83460823D01*
X58362900Y-83667596D01*
X58362899Y-83667600D01*
X58362900Y-83667604D01*
X58362721Y-83872571D01*
X44682224Y-83872571D01*
X40777745Y-74118971D01*
X52152421Y-74118971D01*
X52309658Y-74499515D01*
X52600554Y-74790919D01*
X52980823Y-74948820D01*
X53392571Y-74949179D01*
X53773115Y-74791942D01*
X54064519Y-74501046D01*
X54162616Y-74264801D01*
X55845116Y-72601100D01*
X59433329Y-72601100D01*
X59673723Y-72700920D01*
X60085471Y-72701279D01*
X60466015Y-72544042D01*
X60757419Y-72253146D01*
X60915320Y-71872877D01*
X60915679Y-71461129D01*
X60758442Y-71080585D01*
X60467546Y-70789181D01*
X60087277Y-70631280D01*
X59675529Y-70630921D01*
X59433076Y-70731100D01*
X55635390Y-70731100D01*
X57803990Y-68562500D01*
X61160529Y-68562500D01*
X61400923Y-68662320D01*
X61812671Y-68662679D01*
X62193215Y-68505442D01*
X62484619Y-68214546D01*
X62642520Y-67834277D01*
X62642879Y-67422529D01*
X62485642Y-67041985D01*
X62194746Y-66750581D01*
X61814477Y-66592680D01*
X61402729Y-66592321D01*
X61160276Y-66692500D01*
X57416700Y-66692500D01*
X57058891Y-66763673D01*
X56755555Y-66966355D01*
X53833252Y-69888658D01*
X53592685Y-69988058D01*
X53301281Y-70278954D01*
X53143380Y-70659223D01*
X53143021Y-71070971D01*
X53300258Y-71451515D01*
X53591154Y-71742919D01*
X53916718Y-71878105D01*
X52848753Y-72934137D01*
X52602085Y-73036058D01*
X52310681Y-73326954D01*
X52152780Y-73707223D01*
X52152421Y-74118971D01*
X40777745Y-74118971D01*
X31038557Y-49789951D01*
X31152938Y-49837446D01*
X31962511Y-49838152D01*
X32710729Y-49528995D01*
X33283683Y-48957040D01*
X33594146Y-48209362D01*
X33594852Y-47399789D01*
X33426263Y-46991771D01*
X43198921Y-46991771D01*
X43299100Y-47234224D01*
X43299100Y-67360800D01*
X43370273Y-67718609D01*
X43572955Y-68021945D01*
X48476458Y-72925448D01*
X48575858Y-73166015D01*
X48866754Y-73457419D01*
X49247023Y-73615320D01*
X49658771Y-73615679D01*
X50039315Y-73458442D01*
X50330719Y-73167546D01*
X50488620Y-72787277D01*
X50488979Y-72375529D01*
X50331742Y-71994985D01*
X50040846Y-71703581D01*
X49798569Y-71602979D01*
X45169100Y-66973510D01*
X45169100Y-63628771D01*
X60318521Y-63628771D01*
X60475758Y-64009315D01*
X60766654Y-64300719D01*
X61146923Y-64458620D01*
X61353696Y-64458800D01*
X61353700Y-64458801D01*
X61353704Y-64458800D01*
X61558671Y-64458979D01*
X61939215Y-64301742D01*
X62230619Y-64010846D01*
X62230799Y-64010413D01*
X62530053Y-63711158D01*
X62530056Y-63711156D01*
X62754415Y-63375377D01*
X62777624Y-63258700D01*
X62815165Y-63069971D01*
X62998221Y-63069971D01*
X62998400Y-63070404D01*
X62998400Y-63258695D01*
X62998399Y-63258700D01*
X63077185Y-63654777D01*
X63301544Y-63990556D01*
X66653706Y-67342717D01*
X66799154Y-67488419D01*
X67179423Y-67646320D01*
X67386196Y-67646500D01*
X67386200Y-67646501D01*
X67386204Y-67646500D01*
X67591171Y-67646679D01*
X67971715Y-67489442D01*
X68263119Y-67198546D01*
X68421020Y-66818277D01*
X68421200Y-66611504D01*
X68421201Y-66611500D01*
X68421200Y-66611496D01*
X68421379Y-66406529D01*
X68264142Y-66025985D01*
X67973246Y-65734581D01*
X67972812Y-65734401D01*
X65068431Y-62830019D01*
X65068579Y-62660029D01*
X64911342Y-62279485D01*
X64620446Y-61988081D01*
X64240177Y-61830180D01*
X63828429Y-61829821D01*
X63447885Y-61987058D01*
X63156481Y-62277954D01*
X62998580Y-62658223D01*
X62998221Y-63069971D01*
X62815165Y-63069971D01*
X62833201Y-62979300D01*
X62833200Y-62979295D01*
X62833200Y-60858400D01*
X62833379Y-60653429D01*
X62676142Y-60272885D01*
X62385246Y-59981481D01*
X62004977Y-59823580D01*
X61593229Y-59823221D01*
X61212685Y-59980458D01*
X60921281Y-60271354D01*
X60763380Y-60651623D01*
X60763021Y-61063371D01*
X60763200Y-61063804D01*
X60763200Y-62550588D01*
X60621909Y-62691879D01*
X60476781Y-62836754D01*
X60318880Y-63217023D01*
X60318700Y-63423796D01*
X60318699Y-63423800D01*
X60318700Y-63423804D01*
X60318521Y-63628771D01*
X45169100Y-63628771D01*
X45169100Y-59626500D01*
X45753400Y-59626500D01*
X45839797Y-60060845D01*
X46085834Y-60429066D01*
X46454055Y-60675103D01*
X46888400Y-60761500D01*
X47322745Y-60675103D01*
X47690966Y-60429066D01*
X48529166Y-59590866D01*
X48643520Y-59419723D01*
X48775203Y-59222646D01*
X48861600Y-58788300D01*
X48861600Y-57327800D01*
X48775203Y-56893454D01*
X48529166Y-56525234D01*
X48160946Y-56279197D01*
X47726600Y-56192800D01*
X47292254Y-56279197D01*
X46924034Y-56525234D01*
X46677997Y-56893454D01*
X46591600Y-57327800D01*
X46591600Y-58318168D01*
X46085834Y-58823934D01*
X45839797Y-59192155D01*
X45753400Y-59626500D01*
X45169100Y-59626500D01*
X45169100Y-51492150D01*
X81042000Y-51492150D01*
X81042000Y-52332710D01*
X81138673Y-52566099D01*
X81317302Y-52744727D01*
X81550691Y-52841400D01*
X82391250Y-52841400D01*
X82550000Y-52682650D01*
X82550000Y-51333400D01*
X82804000Y-51333400D01*
X82804000Y-52682650D01*
X82962750Y-52841400D01*
X83803309Y-52841400D01*
X84036698Y-52744727D01*
X84215327Y-52566099D01*
X84312000Y-52332710D01*
X84312000Y-51492150D01*
X84153250Y-51333400D01*
X82804000Y-51333400D01*
X82550000Y-51333400D01*
X81200750Y-51333400D01*
X81042000Y-51492150D01*
X45169100Y-51492150D01*
X45169100Y-48666400D01*
X81009968Y-48666400D01*
X81134425Y-49292087D01*
X81370834Y-49645899D01*
X81317302Y-49668073D01*
X81138673Y-49846701D01*
X81042000Y-50080090D01*
X81042000Y-50920650D01*
X81200750Y-51079400D01*
X82550000Y-51079400D01*
X82550000Y-51059400D01*
X82804000Y-51059400D01*
X82804000Y-51079400D01*
X84153250Y-51079400D01*
X84312000Y-50920650D01*
X84312000Y-50080090D01*
X84215327Y-49846701D01*
X84036698Y-49668073D01*
X83983166Y-49645899D01*
X84219575Y-49292087D01*
X84312454Y-48825150D01*
X85575900Y-48825150D01*
X85575900Y-49665710D01*
X85672573Y-49899099D01*
X85851202Y-50077727D01*
X86084591Y-50174400D01*
X86925150Y-50174400D01*
X87083900Y-50015650D01*
X87083900Y-48666400D01*
X87337900Y-48666400D01*
X87337900Y-50015650D01*
X87496650Y-50174400D01*
X88337209Y-50174400D01*
X88570598Y-50077727D01*
X88749227Y-49899099D01*
X88845900Y-49665710D01*
X88845900Y-48825150D01*
X88687150Y-48666400D01*
X87337900Y-48666400D01*
X87083900Y-48666400D01*
X85734650Y-48666400D01*
X85575900Y-48825150D01*
X84312454Y-48825150D01*
X84344032Y-48666400D01*
X84219575Y-48040713D01*
X83865152Y-47510280D01*
X83334719Y-47155857D01*
X82709032Y-47031400D01*
X82644968Y-47031400D01*
X82019281Y-47155857D01*
X81488848Y-47510280D01*
X81134425Y-48040713D01*
X81009968Y-48666400D01*
X45169100Y-48666400D01*
X45169100Y-47233971D01*
X45268920Y-46993577D01*
X45269279Y-46581829D01*
X45112042Y-46201285D01*
X44910509Y-45999400D01*
X85543868Y-45999400D01*
X85668325Y-46625087D01*
X85904734Y-46978899D01*
X85851202Y-47001073D01*
X85672573Y-47179701D01*
X85575900Y-47413090D01*
X85575900Y-48253650D01*
X85734650Y-48412400D01*
X87083900Y-48412400D01*
X87083900Y-48392400D01*
X87337900Y-48392400D01*
X87337900Y-48412400D01*
X88687150Y-48412400D01*
X88845900Y-48253650D01*
X88845900Y-47413090D01*
X88749227Y-47179701D01*
X88570598Y-47001073D01*
X88517066Y-46978899D01*
X88753475Y-46625087D01*
X88877932Y-45999400D01*
X88753475Y-45373713D01*
X88399052Y-44843280D01*
X87868619Y-44488857D01*
X87242932Y-44364400D01*
X87178868Y-44364400D01*
X86553181Y-44488857D01*
X86022748Y-44843280D01*
X85668325Y-45373713D01*
X85543868Y-45999400D01*
X44910509Y-45999400D01*
X44821146Y-45909881D01*
X44440877Y-45751980D01*
X44029129Y-45751621D01*
X43648585Y-45908858D01*
X43357181Y-46199754D01*
X43199280Y-46580023D01*
X43198921Y-46991771D01*
X33426263Y-46991771D01*
X33285695Y-46651571D01*
X32713740Y-46078617D01*
X31966062Y-45768154D01*
X31156489Y-45767448D01*
X30408271Y-46076605D01*
X29835317Y-46648560D01*
X29627389Y-47149305D01*
X26895964Y-42671559D01*
X91517255Y-42545346D01*
X85989931Y-59001694D01*
M02*
