G04 #@! TF.GenerationSoftware,KiCad,Pcbnew,no-vcs-found*
G04 #@! TF.CreationDate,2018-07-23T22:49:52+02:00*
G04 #@! TF.ProjectId,mycelium_pcb_radio,6D7963656C69756D5F7063625F726164,rev?*
G04 #@! TF.SameCoordinates,Original
G04 #@! TF.FileFunction,Copper,L2,Bot,Signal*
G04 #@! TF.FilePolarity,Positive*
%FSLAX46Y46*%
G04 Gerber Fmt 4.6, Leading zero omitted, Abs format (unit mm)*
G04 Created by KiCad (PCBNEW no-vcs-found) date Mon Jul 23 22:49:52 2018*
%MOMM*%
%LPD*%
G01*
G04 APERTURE LIST*
%ADD10C,2.800000*%
%ADD11R,2.800000X2.800000*%
%ADD12C,0.800000*%
%ADD13C,1.000000*%
%ADD14C,0.800000*%
%ADD15C,0.600000*%
%ADD16C,0.550000*%
%ADD17C,0.254000*%
G04 APERTURE END LIST*
D10*
X260388100Y-45834300D03*
X232321100Y-76136500D03*
X232752900Y-61874400D03*
X249542300Y-54025800D03*
X249707400Y-44500800D03*
D11*
X253403100Y-45720000D03*
D10*
X253403100Y-53720000D03*
X245973600Y-54559200D03*
X242443000Y-52489100D03*
X242798600Y-57607200D03*
X236372400Y-84823300D03*
D12*
X256438400Y-55118000D03*
X253009400Y-57607200D03*
X237007400Y-93954600D03*
X210769200Y-48920400D03*
X237655100Y-58394600D03*
X235699300Y-97878900D03*
X240538000Y-62611000D03*
X234391200Y-74599800D03*
X227761800Y-76695300D03*
X218160600Y-61163200D03*
X215696800Y-63093600D03*
X210527900Y-61163200D03*
X215811100Y-53035200D03*
X209969100Y-51943000D03*
X221792800Y-44589700D03*
X229666800Y-51435000D03*
X233667300Y-54178200D03*
X237337600Y-55346600D03*
X226923600Y-77952600D03*
X240106200Y-83820000D03*
X244640100Y-77343000D03*
X216789000Y-65798700D03*
X213512400Y-74295000D03*
X226034600Y-70180200D03*
X227622100Y-45948600D03*
X215747600Y-47218600D03*
X211836000Y-43980100D03*
X225780600Y-77038200D03*
X222389700Y-77762100D03*
X244830600Y-69189600D03*
X242582700Y-66217800D03*
X223608900Y-55930800D03*
X206578200Y-56692800D03*
X220611700Y-80238600D03*
X219189300Y-67703700D03*
X233184700Y-93091000D03*
X228104700Y-101701600D03*
X227380800Y-90017600D03*
X224053400Y-92735400D03*
X217817700Y-76238100D03*
X223380300Y-54178200D03*
X225666300Y-50939700D03*
X239204500Y-67741800D03*
X220103700Y-74980800D03*
X220141800Y-72275700D03*
X224675700Y-49555400D03*
X238023400Y-67386200D03*
X207987900Y-56235600D03*
X210273900Y-57340500D03*
X225209100Y-64427100D03*
X230505000Y-67132200D03*
X206222600Y-58902600D03*
X210477100Y-59321700D03*
D13*
X209969100Y-51943000D02*
X209943700Y-51943000D01*
D14*
X228015800Y-79044800D02*
X224663000Y-79044800D01*
X215023700Y-73139300D02*
X213512400Y-71628000D01*
X215023700Y-79578200D02*
X215023700Y-73139300D01*
X217424000Y-81978500D02*
X215023700Y-79578200D01*
X221729300Y-81978500D02*
X217424000Y-81978500D01*
X224663000Y-79044800D02*
X221729300Y-81978500D01*
X241846100Y-81076800D02*
X242347750Y-81578450D01*
D13*
X230047800Y-81076800D02*
X241846100Y-81076800D01*
D14*
X226923600Y-77952600D02*
X228015800Y-79044800D01*
X228015800Y-79044800D02*
X230047800Y-81076800D01*
D13*
X240106200Y-83820000D02*
X242347750Y-81578450D01*
D14*
X242347750Y-81578450D02*
X242658900Y-81267300D01*
D13*
X242658900Y-81267300D02*
X244640100Y-79286100D01*
X244640100Y-79286100D02*
X244640100Y-77343000D01*
X216789000Y-65798700D02*
X213512400Y-69075300D01*
X213512400Y-69075300D02*
X213512400Y-71628000D01*
X213512400Y-71628000D02*
X213512400Y-74295000D01*
X225933000Y-54927500D02*
X225933000Y-54737000D01*
X226034600Y-70180200D02*
X223240600Y-67386200D01*
X223240600Y-67386200D02*
X223240600Y-61252100D01*
X223240600Y-61252100D02*
X225958400Y-58534300D01*
X225958400Y-58534300D02*
X225958400Y-54952900D01*
X225958400Y-54952900D02*
X225933000Y-54927500D01*
X225844100Y-45948600D02*
X227622100Y-45948600D01*
X222770700Y-49022000D02*
X225844100Y-45948600D01*
X222770700Y-51574700D02*
X222770700Y-49022000D01*
X225933000Y-54737000D02*
X222770700Y-51574700D01*
D15*
X215074500Y-47218600D02*
X215747600Y-47218600D01*
X211836000Y-43980100D02*
X215074500Y-47218600D01*
D13*
X225780600Y-77038200D02*
X225056700Y-77762100D01*
X225056700Y-77762100D02*
X222389700Y-77762100D01*
X244830600Y-69189600D02*
X242582700Y-66941700D01*
X242582700Y-66941700D02*
X242582700Y-66217800D01*
D15*
X222427800Y-54749700D02*
X223608900Y-55930800D01*
X208102200Y-54749700D02*
X222427800Y-54749700D01*
X207035400Y-55816500D02*
X208102200Y-54749700D01*
X207035400Y-56235600D02*
X207035400Y-55816500D01*
X206578200Y-56692800D02*
X207035400Y-56235600D01*
X218909900Y-71450200D02*
X218909900Y-78536800D01*
X218909900Y-78536800D02*
X220611700Y-80238600D01*
X218909900Y-71450200D02*
X218935300Y-71475600D01*
X218909900Y-67983100D02*
X218909900Y-71450200D01*
X219189300Y-67703700D02*
X218909900Y-67983100D01*
D16*
X233184700Y-96621600D02*
X233184700Y-93091000D01*
X228104700Y-101701600D02*
X233184700Y-96621600D01*
X226771200Y-90017600D02*
X227380800Y-90017600D01*
X224053400Y-92735400D02*
X226771200Y-90017600D01*
D15*
X217817700Y-64579500D02*
X217817700Y-76238100D01*
X224726500Y-57670700D02*
X217817700Y-64579500D01*
X224726500Y-55524400D02*
X224726500Y-57670700D01*
X223380300Y-54178200D02*
X224726500Y-55524400D01*
X226453700Y-50939700D02*
X225666300Y-50939700D01*
X235813600Y-60299600D02*
X226453700Y-50939700D01*
X235813600Y-63728600D02*
X235813600Y-60299600D01*
X238861600Y-66776600D02*
X235813600Y-63728600D01*
X239090200Y-67627500D02*
X238861600Y-66776600D01*
X239204500Y-67741800D02*
X239090200Y-67627500D01*
X219751386Y-73035812D02*
X220103700Y-74980800D01*
X220141800Y-72275700D02*
X219751386Y-73035812D01*
X224713800Y-51435000D02*
X224675700Y-49555400D01*
X226573471Y-53587064D02*
X224713800Y-51435000D01*
X228282500Y-54419500D02*
X226573471Y-53587064D01*
X234899200Y-61036200D02*
X228282500Y-54419500D01*
X234899200Y-64198500D02*
X234899200Y-61036200D01*
X238023400Y-67386200D02*
X234899200Y-64198500D01*
X209169000Y-56235600D02*
X207987900Y-56235600D01*
X210273900Y-57340500D02*
X209169000Y-56235600D01*
X227799900Y-64427100D02*
X225209100Y-64427100D01*
X230505000Y-67132200D02*
X227799900Y-64427100D01*
X210058000Y-58902600D02*
X206222600Y-58902600D01*
X210477100Y-59321700D02*
X210058000Y-58902600D01*
D17*
G36*
X210931190Y-43460222D02*
X210801180Y-43773323D01*
X210800821Y-44185071D01*
X210958058Y-44565615D01*
X211248954Y-44857019D01*
X211491231Y-44957621D01*
X214413355Y-47879745D01*
X214716691Y-48082427D01*
X215074500Y-48153600D01*
X215300429Y-48153600D01*
X215540823Y-48253420D01*
X215952571Y-48253779D01*
X216333115Y-48096542D01*
X216624519Y-47805646D01*
X216782420Y-47425377D01*
X216782779Y-47013629D01*
X216625542Y-46633085D01*
X216334646Y-46341681D01*
X215954377Y-46183780D01*
X215542629Y-46183421D01*
X215414537Y-46236347D01*
X212813342Y-43635152D01*
X212742456Y-43463595D01*
X247907428Y-43529079D01*
X247672754Y-44094238D01*
X247672048Y-44903811D01*
X247981205Y-45652029D01*
X248553160Y-46224983D01*
X249300838Y-46535446D01*
X250110411Y-46536152D01*
X250858629Y-46226995D01*
X251355660Y-45730831D01*
X251355660Y-47120000D01*
X251404943Y-47367765D01*
X251545291Y-47577809D01*
X251755335Y-47718157D01*
X252003100Y-47767440D01*
X254803100Y-47767440D01*
X255050865Y-47718157D01*
X255260909Y-47577809D01*
X255401257Y-47367765D01*
X255450540Y-47120000D01*
X255450540Y-46237311D01*
X258352748Y-46237311D01*
X258661905Y-46985529D01*
X259233860Y-47558483D01*
X259981538Y-47868946D01*
X260791111Y-47869652D01*
X261539329Y-47560495D01*
X262112283Y-46988540D01*
X262422746Y-46240862D01*
X262423452Y-45431289D01*
X262114295Y-44683071D01*
X261542340Y-44110117D01*
X260794662Y-43799654D01*
X259985089Y-43798948D01*
X259236871Y-44108105D01*
X258663917Y-44680060D01*
X258353454Y-45427738D01*
X258352748Y-46237311D01*
X255450540Y-46237311D01*
X255450540Y-44320000D01*
X255401257Y-44072235D01*
X255260909Y-43862191D01*
X255050865Y-43721843D01*
X254803100Y-43672560D01*
X252003100Y-43672560D01*
X251755335Y-43721843D01*
X251623745Y-43809769D01*
X251510539Y-43535789D01*
X264838218Y-43560608D01*
X251347772Y-69028553D01*
X251344371Y-69035474D01*
X231149188Y-113492662D01*
X225554521Y-101906571D01*
X227069521Y-101906571D01*
X227226758Y-102287115D01*
X227517654Y-102578519D01*
X227897923Y-102736420D01*
X228309671Y-102736779D01*
X228690215Y-102579542D01*
X228981619Y-102288646D01*
X229107327Y-101985907D01*
X233828167Y-97265067D01*
X234025430Y-96969842D01*
X234094700Y-96621600D01*
X234094700Y-93598378D01*
X234219520Y-93297777D01*
X234219879Y-92886029D01*
X234062642Y-92505485D01*
X233771746Y-92214081D01*
X233391477Y-92056180D01*
X232979729Y-92055821D01*
X232599185Y-92213058D01*
X232307781Y-92503954D01*
X232149880Y-92884223D01*
X232149521Y-93295971D01*
X232274700Y-93598928D01*
X232274700Y-96244666D01*
X227820003Y-100699363D01*
X227519185Y-100823658D01*
X227227781Y-101114554D01*
X227069880Y-101494823D01*
X227069521Y-101906571D01*
X225554521Y-101906571D01*
X221224940Y-92940371D01*
X223018221Y-92940371D01*
X223175458Y-93320915D01*
X223466354Y-93612319D01*
X223846623Y-93770220D01*
X224258371Y-93770579D01*
X224638915Y-93613342D01*
X224930319Y-93322446D01*
X225056027Y-93019707D01*
X227067533Y-91008201D01*
X227174023Y-91052420D01*
X227585771Y-91052779D01*
X227966315Y-90895542D01*
X228257719Y-90604646D01*
X228415620Y-90224377D01*
X228415979Y-89812629D01*
X228258742Y-89432085D01*
X227967846Y-89140681D01*
X227587577Y-88982780D01*
X227175829Y-88982421D01*
X226872872Y-89107600D01*
X226771200Y-89107600D01*
X226422958Y-89176870D01*
X226127733Y-89374133D01*
X223768703Y-91733163D01*
X223467885Y-91857458D01*
X223176481Y-92148354D01*
X223018580Y-92528623D01*
X223018221Y-92940371D01*
X221224940Y-92940371D01*
X217499991Y-85226311D01*
X234337048Y-85226311D01*
X234646205Y-85974529D01*
X235218160Y-86547483D01*
X235965838Y-86857946D01*
X236775411Y-86858652D01*
X237523629Y-86549495D01*
X238096583Y-85977540D01*
X238407046Y-85229862D01*
X238407752Y-84420289D01*
X238098595Y-83672071D01*
X237526640Y-83099117D01*
X236778962Y-82788654D01*
X235969389Y-82787948D01*
X235221171Y-83097105D01*
X234648217Y-83669060D01*
X234337754Y-84416738D01*
X234337048Y-85226311D01*
X217499991Y-85226311D01*
X204887826Y-59107571D01*
X205187421Y-59107571D01*
X205344658Y-59488115D01*
X205635554Y-59779519D01*
X206015823Y-59937420D01*
X206427571Y-59937779D01*
X206670024Y-59837600D01*
X209570394Y-59837600D01*
X209599158Y-59907215D01*
X209890054Y-60198619D01*
X210270323Y-60356520D01*
X210682071Y-60356879D01*
X211062615Y-60199642D01*
X211354019Y-59908746D01*
X211511920Y-59528477D01*
X211512279Y-59116729D01*
X211355042Y-58736185D01*
X211064146Y-58444781D01*
X210821869Y-58344179D01*
X210743873Y-58266183D01*
X210859415Y-58218442D01*
X211150819Y-57927546D01*
X211308720Y-57547277D01*
X211309079Y-57135529D01*
X211151842Y-56754985D01*
X210860946Y-56463581D01*
X210618669Y-56362979D01*
X209940390Y-55684700D01*
X222040510Y-55684700D01*
X222631558Y-56275748D01*
X222730958Y-56516315D01*
X223021854Y-56807719D01*
X223402123Y-56965620D01*
X223791500Y-56965959D01*
X223791500Y-57283410D01*
X217156555Y-63918355D01*
X216953873Y-64221691D01*
X216882700Y-64579500D01*
X216882700Y-75790929D01*
X216782880Y-76031323D01*
X216782521Y-76443071D01*
X216939758Y-76823615D01*
X217230654Y-77115019D01*
X217610923Y-77272920D01*
X217974900Y-77273237D01*
X217974900Y-78536800D01*
X218046073Y-78894609D01*
X218248755Y-79197945D01*
X219634358Y-80583548D01*
X219733758Y-80824115D01*
X220024654Y-81115519D01*
X220404923Y-81273420D01*
X220816671Y-81273779D01*
X221197215Y-81116542D01*
X221488619Y-80825646D01*
X221646520Y-80445377D01*
X221646879Y-80033629D01*
X221489642Y-79653085D01*
X221198746Y-79361681D01*
X220956469Y-79261079D01*
X219844900Y-78149510D01*
X219844900Y-77762100D01*
X221254700Y-77762100D01*
X221341097Y-78196446D01*
X221587134Y-78564666D01*
X221955354Y-78810703D01*
X222389700Y-78897100D01*
X225056700Y-78897100D01*
X225491046Y-78810703D01*
X225859266Y-78564666D01*
X226583166Y-77840766D01*
X226829203Y-77472545D01*
X226915600Y-77038200D01*
X226829203Y-76603855D01*
X226786210Y-76539511D01*
X230285748Y-76539511D01*
X230594905Y-77287729D01*
X231166860Y-77860683D01*
X231914538Y-78171146D01*
X232724111Y-78171852D01*
X233472329Y-77862695D01*
X234045283Y-77290740D01*
X234355746Y-76543062D01*
X234356452Y-75733489D01*
X234047295Y-74985271D01*
X233475340Y-74412317D01*
X232727662Y-74101854D01*
X231918089Y-74101148D01*
X231169871Y-74410305D01*
X230596917Y-74982260D01*
X230286454Y-75729938D01*
X230285748Y-76539511D01*
X226786210Y-76539511D01*
X226583166Y-76235634D01*
X226214945Y-75989597D01*
X225780600Y-75903200D01*
X225346255Y-75989597D01*
X224978034Y-76235634D01*
X224586568Y-76627100D01*
X222389700Y-76627100D01*
X221955354Y-76713497D01*
X221587134Y-76959534D01*
X221341097Y-77327754D01*
X221254700Y-77762100D01*
X219844900Y-77762100D01*
X219844900Y-75994018D01*
X219896923Y-76015620D01*
X220308671Y-76015979D01*
X220689215Y-75858742D01*
X220980619Y-75567846D01*
X221138520Y-75187577D01*
X221138879Y-74775829D01*
X220981642Y-74395285D01*
X220940366Y-74353937D01*
X220727910Y-73181050D01*
X220757426Y-73123584D01*
X221018719Y-72862746D01*
X221176620Y-72482477D01*
X221176979Y-72070729D01*
X221019742Y-71690185D01*
X220728846Y-71398781D01*
X220348577Y-71240880D01*
X219936829Y-71240521D01*
X219844900Y-71278505D01*
X219844900Y-68511679D01*
X220066219Y-68290746D01*
X220224120Y-67910477D01*
X220224479Y-67498729D01*
X220067242Y-67118185D01*
X219776346Y-66826781D01*
X219396077Y-66668880D01*
X218984329Y-66668521D01*
X218752700Y-66764228D01*
X218752700Y-64966790D01*
X222105600Y-61613890D01*
X222105600Y-67386200D01*
X222191997Y-67820546D01*
X222305425Y-67990303D01*
X222438034Y-68188766D01*
X225232034Y-70982766D01*
X225600255Y-71228804D01*
X226034600Y-71315200D01*
X226468946Y-71228804D01*
X226837166Y-70982766D01*
X227083204Y-70614546D01*
X227169600Y-70180200D01*
X227083204Y-69745855D01*
X226837166Y-69377634D01*
X224375600Y-66916068D01*
X224375600Y-65057135D01*
X224622054Y-65304019D01*
X225002323Y-65461920D01*
X225414071Y-65462279D01*
X225656524Y-65362100D01*
X227412610Y-65362100D01*
X229527658Y-67477148D01*
X229627058Y-67717715D01*
X229917954Y-68009119D01*
X230298223Y-68167020D01*
X230709971Y-68167379D01*
X231090515Y-68010142D01*
X231381919Y-67719246D01*
X231539820Y-67338977D01*
X231540179Y-66927229D01*
X231382942Y-66546685D01*
X231092046Y-66255281D01*
X230849769Y-66154679D01*
X228461045Y-63765955D01*
X228157709Y-63563273D01*
X227799900Y-63492100D01*
X225656271Y-63492100D01*
X225415877Y-63392280D01*
X225004129Y-63391921D01*
X224623585Y-63549158D01*
X224375600Y-63796711D01*
X224375600Y-61722232D01*
X226760966Y-59336866D01*
X227007004Y-58968645D01*
X227093400Y-58534300D01*
X227093400Y-54952900D01*
X227077416Y-54872542D01*
X227732171Y-55191461D01*
X232379784Y-59839074D01*
X232349889Y-59839048D01*
X231601671Y-60148205D01*
X231028717Y-60720160D01*
X230718254Y-61467838D01*
X230717548Y-62277411D01*
X231026705Y-63025629D01*
X231598660Y-63598583D01*
X232346338Y-63909046D01*
X233155911Y-63909752D01*
X233904129Y-63600595D01*
X233964200Y-63540629D01*
X233964200Y-64198500D01*
X233998882Y-64372856D01*
X234031817Y-64547601D01*
X234034439Y-64551611D01*
X234035373Y-64556309D01*
X234134166Y-64704164D01*
X234231438Y-64852960D01*
X237041515Y-67720154D01*
X237145458Y-67971715D01*
X237436354Y-68263119D01*
X237816623Y-68421020D01*
X238228371Y-68421379D01*
X238364365Y-68365188D01*
X238617454Y-68618719D01*
X238997723Y-68776620D01*
X239409471Y-68776979D01*
X239790015Y-68619742D01*
X240081419Y-68328846D01*
X240239320Y-67948577D01*
X240239679Y-67536829D01*
X240082442Y-67156285D01*
X239876275Y-66949758D01*
X239764581Y-66534008D01*
X239737400Y-66478982D01*
X239725427Y-66418791D01*
X239657309Y-66316845D01*
X239608384Y-66217800D01*
X241447700Y-66217800D01*
X241447700Y-66941700D01*
X241534097Y-67376046D01*
X241710751Y-67640427D01*
X241780134Y-67744266D01*
X244028034Y-69992166D01*
X244396255Y-70238204D01*
X244830600Y-70324600D01*
X245264946Y-70238204D01*
X245633166Y-69992166D01*
X245879204Y-69623946D01*
X245965600Y-69189600D01*
X245879204Y-68755255D01*
X245633166Y-68387034D01*
X243717700Y-66471568D01*
X243717700Y-66217800D01*
X243631303Y-65783454D01*
X243385266Y-65415234D01*
X243017046Y-65169197D01*
X242582700Y-65082800D01*
X242148354Y-65169197D01*
X241780134Y-65415234D01*
X241534097Y-65783454D01*
X241447700Y-66217800D01*
X239608384Y-66217800D01*
X239603009Y-66206919D01*
X239556843Y-66166486D01*
X239522745Y-66115455D01*
X236748600Y-63341310D01*
X236748600Y-60299605D01*
X236748601Y-60299600D01*
X236677427Y-59941792D01*
X236677427Y-59941791D01*
X236474745Y-59638455D01*
X234846501Y-58010211D01*
X240763248Y-58010211D01*
X241072405Y-58758429D01*
X241644360Y-59331383D01*
X242392038Y-59641846D01*
X243201611Y-59642552D01*
X243949829Y-59333395D01*
X244522783Y-58761440D01*
X244833246Y-58013762D01*
X244833952Y-57204189D01*
X244524795Y-56455971D01*
X243952840Y-55883017D01*
X243205162Y-55572554D01*
X242395589Y-55571848D01*
X241647371Y-55881005D01*
X241074417Y-56452960D01*
X240763954Y-57200638D01*
X240763248Y-58010211D01*
X234846501Y-58010211D01*
X229728401Y-52892111D01*
X240407648Y-52892111D01*
X240716805Y-53640329D01*
X241288760Y-54213283D01*
X242036438Y-54523746D01*
X242846011Y-54524452D01*
X243594229Y-54215295D01*
X244138574Y-53671899D01*
X243938954Y-54152638D01*
X243938248Y-54962211D01*
X244247405Y-55710429D01*
X244819360Y-56283383D01*
X245567038Y-56593846D01*
X246376611Y-56594552D01*
X247124829Y-56285395D01*
X247697783Y-55713440D01*
X247889847Y-55250899D01*
X248388060Y-55749983D01*
X249135738Y-56060446D01*
X249945311Y-56061152D01*
X250693529Y-55751995D01*
X251266483Y-55180040D01*
X251536157Y-54530593D01*
X251676905Y-54871229D01*
X252248860Y-55444183D01*
X252996538Y-55754646D01*
X253806111Y-55755352D01*
X254554329Y-55446195D01*
X255127283Y-54874240D01*
X255437746Y-54126562D01*
X255438452Y-53316989D01*
X255129295Y-52568771D01*
X254557340Y-51995817D01*
X253809662Y-51685354D01*
X253000089Y-51684648D01*
X252251871Y-51993805D01*
X251678917Y-52565760D01*
X251409243Y-53215207D01*
X251268495Y-52874571D01*
X250696540Y-52301617D01*
X249948862Y-51991154D01*
X249139289Y-51990448D01*
X248391071Y-52299605D01*
X247818117Y-52871560D01*
X247626053Y-53334101D01*
X247127840Y-52835017D01*
X246380162Y-52524554D01*
X245570589Y-52523848D01*
X244822371Y-52833005D01*
X244278026Y-53376401D01*
X244477646Y-52895662D01*
X244478352Y-52086089D01*
X244169195Y-51337871D01*
X243597240Y-50764917D01*
X242849562Y-50454454D01*
X242039989Y-50453748D01*
X241291771Y-50762905D01*
X240718817Y-51334860D01*
X240408354Y-52082538D01*
X240407648Y-52892111D01*
X229728401Y-52892111D01*
X227114845Y-50278555D01*
X226811509Y-50075873D01*
X226453700Y-50004700D01*
X226113471Y-50004700D01*
X225873077Y-49904880D01*
X225651345Y-49904687D01*
X225710520Y-49762177D01*
X225710879Y-49350429D01*
X225553642Y-48969885D01*
X225262746Y-48678481D01*
X224882477Y-48520580D01*
X224877257Y-48520575D01*
X226314232Y-47083600D01*
X227622100Y-47083600D01*
X228056446Y-46997203D01*
X228424666Y-46751166D01*
X228670703Y-46382946D01*
X228757100Y-45948600D01*
X228670703Y-45514254D01*
X228424666Y-45146034D01*
X228056446Y-44899997D01*
X227622100Y-44813600D01*
X225844100Y-44813600D01*
X225409754Y-44899997D01*
X225154342Y-45070658D01*
X225041534Y-45146034D01*
X221968134Y-48219434D01*
X221722097Y-48587654D01*
X221635700Y-49022000D01*
X221635700Y-51574700D01*
X221722097Y-52009046D01*
X221963151Y-52369808D01*
X221968134Y-52377266D01*
X222862958Y-53272090D01*
X222794785Y-53300258D01*
X222503381Y-53591154D01*
X222410557Y-53814700D01*
X208102200Y-53814700D01*
X207744391Y-53885873D01*
X207441055Y-54088555D01*
X206374255Y-55155355D01*
X206171573Y-55458691D01*
X206110402Y-55766219D01*
X205992685Y-55814858D01*
X205701281Y-56105754D01*
X205543380Y-56486023D01*
X205543021Y-56897771D01*
X205700258Y-57278315D01*
X205991154Y-57569719D01*
X206371423Y-57727620D01*
X206783171Y-57727979D01*
X207163715Y-57570742D01*
X207455119Y-57279846D01*
X207506401Y-57156346D01*
X207781123Y-57270420D01*
X208192871Y-57270779D01*
X208435324Y-57170600D01*
X208781710Y-57170600D01*
X209296558Y-57685448D01*
X209395958Y-57926015D01*
X209437471Y-57967600D01*
X206669771Y-57967600D01*
X206429377Y-57867780D01*
X206017629Y-57867421D01*
X205637085Y-58024658D01*
X205345681Y-58315554D01*
X205187780Y-58695823D01*
X205187421Y-59107571D01*
X204887826Y-59107571D01*
X197599365Y-44013776D01*
X197582564Y-43987697D01*
X197121572Y-43434506D01*
X210931190Y-43460222D01*
X210931190Y-43460222D01*
G37*
X210931190Y-43460222D02*
X210801180Y-43773323D01*
X210800821Y-44185071D01*
X210958058Y-44565615D01*
X211248954Y-44857019D01*
X211491231Y-44957621D01*
X214413355Y-47879745D01*
X214716691Y-48082427D01*
X215074500Y-48153600D01*
X215300429Y-48153600D01*
X215540823Y-48253420D01*
X215952571Y-48253779D01*
X216333115Y-48096542D01*
X216624519Y-47805646D01*
X216782420Y-47425377D01*
X216782779Y-47013629D01*
X216625542Y-46633085D01*
X216334646Y-46341681D01*
X215954377Y-46183780D01*
X215542629Y-46183421D01*
X215414537Y-46236347D01*
X212813342Y-43635152D01*
X212742456Y-43463595D01*
X247907428Y-43529079D01*
X247672754Y-44094238D01*
X247672048Y-44903811D01*
X247981205Y-45652029D01*
X248553160Y-46224983D01*
X249300838Y-46535446D01*
X250110411Y-46536152D01*
X250858629Y-46226995D01*
X251355660Y-45730831D01*
X251355660Y-47120000D01*
X251404943Y-47367765D01*
X251545291Y-47577809D01*
X251755335Y-47718157D01*
X252003100Y-47767440D01*
X254803100Y-47767440D01*
X255050865Y-47718157D01*
X255260909Y-47577809D01*
X255401257Y-47367765D01*
X255450540Y-47120000D01*
X255450540Y-46237311D01*
X258352748Y-46237311D01*
X258661905Y-46985529D01*
X259233860Y-47558483D01*
X259981538Y-47868946D01*
X260791111Y-47869652D01*
X261539329Y-47560495D01*
X262112283Y-46988540D01*
X262422746Y-46240862D01*
X262423452Y-45431289D01*
X262114295Y-44683071D01*
X261542340Y-44110117D01*
X260794662Y-43799654D01*
X259985089Y-43798948D01*
X259236871Y-44108105D01*
X258663917Y-44680060D01*
X258353454Y-45427738D01*
X258352748Y-46237311D01*
X255450540Y-46237311D01*
X255450540Y-44320000D01*
X255401257Y-44072235D01*
X255260909Y-43862191D01*
X255050865Y-43721843D01*
X254803100Y-43672560D01*
X252003100Y-43672560D01*
X251755335Y-43721843D01*
X251623745Y-43809769D01*
X251510539Y-43535789D01*
X264838218Y-43560608D01*
X251347772Y-69028553D01*
X251344371Y-69035474D01*
X231149188Y-113492662D01*
X225554521Y-101906571D01*
X227069521Y-101906571D01*
X227226758Y-102287115D01*
X227517654Y-102578519D01*
X227897923Y-102736420D01*
X228309671Y-102736779D01*
X228690215Y-102579542D01*
X228981619Y-102288646D01*
X229107327Y-101985907D01*
X233828167Y-97265067D01*
X234025430Y-96969842D01*
X234094700Y-96621600D01*
X234094700Y-93598378D01*
X234219520Y-93297777D01*
X234219879Y-92886029D01*
X234062642Y-92505485D01*
X233771746Y-92214081D01*
X233391477Y-92056180D01*
X232979729Y-92055821D01*
X232599185Y-92213058D01*
X232307781Y-92503954D01*
X232149880Y-92884223D01*
X232149521Y-93295971D01*
X232274700Y-93598928D01*
X232274700Y-96244666D01*
X227820003Y-100699363D01*
X227519185Y-100823658D01*
X227227781Y-101114554D01*
X227069880Y-101494823D01*
X227069521Y-101906571D01*
X225554521Y-101906571D01*
X221224940Y-92940371D01*
X223018221Y-92940371D01*
X223175458Y-93320915D01*
X223466354Y-93612319D01*
X223846623Y-93770220D01*
X224258371Y-93770579D01*
X224638915Y-93613342D01*
X224930319Y-93322446D01*
X225056027Y-93019707D01*
X227067533Y-91008201D01*
X227174023Y-91052420D01*
X227585771Y-91052779D01*
X227966315Y-90895542D01*
X228257719Y-90604646D01*
X228415620Y-90224377D01*
X228415979Y-89812629D01*
X228258742Y-89432085D01*
X227967846Y-89140681D01*
X227587577Y-88982780D01*
X227175829Y-88982421D01*
X226872872Y-89107600D01*
X226771200Y-89107600D01*
X226422958Y-89176870D01*
X226127733Y-89374133D01*
X223768703Y-91733163D01*
X223467885Y-91857458D01*
X223176481Y-92148354D01*
X223018580Y-92528623D01*
X223018221Y-92940371D01*
X221224940Y-92940371D01*
X217499991Y-85226311D01*
X234337048Y-85226311D01*
X234646205Y-85974529D01*
X235218160Y-86547483D01*
X235965838Y-86857946D01*
X236775411Y-86858652D01*
X237523629Y-86549495D01*
X238096583Y-85977540D01*
X238407046Y-85229862D01*
X238407752Y-84420289D01*
X238098595Y-83672071D01*
X237526640Y-83099117D01*
X236778962Y-82788654D01*
X235969389Y-82787948D01*
X235221171Y-83097105D01*
X234648217Y-83669060D01*
X234337754Y-84416738D01*
X234337048Y-85226311D01*
X217499991Y-85226311D01*
X204887826Y-59107571D01*
X205187421Y-59107571D01*
X205344658Y-59488115D01*
X205635554Y-59779519D01*
X206015823Y-59937420D01*
X206427571Y-59937779D01*
X206670024Y-59837600D01*
X209570394Y-59837600D01*
X209599158Y-59907215D01*
X209890054Y-60198619D01*
X210270323Y-60356520D01*
X210682071Y-60356879D01*
X211062615Y-60199642D01*
X211354019Y-59908746D01*
X211511920Y-59528477D01*
X211512279Y-59116729D01*
X211355042Y-58736185D01*
X211064146Y-58444781D01*
X210821869Y-58344179D01*
X210743873Y-58266183D01*
X210859415Y-58218442D01*
X211150819Y-57927546D01*
X211308720Y-57547277D01*
X211309079Y-57135529D01*
X211151842Y-56754985D01*
X210860946Y-56463581D01*
X210618669Y-56362979D01*
X209940390Y-55684700D01*
X222040510Y-55684700D01*
X222631558Y-56275748D01*
X222730958Y-56516315D01*
X223021854Y-56807719D01*
X223402123Y-56965620D01*
X223791500Y-56965959D01*
X223791500Y-57283410D01*
X217156555Y-63918355D01*
X216953873Y-64221691D01*
X216882700Y-64579500D01*
X216882700Y-75790929D01*
X216782880Y-76031323D01*
X216782521Y-76443071D01*
X216939758Y-76823615D01*
X217230654Y-77115019D01*
X217610923Y-77272920D01*
X217974900Y-77273237D01*
X217974900Y-78536800D01*
X218046073Y-78894609D01*
X218248755Y-79197945D01*
X219634358Y-80583548D01*
X219733758Y-80824115D01*
X220024654Y-81115519D01*
X220404923Y-81273420D01*
X220816671Y-81273779D01*
X221197215Y-81116542D01*
X221488619Y-80825646D01*
X221646520Y-80445377D01*
X221646879Y-80033629D01*
X221489642Y-79653085D01*
X221198746Y-79361681D01*
X220956469Y-79261079D01*
X219844900Y-78149510D01*
X219844900Y-77762100D01*
X221254700Y-77762100D01*
X221341097Y-78196446D01*
X221587134Y-78564666D01*
X221955354Y-78810703D01*
X222389700Y-78897100D01*
X225056700Y-78897100D01*
X225491046Y-78810703D01*
X225859266Y-78564666D01*
X226583166Y-77840766D01*
X226829203Y-77472545D01*
X226915600Y-77038200D01*
X226829203Y-76603855D01*
X226786210Y-76539511D01*
X230285748Y-76539511D01*
X230594905Y-77287729D01*
X231166860Y-77860683D01*
X231914538Y-78171146D01*
X232724111Y-78171852D01*
X233472329Y-77862695D01*
X234045283Y-77290740D01*
X234355746Y-76543062D01*
X234356452Y-75733489D01*
X234047295Y-74985271D01*
X233475340Y-74412317D01*
X232727662Y-74101854D01*
X231918089Y-74101148D01*
X231169871Y-74410305D01*
X230596917Y-74982260D01*
X230286454Y-75729938D01*
X230285748Y-76539511D01*
X226786210Y-76539511D01*
X226583166Y-76235634D01*
X226214945Y-75989597D01*
X225780600Y-75903200D01*
X225346255Y-75989597D01*
X224978034Y-76235634D01*
X224586568Y-76627100D01*
X222389700Y-76627100D01*
X221955354Y-76713497D01*
X221587134Y-76959534D01*
X221341097Y-77327754D01*
X221254700Y-77762100D01*
X219844900Y-77762100D01*
X219844900Y-75994018D01*
X219896923Y-76015620D01*
X220308671Y-76015979D01*
X220689215Y-75858742D01*
X220980619Y-75567846D01*
X221138520Y-75187577D01*
X221138879Y-74775829D01*
X220981642Y-74395285D01*
X220940366Y-74353937D01*
X220727910Y-73181050D01*
X220757426Y-73123584D01*
X221018719Y-72862746D01*
X221176620Y-72482477D01*
X221176979Y-72070729D01*
X221019742Y-71690185D01*
X220728846Y-71398781D01*
X220348577Y-71240880D01*
X219936829Y-71240521D01*
X219844900Y-71278505D01*
X219844900Y-68511679D01*
X220066219Y-68290746D01*
X220224120Y-67910477D01*
X220224479Y-67498729D01*
X220067242Y-67118185D01*
X219776346Y-66826781D01*
X219396077Y-66668880D01*
X218984329Y-66668521D01*
X218752700Y-66764228D01*
X218752700Y-64966790D01*
X222105600Y-61613890D01*
X222105600Y-67386200D01*
X222191997Y-67820546D01*
X222305425Y-67990303D01*
X222438034Y-68188766D01*
X225232034Y-70982766D01*
X225600255Y-71228804D01*
X226034600Y-71315200D01*
X226468946Y-71228804D01*
X226837166Y-70982766D01*
X227083204Y-70614546D01*
X227169600Y-70180200D01*
X227083204Y-69745855D01*
X226837166Y-69377634D01*
X224375600Y-66916068D01*
X224375600Y-65057135D01*
X224622054Y-65304019D01*
X225002323Y-65461920D01*
X225414071Y-65462279D01*
X225656524Y-65362100D01*
X227412610Y-65362100D01*
X229527658Y-67477148D01*
X229627058Y-67717715D01*
X229917954Y-68009119D01*
X230298223Y-68167020D01*
X230709971Y-68167379D01*
X231090515Y-68010142D01*
X231381919Y-67719246D01*
X231539820Y-67338977D01*
X231540179Y-66927229D01*
X231382942Y-66546685D01*
X231092046Y-66255281D01*
X230849769Y-66154679D01*
X228461045Y-63765955D01*
X228157709Y-63563273D01*
X227799900Y-63492100D01*
X225656271Y-63492100D01*
X225415877Y-63392280D01*
X225004129Y-63391921D01*
X224623585Y-63549158D01*
X224375600Y-63796711D01*
X224375600Y-61722232D01*
X226760966Y-59336866D01*
X227007004Y-58968645D01*
X227093400Y-58534300D01*
X227093400Y-54952900D01*
X227077416Y-54872542D01*
X227732171Y-55191461D01*
X232379784Y-59839074D01*
X232349889Y-59839048D01*
X231601671Y-60148205D01*
X231028717Y-60720160D01*
X230718254Y-61467838D01*
X230717548Y-62277411D01*
X231026705Y-63025629D01*
X231598660Y-63598583D01*
X232346338Y-63909046D01*
X233155911Y-63909752D01*
X233904129Y-63600595D01*
X233964200Y-63540629D01*
X233964200Y-64198500D01*
X233998882Y-64372856D01*
X234031817Y-64547601D01*
X234034439Y-64551611D01*
X234035373Y-64556309D01*
X234134166Y-64704164D01*
X234231438Y-64852960D01*
X237041515Y-67720154D01*
X237145458Y-67971715D01*
X237436354Y-68263119D01*
X237816623Y-68421020D01*
X238228371Y-68421379D01*
X238364365Y-68365188D01*
X238617454Y-68618719D01*
X238997723Y-68776620D01*
X239409471Y-68776979D01*
X239790015Y-68619742D01*
X240081419Y-68328846D01*
X240239320Y-67948577D01*
X240239679Y-67536829D01*
X240082442Y-67156285D01*
X239876275Y-66949758D01*
X239764581Y-66534008D01*
X239737400Y-66478982D01*
X239725427Y-66418791D01*
X239657309Y-66316845D01*
X239608384Y-66217800D01*
X241447700Y-66217800D01*
X241447700Y-66941700D01*
X241534097Y-67376046D01*
X241710751Y-67640427D01*
X241780134Y-67744266D01*
X244028034Y-69992166D01*
X244396255Y-70238204D01*
X244830600Y-70324600D01*
X245264946Y-70238204D01*
X245633166Y-69992166D01*
X245879204Y-69623946D01*
X245965600Y-69189600D01*
X245879204Y-68755255D01*
X245633166Y-68387034D01*
X243717700Y-66471568D01*
X243717700Y-66217800D01*
X243631303Y-65783454D01*
X243385266Y-65415234D01*
X243017046Y-65169197D01*
X242582700Y-65082800D01*
X242148354Y-65169197D01*
X241780134Y-65415234D01*
X241534097Y-65783454D01*
X241447700Y-66217800D01*
X239608384Y-66217800D01*
X239603009Y-66206919D01*
X239556843Y-66166486D01*
X239522745Y-66115455D01*
X236748600Y-63341310D01*
X236748600Y-60299605D01*
X236748601Y-60299600D01*
X236677427Y-59941792D01*
X236677427Y-59941791D01*
X236474745Y-59638455D01*
X234846501Y-58010211D01*
X240763248Y-58010211D01*
X241072405Y-58758429D01*
X241644360Y-59331383D01*
X242392038Y-59641846D01*
X243201611Y-59642552D01*
X243949829Y-59333395D01*
X244522783Y-58761440D01*
X244833246Y-58013762D01*
X244833952Y-57204189D01*
X244524795Y-56455971D01*
X243952840Y-55883017D01*
X243205162Y-55572554D01*
X242395589Y-55571848D01*
X241647371Y-55881005D01*
X241074417Y-56452960D01*
X240763954Y-57200638D01*
X240763248Y-58010211D01*
X234846501Y-58010211D01*
X229728401Y-52892111D01*
X240407648Y-52892111D01*
X240716805Y-53640329D01*
X241288760Y-54213283D01*
X242036438Y-54523746D01*
X242846011Y-54524452D01*
X243594229Y-54215295D01*
X244138574Y-53671899D01*
X243938954Y-54152638D01*
X243938248Y-54962211D01*
X244247405Y-55710429D01*
X244819360Y-56283383D01*
X245567038Y-56593846D01*
X246376611Y-56594552D01*
X247124829Y-56285395D01*
X247697783Y-55713440D01*
X247889847Y-55250899D01*
X248388060Y-55749983D01*
X249135738Y-56060446D01*
X249945311Y-56061152D01*
X250693529Y-55751995D01*
X251266483Y-55180040D01*
X251536157Y-54530593D01*
X251676905Y-54871229D01*
X252248860Y-55444183D01*
X252996538Y-55754646D01*
X253806111Y-55755352D01*
X254554329Y-55446195D01*
X255127283Y-54874240D01*
X255437746Y-54126562D01*
X255438452Y-53316989D01*
X255129295Y-52568771D01*
X254557340Y-51995817D01*
X253809662Y-51685354D01*
X253000089Y-51684648D01*
X252251871Y-51993805D01*
X251678917Y-52565760D01*
X251409243Y-53215207D01*
X251268495Y-52874571D01*
X250696540Y-52301617D01*
X249948862Y-51991154D01*
X249139289Y-51990448D01*
X248391071Y-52299605D01*
X247818117Y-52871560D01*
X247626053Y-53334101D01*
X247127840Y-52835017D01*
X246380162Y-52524554D01*
X245570589Y-52523848D01*
X244822371Y-52833005D01*
X244278026Y-53376401D01*
X244477646Y-52895662D01*
X244478352Y-52086089D01*
X244169195Y-51337871D01*
X243597240Y-50764917D01*
X242849562Y-50454454D01*
X242039989Y-50453748D01*
X241291771Y-50762905D01*
X240718817Y-51334860D01*
X240408354Y-52082538D01*
X240407648Y-52892111D01*
X229728401Y-52892111D01*
X227114845Y-50278555D01*
X226811509Y-50075873D01*
X226453700Y-50004700D01*
X226113471Y-50004700D01*
X225873077Y-49904880D01*
X225651345Y-49904687D01*
X225710520Y-49762177D01*
X225710879Y-49350429D01*
X225553642Y-48969885D01*
X225262746Y-48678481D01*
X224882477Y-48520580D01*
X224877257Y-48520575D01*
X226314232Y-47083600D01*
X227622100Y-47083600D01*
X228056446Y-46997203D01*
X228424666Y-46751166D01*
X228670703Y-46382946D01*
X228757100Y-45948600D01*
X228670703Y-45514254D01*
X228424666Y-45146034D01*
X228056446Y-44899997D01*
X227622100Y-44813600D01*
X225844100Y-44813600D01*
X225409754Y-44899997D01*
X225154342Y-45070658D01*
X225041534Y-45146034D01*
X221968134Y-48219434D01*
X221722097Y-48587654D01*
X221635700Y-49022000D01*
X221635700Y-51574700D01*
X221722097Y-52009046D01*
X221963151Y-52369808D01*
X221968134Y-52377266D01*
X222862958Y-53272090D01*
X222794785Y-53300258D01*
X222503381Y-53591154D01*
X222410557Y-53814700D01*
X208102200Y-53814700D01*
X207744391Y-53885873D01*
X207441055Y-54088555D01*
X206374255Y-55155355D01*
X206171573Y-55458691D01*
X206110402Y-55766219D01*
X205992685Y-55814858D01*
X205701281Y-56105754D01*
X205543380Y-56486023D01*
X205543021Y-56897771D01*
X205700258Y-57278315D01*
X205991154Y-57569719D01*
X206371423Y-57727620D01*
X206783171Y-57727979D01*
X207163715Y-57570742D01*
X207455119Y-57279846D01*
X207506401Y-57156346D01*
X207781123Y-57270420D01*
X208192871Y-57270779D01*
X208435324Y-57170600D01*
X208781710Y-57170600D01*
X209296558Y-57685448D01*
X209395958Y-57926015D01*
X209437471Y-57967600D01*
X206669771Y-57967600D01*
X206429377Y-57867780D01*
X206017629Y-57867421D01*
X205637085Y-58024658D01*
X205345681Y-58315554D01*
X205187780Y-58695823D01*
X205187421Y-59107571D01*
X204887826Y-59107571D01*
X197599365Y-44013776D01*
X197582564Y-43987697D01*
X197121572Y-43434506D01*
X210931190Y-43460222D01*
M02*
