G04 #@! TF.GenerationSoftware,KiCad,Pcbnew,no-vcs-found*
G04 #@! TF.CreationDate,2018-07-18T20:25:48+02:00*
G04 #@! TF.ProjectId,mycelium_pcb,6D7963656C69756D5F7063622E6B6963,rev?*
G04 #@! TF.SameCoordinates,Original
G04 #@! TF.FileFunction,Profile,NP*
%FSLAX46Y46*%
G04 Gerber Fmt 4.6, Leading zero omitted, Abs format (unit mm)*
G04 Created by KiCad (PCBNEW no-vcs-found) date Wed Jul 18 20:25:48 2018*
%MOMM*%
%LPD*%
G01*
G04 APERTURE LIST*
%ADD10C,0.100000*%
G04 APERTURE END LIST*
D10*
X85563100Y-61625740D02*
X86990100Y-62261140D01*
X86990100Y-62261140D02*
X96807100Y-40220240D01*
X96807100Y-40220240D02*
X22299400Y-40220240D01*
X22299400Y-40220240D02*
X31852300Y-61705840D01*
X31852300Y-61705840D02*
X30529400Y-62287240D01*
X30529400Y-62287240D02*
X35396300Y-73187740D01*
X35396300Y-73187740D02*
X36719200Y-72632040D01*
X36719200Y-72632040D02*
X45266000Y-91814340D01*
X45266000Y-91814340D02*
X43943100Y-92397540D01*
X43943100Y-92397540D02*
X48811700Y-103297640D01*
X48811700Y-103297640D02*
X50134700Y-102742340D01*
X50134700Y-102742340D02*
X59553500Y-123882840D01*
X59553500Y-123882840D02*
X68655500Y-103377740D01*
X68655500Y-103377740D02*
X67226400Y-102768440D01*
X67226400Y-102768440D02*
X72147300Y-91736040D01*
X72147300Y-91736040D02*
X73576400Y-92370040D01*
X73576400Y-92370040D02*
X82069200Y-73293540D01*
X82069200Y-73293540D02*
X80640100Y-72658540D01*
X80640100Y-72658540D02*
X85563100Y-61625740D01*
X258059100Y-63785140D02*
X267876100Y-41744240D01*
X256632100Y-63149740D02*
X258059100Y-63785140D01*
X251709100Y-74182540D02*
X256632100Y-63149740D01*
X253138200Y-74817540D02*
X251709100Y-74182540D01*
X244645400Y-93894040D02*
X253138200Y-74817540D01*
X243216300Y-93260040D02*
X244645400Y-93894040D01*
X238295400Y-104292440D02*
X243216300Y-93260040D01*
X239724500Y-104901740D02*
X238295400Y-104292440D01*
X230622500Y-125406840D02*
X239724500Y-104901740D01*
X221203700Y-104266340D02*
X230622500Y-125406840D01*
X219880700Y-104821640D02*
X221203700Y-104266340D01*
X215012100Y-93921540D02*
X219880700Y-104821640D01*
X216335000Y-93338340D02*
X215012100Y-93921540D01*
X207788200Y-74156040D02*
X216335000Y-93338340D01*
X206465300Y-74711740D02*
X207788200Y-74156040D01*
X201598400Y-63811240D02*
X206465300Y-74711740D01*
X202921300Y-63229840D02*
X201598400Y-63811240D01*
X193368400Y-41744240D02*
X202921300Y-63229840D01*
X267876100Y-41744240D02*
X193368400Y-41744240D01*
X182100300Y-39496340D02*
X107592600Y-39496340D01*
X107592600Y-39496340D02*
X117145500Y-60981940D01*
X117145500Y-60981940D02*
X115822600Y-61563340D01*
X115822600Y-61563340D02*
X120689500Y-72463840D01*
X120689500Y-72463840D02*
X122012400Y-71908140D01*
X122012400Y-71908140D02*
X130559200Y-91090440D01*
X130559200Y-91090440D02*
X129236300Y-91673640D01*
X129236300Y-91673640D02*
X134104900Y-102573740D01*
X134104900Y-102573740D02*
X135427900Y-102018440D01*
X135427900Y-102018440D02*
X144846700Y-123158940D01*
X144846700Y-123158940D02*
X153948700Y-102653840D01*
X153948700Y-102653840D02*
X152519600Y-102044540D01*
X152519600Y-102044540D02*
X157440500Y-91012140D01*
X157440500Y-91012140D02*
X158869600Y-91646140D01*
X158869600Y-91646140D02*
X167362400Y-72569640D01*
X167362400Y-72569640D02*
X165933300Y-71934640D01*
X165933300Y-71934640D02*
X170856300Y-60901840D01*
X170856300Y-60901840D02*
X172283300Y-61537240D01*
X172283300Y-61537240D02*
X182100300Y-39496340D01*
M02*
