G04 #@! TF.GenerationSoftware,KiCad,Pcbnew,no-vcs-found*
G04 #@! TF.CreationDate,2018-07-18T20:25:48+02:00*
G04 #@! TF.ProjectId,mycelium_pcb,6D7963656C69756D5F7063622E6B6963,rev?*
G04 #@! TF.SameCoordinates,Original
G04 #@! TF.FileFunction,Soldermask,Bot*
G04 #@! TF.FilePolarity,Negative*
%FSLAX46Y46*%
G04 Gerber Fmt 4.6, Leading zero omitted, Abs format (unit mm)*
G04 Created by KiCad (PCBNEW no-vcs-found) date Wed Jul 18 20:25:48 2018*
%MOMM*%
%LPD*%
G01*
G04 APERTURE LIST*
%ADD10O,2.100000X2.100000*%
%ADD11R,2.100000X2.100000*%
%ADD12C,3.200000*%
%ADD13R,3.200000X3.200000*%
%ADD14O,2.400000X2.400000*%
%ADD15R,2.400000X2.400000*%
G04 APERTURE END LIST*
D10*
X145707100Y-89789000D03*
X145707100Y-87249000D03*
X145707100Y-84709000D03*
X145707100Y-82169000D03*
X145707100Y-79629000D03*
X145707100Y-77089000D03*
X145707100Y-74549000D03*
D11*
X145707100Y-72009000D03*
D10*
X145707100Y-92329000D03*
D12*
X254863600Y-56603900D03*
X253644400Y-43586400D03*
D13*
X257492500Y-46215300D03*
D12*
X257492500Y-54215300D03*
D14*
X87210900Y-45999400D03*
D15*
X87210900Y-48539400D03*
D12*
X147193000Y-62306200D03*
X251460000Y-56553100D03*
X245757700Y-53086000D03*
D11*
X165976300Y-46139100D03*
D10*
X163436300Y-46139100D03*
X160896300Y-46139100D03*
X158356300Y-46139100D03*
X155816300Y-46139100D03*
X153276300Y-46139100D03*
D12*
X242887500Y-58483500D03*
D11*
X170954700Y-42138600D03*
D10*
X168414700Y-42138600D03*
X165874700Y-42138600D03*
X163334700Y-42138600D03*
X160794700Y-42138600D03*
X158254700Y-42138600D03*
X155714700Y-42138600D03*
X153174700Y-42138600D03*
D12*
X231394000Y-78232000D03*
D15*
X82677000Y-51206400D03*
D14*
X82677000Y-48666400D03*
D12*
X236372400Y-84823300D03*
X31559500Y-47802800D03*
X51917600Y-96786700D03*
X67729100Y-93599000D03*
M02*
