G04 #@! TF.GenerationSoftware,KiCad,Pcbnew,no-vcs-found*
G04 #@! TF.CreationDate,2018-07-18T20:25:48+02:00*
G04 #@! TF.ProjectId,mycelium_pcb,6D7963656C69756D5F7063622E6B6963,rev?*
G04 #@! TF.SameCoordinates,Original
G04 #@! TF.FileFunction,Copper,L1,Top,Signal*
G04 #@! TF.FilePolarity,Positive*
%FSLAX46Y46*%
G04 Gerber Fmt 4.6, Leading zero omitted, Abs format (unit mm)*
G04 Created by KiCad (PCBNEW no-vcs-found) date Wed Jul 18 20:25:48 2018*
%MOMM*%
%LPD*%
G01*
G04 APERTURE LIST*
%ADD10R,2.600000X1.600000*%
%ADD11R,1.600000X1.600000*%
%ADD12O,1.700000X1.700000*%
%ADD13R,1.700000X1.700000*%
%ADD14C,2.800000*%
%ADD15R,2.800000X2.800000*%
%ADD16O,2.000000X2.000000*%
%ADD17R,2.000000X2.000000*%
%ADD18C,1.000000*%
%ADD19C,0.050000*%
%ADD20R,1.500000X1.250000*%
%ADD21R,1.500000X0.600000*%
%ADD22R,2.000000X1.300000*%
%ADD23R,1.300000X1.300000*%
%ADD24R,3.200000X1.500000*%
%ADD25R,1.800000X1.800000*%
%ADD26R,1.500000X3.200000*%
%ADD27R,1.000000X1.250000*%
%ADD28R,1.500000X1.300000*%
%ADD29R,0.800000X1.500000*%
%ADD30R,1.450000X2.000000*%
%ADD31R,0.600000X0.800000*%
%ADD32R,0.508000X1.143000*%
%ADD33R,1.900000X0.800000*%
%ADD34R,1.600000X0.550000*%
%ADD35R,0.550000X1.600000*%
%ADD36R,4.600000X1.100000*%
%ADD37R,9.400000X10.800000*%
%ADD38R,4.550000X5.250000*%
%ADD39R,2.000000X7.875000*%
%ADD40C,0.800000*%
%ADD41C,0.600000*%
%ADD42C,0.800000*%
%ADD43C,0.400000*%
%ADD44C,0.550000*%
G04 APERTURE END LIST*
D10*
X225526600Y-59065000D03*
D11*
X226726600Y-64465000D03*
X224326600Y-64465000D03*
D10*
X212940900Y-47749300D03*
D11*
X214140900Y-53149300D03*
X211740900Y-53149300D03*
D12*
X145707100Y-89789000D03*
X145707100Y-87249000D03*
X145707100Y-84709000D03*
X145707100Y-82169000D03*
X145707100Y-79629000D03*
X145707100Y-77089000D03*
X145707100Y-74549000D03*
D13*
X145707100Y-72009000D03*
D12*
X145707100Y-92329000D03*
D14*
X254863600Y-56603900D03*
X253644400Y-43586400D03*
D15*
X257492500Y-46215300D03*
D14*
X257492500Y-54215300D03*
D16*
X87210900Y-45999400D03*
D17*
X87210900Y-48539400D03*
D18*
X249224800Y-73672700D03*
D19*
G36*
X252675614Y-75756419D02*
X245367250Y-72502526D01*
X245773986Y-71588981D01*
X253082350Y-74842874D01*
X252675614Y-75756419D01*
X252675614Y-75756419D01*
G37*
D18*
X40627300Y-71475600D03*
D19*
G36*
X44484850Y-70305426D02*
X37176486Y-73559319D01*
X36769750Y-72645774D01*
X44078114Y-69391881D01*
X44484850Y-70305426D01*
X44484850Y-70305426D01*
G37*
D20*
X204959900Y-51879500D03*
X207459900Y-51879500D03*
D18*
X125945900Y-70739000D03*
D19*
G36*
X129803450Y-69568826D02*
X122495086Y-72822719D01*
X122088350Y-71909174D01*
X129396714Y-68655281D01*
X129803450Y-69568826D01*
X129803450Y-69568826D01*
G37*
D18*
X127406400Y-73926700D03*
D19*
G36*
X131263950Y-72756526D02*
X123955586Y-76010419D01*
X123548850Y-75096874D01*
X130857214Y-71842981D01*
X131263950Y-72756526D01*
X131263950Y-72756526D01*
G37*
D18*
X160566100Y-77711300D03*
D19*
G36*
X164016914Y-79795019D02*
X156708550Y-76541126D01*
X157115286Y-75627581D01*
X164423650Y-78881474D01*
X164016914Y-79795019D01*
X164016914Y-79795019D01*
G37*
D21*
X240710700Y-66141600D03*
X240710700Y-67411600D03*
X240710700Y-68681600D03*
X240710700Y-69951600D03*
X240710700Y-71221600D03*
X240710700Y-72491600D03*
X240710700Y-73761600D03*
X235310700Y-73761600D03*
X235310700Y-72491600D03*
X235310700Y-71221600D03*
X235310700Y-69951600D03*
X235310700Y-68681600D03*
X235310700Y-67411600D03*
X235310700Y-66141600D03*
D22*
X230833600Y-108155900D03*
D23*
X229533600Y-102755900D03*
X231833600Y-102755900D03*
D20*
X228162800Y-50736500D03*
X230662800Y-50736500D03*
D24*
X208654400Y-44653200D03*
X204654400Y-44653200D03*
D20*
X233750800Y-52400200D03*
X236250800Y-52400200D03*
D25*
X250444000Y-47747100D03*
X250444000Y-51897100D03*
D20*
X134957500Y-52425600D03*
X137457500Y-52425600D03*
X151048400Y-53911500D03*
X153548400Y-53911500D03*
X137457500Y-54483000D03*
X134957500Y-54483000D03*
D26*
X78676500Y-48584100D03*
X78676500Y-52584100D03*
D24*
X64586100Y-60185300D03*
X68586100Y-60185300D03*
D27*
X245811800Y-49314100D03*
X247811800Y-49314100D03*
X153184100Y-60731400D03*
X151184100Y-60731400D03*
X237467900Y-63703200D03*
X239467900Y-63703200D03*
X229733600Y-75184000D03*
X231733600Y-75184000D03*
X229695500Y-72732900D03*
X231695500Y-72732900D03*
X211750400Y-62560200D03*
X213750400Y-62560200D03*
X217770200Y-59740800D03*
X219770200Y-59740800D03*
X233454700Y-50482500D03*
X235454700Y-50482500D03*
D24*
X234740200Y-61074300D03*
X230740200Y-61074300D03*
D20*
X229369300Y-99974400D03*
X231869300Y-99974400D03*
X224416300Y-100025200D03*
X226916300Y-100025200D03*
X238308200Y-95364300D03*
X235808200Y-95364300D03*
X229534400Y-83591400D03*
X232034400Y-83591400D03*
X161792600Y-59537600D03*
X164292600Y-59537600D03*
X164241800Y-53441600D03*
X161741800Y-53441600D03*
X33497200Y-52476400D03*
X35997200Y-52476400D03*
X42194800Y-43561000D03*
X39694800Y-43561000D03*
X47617700Y-49644300D03*
X45117700Y-49644300D03*
D24*
X54654200Y-84582000D03*
X50654200Y-84582000D03*
X58718700Y-81407000D03*
X62718700Y-81407000D03*
D20*
X62224600Y-68986400D03*
X64724600Y-68986400D03*
D24*
X56940700Y-65874900D03*
X60940700Y-65874900D03*
D20*
X56916000Y-96545400D03*
X59416000Y-96545400D03*
X54285200Y-91821000D03*
X51785200Y-91821000D03*
D28*
X169312600Y-46405800D03*
X172012600Y-46405800D03*
D14*
X147193000Y-62306200D03*
X251460000Y-56553100D03*
X245757700Y-53086000D03*
D13*
X165976300Y-46139100D03*
D12*
X163436300Y-46139100D03*
X160896300Y-46139100D03*
X158356300Y-46139100D03*
X155816300Y-46139100D03*
X153276300Y-46139100D03*
D29*
X120752000Y-46195000D03*
X121852000Y-46195000D03*
X122952000Y-46195000D03*
X124052000Y-46195000D03*
X125152000Y-46195000D03*
X126252000Y-46195000D03*
X127352000Y-46195000D03*
X128452000Y-46195000D03*
D30*
X130827000Y-51895000D03*
X117077000Y-51895000D03*
X117077000Y-43595000D03*
X130827000Y-43595000D03*
D14*
X242887500Y-58483500D03*
D13*
X170954700Y-42138600D03*
D12*
X168414700Y-42138600D03*
X165874700Y-42138600D03*
X163334700Y-42138600D03*
X160794700Y-42138600D03*
X158254700Y-42138600D03*
X155714700Y-42138600D03*
X153174700Y-42138600D03*
D18*
X128790700Y-77139800D03*
D19*
G36*
X132648250Y-75969626D02*
X125339886Y-79223519D01*
X124933150Y-78309974D01*
X132241514Y-75056081D01*
X132648250Y-75969626D01*
X132648250Y-75969626D01*
G37*
D18*
X130225800Y-80327500D03*
D19*
G36*
X134083350Y-79157326D02*
X126774986Y-82411219D01*
X126368250Y-81497674D01*
X133676614Y-78243781D01*
X134083350Y-79157326D01*
X134083350Y-79157326D01*
G37*
D18*
X133057900Y-86690200D03*
D19*
G36*
X136915450Y-85520026D02*
X129607086Y-88773919D01*
X129200350Y-87860374D01*
X136508714Y-84606481D01*
X136915450Y-85520026D01*
X136915450Y-85520026D01*
G37*
D18*
X163449000Y-71488300D03*
D19*
G36*
X166899814Y-73572019D02*
X159591450Y-70318126D01*
X159998186Y-69404581D01*
X167306550Y-72658474D01*
X166899814Y-73572019D01*
X166899814Y-73572019D01*
G37*
D18*
X161912300Y-74536300D03*
D19*
G36*
X165363114Y-76620019D02*
X158054750Y-73366126D01*
X158461486Y-72452581D01*
X165769850Y-75706474D01*
X165363114Y-76620019D01*
X165363114Y-76620019D01*
G37*
D14*
X231394000Y-78232000D03*
D18*
X211836000Y-73025000D03*
D19*
G36*
X215693550Y-71854826D02*
X208385186Y-75108719D01*
X207978450Y-74195174D01*
X215286814Y-70941281D01*
X215693550Y-71854826D01*
X215693550Y-71854826D01*
G37*
D18*
X213169500Y-76454000D03*
D19*
G36*
X217027050Y-75283826D02*
X209718686Y-78537719D01*
X209311950Y-77624174D01*
X216620314Y-74370281D01*
X217027050Y-75283826D01*
X217027050Y-75283826D01*
G37*
D18*
X214579200Y-79629000D03*
D19*
G36*
X218436750Y-78458826D02*
X211128386Y-81712719D01*
X210721650Y-80799174D01*
X218030014Y-77545281D01*
X218436750Y-78458826D01*
X218436750Y-78458826D01*
G37*
D17*
X82677000Y-51206400D03*
D16*
X82677000Y-48666400D03*
D18*
X246354600Y-79984600D03*
D19*
G36*
X249805414Y-82068319D02*
X242497050Y-78814426D01*
X242903786Y-77900881D01*
X250212150Y-81154774D01*
X249805414Y-82068319D01*
X249805414Y-82068319D01*
G37*
D14*
X236372400Y-84823300D03*
D18*
X131673600Y-83489800D03*
D19*
G36*
X135531150Y-82319626D02*
X128222786Y-85573519D01*
X127816050Y-84659974D01*
X135124414Y-81406081D01*
X135531150Y-82319626D01*
X135531150Y-82319626D01*
G37*
D18*
X159169100Y-80873600D03*
D19*
G36*
X162619914Y-82957319D02*
X155311550Y-79703426D01*
X155718286Y-78789881D01*
X163026650Y-82043774D01*
X162619914Y-82957319D01*
X162619914Y-82957319D01*
G37*
D18*
X216103200Y-83019900D03*
D19*
G36*
X219960750Y-81849726D02*
X212652386Y-85103619D01*
X212245650Y-84190074D01*
X219554014Y-80936181D01*
X219960750Y-81849726D01*
X219960750Y-81849726D01*
G37*
D18*
X247802400Y-76822300D03*
D19*
G36*
X251253214Y-78906019D02*
X243944850Y-75652126D01*
X244351586Y-74738581D01*
X251659950Y-77992474D01*
X251253214Y-78906019D01*
X251253214Y-78906019D01*
G37*
D18*
X244957600Y-83108800D03*
D19*
G36*
X248408414Y-85192519D02*
X241100050Y-81938626D01*
X241506786Y-81025081D01*
X248815150Y-84278974D01*
X248408414Y-85192519D01*
X248408414Y-85192519D01*
G37*
D14*
X31559500Y-47802800D03*
X51917600Y-96786700D03*
X67729100Y-93599000D03*
D18*
X78003400Y-72199500D03*
D19*
G36*
X81454214Y-74283219D02*
X74145850Y-71029326D01*
X74552586Y-70115781D01*
X81860950Y-73369674D01*
X81454214Y-74283219D01*
X81454214Y-74283219D01*
G37*
D18*
X76606400Y-75387200D03*
D19*
G36*
X80057214Y-77470919D02*
X72748850Y-74217026D01*
X73155586Y-73303481D01*
X80463950Y-76557374D01*
X80057214Y-77470919D01*
X80057214Y-77470919D01*
G37*
D18*
X75044300Y-78536800D03*
D19*
G36*
X78495114Y-80620519D02*
X71186750Y-77366626D01*
X71593486Y-76453081D01*
X78901850Y-79706974D01*
X78495114Y-80620519D01*
X78495114Y-80620519D01*
G37*
D18*
X73672700Y-81699100D03*
D19*
G36*
X77123514Y-83782819D02*
X69815150Y-80528926D01*
X70221886Y-79615381D01*
X77530250Y-82869274D01*
X77123514Y-83782819D01*
X77123514Y-83782819D01*
G37*
D18*
X72250300Y-84886800D03*
D19*
G36*
X75701114Y-86970519D02*
X68392750Y-83716626D01*
X68799486Y-82803081D01*
X76107850Y-86056974D01*
X75701114Y-86970519D01*
X75701114Y-86970519D01*
G37*
D18*
X70916800Y-88061800D03*
D19*
G36*
X74367614Y-90145519D02*
X67059250Y-86891626D01*
X67465986Y-85978081D01*
X74774350Y-89231974D01*
X74367614Y-90145519D01*
X74367614Y-90145519D01*
G37*
D18*
X42024300Y-74650600D03*
D19*
G36*
X45881850Y-73480426D02*
X38573486Y-76734319D01*
X38166750Y-75820774D01*
X45475114Y-72566881D01*
X45881850Y-73480426D01*
X45881850Y-73480426D01*
G37*
D18*
X43421300Y-77863700D03*
D19*
G36*
X47278850Y-76693526D02*
X39970486Y-79947419D01*
X39563750Y-79033874D01*
X46872114Y-75779981D01*
X47278850Y-76693526D01*
X47278850Y-76693526D01*
G37*
D18*
X44754800Y-81076800D03*
D19*
G36*
X48612350Y-79906626D02*
X41303986Y-83160519D01*
X40897250Y-82246974D01*
X48205614Y-78993081D01*
X48612350Y-79906626D01*
X48612350Y-79906626D01*
G37*
D28*
X220831400Y-55130700D03*
X218131400Y-55130700D03*
X220971100Y-47993300D03*
X218271100Y-47993300D03*
X218169500Y-52806600D03*
X220869500Y-52806600D03*
X220920300Y-50507900D03*
X218220300Y-50507900D03*
X228634300Y-57073800D03*
X231334300Y-57073800D03*
D31*
X136195700Y-59029600D03*
X137895700Y-59029600D03*
D32*
X58166000Y-92862400D03*
X59436000Y-92862400D03*
X60706000Y-92862400D03*
X61976000Y-92862400D03*
X61976000Y-86512400D03*
X60706000Y-86512400D03*
X59436000Y-86512400D03*
X58166000Y-86512400D03*
D33*
X243333400Y-49364900D03*
X240333400Y-50314900D03*
X240333400Y-48414900D03*
X222578800Y-71859100D03*
X222578800Y-73759100D03*
X225578800Y-72809100D03*
D28*
X153343600Y-62903100D03*
X150643600Y-62903100D03*
X204758300Y-49771300D03*
X207458300Y-49771300D03*
X207018900Y-47129700D03*
X209718900Y-47129700D03*
X141728200Y-62712600D03*
X144428200Y-62712600D03*
X218131400Y-57111900D03*
X220831400Y-57111900D03*
X233727000Y-47802800D03*
X236427000Y-47802800D03*
X236427000Y-54292500D03*
X233727000Y-54292500D03*
X242904000Y-52997100D03*
X240204000Y-52997100D03*
X229307400Y-66255900D03*
X232007400Y-66255900D03*
X232109000Y-63982600D03*
X229409000Y-63982600D03*
X212187800Y-68719700D03*
X214887800Y-68719700D03*
X223777800Y-68922900D03*
X221077800Y-68922900D03*
X210981300Y-64579500D03*
X213681300Y-64579500D03*
X208690200Y-64998600D03*
X205990200Y-64998600D03*
X62035700Y-72898000D03*
X64735700Y-72898000D03*
X215002100Y-57353200D03*
X212302100Y-57353200D03*
X212264000Y-60185300D03*
X214964000Y-60185300D03*
X220176100Y-90144600D03*
X222876100Y-90144600D03*
X224100400Y-97751900D03*
X226800400Y-97751900D03*
X231994700Y-97739200D03*
X229294700Y-97739200D03*
X238293900Y-99441000D03*
X235593900Y-99441000D03*
X230508800Y-86220300D03*
X227808800Y-86220300D03*
X168804600Y-51295300D03*
X171504600Y-51295300D03*
X41728400Y-60858400D03*
X44428400Y-60858400D03*
X41728400Y-58343800D03*
X44428400Y-58343800D03*
X45055800Y-52184300D03*
X47755800Y-52184300D03*
X39721800Y-46837600D03*
X42421800Y-46837600D03*
X58080900Y-78333600D03*
X55380900Y-78333600D03*
X55223400Y-81381600D03*
X52523400Y-81381600D03*
X51748700Y-88722200D03*
X54448700Y-88722200D03*
X61743600Y-96431100D03*
X64443600Y-96431100D03*
D34*
X148382300Y-57435400D03*
X148382300Y-56635400D03*
X148382300Y-55835400D03*
X148382300Y-55035400D03*
X148382300Y-54235400D03*
X148382300Y-53435400D03*
X148382300Y-52635400D03*
X148382300Y-51835400D03*
D35*
X146932300Y-50385400D03*
X146132300Y-50385400D03*
X145332300Y-50385400D03*
X144532300Y-50385400D03*
X143732300Y-50385400D03*
X142932300Y-50385400D03*
X142132300Y-50385400D03*
X141332300Y-50385400D03*
D34*
X139882300Y-51835400D03*
X139882300Y-52635400D03*
X139882300Y-53435400D03*
X139882300Y-54235400D03*
X139882300Y-55035400D03*
X139882300Y-55835400D03*
X139882300Y-56635400D03*
X139882300Y-57435400D03*
D35*
X141332300Y-58885400D03*
X142132300Y-58885400D03*
X142932300Y-58885400D03*
X143732300Y-58885400D03*
X144532300Y-58885400D03*
X145332300Y-58885400D03*
X146132300Y-58885400D03*
X146932300Y-58885400D03*
D36*
X73427900Y-53568600D03*
X73427900Y-48488600D03*
D37*
X64277900Y-51028600D03*
D38*
X61852900Y-48253600D03*
X66702900Y-53803600D03*
X61852900Y-53803600D03*
X66702900Y-48253600D03*
D32*
X205397100Y-54610000D03*
X206667100Y-54610000D03*
X207937100Y-54610000D03*
X209207100Y-54610000D03*
X209207100Y-60960000D03*
X207937100Y-60960000D03*
X206667100Y-60960000D03*
X205397100Y-60960000D03*
X226034600Y-94894400D03*
X227304600Y-94894400D03*
X228574600Y-94894400D03*
X229844600Y-94894400D03*
X231114600Y-94894400D03*
X232384600Y-94894400D03*
X233654600Y-94894400D03*
X233654600Y-88544400D03*
X232384600Y-88544400D03*
X229844600Y-88544400D03*
X228574600Y-88544400D03*
X227304600Y-88544400D03*
X226034600Y-88544400D03*
X231114600Y-88544400D03*
X39192200Y-49479200D03*
X40462200Y-49479200D03*
X41732200Y-49479200D03*
X43002200Y-49479200D03*
X43002200Y-55829200D03*
X41732200Y-55829200D03*
X40462200Y-55829200D03*
X39192200Y-55829200D03*
X55854600Y-75184000D03*
X57124600Y-75184000D03*
X58394600Y-75184000D03*
X59664600Y-75184000D03*
X59664600Y-68834000D03*
X58394600Y-68834000D03*
X57124600Y-68834000D03*
X55854600Y-68834000D03*
D39*
X157187900Y-53130200D03*
X157187900Y-65005200D03*
D40*
X229247700Y-79743300D03*
X240106200Y-83820000D03*
X244640100Y-77343000D03*
X215417400Y-51523900D03*
X226707700Y-48475900D03*
X224294700Y-75857100D03*
X216789000Y-65798700D03*
X213512400Y-74295000D03*
X134264400Y-57340500D03*
X135788400Y-62865000D03*
X159816800Y-71691500D03*
X160147000Y-67221100D03*
X154457400Y-72999600D03*
X227037900Y-71894700D03*
X226123500Y-55968900D03*
X135750300Y-87833200D03*
X131038600Y-74434700D03*
X61798200Y-60858400D03*
X61353700Y-63423800D03*
X131864100Y-53911500D03*
X153695400Y-52654200D03*
X165633400Y-48221900D03*
X59931300Y-77533500D03*
X59397900Y-83667600D03*
X67386200Y-66611500D03*
X64033400Y-62865000D03*
X132207000Y-67729100D03*
X135788400Y-71412100D03*
X156095700Y-70332600D03*
X149466300Y-72009000D03*
X153619200Y-65328800D03*
X150647400Y-66268600D03*
X47726600Y-57327800D03*
X46888400Y-59626500D03*
X242582700Y-66217800D03*
X244830600Y-69189600D03*
X233400600Y-65951100D03*
X233514900Y-64503300D03*
X232257600Y-71018400D03*
X223608900Y-55930800D03*
X206578200Y-56692800D03*
X227711000Y-60579000D03*
X224307400Y-79679800D03*
X233184700Y-93091000D03*
X228104700Y-101701600D03*
X227380800Y-90017600D03*
X224053400Y-92735400D03*
X49453800Y-72580500D03*
X44234100Y-46786800D03*
X61607700Y-67627500D03*
X54178200Y-70866000D03*
X142659100Y-56807100D03*
X137160000Y-76466700D03*
X137274300Y-81953100D03*
X139065000Y-84734400D03*
X143713200Y-60934600D03*
X149352000Y-73113900D03*
X147929600Y-73164700D03*
X142100300Y-60604400D03*
X138137900Y-57162700D03*
X138023600Y-75717400D03*
X141338300Y-57277000D03*
X139979400Y-76085700D03*
X139954000Y-58610500D03*
X141617700Y-75819000D03*
X136880600Y-50596800D03*
X125158500Y-47929800D03*
X141605000Y-52197000D03*
X152704800Y-49517300D03*
X145427700Y-45872400D03*
X136017000Y-46634400D03*
X150495000Y-50215800D03*
X144538700Y-57365900D03*
X134696200Y-84289900D03*
X134620000Y-73012300D03*
X217817700Y-76238100D03*
X223380300Y-54178200D03*
X222580200Y-50444400D03*
X239077500Y-67360800D03*
X157632400Y-78232000D03*
X143725900Y-54152800D03*
X219532200Y-76238100D03*
X220141800Y-72275700D03*
X225247200Y-52844700D03*
X237858300Y-67170300D03*
X67703700Y-80835500D03*
X63119000Y-93573600D03*
X66522600Y-80581500D03*
X60655200Y-94322900D03*
X53187600Y-73914000D03*
X59880500Y-71666100D03*
X207987900Y-56235600D03*
X210273900Y-57340500D03*
X227152200Y-67386200D03*
X226923600Y-70180200D03*
X206222600Y-58902600D03*
X210477100Y-59321700D03*
D41*
X213385400Y-54146800D02*
X213385400Y-53904800D01*
X213385400Y-53904800D02*
X214140900Y-53149300D01*
D42*
X78676500Y-52584100D02*
X81299300Y-52584100D01*
X81299300Y-52584100D02*
X82677000Y-51206400D01*
X82677000Y-51206400D02*
X84543900Y-51206400D01*
X84543900Y-51206400D02*
X87210900Y-48539400D01*
X229733600Y-75184000D02*
X229733600Y-76018900D01*
X228638100Y-79133700D02*
X229247700Y-79743300D01*
X228638100Y-77114400D02*
X228638100Y-79133700D01*
X229733600Y-76018900D02*
X228638100Y-77114400D01*
X238308200Y-95364300D02*
X238308200Y-86951500D01*
X238308200Y-86951500D02*
X240106200Y-85153500D01*
X240106200Y-85153500D02*
X240106200Y-83820000D01*
X245160800Y-76822300D02*
X247802400Y-76822300D01*
X244640100Y-77343000D02*
X245160800Y-76822300D01*
X54285200Y-91821000D02*
X54285200Y-96576200D01*
X54444900Y-74104500D02*
X54902100Y-73647300D01*
X54444900Y-76085700D02*
X54444900Y-74104500D01*
X47053500Y-83477100D02*
X54444900Y-76085700D01*
X47053500Y-96062800D02*
X47053500Y-83477100D01*
X50292000Y-99301300D02*
X47053500Y-96062800D01*
X53200300Y-99301300D02*
X50292000Y-99301300D01*
X54254400Y-98247200D02*
X53200300Y-99301300D01*
X54254400Y-96607000D02*
X54254400Y-98247200D01*
X54285200Y-96576200D02*
X54254400Y-96607000D01*
D41*
X52920900Y-65874900D02*
X52920900Y-64046100D01*
X47218600Y-58343800D02*
X44428400Y-58343800D01*
X52920900Y-64046100D02*
X47218600Y-58343800D01*
X44428400Y-58343800D02*
X43980100Y-58343800D01*
X43980100Y-58343800D02*
X43002200Y-57365900D01*
X43002200Y-57365900D02*
X43002200Y-55829200D01*
D42*
X67316350Y-64522350D02*
X63734950Y-64522350D01*
X56940700Y-63137800D02*
X56940700Y-65874900D01*
X58216800Y-61861700D02*
X56940700Y-63137800D01*
X61468000Y-61861700D02*
X58216800Y-61861700D01*
X62915800Y-63309500D02*
X61468000Y-61861700D01*
X62915800Y-63703200D02*
X62915800Y-63309500D01*
X63734950Y-64522350D02*
X62915800Y-63703200D01*
D41*
X55854600Y-75184000D02*
X55854600Y-74599800D01*
X55854600Y-74599800D02*
X54902100Y-73647300D01*
X52882800Y-68084700D02*
X51796950Y-66998850D01*
X54902100Y-73647300D02*
X52882800Y-71628000D01*
X52882800Y-71628000D02*
X52882800Y-68084700D01*
D42*
X239467900Y-63703200D02*
X239467900Y-61388500D01*
X236427000Y-58347600D02*
X236427000Y-54292500D01*
X239467900Y-61388500D02*
X236427000Y-58347600D01*
X227908800Y-50685700D02*
X228277100Y-49219800D01*
X215417400Y-51523900D02*
X213385400Y-54146800D01*
X228277100Y-49219800D02*
X226707700Y-48475900D01*
X213385400Y-54146800D02*
X213385400Y-54419500D01*
X236263500Y-52387500D02*
X238264700Y-52387500D01*
X238874300Y-52997100D02*
X240204000Y-52997100D01*
X238264700Y-52387500D02*
X238874300Y-52997100D01*
X236427000Y-54292500D02*
X236427000Y-52551000D01*
X236427000Y-52551000D02*
X236263500Y-52387500D01*
X233654600Y-94894400D02*
X233654600Y-96075500D01*
X238308200Y-96247900D02*
X238308200Y-95364300D01*
X237477300Y-97078800D02*
X238308200Y-96247900D01*
X234657900Y-97078800D02*
X237477300Y-97078800D01*
X233654600Y-96075500D02*
X234657900Y-97078800D01*
D41*
X247802400Y-76822300D02*
X246481600Y-76822300D01*
X243725700Y-66903600D02*
X244906800Y-65722500D01*
X243725700Y-74066400D02*
X243725700Y-66903600D01*
X246481600Y-76822300D02*
X243725700Y-74066400D01*
X239467900Y-63703200D02*
X242887500Y-63703200D01*
X242887500Y-63703200D02*
X244906800Y-65722500D01*
X229733600Y-75184000D02*
X224967800Y-75184000D01*
X224967800Y-75184000D02*
X224294700Y-75857100D01*
X235310700Y-73761600D02*
X232956100Y-73761600D01*
X232727500Y-73990200D02*
X229733600Y-73990200D01*
X232956100Y-73761600D02*
X232727500Y-73990200D01*
X229733600Y-75184000D02*
X229733600Y-73990200D01*
X229733600Y-73990200D02*
X229733600Y-72771000D01*
X229733600Y-72771000D02*
X229695500Y-72732900D01*
X216408000Y-64579500D02*
X216408000Y-65417700D01*
X216408000Y-65417700D02*
X216789000Y-65798700D01*
X213169500Y-74637900D02*
X213169500Y-76454000D01*
X213512400Y-74295000D02*
X213169500Y-74637900D01*
X213681300Y-64579500D02*
X216408000Y-64579500D01*
X216408000Y-64579500D02*
X216547700Y-64579500D01*
X219770200Y-61357000D02*
X219770200Y-59740800D01*
X216547700Y-64579500D02*
X219770200Y-61357000D01*
X209718900Y-47129700D02*
X209718900Y-49620500D01*
X209718900Y-49620500D02*
X207459900Y-51879500D01*
X213681300Y-64579500D02*
X213681300Y-64491100D01*
X213681300Y-64491100D02*
X211750400Y-62560200D01*
X209207100Y-60960000D02*
X209207100Y-61391800D01*
X209207100Y-61391800D02*
X210375500Y-62560200D01*
X210375500Y-62560200D02*
X211750400Y-62560200D01*
X211750400Y-62560200D02*
X211861400Y-62671200D01*
X207459900Y-51879500D02*
X209207100Y-52654200D01*
X210235800Y-53682900D02*
X210235800Y-55778400D01*
X209207100Y-52654200D02*
X210235800Y-53682900D01*
X209207100Y-60960000D02*
X209207100Y-56807100D01*
X211930900Y-55283100D02*
X213385400Y-54419500D01*
X210731100Y-55283100D02*
X211930900Y-55283100D01*
X209207100Y-56807100D02*
X210235800Y-55778400D01*
X210235800Y-55778400D02*
X210731100Y-55283100D01*
X133527800Y-74549000D02*
X133527800Y-69430900D01*
X134957500Y-56647400D02*
X134957500Y-54483000D01*
X134264400Y-57340500D02*
X134957500Y-56647400D01*
X135788400Y-67170300D02*
X135788400Y-62865000D01*
X133527800Y-69430900D02*
X135788400Y-67170300D01*
X164292600Y-59537600D02*
X164292600Y-63075500D01*
X161912300Y-73787000D02*
X161912300Y-74536300D01*
X159816800Y-71691500D02*
X161912300Y-73787000D01*
X164292600Y-63075500D02*
X160147000Y-67221100D01*
X155257500Y-72199500D02*
X155257500Y-72085200D01*
X154457400Y-72999600D02*
X155257500Y-72199500D01*
X161912300Y-74536300D02*
X157708600Y-74536300D01*
X157708600Y-74536300D02*
X155257500Y-72085200D01*
X151980900Y-61528200D02*
X151184100Y-60731400D01*
X155257500Y-72085200D02*
X151866600Y-68694300D01*
X151866600Y-68694300D02*
X151866600Y-64503300D01*
X151866600Y-64503300D02*
X151980900Y-64389000D01*
X151980900Y-64389000D02*
X151980900Y-61528200D01*
X169312600Y-46405800D02*
X166243000Y-46405800D01*
X166243000Y-46405800D02*
X165976300Y-46139100D01*
D42*
X128790700Y-77139800D02*
X130619500Y-77139800D01*
X133210300Y-74549000D02*
X133527800Y-74549000D01*
X133527800Y-74549000D02*
X145707100Y-74549000D01*
X130619500Y-77139800D02*
X133210300Y-74549000D01*
D43*
X164292600Y-59537600D02*
X164292600Y-53492400D01*
X164292600Y-53492400D02*
X164241800Y-53441600D01*
D41*
X164241800Y-53441600D02*
X164241800Y-47873600D01*
X164241800Y-47873600D02*
X165976300Y-46139100D01*
X165976300Y-46139100D02*
X165976300Y-44577000D01*
X165976300Y-44577000D02*
X168414700Y-42138600D01*
D43*
X134957500Y-54483000D02*
X134957500Y-54553800D01*
D41*
X134957500Y-52425600D02*
X134957500Y-52394800D01*
X134957500Y-52394800D02*
X132283200Y-49720500D01*
X126252000Y-48489900D02*
X126252000Y-46195000D01*
X127482600Y-49720500D02*
X126252000Y-48489900D01*
X132283200Y-49720500D02*
X127482600Y-49720500D01*
X134957500Y-54483000D02*
X134957500Y-52425600D01*
D43*
X148382300Y-55835400D02*
X150120200Y-55835400D01*
X150120200Y-55835400D02*
X151184100Y-56899300D01*
X151184100Y-56899300D02*
X151184100Y-60731400D01*
X148382300Y-55835400D02*
X145230800Y-55835400D01*
X145230800Y-55835400D02*
X144430800Y-55035400D01*
X148382300Y-54235400D02*
X145230800Y-54235400D01*
X144430800Y-55035400D02*
X139882300Y-55035400D01*
X145230800Y-54235400D02*
X144430800Y-55035400D01*
X148382300Y-54235400D02*
X150724500Y-54235400D01*
X150724500Y-54235400D02*
X151048400Y-53911500D01*
D41*
X64724600Y-68986400D02*
X64724600Y-67114100D01*
X68586100Y-63252600D02*
X68586100Y-60185300D01*
X64724600Y-67114100D02*
X67316350Y-64522350D01*
X67316350Y-64522350D02*
X68586100Y-63252600D01*
X75044300Y-78536800D02*
X71602600Y-78536800D01*
X64724600Y-69730300D02*
X64724600Y-68986400D01*
X63360300Y-71094600D02*
X64724600Y-69730300D01*
X63360300Y-74218800D02*
X63360300Y-71094600D01*
X63931800Y-74790300D02*
X63360300Y-74218800D01*
X67856100Y-74790300D02*
X63931800Y-74790300D01*
X71602600Y-78536800D02*
X67856100Y-74790300D01*
X54285200Y-91821000D02*
X56210200Y-91821000D01*
X59436000Y-91871800D02*
X59436000Y-92862400D01*
X58699400Y-91135200D02*
X59436000Y-91871800D01*
X56896000Y-91135200D02*
X58699400Y-91135200D01*
X56210200Y-91821000D02*
X56896000Y-91135200D01*
X59416000Y-96545400D02*
X59416000Y-92882400D01*
X59416000Y-92882400D02*
X59436000Y-92862400D01*
D42*
X42075100Y-74764900D02*
X44030900Y-74764900D01*
X44030900Y-74764900D02*
X51796950Y-66998850D01*
X51796950Y-66998850D02*
X52920900Y-65874900D01*
X52920900Y-65874900D02*
X56940700Y-65874900D01*
D41*
X43002200Y-55829200D02*
X44030900Y-55829200D01*
X44030900Y-55829200D02*
X46367700Y-53492400D01*
X46367700Y-53492400D02*
X46367700Y-50894300D01*
X46367700Y-50894300D02*
X45117700Y-49644300D01*
D42*
X73427900Y-53568600D02*
X77692000Y-53568600D01*
X77692000Y-53568600D02*
X78676500Y-52584100D01*
X68586100Y-60185300D02*
X68808600Y-60185300D01*
X68808600Y-60185300D02*
X73427900Y-55566000D01*
X73427900Y-55566000D02*
X73427900Y-53568600D01*
X250444000Y-46139100D02*
X250444000Y-45351700D01*
X250444000Y-45351700D02*
X250456700Y-45339000D01*
X250456700Y-45339000D02*
X251942600Y-45339000D01*
X233727000Y-46523900D02*
X233727000Y-47802800D01*
X234911900Y-45339000D02*
X250456700Y-45339000D01*
X233727000Y-46523900D02*
X234911900Y-45339000D01*
X251942600Y-45339000D02*
X251942600Y-45288200D01*
X251942600Y-45288200D02*
X253644400Y-43586400D01*
X257416300Y-46291500D02*
X256146300Y-46291500D01*
X251942600Y-45339000D02*
X252895100Y-46291500D01*
X252895100Y-46291500D02*
X256146300Y-46291500D01*
X257416300Y-46291500D02*
X257492500Y-46215300D01*
X250444000Y-47747100D02*
X250444000Y-46139100D01*
X250444000Y-46139100D02*
X250444000Y-45859700D01*
X250444000Y-45859700D02*
X250431300Y-45847000D01*
X230662800Y-50736500D02*
X230662800Y-49232500D01*
X230662800Y-49232500D02*
X232092500Y-47802800D01*
X232092500Y-47802800D02*
X233727000Y-47802800D01*
X230662800Y-50736500D02*
X230662800Y-50498700D01*
X227037900Y-71894700D02*
X226123500Y-72809100D01*
X230987600Y-50736500D02*
X226123500Y-55968900D01*
X226123500Y-72809100D02*
X225578800Y-72809100D01*
D41*
X212840900Y-47749300D02*
X212536100Y-46420100D01*
X210769200Y-44653200D02*
X208654400Y-44653200D01*
X212536100Y-46420100D02*
X210769200Y-44653200D01*
X207458300Y-49771300D02*
X207458300Y-48695600D01*
X207018900Y-48256200D02*
X207018900Y-47017700D01*
X207458300Y-48695600D02*
X207018900Y-48256200D01*
X207018900Y-47017700D02*
X204654400Y-44653200D01*
D44*
X209207100Y-54610000D02*
X209207100Y-54190900D01*
X209207100Y-54190900D02*
X208178400Y-53162200D01*
X208178400Y-53162200D02*
X206679800Y-53162200D01*
X206679800Y-53162200D02*
X206222600Y-52705000D01*
X206222600Y-52705000D02*
X206222600Y-50139600D01*
X206222600Y-50139600D02*
X206590900Y-49771300D01*
X206590900Y-49771300D02*
X207458300Y-49771300D01*
D41*
X207458300Y-49771300D02*
X207458300Y-49406800D01*
D42*
X236427000Y-47802800D02*
X236427000Y-49510200D01*
X236427000Y-49510200D02*
X235454700Y-50482500D01*
X240333400Y-48414900D02*
X237039100Y-48414900D01*
X237039100Y-48414900D02*
X236427000Y-47802800D01*
X236588300Y-47964100D02*
X236427000Y-47802800D01*
X233727000Y-54292500D02*
X233727000Y-52424000D01*
X233727000Y-52424000D02*
X233763500Y-52387500D01*
X233763500Y-52387500D02*
X233763500Y-52173700D01*
X233763500Y-52173700D02*
X235454700Y-50482500D01*
X243333400Y-49364900D02*
X243333400Y-48665000D01*
X247811800Y-48015400D02*
X247811800Y-49314100D01*
X247116600Y-47320200D02*
X247811800Y-48015400D01*
X244678200Y-47320200D02*
X247116600Y-47320200D01*
X243333400Y-48665000D02*
X244678200Y-47320200D01*
X251460000Y-56553100D02*
X251460000Y-54978300D01*
X251460000Y-54978300D02*
X252223000Y-54215300D01*
X251460000Y-56553100D02*
X254812800Y-56553100D01*
X254812800Y-56553100D02*
X254863600Y-56603900D01*
X257492500Y-54215300D02*
X252223000Y-54215300D01*
X252223000Y-54215300D02*
X251471700Y-54215300D01*
X251471700Y-54215300D02*
X250444000Y-53187600D01*
X250444000Y-51897100D02*
X250444000Y-53187600D01*
X250444000Y-53187600D02*
X250444000Y-53289200D01*
X247811800Y-51584100D02*
X247811800Y-49314100D01*
X249618500Y-53390800D02*
X247811800Y-51584100D01*
X250342400Y-53390800D02*
X249618500Y-53390800D01*
X250444000Y-53289200D02*
X250342400Y-53390800D01*
X247811800Y-49314100D02*
X247811800Y-49082200D01*
D44*
X136195700Y-59029600D02*
X136195700Y-53123200D01*
X136195700Y-53123200D02*
X136893300Y-52425600D01*
X136893300Y-52425600D02*
X137457500Y-52425600D01*
D43*
X137457500Y-52425600D02*
X138277600Y-52425600D01*
X138487400Y-52635400D02*
X139882300Y-52635400D01*
X138277600Y-52425600D02*
X138487400Y-52635400D01*
D42*
X138010900Y-60337700D02*
X138010900Y-59971200D01*
X138010900Y-59971200D02*
X137895700Y-59856000D01*
X145707100Y-92329000D02*
X140246100Y-92329000D01*
X140246100Y-92329000D02*
X135750300Y-87833200D01*
X131038600Y-74434700D02*
X130530600Y-73926700D01*
X130530600Y-73926700D02*
X127406400Y-73926700D01*
X60940700Y-65874900D02*
X60940700Y-63836800D01*
X62471300Y-60185300D02*
X64586100Y-60185300D01*
X61798200Y-60858400D02*
X62471300Y-60185300D01*
X60940700Y-63836800D02*
X61353700Y-63423800D01*
D41*
X170954700Y-42138600D02*
X170954700Y-44716700D01*
X170624500Y-47777400D02*
X168804600Y-49597300D01*
X170624500Y-45046900D02*
X170624500Y-47777400D01*
X170954700Y-44716700D02*
X170624500Y-45046900D01*
X168804600Y-51295300D02*
X168804600Y-49597300D01*
X168804600Y-49597300D02*
X168804600Y-49500800D01*
X168804600Y-49500800D02*
X167525700Y-48221900D01*
X141728200Y-62712600D02*
X140385800Y-62712600D01*
X140385800Y-62712600D02*
X138010900Y-60337700D01*
X138010900Y-60337700D02*
X137972800Y-60299600D01*
D42*
X127406400Y-73926700D02*
X129425700Y-73926700D01*
X133612256Y-67407895D02*
X135001000Y-60375800D01*
X129425700Y-73926700D02*
X133612256Y-67407895D01*
X131864100Y-53911500D02*
X130651250Y-55124350D01*
D41*
X153904000Y-52862800D02*
X153548400Y-53911500D01*
X153695400Y-52654200D02*
X153904000Y-52862800D01*
X167525700Y-48221900D02*
X165633400Y-48221900D01*
X124052000Y-46195000D02*
X124052000Y-48525100D01*
X124052000Y-48525100D02*
X130651250Y-55124350D01*
D42*
X130651250Y-55124350D02*
X132067300Y-56540400D01*
X132067300Y-56540400D02*
X132067300Y-57365900D01*
X132067300Y-57365900D02*
X132067300Y-57696100D01*
X132067300Y-57696100D02*
X134747000Y-60375800D01*
X134747000Y-60375800D02*
X135001000Y-60375800D01*
D41*
X137895700Y-59856000D02*
X137895700Y-59029600D01*
X137375900Y-60375800D02*
X137895700Y-59856000D01*
X135001000Y-60375800D02*
X137375900Y-60375800D01*
D43*
X153548400Y-53911500D02*
X153548400Y-53944200D01*
X153548400Y-53944200D02*
X152387300Y-55105300D01*
X152387300Y-55105300D02*
X148452200Y-55105300D01*
X148452200Y-55105300D02*
X148382300Y-55035400D01*
X153548400Y-53911500D02*
X153548400Y-53840700D01*
X153548400Y-53840700D02*
X152285700Y-52578000D01*
X152285700Y-52578000D02*
X150380700Y-52578000D01*
X150380700Y-52578000D02*
X149523300Y-53435400D01*
X149523300Y-53435400D02*
X148382300Y-53435400D01*
D41*
X58166000Y-86512400D02*
X58166000Y-84899500D01*
X59664600Y-77266800D02*
X59664600Y-75184000D01*
X59931300Y-77533500D02*
X59664600Y-77266800D01*
X58166000Y-84899500D02*
X59397900Y-83667600D01*
X64735700Y-72898000D02*
X64735700Y-72106800D01*
X64735700Y-72106800D02*
X67386200Y-69456300D01*
X67386200Y-69456300D02*
X67386200Y-66611500D01*
X64033400Y-62865000D02*
X64586100Y-62312300D01*
X64586100Y-62312300D02*
X64586100Y-60185300D01*
X55854600Y-68834000D02*
X55854600Y-68237100D01*
X59340500Y-67475100D02*
X60940700Y-65874900D01*
X56616600Y-67475100D02*
X59340500Y-67475100D01*
X55854600Y-68237100D02*
X56616600Y-67475100D01*
X59664600Y-75184000D02*
X59664600Y-74752200D01*
X59664600Y-74752200D02*
X55854600Y-70942200D01*
X55854600Y-70942200D02*
X55854600Y-68834000D01*
X64735700Y-72898000D02*
X70205600Y-72898000D01*
X74790300Y-73571100D02*
X76606400Y-75387200D01*
X70878700Y-73571100D02*
X74790300Y-73571100D01*
X70205600Y-72898000D02*
X70878700Y-73571100D01*
X64443600Y-96431100D02*
X64443600Y-93437700D01*
X58166000Y-87503000D02*
X58166000Y-86512400D01*
X58534300Y-87871300D02*
X58166000Y-87503000D01*
X58877200Y-87871300D02*
X58534300Y-87871300D01*
X64443600Y-93437700D02*
X58877200Y-87871300D01*
X51785200Y-91821000D02*
X51785200Y-88758700D01*
X51785200Y-88758700D02*
X52133500Y-88410400D01*
X52133500Y-88410400D02*
X52133500Y-88315800D01*
X52133500Y-88315800D02*
X53936900Y-86512400D01*
X53936900Y-86512400D02*
X58166000Y-86512400D01*
D42*
X64586100Y-60185300D02*
X64586100Y-51336800D01*
X64586100Y-51336800D02*
X64277900Y-51028600D01*
D43*
X139882300Y-54235400D02*
X137705100Y-54235400D01*
X137705100Y-54235400D02*
X137457500Y-54483000D01*
D42*
X145707100Y-72009000D02*
X137452100Y-72009000D01*
X129197100Y-70739000D02*
X125945900Y-70739000D01*
X132207000Y-67729100D02*
X129197100Y-70739000D01*
X137452100Y-72009000D02*
X135788400Y-71412100D01*
X145707100Y-72009000D02*
X149428200Y-71970900D01*
X162217100Y-70256400D02*
X163449000Y-71488300D01*
X156171900Y-70256400D02*
X162217100Y-70256400D01*
X156095700Y-70332600D02*
X156171900Y-70256400D01*
X149428200Y-71970900D02*
X149466300Y-72009000D01*
X245757700Y-53086000D02*
X245757700Y-49368200D01*
X245757700Y-49368200D02*
X245811800Y-49314100D01*
X242904000Y-52997100D02*
X242904000Y-51642000D01*
X241576900Y-50314900D02*
X240333400Y-50314900D01*
X242904000Y-51642000D02*
X241576900Y-50314900D01*
X242904000Y-52997100D02*
X245668800Y-52997100D01*
X245668800Y-52997100D02*
X245757700Y-53086000D01*
X242887500Y-58483500D02*
X242887500Y-53013600D01*
X242887500Y-53013600D02*
X242904000Y-52997100D01*
X245761000Y-49364900D02*
X245811800Y-49314100D01*
D44*
X151828500Y-72809100D02*
X153962100Y-74942700D01*
D41*
X160566100Y-77711300D02*
X159092900Y-77711300D01*
X153343600Y-65053200D02*
X153343600Y-62903100D01*
X153619200Y-65328800D02*
X153343600Y-65053200D01*
X150647400Y-69494400D02*
X150647400Y-66268600D01*
X151828500Y-70675500D02*
X150647400Y-69494400D01*
X151828500Y-72809100D02*
X151828500Y-70675500D01*
X156324300Y-74942700D02*
X153962100Y-74942700D01*
X159092900Y-77711300D02*
X156324300Y-74942700D01*
D43*
X153343600Y-62903100D02*
X153343600Y-60890900D01*
X153343600Y-60890900D02*
X153184100Y-60731400D01*
D41*
X78676500Y-48584100D02*
X82594700Y-48584100D01*
D42*
X82759300Y-48584100D02*
X73523400Y-48584100D01*
X87210900Y-45999400D02*
X85344000Y-45999400D01*
X85344000Y-45999400D02*
X82759300Y-48584100D01*
D41*
X44428400Y-60858400D02*
X45656500Y-60858400D01*
X47755800Y-57298600D02*
X47755800Y-52184300D01*
X47726600Y-57327800D02*
X47755800Y-57298600D01*
X45656500Y-60858400D02*
X46888400Y-59626500D01*
X40627300Y-71475600D02*
X42011600Y-71475600D01*
X44428400Y-69058800D02*
X44428400Y-60858400D01*
X42011600Y-71475600D02*
X44428400Y-69058800D01*
X235401800Y-95554800D02*
X235401800Y-92628400D01*
X226034600Y-90030300D02*
X226034600Y-88544400D01*
X227037900Y-91033600D02*
X226034600Y-90030300D01*
X233807000Y-91033600D02*
X227037900Y-91033600D01*
X235401800Y-92628400D02*
X233807000Y-91033600D01*
X249224800Y-73672700D02*
X249224800Y-73583800D01*
X249224800Y-73583800D02*
X244830600Y-69189600D01*
X242506500Y-66141600D02*
X240710700Y-66141600D01*
X242582700Y-66217800D02*
X242506500Y-66141600D01*
X226034600Y-80911700D02*
X231914700Y-80911700D01*
X236651800Y-70853300D02*
X236842300Y-70853300D01*
X236651800Y-76174600D02*
X236651800Y-70853300D01*
X231914700Y-80911700D02*
X236651800Y-76174600D01*
X249224800Y-73672700D02*
X249224800Y-73418700D01*
X240710700Y-66141600D02*
X235310700Y-66141600D01*
X235310700Y-66141600D02*
X235310700Y-65860400D01*
X235310700Y-65860400D02*
X237467900Y-63703200D01*
X235310700Y-71221600D02*
X236283500Y-71221600D01*
X236283500Y-71221600D02*
X236842300Y-70662800D01*
X236842300Y-70662800D02*
X236842300Y-70853300D01*
X236131100Y-66141600D02*
X235310700Y-66141600D01*
X236842300Y-70853300D02*
X236842300Y-66852800D01*
X236842300Y-66852800D02*
X236131100Y-66141600D01*
X226034600Y-88544400D02*
X226034600Y-80911700D01*
X226034600Y-80911700D02*
X226034600Y-79679800D01*
X222578800Y-76224000D02*
X222578800Y-73759100D01*
X226034600Y-79679800D02*
X222578800Y-76224000D01*
X222578800Y-73759100D02*
X218653400Y-73759100D01*
X217919300Y-73025000D02*
X211836000Y-73025000D01*
X218653400Y-73759100D02*
X217919300Y-73025000D01*
X205397100Y-54610000D02*
X205397100Y-56946800D01*
X208686400Y-69875400D02*
X211836000Y-73025000D01*
X207848200Y-69875400D02*
X208686400Y-69875400D01*
X204025500Y-66052700D02*
X207848200Y-69875400D01*
X204025500Y-58318400D02*
X204025500Y-66052700D01*
X205397100Y-56946800D02*
X204025500Y-58318400D01*
X205397100Y-54610000D02*
X205333600Y-52253200D01*
X205333600Y-52253200D02*
X204821800Y-51741400D01*
X204821800Y-51741400D02*
X204758300Y-49771300D01*
X82594700Y-48584100D02*
X82677000Y-48666400D01*
D42*
X47617700Y-49644300D02*
X55194200Y-49644300D01*
X55194200Y-49644300D02*
X58280300Y-46558200D01*
X58280300Y-46558200D02*
X58280300Y-45173900D01*
X58280300Y-45173900D02*
X59334400Y-44119800D01*
X59334400Y-44119800D02*
X69059100Y-44119800D01*
X69059100Y-44119800D02*
X73427900Y-48488600D01*
X47617700Y-49644300D02*
X47617700Y-52046200D01*
X47617700Y-52046200D02*
X47755800Y-52184300D01*
D41*
X47755800Y-52184300D02*
X47755800Y-49782400D01*
X47755800Y-49782400D02*
X47617700Y-49644300D01*
D42*
X78003400Y-72199500D02*
X77114400Y-72199500D01*
X77114400Y-72199500D02*
X79654400Y-69659500D01*
X89293700Y-45999400D02*
X87210900Y-45999400D01*
X89789000Y-46494700D02*
X89293700Y-45999400D01*
X89789000Y-52273200D02*
X89789000Y-46494700D01*
X79654400Y-62407800D02*
X89789000Y-52273200D01*
X79654400Y-69659500D02*
X79654400Y-62407800D01*
X73523400Y-48584100D02*
X73427900Y-48488600D01*
X78003400Y-72199500D02*
X77495400Y-72199500D01*
X40627300Y-71475600D02*
X41452800Y-71475600D01*
D41*
X231394000Y-78232000D02*
X230809800Y-76107800D01*
X230809800Y-76107800D02*
X231733600Y-75184000D01*
X233705400Y-67411600D02*
X233705400Y-66255900D01*
X233705400Y-66255900D02*
X233400600Y-65951100D01*
X235310700Y-67411600D02*
X233705400Y-67411600D01*
X233705400Y-67411600D02*
X233163100Y-67411600D01*
X233163100Y-67411600D02*
X232007400Y-66255900D01*
D44*
X231695500Y-72732900D02*
X231695500Y-71580500D01*
X232994200Y-63982600D02*
X232109000Y-63982600D01*
X233514900Y-64503300D02*
X232994200Y-63982600D01*
X231695500Y-71580500D02*
X232257600Y-71018400D01*
D41*
X235310700Y-72491600D02*
X231936800Y-72491600D01*
X231936800Y-72491600D02*
X231695500Y-72732900D01*
X213750400Y-62560200D02*
X213750400Y-61604400D01*
X213588600Y-58766700D02*
X215002100Y-57353200D01*
X213588600Y-61442600D02*
X213588600Y-58766700D01*
X213750400Y-61604400D02*
X213588600Y-61442600D01*
X217770200Y-59740800D02*
X217830400Y-59740800D01*
X217830400Y-59740800D02*
X219430600Y-58140600D01*
X219722700Y-52806600D02*
X220869500Y-52806600D01*
X219430600Y-53098700D02*
X219722700Y-52806600D01*
X219430600Y-58140600D02*
X219430600Y-53098700D01*
X214964000Y-60185300D02*
X217325700Y-60185300D01*
X217325700Y-60185300D02*
X217770200Y-59740800D01*
D42*
X228634300Y-57073800D02*
X228634300Y-55540900D01*
X232435400Y-50482500D02*
X233454700Y-50482500D01*
X232041700Y-50876200D02*
X232435400Y-50482500D01*
X232041700Y-52133500D02*
X232041700Y-50876200D01*
X228634300Y-55540900D02*
X232041700Y-52133500D01*
D41*
X228634300Y-57073800D02*
X228634300Y-56582300D01*
X206667100Y-54610000D02*
X206667100Y-56603900D01*
X223875600Y-56197500D02*
X223875600Y-57111900D01*
X223608900Y-55930800D02*
X223875600Y-56197500D01*
X206667100Y-56603900D02*
X206578200Y-56692800D01*
X220831400Y-57111900D02*
X223875600Y-57111900D01*
X223875600Y-57111900D02*
X228596200Y-57111900D01*
X228596200Y-57111900D02*
X228634300Y-57073800D01*
D42*
X234740200Y-61074300D02*
X234162600Y-61074300D01*
X234162600Y-61074300D02*
X231334300Y-58246000D01*
X231334300Y-58246000D02*
X231334300Y-57073800D01*
D41*
X220176100Y-90144600D02*
X220176100Y-83811100D01*
X228206300Y-61074300D02*
X230740200Y-61074300D01*
X227711000Y-60579000D02*
X228206300Y-61074300D01*
X220176100Y-83811100D02*
X224307400Y-79679800D01*
D44*
X229369300Y-99974400D02*
X229369300Y-100437000D01*
X229369300Y-100437000D02*
X228104700Y-101701600D01*
X232384600Y-93891100D02*
X232384600Y-94894400D01*
X233184700Y-93091000D02*
X232384600Y-93891100D01*
X226916300Y-100025200D02*
X229318500Y-100025200D01*
X229318500Y-100025200D02*
X229369300Y-99974400D01*
X231869300Y-99974400D02*
X231406700Y-99974400D01*
X231406700Y-99974400D02*
X230606600Y-99174300D01*
X228574600Y-95821500D02*
X228574600Y-94894400D01*
X228993700Y-96240600D02*
X228574600Y-95821500D01*
X229882700Y-96240600D02*
X228993700Y-96240600D01*
X230606600Y-96964500D02*
X229882700Y-96240600D01*
X230606600Y-99174300D02*
X230606600Y-96964500D01*
X231869300Y-99974400D02*
X231698800Y-99974400D01*
X231698800Y-99974400D02*
X229533600Y-102139600D01*
X229533600Y-102139600D02*
X229533600Y-102755900D01*
X230833600Y-108155900D02*
X230833600Y-104055900D01*
X230833600Y-104055900D02*
X229369300Y-102591600D01*
X229369300Y-99974400D02*
X229577900Y-99974400D01*
X224416300Y-100025200D02*
X223329500Y-100025200D01*
X227304600Y-89941400D02*
X227304600Y-88544400D01*
X227380800Y-90017600D02*
X227304600Y-89941400D01*
X222491300Y-94297500D02*
X224053400Y-92735400D01*
X222491300Y-99187000D02*
X222491300Y-94297500D01*
X223329500Y-100025200D02*
X222491300Y-99187000D01*
D41*
X227304600Y-88544400D02*
X227304600Y-86724500D01*
X227304600Y-86724500D02*
X229534400Y-84494700D01*
X229534400Y-84494700D02*
X229534400Y-83591400D01*
D44*
X232384600Y-88544400D02*
X232384600Y-83941600D01*
X232384600Y-83941600D02*
X232034400Y-83591400D01*
D41*
X231114600Y-88544400D02*
X232384600Y-88544400D01*
D43*
X157187900Y-60464700D02*
X160865500Y-60464700D01*
X160865500Y-60464700D02*
X161792600Y-59537600D01*
X157187900Y-65005200D02*
X157187900Y-60464700D01*
X149408900Y-52635400D02*
X148382300Y-52635400D01*
X150164800Y-51879500D02*
X149408900Y-52635400D01*
X152984200Y-51879500D02*
X150164800Y-51879500D01*
X153212800Y-51650900D02*
X152984200Y-51879500D01*
X154571700Y-51650900D02*
X153212800Y-51650900D01*
X155308300Y-52387500D02*
X154571700Y-51650900D01*
X155308300Y-58585100D02*
X155308300Y-52387500D01*
X157187900Y-60464700D02*
X155308300Y-58585100D01*
X148382300Y-51835400D02*
X148382300Y-51757000D01*
X148382300Y-51757000D02*
X149072600Y-51066700D01*
X149072600Y-51066700D02*
X152628600Y-51066700D01*
X152628600Y-51066700D02*
X153428700Y-50266600D01*
X153428700Y-50266600D02*
X154324300Y-50266600D01*
X154324300Y-50266600D02*
X157187900Y-53130200D01*
X157187900Y-53130200D02*
X161430400Y-53130200D01*
X161430400Y-53130200D02*
X161741800Y-53441600D01*
D41*
X33497200Y-52476400D02*
X33497200Y-49740500D01*
X33497200Y-49740500D02*
X31559500Y-47802800D01*
X35997200Y-52476400D02*
X39331900Y-52476400D01*
X40462200Y-53606700D02*
X40462200Y-55829200D01*
X39331900Y-52476400D02*
X40462200Y-53606700D01*
X35997200Y-52476400D02*
X35997200Y-49232500D01*
X38392100Y-46837600D02*
X39721800Y-46837600D01*
X35997200Y-49232500D02*
X38392100Y-46837600D01*
X39721800Y-46837600D02*
X39721800Y-43588000D01*
X39721800Y-43588000D02*
X39694800Y-43561000D01*
X43421300Y-77863700D02*
X44170600Y-77863700D01*
X44170600Y-77863700D02*
X49453800Y-72580500D01*
X44234100Y-46786800D02*
X44183300Y-46837600D01*
X44183300Y-46837600D02*
X42421800Y-46837600D01*
X41732200Y-49479200D02*
X41732200Y-48107600D01*
X41732200Y-48107600D02*
X42421800Y-47418000D01*
X42421800Y-47418000D02*
X42421800Y-43788000D01*
X42421800Y-43788000D02*
X42194800Y-43561000D01*
X55223400Y-81381600D02*
X55223400Y-80793600D01*
X55223400Y-80793600D02*
X56718200Y-79298800D01*
X58394600Y-75819000D02*
X58394600Y-75184000D01*
X56718200Y-77495400D02*
X58394600Y-75819000D01*
X56718200Y-79298800D02*
X56718200Y-77495400D01*
X54654200Y-84582000D02*
X54654200Y-81950800D01*
X54654200Y-81950800D02*
X55223400Y-81381600D01*
X51917600Y-96786700D02*
X51917600Y-96558100D01*
X51917600Y-96558100D02*
X49288700Y-93929200D01*
X49288700Y-93929200D02*
X49288700Y-85947500D01*
X49288700Y-85947500D02*
X50654200Y-84582000D01*
X58718700Y-81407000D02*
X58718700Y-78971400D01*
X58718700Y-78971400D02*
X58080900Y-78333600D01*
X58718700Y-81407000D02*
X57746900Y-81407000D01*
X67729100Y-93599000D02*
X67729100Y-89509600D01*
X62718700Y-84499200D02*
X62718700Y-81407000D01*
X67729100Y-89509600D02*
X62718700Y-84499200D01*
X57124600Y-75184000D02*
X57124600Y-73850500D01*
X62224600Y-68244400D02*
X62224600Y-68986400D01*
X61607700Y-67627500D02*
X62224600Y-68244400D01*
X54368700Y-71056500D02*
X54178200Y-70866000D01*
X54368700Y-71094600D02*
X54368700Y-71056500D01*
X57124600Y-73850500D02*
X54368700Y-71094600D01*
X52523400Y-81381600D02*
X52523400Y-81191100D01*
X52523400Y-81191100D02*
X55714900Y-77999600D01*
X55714900Y-77999600D02*
X55714900Y-77050900D01*
X55714900Y-77050900D02*
X57124600Y-75641200D01*
X57124600Y-75641200D02*
X57124600Y-75184000D01*
X58394600Y-68834000D02*
X58394600Y-69900800D01*
X58394600Y-69900800D02*
X58978800Y-70485000D01*
X58978800Y-70485000D02*
X60726000Y-70485000D01*
X60726000Y-70485000D02*
X62224600Y-68986400D01*
X56916000Y-96545400D02*
X56916000Y-94112400D01*
X56916000Y-94112400D02*
X58166000Y-92862400D01*
X171504600Y-51295300D02*
X171504600Y-46452800D01*
D43*
X147193000Y-62306200D02*
X147193000Y-61493400D01*
X147193000Y-61493400D02*
X146132300Y-60432700D01*
X146132300Y-60432700D02*
X146132300Y-58885400D01*
X130225800Y-80327500D02*
X132194300Y-80327500D01*
X142932300Y-57080300D02*
X142932300Y-58885400D01*
X142659100Y-56807100D02*
X142932300Y-57080300D01*
X132194300Y-80327500D02*
X137160000Y-76466700D01*
X145707100Y-89789000D02*
X144119600Y-89789000D01*
X135648700Y-80327500D02*
X130225800Y-80327500D01*
X137274300Y-81953100D02*
X135648700Y-80327500D01*
X144119600Y-89789000D02*
X139065000Y-84734400D01*
X145707100Y-87249000D02*
X145770600Y-87249000D01*
X145770600Y-87249000D02*
X149352000Y-83667600D01*
X143732300Y-60915500D02*
X143732300Y-58885400D01*
X143713200Y-60934600D02*
X143732300Y-60915500D01*
X149352000Y-83667600D02*
X149352000Y-73113900D01*
X145707100Y-87249000D02*
X144132300Y-87249000D01*
X140373100Y-83489800D02*
X131673600Y-83489800D01*
X144132300Y-87249000D02*
X140373100Y-83489800D01*
X145707100Y-84709000D02*
X145834100Y-84709000D01*
X145834100Y-84709000D02*
X147929600Y-82613500D01*
X147929600Y-82613500D02*
X147929600Y-73164700D01*
X142100300Y-60604400D02*
X142132300Y-60572400D01*
X142132300Y-60572400D02*
X142132300Y-58885400D01*
X145707100Y-82169000D02*
X144475200Y-82169000D01*
X138665200Y-56635400D02*
X139882300Y-56635400D01*
X138137900Y-57162700D02*
X138665200Y-56635400D01*
X144475200Y-82169000D02*
X138023600Y-75717400D01*
X145707100Y-79629000D02*
X143522700Y-79629000D01*
X141332300Y-57283000D02*
X141332300Y-58885400D01*
X141338300Y-57277000D02*
X141332300Y-57283000D01*
X143522700Y-79629000D02*
X139979400Y-76085700D01*
X145707100Y-77089000D02*
X142887700Y-77089000D01*
X139882300Y-58538800D02*
X139882300Y-57435400D01*
X139954000Y-58610500D02*
X139882300Y-58538800D01*
X142887700Y-77089000D02*
X141617700Y-75819000D01*
X163436300Y-46139100D02*
X163436300Y-42240200D01*
X163436300Y-42240200D02*
X163334700Y-42138600D01*
X125152000Y-46195000D02*
X125152000Y-47923300D01*
X139331700Y-51066700D02*
X139882300Y-51617300D01*
X137350500Y-51066700D02*
X139331700Y-51066700D01*
X136880600Y-50596800D02*
X137350500Y-51066700D01*
X125152000Y-47923300D02*
X125158500Y-47929800D01*
X139882300Y-51617300D02*
X139882300Y-51835400D01*
X160896300Y-46139100D02*
X160896300Y-46253400D01*
X160896300Y-46253400D02*
X159004000Y-48145700D01*
X141332300Y-51924300D02*
X141332300Y-50385400D01*
X141605000Y-52197000D02*
X141332300Y-51924300D01*
X154965400Y-48145700D02*
X152704800Y-49517300D01*
X159004000Y-48145700D02*
X154965400Y-48145700D01*
X160896300Y-46139100D02*
X160896300Y-42240200D01*
X160896300Y-42240200D02*
X160794700Y-42138600D01*
D44*
X141332300Y-50385400D02*
X138434500Y-50385400D01*
X138434500Y-50385400D02*
X136720965Y-48793429D01*
X136720965Y-48793429D02*
X134112000Y-48666400D01*
X134112000Y-48666400D02*
X127685800Y-48336200D01*
X127685800Y-48336200D02*
X127352000Y-46195000D01*
X132207000Y-47726600D02*
X134924800Y-47726600D01*
X134924800Y-47726600D02*
X135178800Y-47472600D01*
X135178800Y-47472600D02*
X136017000Y-46634400D01*
D43*
X156273500Y-43637200D02*
X147662900Y-43637200D01*
X147662900Y-43637200D02*
X145427700Y-45872400D01*
X157772100Y-42138600D02*
X156273500Y-43637200D01*
X135178800Y-47472600D02*
X135026400Y-47472600D01*
X158254700Y-42138600D02*
X157772100Y-42138600D01*
X158356300Y-46139100D02*
X158356300Y-42240200D01*
X158356300Y-42240200D02*
X158254700Y-42138600D01*
D44*
X122952000Y-46195000D02*
X122952000Y-44967400D01*
X142132300Y-49117500D02*
X142132300Y-50385400D01*
X140741400Y-47726600D02*
X142132300Y-49117500D01*
X132181600Y-47726600D02*
X132207000Y-47726600D01*
X132207000Y-47726600D02*
X140741400Y-47726600D01*
X129108200Y-44653200D02*
X132181600Y-47726600D01*
D43*
X123266200Y-44653200D02*
X129108200Y-44653200D01*
X122952000Y-44967400D02*
X123266200Y-44653200D01*
X155816300Y-46139100D02*
X155524200Y-46139100D01*
X155524200Y-46139100D02*
X150495000Y-50063400D01*
X150495000Y-50063400D02*
X150495000Y-50215800D01*
X144538700Y-57365900D02*
X144532300Y-57372300D01*
X144532300Y-57372300D02*
X144532300Y-58885400D01*
X144532300Y-58885400D02*
X144532300Y-62608500D01*
X144532300Y-62608500D02*
X144428200Y-62712600D01*
X121852000Y-46195000D02*
X121852000Y-44556100D01*
X142932300Y-48215700D02*
X142932300Y-50385400D01*
X141655800Y-46939200D02*
X142932300Y-48215700D01*
X137985500Y-46939200D02*
X141655800Y-46939200D01*
X132486400Y-41440100D02*
X137985500Y-46939200D01*
X129755900Y-41440100D02*
X132486400Y-41440100D01*
X127165100Y-44030900D02*
X129755900Y-41440100D01*
X122377200Y-44030900D02*
X127165100Y-44030900D01*
X121852000Y-44556100D02*
X122377200Y-44030900D01*
X155714700Y-42138600D02*
X155028900Y-42138600D01*
X155028900Y-42138600D02*
X153504900Y-40614600D01*
X153504900Y-40614600D02*
X149428200Y-40614600D01*
X149428200Y-40614600D02*
X143732300Y-46310500D01*
X143732300Y-46310500D02*
X143732300Y-50385400D01*
X146932300Y-58885400D02*
X146932300Y-58895900D01*
D41*
X146932300Y-58895900D02*
X149250400Y-61214000D01*
X133057900Y-85928200D02*
X133057900Y-86690200D01*
X134696200Y-84289900D02*
X133057900Y-85928200D01*
X134620000Y-71259700D02*
X134620000Y-73012300D01*
X135559800Y-70104000D02*
X134620000Y-71259700D01*
X142468600Y-70599300D02*
X135559800Y-70104000D01*
X149250400Y-63817500D02*
X142468600Y-70599300D01*
X149250400Y-61214000D02*
X149250400Y-63817500D01*
D43*
X146932300Y-58997500D02*
X146932300Y-58885400D01*
D41*
X220831400Y-55130700D02*
X222427800Y-55130700D01*
X217817700Y-76238100D02*
X214579200Y-79476600D01*
X222427800Y-55130700D02*
X223380300Y-54178200D01*
X214579200Y-79476600D02*
X214579200Y-79629000D01*
X246354600Y-79984600D02*
X243700300Y-79984600D01*
X222516700Y-50507900D02*
X220920300Y-50507900D01*
X222580200Y-50444400D02*
X222516700Y-50507900D01*
X239077500Y-75361800D02*
X239077500Y-67360800D01*
X243700300Y-79984600D02*
X239077500Y-75361800D01*
X233654600Y-88544400D02*
X233654600Y-87541100D01*
X233654600Y-87541100D02*
X236372400Y-84823300D01*
D43*
X144532300Y-50385400D02*
X144532300Y-53346400D01*
X159169100Y-79768700D02*
X159169100Y-80873600D01*
X157632400Y-78232000D02*
X159169100Y-79768700D01*
X144532300Y-53346400D02*
X143725900Y-54152800D01*
D41*
X222578800Y-71859100D02*
X220558400Y-71859100D01*
X219989400Y-79133700D02*
X216103200Y-83019900D01*
X219989400Y-76695300D02*
X219989400Y-79133700D01*
X219532200Y-76238100D02*
X219989400Y-76695300D01*
X220558400Y-71859100D02*
X220141800Y-72275700D01*
X244957600Y-83108800D02*
X242785900Y-83108800D01*
X222681800Y-47993300D02*
X220971100Y-47993300D01*
X223837500Y-49149000D02*
X222681800Y-47993300D01*
X223837500Y-51435000D02*
X223837500Y-49149000D01*
X225247200Y-52844700D02*
X223837500Y-51435000D01*
X237858300Y-78181200D02*
X237858300Y-67170300D01*
X242785900Y-83108800D02*
X237858300Y-78181200D01*
X69380100Y-80518000D02*
X72491600Y-80518000D01*
X72491600Y-80518000D02*
X73672700Y-81699100D01*
X61976000Y-94183200D02*
X62509400Y-94183200D01*
X68021200Y-80518000D02*
X69380100Y-80518000D01*
X69380100Y-80518000D02*
X69900800Y-80518000D01*
X67703700Y-80835500D02*
X68021200Y-80518000D01*
X62509400Y-94183200D02*
X63119000Y-93573600D01*
X61976000Y-92862400D02*
X61976000Y-94183200D01*
X61976000Y-94183200D02*
X61976000Y-96198700D01*
X61976000Y-96198700D02*
X61743600Y-96431100D01*
X68256150Y-83267550D02*
X70415150Y-83267550D01*
X70415150Y-83267550D02*
X72224900Y-85077300D01*
X60706000Y-92862400D02*
X60706000Y-94272100D01*
X66675000Y-81686400D02*
X68256150Y-83267550D01*
X68256150Y-83267550D02*
X68351400Y-83362800D01*
X66675000Y-80733900D02*
X66675000Y-81686400D01*
X66522600Y-80581500D02*
X66675000Y-80733900D01*
X60706000Y-94272100D02*
X60655200Y-94322900D01*
X60706000Y-92862400D02*
X60706000Y-91528900D01*
X57899300Y-88722200D02*
X54448700Y-88722200D01*
X60706000Y-91528900D02*
X57899300Y-88722200D01*
X44869100Y-81356200D02*
X45770800Y-81356200D01*
X45770800Y-81356200D02*
X53187600Y-73914000D01*
X59880500Y-71666100D02*
X60312300Y-72097900D01*
X60312300Y-72097900D02*
X60312300Y-72898000D01*
X62035700Y-72898000D02*
X60312300Y-72898000D01*
X60312300Y-72898000D02*
X59296300Y-72898000D01*
X57124600Y-70726300D02*
X57124600Y-68834000D01*
X59296300Y-72898000D02*
X57124600Y-70726300D01*
X70853300Y-88239600D02*
X68922900Y-88239600D01*
X62035700Y-74265800D02*
X62035700Y-72898000D01*
X63131700Y-75361800D02*
X62035700Y-74265800D01*
X63131700Y-75476100D02*
X63131700Y-75361800D01*
X65570100Y-77914500D02*
X63131700Y-75476100D01*
X65570100Y-84886800D02*
X65570100Y-77914500D01*
X68922900Y-88239600D02*
X65570100Y-84886800D01*
D44*
X218220300Y-50507900D02*
X218220300Y-48044100D01*
X218220300Y-48044100D02*
X218271100Y-47993300D01*
X218169500Y-52806600D02*
X218169500Y-50558700D01*
X218169500Y-50558700D02*
X218220300Y-50507900D01*
D41*
X211840900Y-53149300D02*
X211536100Y-50668100D01*
X216886800Y-49377600D02*
X218271100Y-47993300D01*
X212826600Y-49377600D02*
X216886800Y-49377600D01*
X211536100Y-50668100D02*
X212826600Y-49377600D01*
X218131400Y-55130700D02*
X218131400Y-48133000D01*
X218131400Y-48133000D02*
X218271100Y-47993300D01*
D43*
X148382300Y-57435400D02*
X148748400Y-57435400D01*
X148748400Y-57435400D02*
X149567900Y-58254900D01*
X149567900Y-58254900D02*
X150063200Y-61074300D01*
X150063200Y-61074300D02*
X150643600Y-62903100D01*
D41*
X218131400Y-57111900D02*
X217131900Y-57111900D01*
X212302100Y-56379100D02*
X212302100Y-57353200D01*
X212953600Y-55727600D02*
X212302100Y-56379100D01*
X215747600Y-55727600D02*
X212953600Y-55727600D01*
X217131900Y-57111900D02*
X215747600Y-55727600D01*
X212302100Y-57353200D02*
X210286600Y-57353200D01*
X207937100Y-56184800D02*
X207937100Y-54610000D01*
X207987900Y-56235600D02*
X207937100Y-56184800D01*
X210286600Y-57353200D02*
X210273900Y-57340500D01*
X214887800Y-68719700D02*
X216192100Y-68719700D01*
X228282500Y-66255900D02*
X229307400Y-66255900D01*
X227152200Y-67386200D02*
X228282500Y-66255900D01*
X226580700Y-70523100D02*
X226923600Y-70180200D01*
X217995500Y-70523100D02*
X226580700Y-70523100D01*
X216192100Y-68719700D02*
X217995500Y-70523100D01*
X235310700Y-68681600D02*
X230174800Y-68681600D01*
X229307400Y-67814200D02*
X229307400Y-66255900D01*
X230174800Y-68681600D02*
X229307400Y-67814200D01*
X229409000Y-63982600D02*
X227209000Y-63982600D01*
X227209000Y-63982600D02*
X226726600Y-64465000D01*
X212187800Y-68719700D02*
X211493100Y-68719700D01*
X211493100Y-68719700D02*
X208690200Y-65916800D01*
X208690200Y-65916800D02*
X208690200Y-64998600D01*
X208753700Y-64363600D02*
X208610200Y-64363600D01*
X208610200Y-64363600D02*
X206667100Y-62420500D01*
X206667100Y-62420500D02*
X206667100Y-60960000D01*
X224426600Y-64465000D02*
X224426600Y-60065000D01*
X224426600Y-60065000D02*
X225426600Y-59065000D01*
X224426600Y-64465000D02*
X224426600Y-68274100D01*
X224426600Y-68274100D02*
X223777800Y-68922900D01*
X235310700Y-69951600D02*
X228727000Y-69951600D01*
X227698300Y-68922900D02*
X223777800Y-68922900D01*
X228727000Y-69951600D02*
X227698300Y-68922900D01*
X221077800Y-68922900D02*
X218427300Y-68922900D01*
X212873600Y-66471800D02*
X210981300Y-64579500D01*
X215976200Y-66471800D02*
X212873600Y-66471800D01*
X218427300Y-68922900D02*
X215976200Y-66471800D01*
X210981300Y-64579500D02*
X210731100Y-64579500D01*
X210731100Y-64579500D02*
X207937100Y-61785500D01*
X207937100Y-61785500D02*
X207937100Y-60960000D01*
X212264000Y-60185300D02*
X211340700Y-60185300D01*
X205397100Y-59728100D02*
X205397100Y-60960000D01*
X206222600Y-58902600D02*
X205397100Y-59728100D01*
X211340700Y-60185300D02*
X210477100Y-59321700D01*
X206053700Y-64363600D02*
X206053700Y-62988200D01*
X205397100Y-62331600D02*
X205397100Y-60960000D01*
X206053700Y-62988200D02*
X205397100Y-62331600D01*
X224100400Y-97751900D02*
X224100400Y-96828600D01*
X224100400Y-96828600D02*
X226034600Y-94894400D01*
X226034600Y-94894400D02*
X226034600Y-93303100D01*
X226034600Y-93303100D02*
X222876100Y-90144600D01*
X226800400Y-97751900D02*
X229282000Y-97751900D01*
X229282000Y-97751900D02*
X229294700Y-97739200D01*
X226800400Y-97751900D02*
X226800400Y-96744800D01*
X227304600Y-96240600D02*
X227304600Y-94894400D01*
X226800400Y-96744800D02*
X227304600Y-96240600D01*
D44*
X231994700Y-97739200D02*
X233892100Y-97739200D01*
X233892100Y-97739200D02*
X235593900Y-99441000D01*
D41*
X231994700Y-97739200D02*
X231994700Y-97235000D01*
X231994700Y-97235000D02*
X231114600Y-96354900D01*
X231114600Y-96354900D02*
X231114600Y-94894400D01*
X229844600Y-94894400D02*
X231114600Y-94894400D01*
D44*
X231833600Y-102755900D02*
X235737200Y-102755900D01*
X238293900Y-100199200D02*
X238293900Y-99441000D01*
X235737200Y-102755900D02*
X238293900Y-100199200D01*
D41*
X228574600Y-88544400D02*
X229844600Y-88544400D01*
X229844600Y-88544400D02*
X229781100Y-88480900D01*
X229781100Y-88480900D02*
X229781100Y-86948000D01*
X229781100Y-86948000D02*
X230508800Y-86220300D01*
X41728400Y-60858400D02*
X41728400Y-58343800D01*
X41728400Y-58343800D02*
X41728400Y-55833000D01*
X41728400Y-55833000D02*
X41732200Y-55829200D01*
X45055800Y-52184300D02*
X41287700Y-52184300D01*
X40462200Y-51358800D02*
X40462200Y-49479200D01*
X41287700Y-52184300D02*
X40462200Y-51358800D01*
M02*
