G04 #@! TF.GenerationSoftware,KiCad,Pcbnew,no-vcs-found*
G04 #@! TF.CreationDate,2018-07-26T11:27:16+02:00*
G04 #@! TF.ProjectId,mycelium_pcb_micro,6D7963656C69756D5F7063625F6D6963,rev?*
G04 #@! TF.SameCoordinates,Original
G04 #@! TF.FileFunction,Copper,L2,Bot,Signal*
G04 #@! TF.FilePolarity,Positive*
%FSLAX46Y46*%
G04 Gerber Fmt 4.6, Leading zero omitted, Abs format (unit mm)*
G04 Created by KiCad (PCBNEW no-vcs-found) date Thu Jul 26 11:27:16 2018*
%MOMM*%
%LPD*%
G01*
G04 APERTURE LIST*
%ADD10O,1.700000X1.700000*%
%ADD11R,1.700000X1.700000*%
%ADD12C,2.800000*%
%ADD13C,0.800000*%
%ADD14C,0.600000*%
%ADD15C,0.800000*%
%ADD16C,0.400000*%
%ADD17C,0.254000*%
G04 APERTURE END LIST*
D10*
X145707100Y-89789000D03*
X145707100Y-87249000D03*
X145707100Y-84709000D03*
X145707100Y-82169000D03*
X145707100Y-79629000D03*
X145707100Y-77089000D03*
X145707100Y-74549000D03*
D11*
X145707100Y-72009000D03*
D10*
X145707100Y-92329000D03*
D12*
X147193000Y-62306200D03*
D11*
X165976300Y-46139100D03*
D10*
X163436300Y-46139100D03*
X160896300Y-46139100D03*
X158356300Y-46139100D03*
X155816300Y-46139100D03*
X153276300Y-46139100D03*
D11*
X170954700Y-42138600D03*
D10*
X168414700Y-42138600D03*
X165874700Y-42138600D03*
X163334700Y-42138600D03*
X160794700Y-42138600D03*
X158254700Y-42138600D03*
X155714700Y-42138600D03*
X153174700Y-42138600D03*
D13*
X133083300Y-52158900D03*
X150749000Y-56629300D03*
X146050000Y-53327300D03*
X142049500Y-54343300D03*
X166611300Y-59321700D03*
X166001700Y-53225700D03*
X134264400Y-57340500D03*
X135788400Y-62865000D03*
X159816800Y-71691500D03*
X160147000Y-67221100D03*
X154457400Y-72999600D03*
X131864100Y-74066400D03*
X138112500Y-86144100D03*
X131864100Y-53911500D03*
X153695400Y-52654200D03*
X165633400Y-48221900D03*
X132207000Y-67729100D03*
X135788400Y-71412100D03*
X155041600Y-70459600D03*
X150926800Y-71615300D03*
X153619200Y-65328800D03*
X150647400Y-66268600D03*
X140779500Y-61404500D03*
X139153900Y-78371700D03*
X137274300Y-81953100D03*
X139065000Y-84734400D03*
X142951200Y-64350900D03*
X139979400Y-79121000D03*
X147929600Y-73164700D03*
X141871700Y-60490100D03*
X138137900Y-57162700D03*
X138023600Y-75717400D03*
X141338300Y-57277000D03*
X139979400Y-76085700D03*
X139954000Y-58610500D03*
X140919200Y-75615800D03*
X136880600Y-50596800D03*
X125158500Y-47929800D03*
X141605000Y-52197000D03*
X152704800Y-49517300D03*
X145427700Y-45872400D03*
X136017000Y-46634400D03*
X150495000Y-50215800D03*
X144538700Y-57365900D03*
X137223500Y-84302600D03*
X134620000Y-73012300D03*
X157632400Y-78232000D03*
X143725900Y-54152800D03*
D14*
X148691600Y-55829200D02*
X149948900Y-55829200D01*
X149948900Y-55829200D02*
X150749000Y-56629300D01*
D15*
X139814300Y-55067200D02*
X141325600Y-55067200D01*
X141325600Y-55067200D02*
X142049500Y-54343300D01*
D14*
X134264400Y-61341000D02*
X134264400Y-57340500D01*
X135788400Y-62865000D02*
X134264400Y-61341000D01*
X159816800Y-67551300D02*
X159816800Y-71691500D01*
X160147000Y-67221100D02*
X159816800Y-67551300D01*
X145707100Y-74549000D02*
X152908000Y-74549000D01*
X152908000Y-74549000D02*
X154457400Y-72999600D01*
D15*
X134569200Y-76771500D02*
X131864100Y-74066400D01*
X134569200Y-83400900D02*
X134569200Y-76771500D01*
X136817100Y-85648800D02*
X134569200Y-83400900D01*
X137617200Y-85648800D02*
X136817100Y-85648800D01*
X138112500Y-86144100D02*
X137617200Y-85648800D01*
X153276300Y-46139100D02*
X148323300Y-46139100D01*
X137655300Y-53911500D02*
X131864100Y-53911500D01*
X140779500Y-50787300D02*
X137655300Y-53911500D01*
X143675100Y-50787300D02*
X140779500Y-50787300D01*
X148323300Y-46139100D02*
X143675100Y-50787300D01*
D14*
X153276300Y-46139100D02*
X153276300Y-46431200D01*
X153276300Y-46431200D02*
X155289250Y-48444150D01*
X153339800Y-50393600D02*
X153695400Y-52654200D01*
X155448000Y-48285400D02*
X155289250Y-48444150D01*
X155289250Y-48444150D02*
X153339800Y-50393600D01*
X165569900Y-48285400D02*
X155448000Y-48285400D01*
X165633400Y-48221900D02*
X165569900Y-48285400D01*
D15*
X133172200Y-67729100D02*
X132207000Y-67729100D01*
X135788400Y-71412100D02*
X133172200Y-67729100D01*
X153289000Y-70891400D02*
X155041600Y-70459600D01*
X150926800Y-71615300D02*
X153289000Y-70891400D01*
D14*
X151587200Y-65328800D02*
X153619200Y-65328800D01*
X150647400Y-66268600D02*
X151587200Y-65328800D01*
D16*
X141909800Y-62534800D02*
X140779500Y-61404500D01*
X141909800Y-75996800D02*
X141909800Y-62534800D01*
X141262100Y-76644500D02*
X141909800Y-75996800D01*
X140881100Y-76644500D02*
X141262100Y-76644500D01*
X139153900Y-78371700D02*
X140881100Y-76644500D01*
X137274300Y-82943700D02*
X137274300Y-81953100D01*
X139065000Y-84734400D02*
X137274300Y-82943700D01*
X142608300Y-64693800D02*
X142951200Y-64350900D01*
X142608300Y-76492100D02*
X142608300Y-64693800D01*
X139979400Y-79121000D02*
X142608300Y-76492100D01*
X147929600Y-73164700D02*
X147574000Y-72809100D01*
X147574000Y-72809100D02*
X147574000Y-67081400D01*
X147574000Y-67081400D02*
X142100300Y-61607700D01*
X142100300Y-61607700D02*
X141871700Y-60490100D01*
X138137900Y-75603100D02*
X138137900Y-57162700D01*
X138023600Y-75717400D02*
X138137900Y-75603100D01*
X141058900Y-56997600D02*
X141338300Y-57277000D01*
X139839700Y-56997600D02*
X141058900Y-56997600D01*
X139065000Y-57772300D02*
X139839700Y-56997600D01*
X139065000Y-75171300D02*
X139065000Y-57772300D01*
X139979400Y-76085700D02*
X139065000Y-75171300D01*
X139954000Y-74155300D02*
X139954000Y-58610500D01*
X140919200Y-75615800D02*
X139954000Y-74155300D01*
X163334700Y-42138600D02*
X163322000Y-42138600D01*
X163322000Y-42138600D02*
X161150300Y-44310300D01*
X141465300Y-49428400D02*
X136880600Y-50596800D01*
X143410109Y-48876170D02*
X141465300Y-49428400D01*
X144983200Y-48018700D02*
X143410109Y-48876170D01*
X148691600Y-44310300D02*
X144983200Y-48018700D01*
X161150300Y-44310300D02*
X148691600Y-44310300D01*
X136817100Y-50533300D02*
X136880600Y-50596800D01*
X127762000Y-50533300D02*
X136817100Y-50533300D01*
X125158500Y-47929800D02*
X127762000Y-50533300D01*
X144094200Y-52197000D02*
X141605000Y-52197000D01*
X146431000Y-49377600D02*
X144094200Y-52197000D01*
X150964900Y-49377600D02*
X146431000Y-49377600D01*
X152704800Y-49517300D02*
X150964900Y-49377600D01*
X145427700Y-45872400D02*
X144665700Y-46634400D01*
X144665700Y-46634400D02*
X136017000Y-46634400D01*
X150495000Y-50215800D02*
X144538700Y-57277000D01*
X144538700Y-57277000D02*
X144538700Y-57365900D01*
D14*
X135978900Y-83007200D02*
X137223500Y-84302600D01*
X135978900Y-74371200D02*
X135978900Y-83007200D01*
X134620000Y-73012300D02*
X135978900Y-74371200D01*
D16*
X157632400Y-61074300D02*
X157632400Y-78232000D01*
X155181300Y-58623200D02*
X157632400Y-61074300D01*
X144145000Y-58623200D02*
X155181300Y-58623200D01*
X143560800Y-58039000D02*
X144145000Y-58623200D01*
X143560800Y-54317900D02*
X143560800Y-58039000D01*
X143725900Y-54152800D02*
X143560800Y-54317900D01*
D17*
G36*
X151802739Y-41541222D02*
X151689700Y-42109507D01*
X151689700Y-42167693D01*
X151802739Y-42735978D01*
X152124646Y-43217747D01*
X152510102Y-43475300D01*
X148691600Y-43475300D01*
X148372060Y-43538860D01*
X148101166Y-43719866D01*
X146372453Y-45448579D01*
X146305642Y-45286885D01*
X146014746Y-44995481D01*
X145634477Y-44837580D01*
X145222729Y-44837221D01*
X144842185Y-44994458D01*
X144550781Y-45285354D01*
X144392880Y-45665623D01*
X144392827Y-45726405D01*
X144319832Y-45799400D01*
X136645892Y-45799400D01*
X136604046Y-45757481D01*
X136223777Y-45599580D01*
X135812029Y-45599221D01*
X135431485Y-45756458D01*
X135140081Y-46047354D01*
X134982180Y-46427623D01*
X134981821Y-46839371D01*
X135139058Y-47219915D01*
X135429954Y-47511319D01*
X135810223Y-47669220D01*
X136221971Y-47669579D01*
X136602515Y-47512342D01*
X136645532Y-47469400D01*
X144246270Y-47469400D01*
X143092342Y-48098390D01*
X141248117Y-48622059D01*
X137267107Y-49636610D01*
X137087377Y-49561980D01*
X136675629Y-49561621D01*
X136344839Y-49698300D01*
X128107868Y-49698300D01*
X126193627Y-47784059D01*
X126193679Y-47724829D01*
X126036442Y-47344285D01*
X125745546Y-47052881D01*
X125365277Y-46894980D01*
X124953529Y-46894621D01*
X124572985Y-47051858D01*
X124281581Y-47342754D01*
X124123680Y-47723023D01*
X124123321Y-48134771D01*
X124280558Y-48515315D01*
X124571454Y-48806719D01*
X124951723Y-48964620D01*
X125012505Y-48964673D01*
X127171566Y-51123734D01*
X127442459Y-51304739D01*
X127762000Y-51368300D01*
X136188319Y-51368300D01*
X136293554Y-51473719D01*
X136673823Y-51631620D01*
X137085571Y-51631979D01*
X137466115Y-51474742D01*
X137688697Y-51252548D01*
X139247899Y-50855189D01*
X137226588Y-52876500D01*
X131864430Y-52876500D01*
X131659129Y-52876321D01*
X131278585Y-53033558D01*
X130987181Y-53324454D01*
X130829280Y-53704723D01*
X130828921Y-54116471D01*
X130986158Y-54497015D01*
X131277054Y-54788419D01*
X131657323Y-54946320D01*
X132069071Y-54946679D01*
X132069504Y-54946500D01*
X137655295Y-54946500D01*
X137655300Y-54946501D01*
X138051377Y-54867715D01*
X138387156Y-54643356D01*
X140586990Y-52443522D01*
X140727058Y-52782515D01*
X141017954Y-53073919D01*
X141398223Y-53231820D01*
X141809971Y-53232179D01*
X142190515Y-53074942D01*
X142233532Y-53032000D01*
X144094200Y-53032000D01*
X144132834Y-53024315D01*
X144172013Y-53028366D01*
X144291477Y-52992759D01*
X144413741Y-52968439D01*
X144446491Y-52946556D01*
X144484239Y-52935305D01*
X144580985Y-52856690D01*
X144684634Y-52787434D01*
X144706517Y-52754684D01*
X144737087Y-52729843D01*
X146823451Y-50212600D01*
X149405305Y-50212600D01*
X144395800Y-56151374D01*
X144395800Y-54946504D01*
X144602819Y-54739846D01*
X144760720Y-54359577D01*
X144761079Y-53947829D01*
X144603842Y-53567285D01*
X144312946Y-53275881D01*
X143932677Y-53117980D01*
X143520929Y-53117621D01*
X143140385Y-53274858D01*
X142848981Y-53565754D01*
X142691080Y-53946023D01*
X142690721Y-54357771D01*
X142725800Y-54442669D01*
X142725800Y-58039000D01*
X142789361Y-58358541D01*
X142955577Y-58607300D01*
X142970366Y-58629434D01*
X143554566Y-59213634D01*
X143825460Y-59394640D01*
X144145000Y-59458200D01*
X154835432Y-59458200D01*
X156797400Y-61420168D01*
X156797400Y-77603108D01*
X156755481Y-77644954D01*
X156597580Y-78025223D01*
X156597221Y-78436971D01*
X156754458Y-78817515D01*
X157045354Y-79108919D01*
X157198886Y-79172671D01*
X142347481Y-105027198D01*
X131685067Y-88663092D01*
X125838431Y-74271371D01*
X130828921Y-74271371D01*
X130986158Y-74651915D01*
X131277054Y-74943319D01*
X131277487Y-74943499D01*
X133534200Y-77200211D01*
X133534200Y-83400895D01*
X133534199Y-83400900D01*
X133612985Y-83796977D01*
X133837344Y-84132756D01*
X136085242Y-86380653D01*
X136085244Y-86380656D01*
X136421023Y-86605015D01*
X136817100Y-86683801D01*
X136817105Y-86683800D01*
X137188488Y-86683800D01*
X137380579Y-86875891D01*
X137525454Y-87021019D01*
X137905723Y-87178920D01*
X138112496Y-87179100D01*
X138112500Y-87179101D01*
X138112504Y-87179100D01*
X138317471Y-87179279D01*
X138698015Y-87022042D01*
X138989419Y-86731146D01*
X139147320Y-86350877D01*
X139147500Y-86144104D01*
X139147501Y-86144100D01*
X139147500Y-86144096D01*
X139147679Y-85939129D01*
X139077553Y-85769411D01*
X139269971Y-85769579D01*
X139650515Y-85612342D01*
X139941919Y-85321446D01*
X140099820Y-84941177D01*
X140100179Y-84529429D01*
X139942942Y-84148885D01*
X139652046Y-83857481D01*
X139271777Y-83699580D01*
X139210995Y-83699527D01*
X138109300Y-82597832D01*
X138109300Y-82581992D01*
X138151219Y-82540146D01*
X138309120Y-82159877D01*
X138309479Y-81748129D01*
X138152242Y-81367585D01*
X137861346Y-81076181D01*
X137481077Y-80918280D01*
X137069329Y-80917921D01*
X136913900Y-80982143D01*
X136913900Y-75922371D01*
X136988421Y-75922371D01*
X137145658Y-76302915D01*
X137436554Y-76594319D01*
X137816823Y-76752220D01*
X138228571Y-76752579D01*
X138609115Y-76595342D01*
X138900519Y-76304446D01*
X138934777Y-76221945D01*
X138944273Y-76231441D01*
X138944221Y-76290671D01*
X139101458Y-76671215D01*
X139387238Y-76957494D01*
X139008159Y-77336573D01*
X138948929Y-77336521D01*
X138568385Y-77493758D01*
X138276981Y-77784654D01*
X138119080Y-78164923D01*
X138118721Y-78576671D01*
X138275958Y-78957215D01*
X138566854Y-79248619D01*
X138947123Y-79406520D01*
X138977514Y-79406546D01*
X139101458Y-79706515D01*
X139392354Y-79997919D01*
X139772623Y-80155820D01*
X140184371Y-80156179D01*
X140564915Y-79998942D01*
X140856319Y-79708046D01*
X141014220Y-79327777D01*
X141014273Y-79266995D01*
X143192268Y-77089000D01*
X144193007Y-77089000D01*
X144306046Y-77657285D01*
X144627953Y-78139054D01*
X144957126Y-78359000D01*
X144627953Y-78578946D01*
X144306046Y-79060715D01*
X144193007Y-79629000D01*
X144306046Y-80197285D01*
X144627953Y-80679054D01*
X144957126Y-80899000D01*
X144627953Y-81118946D01*
X144306046Y-81600715D01*
X144193007Y-82169000D01*
X144306046Y-82737285D01*
X144627953Y-83219054D01*
X144957126Y-83439000D01*
X144627953Y-83658946D01*
X144306046Y-84140715D01*
X144193007Y-84709000D01*
X144306046Y-85277285D01*
X144627953Y-85759054D01*
X144957126Y-85979000D01*
X144627953Y-86198946D01*
X144306046Y-86680715D01*
X144193007Y-87249000D01*
X144306046Y-87817285D01*
X144627953Y-88299054D01*
X144957126Y-88519000D01*
X144627953Y-88738946D01*
X144306046Y-89220715D01*
X144193007Y-89789000D01*
X144306046Y-90357285D01*
X144627953Y-90839054D01*
X144957126Y-91059000D01*
X144627953Y-91278946D01*
X144306046Y-91760715D01*
X144193007Y-92329000D01*
X144306046Y-92897285D01*
X144627953Y-93379054D01*
X145109722Y-93700961D01*
X145678007Y-93814000D01*
X145736193Y-93814000D01*
X146304478Y-93700961D01*
X146786247Y-93379054D01*
X147108154Y-92897285D01*
X147221193Y-92329000D01*
X147108154Y-91760715D01*
X146786247Y-91278946D01*
X146457074Y-91059000D01*
X146786247Y-90839054D01*
X147108154Y-90357285D01*
X147221193Y-89789000D01*
X147108154Y-89220715D01*
X146786247Y-88738946D01*
X146457074Y-88519000D01*
X146786247Y-88299054D01*
X147108154Y-87817285D01*
X147221193Y-87249000D01*
X147108154Y-86680715D01*
X146786247Y-86198946D01*
X146457074Y-85979000D01*
X146786247Y-85759054D01*
X147108154Y-85277285D01*
X147221193Y-84709000D01*
X147108154Y-84140715D01*
X146786247Y-83658946D01*
X146457074Y-83439000D01*
X146786247Y-83219054D01*
X147108154Y-82737285D01*
X147221193Y-82169000D01*
X147108154Y-81600715D01*
X146786247Y-81118946D01*
X146457074Y-80899000D01*
X146786247Y-80679054D01*
X147108154Y-80197285D01*
X147221193Y-79629000D01*
X147108154Y-79060715D01*
X146786247Y-78578946D01*
X146457074Y-78359000D01*
X146786247Y-78139054D01*
X147108154Y-77657285D01*
X147221193Y-77089000D01*
X147108154Y-76520715D01*
X146786247Y-76038946D01*
X146445547Y-75811298D01*
X146588458Y-75744183D01*
X146978745Y-75315924D01*
X147148576Y-74905890D01*
X147027255Y-74676000D01*
X145834100Y-74676000D01*
X145834100Y-74696000D01*
X145580100Y-74696000D01*
X145580100Y-74676000D01*
X144386945Y-74676000D01*
X144265624Y-74905890D01*
X144435455Y-75315924D01*
X144825742Y-75744183D01*
X144968653Y-75811298D01*
X144627953Y-76038946D01*
X144306046Y-76520715D01*
X144193007Y-77089000D01*
X143192268Y-77089000D01*
X143198734Y-77082534D01*
X143379739Y-76811641D01*
X143443300Y-76492100D01*
X143443300Y-65267440D01*
X143536715Y-65228842D01*
X143828119Y-64937946D01*
X143951806Y-64640074D01*
X146739000Y-67427268D01*
X146739000Y-70547742D01*
X146557100Y-70511560D01*
X144857100Y-70511560D01*
X144609335Y-70560843D01*
X144399291Y-70701191D01*
X144258943Y-70911235D01*
X144209660Y-71159000D01*
X144209660Y-72859000D01*
X144258943Y-73106765D01*
X144399291Y-73316809D01*
X144609335Y-73457157D01*
X144712808Y-73477739D01*
X144435455Y-73782076D01*
X144265624Y-74192110D01*
X144386945Y-74422000D01*
X145580100Y-74422000D01*
X145580100Y-74402000D01*
X145834100Y-74402000D01*
X145834100Y-74422000D01*
X147027255Y-74422000D01*
X147148576Y-74192110D01*
X146978745Y-73782076D01*
X146701392Y-73477739D01*
X146804865Y-73457157D01*
X146903373Y-73391336D01*
X147051658Y-73750215D01*
X147342554Y-74041619D01*
X147722823Y-74199520D01*
X148134571Y-74199879D01*
X148515115Y-74042642D01*
X148806519Y-73751746D01*
X148964420Y-73371477D01*
X148964779Y-72959729D01*
X148807542Y-72579185D01*
X148516646Y-72287781D01*
X148409000Y-72243083D01*
X148409000Y-71820271D01*
X149891621Y-71820271D01*
X150048858Y-72200815D01*
X150339754Y-72492219D01*
X150720023Y-72650120D01*
X151131771Y-72650479D01*
X151276827Y-72590543D01*
X153564656Y-71889435D01*
X155166776Y-71494709D01*
X155246571Y-71494779D01*
X155627115Y-71337542D01*
X155918519Y-71046646D01*
X156076420Y-70666377D01*
X156076779Y-70254629D01*
X155919542Y-69874085D01*
X155628646Y-69582681D01*
X155248377Y-69424780D01*
X154836629Y-69424421D01*
X154718358Y-69473289D01*
X153041404Y-69886452D01*
X153014882Y-69898870D01*
X152985743Y-69901824D01*
X150772209Y-70580165D01*
X150721829Y-70580121D01*
X150341285Y-70737358D01*
X150049881Y-71028254D01*
X149891980Y-71408523D01*
X149891621Y-71820271D01*
X148409000Y-71820271D01*
X148409000Y-67081400D01*
X148378834Y-66929745D01*
X148345440Y-66761860D01*
X148164434Y-66490966D01*
X148147039Y-66473571D01*
X149612221Y-66473571D01*
X149769458Y-66854115D01*
X150060354Y-67145519D01*
X150440623Y-67303420D01*
X150852371Y-67303779D01*
X151232915Y-67146542D01*
X151524319Y-66855646D01*
X151624921Y-66613369D01*
X151974490Y-66263800D01*
X153172029Y-66263800D01*
X153412423Y-66363620D01*
X153824171Y-66363979D01*
X154204715Y-66206742D01*
X154496119Y-65915846D01*
X154654020Y-65535577D01*
X154654379Y-65123829D01*
X154497142Y-64743285D01*
X154206246Y-64451881D01*
X153825977Y-64293980D01*
X153414229Y-64293621D01*
X153171776Y-64393800D01*
X151587200Y-64393800D01*
X151229391Y-64464973D01*
X150926055Y-64667655D01*
X150302452Y-65291258D01*
X150061885Y-65390658D01*
X149770481Y-65681554D01*
X149612580Y-66061823D01*
X149612221Y-66473571D01*
X148147039Y-66473571D01*
X144382679Y-62709211D01*
X145157648Y-62709211D01*
X145466805Y-63457429D01*
X146038760Y-64030383D01*
X146786438Y-64340846D01*
X147596011Y-64341552D01*
X148344229Y-64032395D01*
X148917183Y-63460440D01*
X149227646Y-62712762D01*
X149228352Y-61903189D01*
X148919195Y-61154971D01*
X148347240Y-60582017D01*
X147599562Y-60271554D01*
X146789989Y-60270848D01*
X146041771Y-60580005D01*
X145468817Y-61151960D01*
X145158354Y-61899638D01*
X145157648Y-62709211D01*
X144382679Y-62709211D01*
X142868097Y-61194629D01*
X142812566Y-60923144D01*
X142906520Y-60696877D01*
X142906879Y-60285129D01*
X142749642Y-59904585D01*
X142458746Y-59613181D01*
X142078477Y-59455280D01*
X141666729Y-59454921D01*
X141286185Y-59612158D01*
X140994781Y-59903054D01*
X140836880Y-60283323D01*
X140836805Y-60369550D01*
X140789000Y-60369508D01*
X140789000Y-59239392D01*
X140830919Y-59197546D01*
X140988820Y-58817277D01*
X140989179Y-58405529D01*
X140912960Y-58221065D01*
X141131523Y-58311820D01*
X141543271Y-58312179D01*
X141923815Y-58154942D01*
X142215219Y-57864046D01*
X142373120Y-57483777D01*
X142373479Y-57072029D01*
X142216242Y-56691485D01*
X141925346Y-56400081D01*
X141545077Y-56242180D01*
X141402229Y-56242055D01*
X141378441Y-56226161D01*
X141058900Y-56162600D01*
X139839700Y-56162600D01*
X139520159Y-56226161D01*
X139259869Y-56400081D01*
X139249266Y-56407166D01*
X139034380Y-56622052D01*
X139015842Y-56577185D01*
X138724946Y-56285781D01*
X138344677Y-56127880D01*
X137932929Y-56127521D01*
X137552385Y-56284758D01*
X137260981Y-56575654D01*
X137103080Y-56955923D01*
X137102721Y-57367671D01*
X137259958Y-57748215D01*
X137302900Y-57791232D01*
X137302900Y-74974407D01*
X137146681Y-75130354D01*
X136988780Y-75510623D01*
X136988421Y-75922371D01*
X136913900Y-75922371D01*
X136913900Y-74371200D01*
X136842727Y-74013391D01*
X136640045Y-73710055D01*
X135597342Y-72667352D01*
X135497942Y-72426785D01*
X135473028Y-72401828D01*
X135581623Y-72446920D01*
X135993371Y-72447279D01*
X136373915Y-72290042D01*
X136665319Y-71999146D01*
X136823220Y-71618877D01*
X136823579Y-71207129D01*
X136666342Y-70826585D01*
X136582052Y-70742148D01*
X134015984Y-67129722D01*
X133952540Y-67069805D01*
X133904056Y-66997244D01*
X133807129Y-66932480D01*
X133722383Y-66852446D01*
X133640838Y-66821368D01*
X133568277Y-66772885D01*
X133453952Y-66750144D01*
X133345022Y-66708630D01*
X133257788Y-66711125D01*
X133172200Y-66694100D01*
X132207330Y-66694100D01*
X132002029Y-66693921D01*
X131621485Y-66851158D01*
X131330081Y-67142054D01*
X131172180Y-67522323D01*
X131171821Y-67934071D01*
X131329058Y-68314615D01*
X131619954Y-68606019D01*
X132000223Y-68763920D01*
X132411971Y-68764279D01*
X132412404Y-68764100D01*
X132637858Y-68764100D01*
X134876654Y-71915802D01*
X134910458Y-71997615D01*
X134935372Y-72022572D01*
X134826777Y-71977480D01*
X134415029Y-71977121D01*
X134034485Y-72134358D01*
X133743081Y-72425254D01*
X133585180Y-72805523D01*
X133584821Y-73217271D01*
X133742058Y-73597815D01*
X134032954Y-73889219D01*
X134275231Y-73989821D01*
X135043900Y-74758490D01*
X135043900Y-75782489D01*
X132595956Y-73334544D01*
X132451146Y-73189481D01*
X132070877Y-73031580D01*
X131864104Y-73031400D01*
X131864100Y-73031399D01*
X131864096Y-73031400D01*
X131659129Y-73031221D01*
X131278585Y-73188458D01*
X130987181Y-73479354D01*
X130829280Y-73859623D01*
X130829100Y-74066396D01*
X130829099Y-74066400D01*
X130829100Y-74066404D01*
X130828921Y-74271371D01*
X125838431Y-74271371D01*
X124760456Y-71617895D01*
X119543101Y-42560656D01*
X119524997Y-42514528D01*
X119490618Y-42478840D01*
X119455955Y-42461873D01*
X116814214Y-41636943D01*
X151922455Y-41362054D01*
X151802739Y-41541222D01*
X151802739Y-41541222D01*
G37*
X151802739Y-41541222D02*
X151689700Y-42109507D01*
X151689700Y-42167693D01*
X151802739Y-42735978D01*
X152124646Y-43217747D01*
X152510102Y-43475300D01*
X148691600Y-43475300D01*
X148372060Y-43538860D01*
X148101166Y-43719866D01*
X146372453Y-45448579D01*
X146305642Y-45286885D01*
X146014746Y-44995481D01*
X145634477Y-44837580D01*
X145222729Y-44837221D01*
X144842185Y-44994458D01*
X144550781Y-45285354D01*
X144392880Y-45665623D01*
X144392827Y-45726405D01*
X144319832Y-45799400D01*
X136645892Y-45799400D01*
X136604046Y-45757481D01*
X136223777Y-45599580D01*
X135812029Y-45599221D01*
X135431485Y-45756458D01*
X135140081Y-46047354D01*
X134982180Y-46427623D01*
X134981821Y-46839371D01*
X135139058Y-47219915D01*
X135429954Y-47511319D01*
X135810223Y-47669220D01*
X136221971Y-47669579D01*
X136602515Y-47512342D01*
X136645532Y-47469400D01*
X144246270Y-47469400D01*
X143092342Y-48098390D01*
X141248117Y-48622059D01*
X137267107Y-49636610D01*
X137087377Y-49561980D01*
X136675629Y-49561621D01*
X136344839Y-49698300D01*
X128107868Y-49698300D01*
X126193627Y-47784059D01*
X126193679Y-47724829D01*
X126036442Y-47344285D01*
X125745546Y-47052881D01*
X125365277Y-46894980D01*
X124953529Y-46894621D01*
X124572985Y-47051858D01*
X124281581Y-47342754D01*
X124123680Y-47723023D01*
X124123321Y-48134771D01*
X124280558Y-48515315D01*
X124571454Y-48806719D01*
X124951723Y-48964620D01*
X125012505Y-48964673D01*
X127171566Y-51123734D01*
X127442459Y-51304739D01*
X127762000Y-51368300D01*
X136188319Y-51368300D01*
X136293554Y-51473719D01*
X136673823Y-51631620D01*
X137085571Y-51631979D01*
X137466115Y-51474742D01*
X137688697Y-51252548D01*
X139247899Y-50855189D01*
X137226588Y-52876500D01*
X131864430Y-52876500D01*
X131659129Y-52876321D01*
X131278585Y-53033558D01*
X130987181Y-53324454D01*
X130829280Y-53704723D01*
X130828921Y-54116471D01*
X130986158Y-54497015D01*
X131277054Y-54788419D01*
X131657323Y-54946320D01*
X132069071Y-54946679D01*
X132069504Y-54946500D01*
X137655295Y-54946500D01*
X137655300Y-54946501D01*
X138051377Y-54867715D01*
X138387156Y-54643356D01*
X140586990Y-52443522D01*
X140727058Y-52782515D01*
X141017954Y-53073919D01*
X141398223Y-53231820D01*
X141809971Y-53232179D01*
X142190515Y-53074942D01*
X142233532Y-53032000D01*
X144094200Y-53032000D01*
X144132834Y-53024315D01*
X144172013Y-53028366D01*
X144291477Y-52992759D01*
X144413741Y-52968439D01*
X144446491Y-52946556D01*
X144484239Y-52935305D01*
X144580985Y-52856690D01*
X144684634Y-52787434D01*
X144706517Y-52754684D01*
X144737087Y-52729843D01*
X146823451Y-50212600D01*
X149405305Y-50212600D01*
X144395800Y-56151374D01*
X144395800Y-54946504D01*
X144602819Y-54739846D01*
X144760720Y-54359577D01*
X144761079Y-53947829D01*
X144603842Y-53567285D01*
X144312946Y-53275881D01*
X143932677Y-53117980D01*
X143520929Y-53117621D01*
X143140385Y-53274858D01*
X142848981Y-53565754D01*
X142691080Y-53946023D01*
X142690721Y-54357771D01*
X142725800Y-54442669D01*
X142725800Y-58039000D01*
X142789361Y-58358541D01*
X142955577Y-58607300D01*
X142970366Y-58629434D01*
X143554566Y-59213634D01*
X143825460Y-59394640D01*
X144145000Y-59458200D01*
X154835432Y-59458200D01*
X156797400Y-61420168D01*
X156797400Y-77603108D01*
X156755481Y-77644954D01*
X156597580Y-78025223D01*
X156597221Y-78436971D01*
X156754458Y-78817515D01*
X157045354Y-79108919D01*
X157198886Y-79172671D01*
X142347481Y-105027198D01*
X131685067Y-88663092D01*
X125838431Y-74271371D01*
X130828921Y-74271371D01*
X130986158Y-74651915D01*
X131277054Y-74943319D01*
X131277487Y-74943499D01*
X133534200Y-77200211D01*
X133534200Y-83400895D01*
X133534199Y-83400900D01*
X133612985Y-83796977D01*
X133837344Y-84132756D01*
X136085242Y-86380653D01*
X136085244Y-86380656D01*
X136421023Y-86605015D01*
X136817100Y-86683801D01*
X136817105Y-86683800D01*
X137188488Y-86683800D01*
X137380579Y-86875891D01*
X137525454Y-87021019D01*
X137905723Y-87178920D01*
X138112496Y-87179100D01*
X138112500Y-87179101D01*
X138112504Y-87179100D01*
X138317471Y-87179279D01*
X138698015Y-87022042D01*
X138989419Y-86731146D01*
X139147320Y-86350877D01*
X139147500Y-86144104D01*
X139147501Y-86144100D01*
X139147500Y-86144096D01*
X139147679Y-85939129D01*
X139077553Y-85769411D01*
X139269971Y-85769579D01*
X139650515Y-85612342D01*
X139941919Y-85321446D01*
X140099820Y-84941177D01*
X140100179Y-84529429D01*
X139942942Y-84148885D01*
X139652046Y-83857481D01*
X139271777Y-83699580D01*
X139210995Y-83699527D01*
X138109300Y-82597832D01*
X138109300Y-82581992D01*
X138151219Y-82540146D01*
X138309120Y-82159877D01*
X138309479Y-81748129D01*
X138152242Y-81367585D01*
X137861346Y-81076181D01*
X137481077Y-80918280D01*
X137069329Y-80917921D01*
X136913900Y-80982143D01*
X136913900Y-75922371D01*
X136988421Y-75922371D01*
X137145658Y-76302915D01*
X137436554Y-76594319D01*
X137816823Y-76752220D01*
X138228571Y-76752579D01*
X138609115Y-76595342D01*
X138900519Y-76304446D01*
X138934777Y-76221945D01*
X138944273Y-76231441D01*
X138944221Y-76290671D01*
X139101458Y-76671215D01*
X139387238Y-76957494D01*
X139008159Y-77336573D01*
X138948929Y-77336521D01*
X138568385Y-77493758D01*
X138276981Y-77784654D01*
X138119080Y-78164923D01*
X138118721Y-78576671D01*
X138275958Y-78957215D01*
X138566854Y-79248619D01*
X138947123Y-79406520D01*
X138977514Y-79406546D01*
X139101458Y-79706515D01*
X139392354Y-79997919D01*
X139772623Y-80155820D01*
X140184371Y-80156179D01*
X140564915Y-79998942D01*
X140856319Y-79708046D01*
X141014220Y-79327777D01*
X141014273Y-79266995D01*
X143192268Y-77089000D01*
X144193007Y-77089000D01*
X144306046Y-77657285D01*
X144627953Y-78139054D01*
X144957126Y-78359000D01*
X144627953Y-78578946D01*
X144306046Y-79060715D01*
X144193007Y-79629000D01*
X144306046Y-80197285D01*
X144627953Y-80679054D01*
X144957126Y-80899000D01*
X144627953Y-81118946D01*
X144306046Y-81600715D01*
X144193007Y-82169000D01*
X144306046Y-82737285D01*
X144627953Y-83219054D01*
X144957126Y-83439000D01*
X144627953Y-83658946D01*
X144306046Y-84140715D01*
X144193007Y-84709000D01*
X144306046Y-85277285D01*
X144627953Y-85759054D01*
X144957126Y-85979000D01*
X144627953Y-86198946D01*
X144306046Y-86680715D01*
X144193007Y-87249000D01*
X144306046Y-87817285D01*
X144627953Y-88299054D01*
X144957126Y-88519000D01*
X144627953Y-88738946D01*
X144306046Y-89220715D01*
X144193007Y-89789000D01*
X144306046Y-90357285D01*
X144627953Y-90839054D01*
X144957126Y-91059000D01*
X144627953Y-91278946D01*
X144306046Y-91760715D01*
X144193007Y-92329000D01*
X144306046Y-92897285D01*
X144627953Y-93379054D01*
X145109722Y-93700961D01*
X145678007Y-93814000D01*
X145736193Y-93814000D01*
X146304478Y-93700961D01*
X146786247Y-93379054D01*
X147108154Y-92897285D01*
X147221193Y-92329000D01*
X147108154Y-91760715D01*
X146786247Y-91278946D01*
X146457074Y-91059000D01*
X146786247Y-90839054D01*
X147108154Y-90357285D01*
X147221193Y-89789000D01*
X147108154Y-89220715D01*
X146786247Y-88738946D01*
X146457074Y-88519000D01*
X146786247Y-88299054D01*
X147108154Y-87817285D01*
X147221193Y-87249000D01*
X147108154Y-86680715D01*
X146786247Y-86198946D01*
X146457074Y-85979000D01*
X146786247Y-85759054D01*
X147108154Y-85277285D01*
X147221193Y-84709000D01*
X147108154Y-84140715D01*
X146786247Y-83658946D01*
X146457074Y-83439000D01*
X146786247Y-83219054D01*
X147108154Y-82737285D01*
X147221193Y-82169000D01*
X147108154Y-81600715D01*
X146786247Y-81118946D01*
X146457074Y-80899000D01*
X146786247Y-80679054D01*
X147108154Y-80197285D01*
X147221193Y-79629000D01*
X147108154Y-79060715D01*
X146786247Y-78578946D01*
X146457074Y-78359000D01*
X146786247Y-78139054D01*
X147108154Y-77657285D01*
X147221193Y-77089000D01*
X147108154Y-76520715D01*
X146786247Y-76038946D01*
X146445547Y-75811298D01*
X146588458Y-75744183D01*
X146978745Y-75315924D01*
X147148576Y-74905890D01*
X147027255Y-74676000D01*
X145834100Y-74676000D01*
X145834100Y-74696000D01*
X145580100Y-74696000D01*
X145580100Y-74676000D01*
X144386945Y-74676000D01*
X144265624Y-74905890D01*
X144435455Y-75315924D01*
X144825742Y-75744183D01*
X144968653Y-75811298D01*
X144627953Y-76038946D01*
X144306046Y-76520715D01*
X144193007Y-77089000D01*
X143192268Y-77089000D01*
X143198734Y-77082534D01*
X143379739Y-76811641D01*
X143443300Y-76492100D01*
X143443300Y-65267440D01*
X143536715Y-65228842D01*
X143828119Y-64937946D01*
X143951806Y-64640074D01*
X146739000Y-67427268D01*
X146739000Y-70547742D01*
X146557100Y-70511560D01*
X144857100Y-70511560D01*
X144609335Y-70560843D01*
X144399291Y-70701191D01*
X144258943Y-70911235D01*
X144209660Y-71159000D01*
X144209660Y-72859000D01*
X144258943Y-73106765D01*
X144399291Y-73316809D01*
X144609335Y-73457157D01*
X144712808Y-73477739D01*
X144435455Y-73782076D01*
X144265624Y-74192110D01*
X144386945Y-74422000D01*
X145580100Y-74422000D01*
X145580100Y-74402000D01*
X145834100Y-74402000D01*
X145834100Y-74422000D01*
X147027255Y-74422000D01*
X147148576Y-74192110D01*
X146978745Y-73782076D01*
X146701392Y-73477739D01*
X146804865Y-73457157D01*
X146903373Y-73391336D01*
X147051658Y-73750215D01*
X147342554Y-74041619D01*
X147722823Y-74199520D01*
X148134571Y-74199879D01*
X148515115Y-74042642D01*
X148806519Y-73751746D01*
X148964420Y-73371477D01*
X148964779Y-72959729D01*
X148807542Y-72579185D01*
X148516646Y-72287781D01*
X148409000Y-72243083D01*
X148409000Y-71820271D01*
X149891621Y-71820271D01*
X150048858Y-72200815D01*
X150339754Y-72492219D01*
X150720023Y-72650120D01*
X151131771Y-72650479D01*
X151276827Y-72590543D01*
X153564656Y-71889435D01*
X155166776Y-71494709D01*
X155246571Y-71494779D01*
X155627115Y-71337542D01*
X155918519Y-71046646D01*
X156076420Y-70666377D01*
X156076779Y-70254629D01*
X155919542Y-69874085D01*
X155628646Y-69582681D01*
X155248377Y-69424780D01*
X154836629Y-69424421D01*
X154718358Y-69473289D01*
X153041404Y-69886452D01*
X153014882Y-69898870D01*
X152985743Y-69901824D01*
X150772209Y-70580165D01*
X150721829Y-70580121D01*
X150341285Y-70737358D01*
X150049881Y-71028254D01*
X149891980Y-71408523D01*
X149891621Y-71820271D01*
X148409000Y-71820271D01*
X148409000Y-67081400D01*
X148378834Y-66929745D01*
X148345440Y-66761860D01*
X148164434Y-66490966D01*
X148147039Y-66473571D01*
X149612221Y-66473571D01*
X149769458Y-66854115D01*
X150060354Y-67145519D01*
X150440623Y-67303420D01*
X150852371Y-67303779D01*
X151232915Y-67146542D01*
X151524319Y-66855646D01*
X151624921Y-66613369D01*
X151974490Y-66263800D01*
X153172029Y-66263800D01*
X153412423Y-66363620D01*
X153824171Y-66363979D01*
X154204715Y-66206742D01*
X154496119Y-65915846D01*
X154654020Y-65535577D01*
X154654379Y-65123829D01*
X154497142Y-64743285D01*
X154206246Y-64451881D01*
X153825977Y-64293980D01*
X153414229Y-64293621D01*
X153171776Y-64393800D01*
X151587200Y-64393800D01*
X151229391Y-64464973D01*
X150926055Y-64667655D01*
X150302452Y-65291258D01*
X150061885Y-65390658D01*
X149770481Y-65681554D01*
X149612580Y-66061823D01*
X149612221Y-66473571D01*
X148147039Y-66473571D01*
X144382679Y-62709211D01*
X145157648Y-62709211D01*
X145466805Y-63457429D01*
X146038760Y-64030383D01*
X146786438Y-64340846D01*
X147596011Y-64341552D01*
X148344229Y-64032395D01*
X148917183Y-63460440D01*
X149227646Y-62712762D01*
X149228352Y-61903189D01*
X148919195Y-61154971D01*
X148347240Y-60582017D01*
X147599562Y-60271554D01*
X146789989Y-60270848D01*
X146041771Y-60580005D01*
X145468817Y-61151960D01*
X145158354Y-61899638D01*
X145157648Y-62709211D01*
X144382679Y-62709211D01*
X142868097Y-61194629D01*
X142812566Y-60923144D01*
X142906520Y-60696877D01*
X142906879Y-60285129D01*
X142749642Y-59904585D01*
X142458746Y-59613181D01*
X142078477Y-59455280D01*
X141666729Y-59454921D01*
X141286185Y-59612158D01*
X140994781Y-59903054D01*
X140836880Y-60283323D01*
X140836805Y-60369550D01*
X140789000Y-60369508D01*
X140789000Y-59239392D01*
X140830919Y-59197546D01*
X140988820Y-58817277D01*
X140989179Y-58405529D01*
X140912960Y-58221065D01*
X141131523Y-58311820D01*
X141543271Y-58312179D01*
X141923815Y-58154942D01*
X142215219Y-57864046D01*
X142373120Y-57483777D01*
X142373479Y-57072029D01*
X142216242Y-56691485D01*
X141925346Y-56400081D01*
X141545077Y-56242180D01*
X141402229Y-56242055D01*
X141378441Y-56226161D01*
X141058900Y-56162600D01*
X139839700Y-56162600D01*
X139520159Y-56226161D01*
X139259869Y-56400081D01*
X139249266Y-56407166D01*
X139034380Y-56622052D01*
X139015842Y-56577185D01*
X138724946Y-56285781D01*
X138344677Y-56127880D01*
X137932929Y-56127521D01*
X137552385Y-56284758D01*
X137260981Y-56575654D01*
X137103080Y-56955923D01*
X137102721Y-57367671D01*
X137259958Y-57748215D01*
X137302900Y-57791232D01*
X137302900Y-74974407D01*
X137146681Y-75130354D01*
X136988780Y-75510623D01*
X136988421Y-75922371D01*
X136913900Y-75922371D01*
X136913900Y-74371200D01*
X136842727Y-74013391D01*
X136640045Y-73710055D01*
X135597342Y-72667352D01*
X135497942Y-72426785D01*
X135473028Y-72401828D01*
X135581623Y-72446920D01*
X135993371Y-72447279D01*
X136373915Y-72290042D01*
X136665319Y-71999146D01*
X136823220Y-71618877D01*
X136823579Y-71207129D01*
X136666342Y-70826585D01*
X136582052Y-70742148D01*
X134015984Y-67129722D01*
X133952540Y-67069805D01*
X133904056Y-66997244D01*
X133807129Y-66932480D01*
X133722383Y-66852446D01*
X133640838Y-66821368D01*
X133568277Y-66772885D01*
X133453952Y-66750144D01*
X133345022Y-66708630D01*
X133257788Y-66711125D01*
X133172200Y-66694100D01*
X132207330Y-66694100D01*
X132002029Y-66693921D01*
X131621485Y-66851158D01*
X131330081Y-67142054D01*
X131172180Y-67522323D01*
X131171821Y-67934071D01*
X131329058Y-68314615D01*
X131619954Y-68606019D01*
X132000223Y-68763920D01*
X132411971Y-68764279D01*
X132412404Y-68764100D01*
X132637858Y-68764100D01*
X134876654Y-71915802D01*
X134910458Y-71997615D01*
X134935372Y-72022572D01*
X134826777Y-71977480D01*
X134415029Y-71977121D01*
X134034485Y-72134358D01*
X133743081Y-72425254D01*
X133585180Y-72805523D01*
X133584821Y-73217271D01*
X133742058Y-73597815D01*
X134032954Y-73889219D01*
X134275231Y-73989821D01*
X135043900Y-74758490D01*
X135043900Y-75782489D01*
X132595956Y-73334544D01*
X132451146Y-73189481D01*
X132070877Y-73031580D01*
X131864104Y-73031400D01*
X131864100Y-73031399D01*
X131864096Y-73031400D01*
X131659129Y-73031221D01*
X131278585Y-73188458D01*
X130987181Y-73479354D01*
X130829280Y-73859623D01*
X130829100Y-74066396D01*
X130829099Y-74066400D01*
X130829100Y-74066404D01*
X130828921Y-74271371D01*
X125838431Y-74271371D01*
X124760456Y-71617895D01*
X119543101Y-42560656D01*
X119524997Y-42514528D01*
X119490618Y-42478840D01*
X119455955Y-42461873D01*
X116814214Y-41636943D01*
X151922455Y-41362054D01*
X151802739Y-41541222D01*
G36*
X158467400Y-76964339D02*
X158467400Y-61074300D01*
X158403839Y-60754759D01*
X158222834Y-60483866D01*
X155771734Y-58032766D01*
X155652275Y-57952946D01*
X155500841Y-57851761D01*
X155181300Y-57788200D01*
X145484027Y-57788200D01*
X145573520Y-57572677D01*
X145573718Y-57345018D01*
X150721803Y-51241958D01*
X151080515Y-51093742D01*
X151371919Y-50802846D01*
X151529820Y-50422577D01*
X151529961Y-50260657D01*
X152024025Y-50300326D01*
X152117754Y-50394219D01*
X152416982Y-50518469D01*
X152416158Y-50538892D01*
X152701046Y-52349969D01*
X152660580Y-52447423D01*
X152660221Y-52859171D01*
X152817458Y-53239715D01*
X153108354Y-53531119D01*
X153488623Y-53689020D01*
X153900371Y-53689379D01*
X154280915Y-53532142D01*
X154572319Y-53241246D01*
X154730220Y-52860977D01*
X154730579Y-52449229D01*
X154573342Y-52068685D01*
X154545389Y-52040683D01*
X154337376Y-50718314D01*
X155835290Y-49220400D01*
X165339154Y-49220400D01*
X165426623Y-49256720D01*
X165838371Y-49257079D01*
X166218915Y-49099842D01*
X166510319Y-48808946D01*
X166668220Y-48428677D01*
X166668579Y-48016929D01*
X166511342Y-47636385D01*
X166499078Y-47624100D01*
X166952610Y-47624100D01*
X167185999Y-47527427D01*
X167364627Y-47348798D01*
X167461300Y-47115409D01*
X167461300Y-46424850D01*
X167302550Y-46266100D01*
X166103300Y-46266100D01*
X166103300Y-46286100D01*
X165849300Y-46286100D01*
X165849300Y-46266100D01*
X165829300Y-46266100D01*
X165829300Y-46012100D01*
X165849300Y-46012100D01*
X165849300Y-44812850D01*
X166103300Y-44812850D01*
X166103300Y-46012100D01*
X167302550Y-46012100D01*
X167461300Y-45853350D01*
X167461300Y-45162791D01*
X167364627Y-44929402D01*
X167185999Y-44750773D01*
X166952610Y-44654100D01*
X166262050Y-44654100D01*
X166103300Y-44812850D01*
X165849300Y-44812850D01*
X165690550Y-44654100D01*
X164999990Y-44654100D01*
X164766601Y-44750773D01*
X164587973Y-44929402D01*
X164515703Y-45103877D01*
X164486354Y-45059953D01*
X164004585Y-44738046D01*
X163436300Y-44625007D01*
X162868015Y-44738046D01*
X162386246Y-45059953D01*
X162166300Y-45389126D01*
X161946354Y-45059953D01*
X161724400Y-44911648D01*
X161740734Y-44900734D01*
X163046168Y-43595300D01*
X163334700Y-43652693D01*
X163902985Y-43539654D01*
X164384754Y-43217747D01*
X164604700Y-42888574D01*
X164824646Y-43217747D01*
X165306415Y-43539654D01*
X165874700Y-43652693D01*
X166442985Y-43539654D01*
X166924754Y-43217747D01*
X167152402Y-42877047D01*
X167219517Y-43019958D01*
X167647776Y-43410245D01*
X168057810Y-43580076D01*
X168287700Y-43458755D01*
X168287700Y-42265600D01*
X168267700Y-42265600D01*
X168267700Y-42011600D01*
X168287700Y-42011600D01*
X168287700Y-41991600D01*
X168541700Y-41991600D01*
X168541700Y-42011600D01*
X168561700Y-42011600D01*
X168561700Y-42265600D01*
X168541700Y-42265600D01*
X168541700Y-43458755D01*
X168771590Y-43580076D01*
X169181624Y-43410245D01*
X169485961Y-43132892D01*
X169506543Y-43236365D01*
X169646891Y-43446409D01*
X169856935Y-43586757D01*
X170104700Y-43636040D01*
X171804700Y-43636040D01*
X172052465Y-43586757D01*
X172262509Y-43446409D01*
X172402857Y-43236365D01*
X172452140Y-42988600D01*
X172452140Y-41288600D01*
X172434805Y-41201448D01*
X179040093Y-41149730D01*
X158467400Y-76964339D01*
X158467400Y-76964339D01*
G37*
X158467400Y-76964339D02*
X158467400Y-61074300D01*
X158403839Y-60754759D01*
X158222834Y-60483866D01*
X155771734Y-58032766D01*
X155652275Y-57952946D01*
X155500841Y-57851761D01*
X155181300Y-57788200D01*
X145484027Y-57788200D01*
X145573520Y-57572677D01*
X145573718Y-57345018D01*
X150721803Y-51241958D01*
X151080515Y-51093742D01*
X151371919Y-50802846D01*
X151529820Y-50422577D01*
X151529961Y-50260657D01*
X152024025Y-50300326D01*
X152117754Y-50394219D01*
X152416982Y-50518469D01*
X152416158Y-50538892D01*
X152701046Y-52349969D01*
X152660580Y-52447423D01*
X152660221Y-52859171D01*
X152817458Y-53239715D01*
X153108354Y-53531119D01*
X153488623Y-53689020D01*
X153900371Y-53689379D01*
X154280915Y-53532142D01*
X154572319Y-53241246D01*
X154730220Y-52860977D01*
X154730579Y-52449229D01*
X154573342Y-52068685D01*
X154545389Y-52040683D01*
X154337376Y-50718314D01*
X155835290Y-49220400D01*
X165339154Y-49220400D01*
X165426623Y-49256720D01*
X165838371Y-49257079D01*
X166218915Y-49099842D01*
X166510319Y-48808946D01*
X166668220Y-48428677D01*
X166668579Y-48016929D01*
X166511342Y-47636385D01*
X166499078Y-47624100D01*
X166952610Y-47624100D01*
X167185999Y-47527427D01*
X167364627Y-47348798D01*
X167461300Y-47115409D01*
X167461300Y-46424850D01*
X167302550Y-46266100D01*
X166103300Y-46266100D01*
X166103300Y-46286100D01*
X165849300Y-46286100D01*
X165849300Y-46266100D01*
X165829300Y-46266100D01*
X165829300Y-46012100D01*
X165849300Y-46012100D01*
X165849300Y-44812850D01*
X166103300Y-44812850D01*
X166103300Y-46012100D01*
X167302550Y-46012100D01*
X167461300Y-45853350D01*
X167461300Y-45162791D01*
X167364627Y-44929402D01*
X167185999Y-44750773D01*
X166952610Y-44654100D01*
X166262050Y-44654100D01*
X166103300Y-44812850D01*
X165849300Y-44812850D01*
X165690550Y-44654100D01*
X164999990Y-44654100D01*
X164766601Y-44750773D01*
X164587973Y-44929402D01*
X164515703Y-45103877D01*
X164486354Y-45059953D01*
X164004585Y-44738046D01*
X163436300Y-44625007D01*
X162868015Y-44738046D01*
X162386246Y-45059953D01*
X162166300Y-45389126D01*
X161946354Y-45059953D01*
X161724400Y-44911648D01*
X161740734Y-44900734D01*
X163046168Y-43595300D01*
X163334700Y-43652693D01*
X163902985Y-43539654D01*
X164384754Y-43217747D01*
X164604700Y-42888574D01*
X164824646Y-43217747D01*
X165306415Y-43539654D01*
X165874700Y-43652693D01*
X166442985Y-43539654D01*
X166924754Y-43217747D01*
X167152402Y-42877047D01*
X167219517Y-43019958D01*
X167647776Y-43410245D01*
X168057810Y-43580076D01*
X168287700Y-43458755D01*
X168287700Y-42265600D01*
X168267700Y-42265600D01*
X168267700Y-42011600D01*
X168287700Y-42011600D01*
X168287700Y-41991600D01*
X168541700Y-41991600D01*
X168541700Y-42011600D01*
X168561700Y-42011600D01*
X168561700Y-42265600D01*
X168541700Y-42265600D01*
X168541700Y-43458755D01*
X168771590Y-43580076D01*
X169181624Y-43410245D01*
X169485961Y-43132892D01*
X169506543Y-43236365D01*
X169646891Y-43446409D01*
X169856935Y-43586757D01*
X170104700Y-43636040D01*
X171804700Y-43636040D01*
X172052465Y-43586757D01*
X172262509Y-43446409D01*
X172402857Y-43236365D01*
X172452140Y-42988600D01*
X172452140Y-41288600D01*
X172434805Y-41201448D01*
X179040093Y-41149730D01*
X158467400Y-76964339D01*
M02*
