M48
;DRILL file {KiCad no-vcs-found} date Wed Jul 18 20:25:54 2018
;FORMAT={-:-/ absolute / inch / decimal}
FMAT,2
INCH,TZ
T1C0.016
T2C0.039
T3C0.039
%
G90
G05
M72
T1
X1.7415Y-1.842
X1.846Y-2.3475
X1.879Y-2.257
X1.947Y-2.8575
X2.094Y-2.91
X2.133Y-2.79
X2.3385Y-3.294
X2.3575Y-2.8215
X2.3595Y-3.0525
X2.388Y-3.7135
X2.4155Y-2.497
X2.4255Y-2.6625
X2.433Y-2.396
X2.485Y-3.684
X2.521Y-2.475
X2.619Y-3.1725
X2.653Y-2.6225
X2.6655Y-3.1825
X4.9275Y-1.887
X5.159Y-2.9305
X5.1915Y-2.1225
X5.205Y-2.6665
X5.286Y-2.2575
X5.3Y-2.8745
X5.303Y-3.3185
X5.3445Y-3.458
X5.346Y-2.475
X5.346Y-2.8115
X5.355Y-1.836
X5.389Y-1.992
X5.4Y-3.0105
X5.4045Y-3.2265
X5.434Y-2.981
X5.4385Y-2.2505
X5.475Y-3.336
X5.51Y-2.3075
X5.511Y-2.9955
X5.5645Y-2.255
X5.575Y-2.055
X5.5755Y-2.985
X5.5945Y-2.386
X5.6165Y-2.2365
X5.658Y-2.399
X5.6585Y-2.132
X5.6905Y-2.2585
X5.7255Y-1.806
X5.824Y-2.8805
X5.88Y-2.8785
X5.8845Y-2.835
X5.925Y-1.977
X5.931Y-2.609
X6.012Y-1.9495
X6.048Y-2.572
X6.051Y-2.073
X6.081Y-2.874
X6.1455Y-2.769
X6.206Y-3.08
X6.292Y-2.8225
X6.305Y-2.6465
X6.521Y-1.8985
X8.119Y-2.319
X8.133Y-2.232
X8.1885Y-2.214
X8.2785Y-2.2575
X8.2865Y-2.3355
X8.406Y-2.925
X8.481Y-2.0285
X8.535Y-2.5905
X8.5755Y-3.0015
X8.643Y-3.0015
X8.667Y-2.8455
X8.763Y-1.986
X8.7945Y-2.133
X8.8035Y-2.202
X8.821Y-3.651
X8.8305Y-2.9865
X8.831Y-3.137
X8.868Y-2.0805
X8.9025Y-2.2035
X8.9255Y-1.9085
X8.934Y-2.763
X8.9385Y-2.8305
X8.943Y-2.653
X8.952Y-3.544
X8.965Y-2.385
X8.9805Y-4.004
X9.0255Y-3.1395
X9.144Y-2.796
X9.1805Y-3.665
X9.189Y-2.5965
X9.1935Y-2.5395
X9.3645Y-2.6445
X9.4125Y-2.652
X9.453Y-3.3
X9.5505Y-2.607
X9.6315Y-3.045
X9.639Y-2.724
T2
X6.0305Y-1.659
X6.1305Y-1.659
X6.2305Y-1.659
X6.3305Y-1.659
X6.4305Y-1.659
X6.5305Y-1.659
X6.6305Y-1.659
X6.7305Y-1.659
X6.0345Y-1.8165
X6.1345Y-1.8165
X6.2345Y-1.8165
X6.3345Y-1.8165
X6.4345Y-1.8165
X6.5345Y-1.8165
X10.1375Y-1.8195
X10.1375Y-2.1345
X5.7365Y-2.835
X5.7365Y-2.935
X5.7365Y-3.035
X5.7365Y-3.135
X5.7365Y-3.235
X5.7365Y-3.335
X5.7365Y-3.435
X5.7365Y-3.535
X5.7365Y-3.635
X3.255Y-1.916
X3.255Y-2.016
X3.4335Y-1.811
X3.4335Y-1.911
T3
X9.5625Y-2.3025
X2.044Y-3.8105
X2.6665Y-3.685
X9.11Y-3.08
X9.306Y-3.3395
X9.6755Y-2.09
X10.034Y-2.2285
X9.9Y-2.2265
X1.2425Y-1.882
X9.986Y-1.716
X5.795Y-2.453
T0
M30
