M48
;DRILL file {KiCad no-vcs-found} date Thu Jul 26 11:27:21 2018
;FORMAT={-:-/ absolute / inch / decimal}
FMAT,2
INCH,TZ
T1C0.016
T2C0.039
T3C0.039
%
G90
G05
M72
T1
X4.9275Y-1.887
X5.1915Y-2.1225
X5.1915Y-2.916
X5.205Y-2.6665
X5.2395Y-2.0535
X5.286Y-2.2575
X5.3Y-2.8745
X5.346Y-2.475
X5.346Y-2.8115
X5.355Y-1.836
X5.389Y-1.992
X5.4025Y-3.319
X5.4045Y-3.2265
X5.434Y-2.981
X5.4375Y-3.3915
X5.4385Y-2.2505
X5.475Y-3.336
X5.4785Y-3.0855
X5.51Y-2.3075
X5.511Y-2.9955
X5.511Y-3.115
X5.5425Y-2.4175
X5.548Y-2.977
X5.5645Y-2.255
X5.575Y-2.055
X5.5855Y-2.3815
X5.5925Y-2.1395
X5.628Y-2.5335
X5.6585Y-2.132
X5.6905Y-2.2585
X5.7255Y-1.806
X5.75Y-2.0995
X5.824Y-2.8805
X5.925Y-1.977
X5.931Y-2.609
X5.935Y-2.2295
X5.942Y-2.8195
X6.012Y-1.9495
X6.048Y-2.572
X6.051Y-2.073
X6.081Y-2.874
X6.104Y-2.774
X6.206Y-3.08
X6.292Y-2.8225
X6.305Y-2.6465
X6.521Y-1.8985
X6.5355Y-2.0955
X6.5595Y-2.3355
T2
X5.7365Y-2.835
X5.7365Y-2.935
X5.7365Y-3.035
X5.7365Y-3.135
X5.7365Y-3.235
X5.7365Y-3.335
X5.7365Y-3.435
X5.7365Y-3.535
X5.7365Y-3.635
X6.0345Y-1.8165
X6.1345Y-1.8165
X6.2345Y-1.8165
X6.3345Y-1.8165
X6.4345Y-1.8165
X6.5345Y-1.8165
X6.0305Y-1.659
X6.1305Y-1.659
X6.2305Y-1.659
X6.3305Y-1.659
X6.4305Y-1.659
X6.5305Y-1.659
X6.6305Y-1.659
X6.7305Y-1.659
T3
X5.795Y-2.453
T0
M30
