G04 #@! TF.GenerationSoftware,KiCad,Pcbnew,no-vcs-found*
G04 #@! TF.CreationDate,2018-07-23T22:56:23+02:00*
G04 #@! TF.ProjectId,mycelium_pcb_micro,6D7963656C69756D5F7063625F6D6963,rev?*
G04 #@! TF.SameCoordinates,Original
G04 #@! TF.FileFunction,Copper,L1,Top,Signal*
G04 #@! TF.FilePolarity,Positive*
%FSLAX46Y46*%
G04 Gerber Fmt 4.6, Leading zero omitted, Abs format (unit mm)*
G04 Created by KiCad (PCBNEW no-vcs-found) date Mon Jul 23 22:56:23 2018*
%MOMM*%
%LPD*%
G01*
G04 APERTURE LIST*
%ADD10O,1.700000X1.700000*%
%ADD11R,1.700000X1.700000*%
%ADD12C,1.000000*%
%ADD13C,0.050000*%
%ADD14R,1.500000X1.250000*%
%ADD15R,1.000000X1.250000*%
%ADD16R,1.500000X1.300000*%
%ADD17C,2.800000*%
%ADD18R,0.800000X1.500000*%
%ADD19R,1.450000X2.000000*%
%ADD20R,0.600000X0.800000*%
%ADD21R,1.600000X0.550000*%
%ADD22R,0.550000X1.600000*%
%ADD23R,2.000000X7.875000*%
%ADD24C,0.800000*%
%ADD25C,0.600000*%
%ADD26C,0.800000*%
%ADD27C,0.400000*%
%ADD28C,0.550000*%
%ADD29C,0.254000*%
G04 APERTURE END LIST*
D10*
X145707100Y-89789000D03*
X145707100Y-87249000D03*
X145707100Y-84709000D03*
X145707100Y-82169000D03*
X145707100Y-79629000D03*
X145707100Y-77089000D03*
X145707100Y-74549000D03*
D11*
X145707100Y-72009000D03*
D10*
X145707100Y-92329000D03*
D12*
X125945900Y-70739000D03*
D13*
G36*
X129803450Y-69568826D02*
X122495086Y-72822719D01*
X122088350Y-71909174D01*
X129396714Y-68655281D01*
X129803450Y-69568826D01*
X129803450Y-69568826D01*
G37*
D12*
X127406400Y-73926700D03*
D13*
G36*
X131263950Y-72756526D02*
X123955586Y-76010419D01*
X123548850Y-75096874D01*
X130857214Y-71842981D01*
X131263950Y-72756526D01*
X131263950Y-72756526D01*
G37*
D12*
X160566100Y-77711300D03*
D13*
G36*
X164016914Y-79795019D02*
X156708550Y-76541126D01*
X157115286Y-75627581D01*
X164423650Y-78881474D01*
X164016914Y-79795019D01*
X164016914Y-79795019D01*
G37*
D14*
X134957500Y-52425600D03*
X137457500Y-52425600D03*
X151048400Y-53911500D03*
X153548400Y-53911500D03*
X137457500Y-54483000D03*
X134957500Y-54483000D03*
D15*
X153184100Y-60731400D03*
X151184100Y-60731400D03*
D14*
X161792600Y-59537600D03*
X164292600Y-59537600D03*
X164241800Y-53441600D03*
X161741800Y-53441600D03*
D16*
X169312600Y-46405800D03*
X172012600Y-46405800D03*
D17*
X147193000Y-62306200D03*
D11*
X165976300Y-46139100D03*
D10*
X163436300Y-46139100D03*
X160896300Y-46139100D03*
X158356300Y-46139100D03*
X155816300Y-46139100D03*
X153276300Y-46139100D03*
D18*
X120752000Y-46195000D03*
X121852000Y-46195000D03*
X122952000Y-46195000D03*
X124052000Y-46195000D03*
X125152000Y-46195000D03*
X126252000Y-46195000D03*
X127352000Y-46195000D03*
X128452000Y-46195000D03*
D19*
X130827000Y-51895000D03*
X117077000Y-51895000D03*
X117077000Y-43595000D03*
X130827000Y-43595000D03*
D11*
X170954700Y-42138600D03*
D10*
X168414700Y-42138600D03*
X165874700Y-42138600D03*
X163334700Y-42138600D03*
X160794700Y-42138600D03*
X158254700Y-42138600D03*
X155714700Y-42138600D03*
X153174700Y-42138600D03*
D12*
X128790700Y-77139800D03*
D13*
G36*
X132648250Y-75969626D02*
X125339886Y-79223519D01*
X124933150Y-78309974D01*
X132241514Y-75056081D01*
X132648250Y-75969626D01*
X132648250Y-75969626D01*
G37*
D12*
X130225800Y-80327500D03*
D13*
G36*
X134083350Y-79157326D02*
X126774986Y-82411219D01*
X126368250Y-81497674D01*
X133676614Y-78243781D01*
X134083350Y-79157326D01*
X134083350Y-79157326D01*
G37*
D12*
X133057900Y-86690200D03*
D13*
G36*
X136915450Y-85520026D02*
X129607086Y-88773919D01*
X129200350Y-87860374D01*
X136508714Y-84606481D01*
X136915450Y-85520026D01*
X136915450Y-85520026D01*
G37*
D12*
X163449000Y-71488300D03*
D13*
G36*
X166899814Y-73572019D02*
X159591450Y-70318126D01*
X159998186Y-69404581D01*
X167306550Y-72658474D01*
X166899814Y-73572019D01*
X166899814Y-73572019D01*
G37*
D12*
X161912300Y-74536300D03*
D13*
G36*
X165363114Y-76620019D02*
X158054750Y-73366126D01*
X158461486Y-72452581D01*
X165769850Y-75706474D01*
X165363114Y-76620019D01*
X165363114Y-76620019D01*
G37*
D12*
X131673600Y-83489800D03*
D13*
G36*
X135531150Y-82319626D02*
X128222786Y-85573519D01*
X127816050Y-84659974D01*
X135124414Y-81406081D01*
X135531150Y-82319626D01*
X135531150Y-82319626D01*
G37*
D12*
X159169100Y-80873600D03*
D13*
G36*
X162619914Y-82957319D02*
X155311550Y-79703426D01*
X155718286Y-78789881D01*
X163026650Y-82043774D01*
X162619914Y-82957319D01*
X162619914Y-82957319D01*
G37*
D20*
X136195700Y-59029600D03*
X137895700Y-59029600D03*
D16*
X153343600Y-62903100D03*
X150643600Y-62903100D03*
X141728200Y-62712600D03*
X144428200Y-62712600D03*
X168804600Y-51295300D03*
X171504600Y-51295300D03*
D21*
X148382300Y-57435400D03*
X148382300Y-56635400D03*
X148382300Y-55835400D03*
X148382300Y-55035400D03*
X148382300Y-54235400D03*
X148382300Y-53435400D03*
X148382300Y-52635400D03*
X148382300Y-51835400D03*
D22*
X146932300Y-50385400D03*
X146132300Y-50385400D03*
X145332300Y-50385400D03*
X144532300Y-50385400D03*
X143732300Y-50385400D03*
X142932300Y-50385400D03*
X142132300Y-50385400D03*
X141332300Y-50385400D03*
D21*
X139882300Y-51835400D03*
X139882300Y-52635400D03*
X139882300Y-53435400D03*
X139882300Y-54235400D03*
X139882300Y-55035400D03*
X139882300Y-55835400D03*
X139882300Y-56635400D03*
X139882300Y-57435400D03*
D22*
X141332300Y-58885400D03*
X142132300Y-58885400D03*
X142932300Y-58885400D03*
X143732300Y-58885400D03*
X144532300Y-58885400D03*
X145332300Y-58885400D03*
X146132300Y-58885400D03*
X146932300Y-58885400D03*
D23*
X157187900Y-53130200D03*
X157187900Y-65005200D03*
D24*
X133083300Y-52158900D03*
X150749000Y-56629300D03*
X146050000Y-53327300D03*
X142049500Y-54343300D03*
X166611300Y-59321700D03*
X166001700Y-53225700D03*
X134264400Y-57340500D03*
X135788400Y-62865000D03*
X159816800Y-71691500D03*
X160147000Y-67221100D03*
X154457400Y-72999600D03*
X131864100Y-74066400D03*
X138112500Y-86144100D03*
X131864100Y-53911500D03*
X153695400Y-52654200D03*
X165633400Y-48221900D03*
X132207000Y-67729100D03*
X135788400Y-71412100D03*
X156095700Y-70332600D03*
X149466300Y-72009000D03*
X153619200Y-65328800D03*
X150647400Y-66268600D03*
X142659100Y-56807100D03*
X137160000Y-76466700D03*
X137274300Y-81953100D03*
X139065000Y-84734400D03*
X143713200Y-60934600D03*
X149352000Y-73113900D03*
X147929600Y-73164700D03*
X142100300Y-60604400D03*
X138137900Y-57162700D03*
X138023600Y-75717400D03*
X141338300Y-57277000D03*
X139979400Y-76085700D03*
X139954000Y-58610500D03*
X141617700Y-75819000D03*
X136880600Y-50596800D03*
X125158500Y-47929800D03*
X141605000Y-52197000D03*
X152704800Y-49517300D03*
X145427700Y-45872400D03*
X136017000Y-46634400D03*
X150495000Y-50215800D03*
X144538700Y-57365900D03*
X137223500Y-84302600D03*
X134620000Y-73012300D03*
X157632400Y-78232000D03*
X143725900Y-54152800D03*
D25*
X134957500Y-52425600D02*
X133350000Y-52425600D01*
X133350000Y-52425600D02*
X133083300Y-52158900D01*
X150749000Y-56629300D02*
X150831550Y-56546750D01*
X145230800Y-54235400D02*
X145230800Y-54146500D01*
X145230800Y-54146500D02*
X146050000Y-53327300D01*
D26*
X164292600Y-59537600D02*
X166395400Y-59537600D01*
X166395400Y-59537600D02*
X166611300Y-59321700D01*
X164241800Y-53441600D02*
X165785800Y-53441600D01*
X165785800Y-53441600D02*
X166001700Y-53225700D01*
D25*
X133527800Y-74549000D02*
X133527800Y-69430900D01*
X134957500Y-56647400D02*
X134957500Y-54483000D01*
X134264400Y-57340500D02*
X134957500Y-56647400D01*
X135788400Y-67170300D02*
X135788400Y-62865000D01*
X133527800Y-69430900D02*
X135788400Y-67170300D01*
X164292600Y-59537600D02*
X164292600Y-63075500D01*
X161912300Y-73787000D02*
X161912300Y-74536300D01*
X159816800Y-71691500D02*
X161912300Y-73787000D01*
X164292600Y-63075500D02*
X160147000Y-67221100D01*
X155257500Y-72199500D02*
X155257500Y-72085200D01*
X154457400Y-72999600D02*
X155257500Y-72199500D01*
X161912300Y-74536300D02*
X157708600Y-74536300D01*
X157708600Y-74536300D02*
X155257500Y-72085200D01*
X151980900Y-61528200D02*
X151184100Y-60731400D01*
X155257500Y-72085200D02*
X151866600Y-68694300D01*
X151866600Y-68694300D02*
X151866600Y-64503300D01*
X151866600Y-64503300D02*
X151980900Y-64389000D01*
X151980900Y-64389000D02*
X151980900Y-61528200D01*
X169312600Y-46405800D02*
X166243000Y-46405800D01*
X166243000Y-46405800D02*
X165976300Y-46139100D01*
D26*
X128790700Y-77139800D02*
X130619500Y-77139800D01*
X133210300Y-74549000D02*
X133527800Y-74549000D01*
X133527800Y-74549000D02*
X145707100Y-74549000D01*
X130619500Y-77139800D02*
X133210300Y-74549000D01*
D27*
X164292600Y-59537600D02*
X164292600Y-53492400D01*
X164292600Y-53492400D02*
X164241800Y-53441600D01*
D25*
X164241800Y-53441600D02*
X164241800Y-47873600D01*
X164241800Y-47873600D02*
X165976300Y-46139100D01*
X165976300Y-46139100D02*
X165976300Y-44577000D01*
X165976300Y-44577000D02*
X168414700Y-42138600D01*
D27*
X134957500Y-54483000D02*
X134957500Y-54553800D01*
D25*
X134957500Y-52425600D02*
X134957500Y-52394800D01*
X134957500Y-52394800D02*
X132283200Y-49720500D01*
X126252000Y-48489900D02*
X126252000Y-46195000D01*
X127482600Y-49720500D02*
X126252000Y-48489900D01*
X132283200Y-49720500D02*
X127482600Y-49720500D01*
X134957500Y-54483000D02*
X134957500Y-52425600D01*
D27*
X148382300Y-55835400D02*
X150120200Y-55835400D01*
X150120200Y-55835400D02*
X150831550Y-56546750D01*
X150831550Y-56546750D02*
X151184100Y-56899300D01*
X151184100Y-56899300D02*
X151184100Y-60731400D01*
X148382300Y-55835400D02*
X145230800Y-55835400D01*
X145230800Y-55835400D02*
X144430800Y-55035400D01*
X148382300Y-54235400D02*
X145230800Y-54235400D01*
X144430800Y-55035400D02*
X139882300Y-55035400D01*
X145230800Y-54235400D02*
X144430800Y-55035400D01*
X148382300Y-54235400D02*
X150724500Y-54235400D01*
X150724500Y-54235400D02*
X151048400Y-53911500D01*
D28*
X136195700Y-59029600D02*
X136195700Y-53123200D01*
X136195700Y-53123200D02*
X136893300Y-52425600D01*
X136893300Y-52425600D02*
X137457500Y-52425600D01*
D27*
X137457500Y-52425600D02*
X138277600Y-52425600D01*
X138487400Y-52635400D02*
X139882300Y-52635400D01*
X138277600Y-52425600D02*
X138487400Y-52635400D01*
D26*
X145707100Y-92329000D02*
X144297400Y-92329000D01*
X131724400Y-73926700D02*
X127406400Y-73926700D01*
X131864100Y-74066400D02*
X131724400Y-73926700D01*
X144297400Y-92329000D02*
X138112500Y-86144100D01*
X138010900Y-60337700D02*
X138010900Y-59971200D01*
X138010900Y-59971200D02*
X137895700Y-59856000D01*
D25*
X170954700Y-42138600D02*
X170954700Y-44716700D01*
X170624500Y-47777400D02*
X168804600Y-49597300D01*
X170624500Y-45046900D02*
X170624500Y-47777400D01*
X170954700Y-44716700D02*
X170624500Y-45046900D01*
X168804600Y-51295300D02*
X168804600Y-49597300D01*
X168804600Y-49597300D02*
X168804600Y-49500800D01*
X168804600Y-49500800D02*
X167525700Y-48221900D01*
X141728200Y-62712600D02*
X140385800Y-62712600D01*
X140385800Y-62712600D02*
X138010900Y-60337700D01*
X138010900Y-60337700D02*
X137972800Y-60299600D01*
D26*
X127406400Y-73926700D02*
X129425700Y-73926700D01*
X133612256Y-67407895D02*
X135001000Y-60375800D01*
X129425700Y-73926700D02*
X133612256Y-67407895D01*
X131864100Y-53911500D02*
X130651250Y-55124350D01*
D25*
X153904000Y-52862800D02*
X153548400Y-53911500D01*
X153695400Y-52654200D02*
X153904000Y-52862800D01*
X167525700Y-48221900D02*
X165633400Y-48221900D01*
X124052000Y-46195000D02*
X124052000Y-48525100D01*
X124052000Y-48525100D02*
X130651250Y-55124350D01*
D26*
X130651250Y-55124350D02*
X132067300Y-56540400D01*
X132067300Y-56540400D02*
X132067300Y-57365900D01*
X132067300Y-57365900D02*
X132067300Y-57696100D01*
X132067300Y-57696100D02*
X134747000Y-60375800D01*
X134747000Y-60375800D02*
X135001000Y-60375800D01*
D25*
X137895700Y-59856000D02*
X137895700Y-59029600D01*
X137375900Y-60375800D02*
X137895700Y-59856000D01*
X135001000Y-60375800D02*
X137375900Y-60375800D01*
D27*
X153548400Y-53911500D02*
X153548400Y-53944200D01*
X153548400Y-53944200D02*
X152387300Y-55105300D01*
X152387300Y-55105300D02*
X148452200Y-55105300D01*
X148452200Y-55105300D02*
X148382300Y-55035400D01*
X153548400Y-53911500D02*
X153548400Y-53840700D01*
X153548400Y-53840700D02*
X152285700Y-52578000D01*
X152285700Y-52578000D02*
X150380700Y-52578000D01*
X150380700Y-52578000D02*
X149523300Y-53435400D01*
X149523300Y-53435400D02*
X148382300Y-53435400D01*
X139882300Y-54235400D02*
X137705100Y-54235400D01*
X137705100Y-54235400D02*
X137457500Y-54483000D01*
D26*
X145707100Y-72009000D02*
X137452100Y-72009000D01*
X129197100Y-70739000D02*
X125945900Y-70739000D01*
X132207000Y-67729100D02*
X129197100Y-70739000D01*
X137452100Y-72009000D02*
X135788400Y-71412100D01*
X145707100Y-72009000D02*
X149428200Y-71970900D01*
X162217100Y-70256400D02*
X163449000Y-71488300D01*
X156171900Y-70256400D02*
X162217100Y-70256400D01*
X156095700Y-70332600D02*
X156171900Y-70256400D01*
X149428200Y-71970900D02*
X149466300Y-72009000D01*
D28*
X151828500Y-72809100D02*
X153962100Y-74942700D01*
D25*
X160566100Y-77711300D02*
X159092900Y-77711300D01*
X153343600Y-65053200D02*
X153343600Y-62903100D01*
X153619200Y-65328800D02*
X153343600Y-65053200D01*
X150647400Y-69494400D02*
X150647400Y-66268600D01*
X151828500Y-70675500D02*
X150647400Y-69494400D01*
X151828500Y-72809100D02*
X151828500Y-70675500D01*
X156324300Y-74942700D02*
X153962100Y-74942700D01*
X159092900Y-77711300D02*
X156324300Y-74942700D01*
D27*
X153343600Y-62903100D02*
X153343600Y-60890900D01*
X153343600Y-60890900D02*
X153184100Y-60731400D01*
X157187900Y-60464700D02*
X160865500Y-60464700D01*
X160865500Y-60464700D02*
X161792600Y-59537600D01*
X157187900Y-65005200D02*
X157187900Y-60464700D01*
X149408900Y-52635400D02*
X148382300Y-52635400D01*
X150164800Y-51879500D02*
X149408900Y-52635400D01*
X152984200Y-51879500D02*
X150164800Y-51879500D01*
X153212800Y-51650900D02*
X152984200Y-51879500D01*
X154571700Y-51650900D02*
X153212800Y-51650900D01*
X155308300Y-52387500D02*
X154571700Y-51650900D01*
X155308300Y-58585100D02*
X155308300Y-52387500D01*
X157187900Y-60464700D02*
X155308300Y-58585100D01*
X148382300Y-51835400D02*
X148382300Y-51757000D01*
X148382300Y-51757000D02*
X149072600Y-51066700D01*
X149072600Y-51066700D02*
X152628600Y-51066700D01*
X152628600Y-51066700D02*
X153428700Y-50266600D01*
X153428700Y-50266600D02*
X154324300Y-50266600D01*
X154324300Y-50266600D02*
X157187900Y-53130200D01*
X157187900Y-53130200D02*
X161430400Y-53130200D01*
X161430400Y-53130200D02*
X161741800Y-53441600D01*
D25*
X171504600Y-51295300D02*
X171504600Y-46452800D01*
D27*
X147193000Y-62306200D02*
X147193000Y-61493400D01*
X147193000Y-61493400D02*
X146132300Y-60432700D01*
X146132300Y-60432700D02*
X146132300Y-58885400D01*
X130225800Y-80327500D02*
X132194300Y-80327500D01*
X142932300Y-57080300D02*
X142932300Y-58885400D01*
X142659100Y-56807100D02*
X142932300Y-57080300D01*
X132194300Y-80327500D02*
X137160000Y-76466700D01*
X145707100Y-89789000D02*
X144119600Y-89789000D01*
X135648700Y-80327500D02*
X130225800Y-80327500D01*
X137274300Y-81953100D02*
X135648700Y-80327500D01*
X144119600Y-89789000D02*
X139065000Y-84734400D01*
X145707100Y-87249000D02*
X145770600Y-87249000D01*
X145770600Y-87249000D02*
X149352000Y-83667600D01*
X143732300Y-60915500D02*
X143732300Y-58885400D01*
X143713200Y-60934600D02*
X143732300Y-60915500D01*
X149352000Y-83667600D02*
X149352000Y-73113900D01*
X145707100Y-87249000D02*
X144132300Y-87249000D01*
X140373100Y-83489800D02*
X131673600Y-83489800D01*
X144132300Y-87249000D02*
X140373100Y-83489800D01*
X145707100Y-84709000D02*
X145834100Y-84709000D01*
X145834100Y-84709000D02*
X147929600Y-82613500D01*
X147929600Y-82613500D02*
X147929600Y-73164700D01*
X142100300Y-60604400D02*
X142132300Y-60572400D01*
X142132300Y-60572400D02*
X142132300Y-58885400D01*
X145707100Y-82169000D02*
X144475200Y-82169000D01*
X138665200Y-56635400D02*
X139882300Y-56635400D01*
X138137900Y-57162700D02*
X138665200Y-56635400D01*
X144475200Y-82169000D02*
X138023600Y-75717400D01*
X145707100Y-79629000D02*
X143522700Y-79629000D01*
X141332300Y-57283000D02*
X141332300Y-58885400D01*
X141338300Y-57277000D02*
X141332300Y-57283000D01*
X143522700Y-79629000D02*
X139979400Y-76085700D01*
X145707100Y-77089000D02*
X142887700Y-77089000D01*
X139882300Y-58538800D02*
X139882300Y-57435400D01*
X139954000Y-58610500D02*
X139882300Y-58538800D01*
X142887700Y-77089000D02*
X141617700Y-75819000D01*
X163436300Y-46139100D02*
X163436300Y-42240200D01*
X163436300Y-42240200D02*
X163334700Y-42138600D01*
X125152000Y-46195000D02*
X125152000Y-47923300D01*
X139331700Y-51066700D02*
X139882300Y-51617300D01*
X137350500Y-51066700D02*
X139331700Y-51066700D01*
X136880600Y-50596800D02*
X137350500Y-51066700D01*
X125152000Y-47923300D02*
X125158500Y-47929800D01*
X139882300Y-51617300D02*
X139882300Y-51835400D01*
X160896300Y-46139100D02*
X160896300Y-46253400D01*
X160896300Y-46253400D02*
X159004000Y-48145700D01*
X141332300Y-51924300D02*
X141332300Y-50385400D01*
X141605000Y-52197000D02*
X141332300Y-51924300D01*
X154965400Y-48145700D02*
X152704800Y-49517300D01*
X159004000Y-48145700D02*
X154965400Y-48145700D01*
X160896300Y-46139100D02*
X160896300Y-42240200D01*
X160896300Y-42240200D02*
X160794700Y-42138600D01*
D28*
X141332300Y-50385400D02*
X138434500Y-50385400D01*
X138434500Y-50385400D02*
X136720965Y-48793429D01*
X136720965Y-48793429D02*
X134112000Y-48666400D01*
X134112000Y-48666400D02*
X127685800Y-48336200D01*
X127685800Y-48336200D02*
X127352000Y-46195000D01*
X132207000Y-47726600D02*
X134924800Y-47726600D01*
X134924800Y-47726600D02*
X135178800Y-47472600D01*
X135178800Y-47472600D02*
X136017000Y-46634400D01*
D27*
X156273500Y-43637200D02*
X147662900Y-43637200D01*
X147662900Y-43637200D02*
X145427700Y-45872400D01*
X157772100Y-42138600D02*
X156273500Y-43637200D01*
X135178800Y-47472600D02*
X135026400Y-47472600D01*
X158254700Y-42138600D02*
X157772100Y-42138600D01*
X158356300Y-46139100D02*
X158356300Y-42240200D01*
X158356300Y-42240200D02*
X158254700Y-42138600D01*
D28*
X122952000Y-46195000D02*
X122952000Y-44967400D01*
X142132300Y-49117500D02*
X142132300Y-50385400D01*
X140741400Y-47726600D02*
X142132300Y-49117500D01*
X132181600Y-47726600D02*
X132207000Y-47726600D01*
X132207000Y-47726600D02*
X140741400Y-47726600D01*
X129108200Y-44653200D02*
X132181600Y-47726600D01*
D27*
X123266200Y-44653200D02*
X129108200Y-44653200D01*
X122952000Y-44967400D02*
X123266200Y-44653200D01*
X155816300Y-46139100D02*
X155524200Y-46139100D01*
X155524200Y-46139100D02*
X150495000Y-50063400D01*
X150495000Y-50063400D02*
X150495000Y-50215800D01*
X144538700Y-57365900D02*
X144532300Y-57372300D01*
X144532300Y-57372300D02*
X144532300Y-58885400D01*
X144532300Y-58885400D02*
X144532300Y-62608500D01*
X144532300Y-62608500D02*
X144428200Y-62712600D01*
X121852000Y-46195000D02*
X121852000Y-44556100D01*
X142932300Y-48215700D02*
X142932300Y-50385400D01*
X141655800Y-46939200D02*
X142932300Y-48215700D01*
X137985500Y-46939200D02*
X141655800Y-46939200D01*
X132486400Y-41440100D02*
X137985500Y-46939200D01*
X129755900Y-41440100D02*
X132486400Y-41440100D01*
X127165100Y-44030900D02*
X129755900Y-41440100D01*
X122377200Y-44030900D02*
X127165100Y-44030900D01*
X121852000Y-44556100D02*
X122377200Y-44030900D01*
X155714700Y-42138600D02*
X155028900Y-42138600D01*
X155028900Y-42138600D02*
X153504900Y-40614600D01*
X153504900Y-40614600D02*
X149428200Y-40614600D01*
X149428200Y-40614600D02*
X143732300Y-46310500D01*
X143732300Y-46310500D02*
X143732300Y-50385400D01*
X146932300Y-58885400D02*
X146932300Y-58895900D01*
D25*
X146932300Y-58895900D02*
X149250400Y-61214000D01*
X133057900Y-85928200D02*
X133057900Y-86690200D01*
X137223500Y-84302600D02*
X133057900Y-85928200D01*
X134620000Y-71259700D02*
X134620000Y-73012300D01*
X135559800Y-70104000D02*
X134620000Y-71259700D01*
X142468600Y-70599300D02*
X135559800Y-70104000D01*
X149250400Y-63817500D02*
X142468600Y-70599300D01*
X149250400Y-61214000D02*
X149250400Y-63817500D01*
D27*
X146932300Y-58997500D02*
X146932300Y-58885400D01*
X144532300Y-50385400D02*
X144532300Y-53346400D01*
X159169100Y-79768700D02*
X159169100Y-80873600D01*
X157632400Y-78232000D02*
X159169100Y-79768700D01*
X144532300Y-53346400D02*
X143725900Y-54152800D01*
X148382300Y-57435400D02*
X148748400Y-57435400D01*
X148748400Y-57435400D02*
X149567900Y-58254900D01*
X149567900Y-58254900D02*
X150063200Y-61074300D01*
X150063200Y-61074300D02*
X150643600Y-62903100D01*
D29*
G36*
X154473300Y-58585100D02*
X154536861Y-58904641D01*
X154610591Y-59014985D01*
X154717866Y-59175534D01*
X155999973Y-60457641D01*
X155940135Y-60469543D01*
X155730091Y-60609891D01*
X155589743Y-60819935D01*
X155540460Y-61067700D01*
X155540460Y-68942700D01*
X155589743Y-69190465D01*
X155697863Y-69352276D01*
X155600463Y-69417356D01*
X155510185Y-69454658D01*
X155440446Y-69524275D01*
X155440044Y-69524544D01*
X155440042Y-69524547D01*
X155363910Y-69600678D01*
X155218781Y-69745554D01*
X155060880Y-70125823D01*
X155060700Y-70332596D01*
X155060699Y-70332600D01*
X155060700Y-70332604D01*
X155060521Y-70537571D01*
X155217758Y-70918115D01*
X155508654Y-71209519D01*
X155888923Y-71367420D01*
X156095696Y-71367600D01*
X156095700Y-71367601D01*
X156095704Y-71367600D01*
X156300671Y-71367779D01*
X156485523Y-71291400D01*
X160185667Y-71291400D01*
X162270031Y-72219418D01*
X161732965Y-73214043D01*
X158835153Y-71923854D01*
X158604374Y-71821104D01*
X158351842Y-71814492D01*
X158116003Y-71905023D01*
X157932760Y-72078914D01*
X157794242Y-72390030D01*
X157874698Y-72599625D01*
X161252643Y-74103583D01*
X161131609Y-74327733D01*
X157771387Y-72831665D01*
X157561792Y-72912121D01*
X157423274Y-73223237D01*
X157416661Y-73475769D01*
X157507191Y-73711610D01*
X157681082Y-73894853D01*
X157911861Y-73997602D01*
X160651286Y-75217273D01*
X160095858Y-76245905D01*
X158030029Y-75326139D01*
X156985445Y-74281555D01*
X156682109Y-74078873D01*
X156324300Y-74007700D01*
X154314034Y-74007700D01*
X152763500Y-72457166D01*
X152763500Y-70675500D01*
X152692327Y-70317691D01*
X152489645Y-70014355D01*
X151582400Y-69107110D01*
X151582400Y-66715771D01*
X151682220Y-66475377D01*
X151682579Y-66063629D01*
X151525342Y-65683085D01*
X151234446Y-65391681D01*
X150854177Y-65233780D01*
X150442429Y-65233421D01*
X150061885Y-65390658D01*
X149770481Y-65681554D01*
X149612580Y-66061823D01*
X149612221Y-66473571D01*
X149712400Y-66716024D01*
X149712400Y-69494400D01*
X149783573Y-69852209D01*
X149986255Y-70155545D01*
X150893500Y-71062790D01*
X150893500Y-72809100D01*
X150964673Y-73166909D01*
X151167355Y-73470245D01*
X151273906Y-73541440D01*
X153229760Y-75497294D01*
X153300955Y-75603845D01*
X153604291Y-75806527D01*
X153962100Y-75877700D01*
X155937010Y-75877700D01*
X156184864Y-76125554D01*
X156117084Y-76277789D01*
X156061332Y-76524178D01*
X156104113Y-76773148D01*
X156238914Y-76986794D01*
X156445212Y-77132592D01*
X157014729Y-77386157D01*
X156755481Y-77644954D01*
X156597580Y-78025223D01*
X156597221Y-78436971D01*
X156615209Y-78480505D01*
X155981624Y-78198415D01*
X155735234Y-78142663D01*
X155486264Y-78185444D01*
X155272618Y-78320245D01*
X155126820Y-78526544D01*
X154720084Y-79440089D01*
X154664332Y-79686478D01*
X154707113Y-79935448D01*
X154841914Y-80149094D01*
X155048212Y-80294892D01*
X157354970Y-81321927D01*
X145284472Y-103676038D01*
X135585279Y-86820968D01*
X137077489Y-86156593D01*
X137077321Y-86349071D01*
X137234558Y-86729615D01*
X137525454Y-87021019D01*
X137525887Y-87021199D01*
X143565542Y-93060853D01*
X143565544Y-93060856D01*
X143766829Y-93195349D01*
X143901322Y-93285215D01*
X144297400Y-93364000D01*
X144617894Y-93364000D01*
X144627953Y-93379054D01*
X145109722Y-93700961D01*
X145678007Y-93814000D01*
X145736193Y-93814000D01*
X146304478Y-93700961D01*
X146786247Y-93379054D01*
X147108154Y-92897285D01*
X147221193Y-92329000D01*
X147108154Y-91760715D01*
X146786247Y-91278946D01*
X146457074Y-91059000D01*
X146786247Y-90839054D01*
X147108154Y-90357285D01*
X147221193Y-89789000D01*
X147108154Y-89220715D01*
X146786247Y-88738946D01*
X146457074Y-88519000D01*
X146786247Y-88299054D01*
X147108154Y-87817285D01*
X147221193Y-87249000D01*
X147176443Y-87024025D01*
X149942434Y-84258034D01*
X150023410Y-84136845D01*
X150123439Y-83987141D01*
X150187000Y-83667600D01*
X150187000Y-73742792D01*
X150228919Y-73700946D01*
X150386820Y-73320677D01*
X150387179Y-72908929D01*
X150282814Y-72656346D01*
X150343219Y-72596046D01*
X150501120Y-72215777D01*
X150501300Y-72009004D01*
X150501301Y-72009000D01*
X150501300Y-72008996D01*
X150501479Y-71804029D01*
X150344242Y-71423485D01*
X150053346Y-71132081D01*
X149912355Y-71073537D01*
X149824277Y-71014685D01*
X149818984Y-71013632D01*
X149814466Y-71010680D01*
X149716602Y-70992253D01*
X149673077Y-70974180D01*
X149620417Y-70974134D01*
X149428200Y-70935899D01*
X149422905Y-70936952D01*
X149417603Y-70935954D01*
X147164762Y-70959021D01*
X147155257Y-70911235D01*
X147014909Y-70701191D01*
X146804865Y-70560843D01*
X146557100Y-70511560D01*
X144857100Y-70511560D01*
X144609335Y-70560843D01*
X144399291Y-70701191D01*
X144258943Y-70911235D01*
X144246458Y-70974000D01*
X143416190Y-70974000D01*
X149911545Y-64478645D01*
X150003619Y-64340846D01*
X150097368Y-64200540D01*
X151393600Y-64200540D01*
X151641365Y-64151257D01*
X151851409Y-64010909D01*
X151991757Y-63800865D01*
X151993600Y-63791600D01*
X151995443Y-63800865D01*
X152135791Y-64010909D01*
X152345835Y-64151257D01*
X152408600Y-64163742D01*
X152408600Y-65053200D01*
X152479773Y-65411009D01*
X152620029Y-65620918D01*
X152741258Y-65914315D01*
X153032154Y-66205719D01*
X153412423Y-66363620D01*
X153824171Y-66363979D01*
X154204715Y-66206742D01*
X154496119Y-65915846D01*
X154654020Y-65535577D01*
X154654379Y-65123829D01*
X154497142Y-64743285D01*
X154278600Y-64524361D01*
X154278600Y-64163742D01*
X154341365Y-64151257D01*
X154551409Y-64010909D01*
X154691757Y-63800865D01*
X154741040Y-63553100D01*
X154741040Y-62253100D01*
X154691757Y-62005335D01*
X154551409Y-61795291D01*
X154341365Y-61654943D01*
X154259243Y-61638608D01*
X154282257Y-61604165D01*
X154331540Y-61356400D01*
X154331540Y-60106400D01*
X154282257Y-59858635D01*
X154141909Y-59648591D01*
X153931865Y-59508243D01*
X153684100Y-59458960D01*
X152684100Y-59458960D01*
X152436335Y-59508243D01*
X152226291Y-59648591D01*
X152185446Y-59709720D01*
X152043798Y-59568073D01*
X151810409Y-59471400D01*
X151469850Y-59471400D01*
X151311100Y-59630150D01*
X151311100Y-60604400D01*
X151331100Y-60604400D01*
X151331100Y-60858400D01*
X151311100Y-60858400D01*
X151311100Y-60878400D01*
X151057100Y-60878400D01*
X151057100Y-60858400D01*
X151037100Y-60858400D01*
X151037100Y-60604400D01*
X151057100Y-60604400D01*
X151057100Y-59630150D01*
X150898350Y-59471400D01*
X150629397Y-59471400D01*
X150390306Y-58110423D01*
X150357192Y-58025110D01*
X150339339Y-57935360D01*
X150298812Y-57874707D01*
X150272415Y-57806700D01*
X150209175Y-57740555D01*
X150158334Y-57664466D01*
X149829740Y-57335872D01*
X149829740Y-57160400D01*
X149804876Y-57035400D01*
X149829740Y-56910400D01*
X149829740Y-56360400D01*
X149809083Y-56256548D01*
X149817300Y-56236710D01*
X149817300Y-56121150D01*
X149723412Y-56027262D01*
X149680074Y-55962402D01*
X149817300Y-55962402D01*
X149817300Y-55940300D01*
X152387300Y-55940300D01*
X152706841Y-55876739D01*
X152977734Y-55695734D01*
X153489528Y-55183940D01*
X154298400Y-55183940D01*
X154473300Y-55149151D01*
X154473300Y-58585100D01*
X154473300Y-58585100D01*
G37*
X154473300Y-58585100D02*
X154536861Y-58904641D01*
X154610591Y-59014985D01*
X154717866Y-59175534D01*
X155999973Y-60457641D01*
X155940135Y-60469543D01*
X155730091Y-60609891D01*
X155589743Y-60819935D01*
X155540460Y-61067700D01*
X155540460Y-68942700D01*
X155589743Y-69190465D01*
X155697863Y-69352276D01*
X155600463Y-69417356D01*
X155510185Y-69454658D01*
X155440446Y-69524275D01*
X155440044Y-69524544D01*
X155440042Y-69524547D01*
X155363910Y-69600678D01*
X155218781Y-69745554D01*
X155060880Y-70125823D01*
X155060700Y-70332596D01*
X155060699Y-70332600D01*
X155060700Y-70332604D01*
X155060521Y-70537571D01*
X155217758Y-70918115D01*
X155508654Y-71209519D01*
X155888923Y-71367420D01*
X156095696Y-71367600D01*
X156095700Y-71367601D01*
X156095704Y-71367600D01*
X156300671Y-71367779D01*
X156485523Y-71291400D01*
X160185667Y-71291400D01*
X162270031Y-72219418D01*
X161732965Y-73214043D01*
X158835153Y-71923854D01*
X158604374Y-71821104D01*
X158351842Y-71814492D01*
X158116003Y-71905023D01*
X157932760Y-72078914D01*
X157794242Y-72390030D01*
X157874698Y-72599625D01*
X161252643Y-74103583D01*
X161131609Y-74327733D01*
X157771387Y-72831665D01*
X157561792Y-72912121D01*
X157423274Y-73223237D01*
X157416661Y-73475769D01*
X157507191Y-73711610D01*
X157681082Y-73894853D01*
X157911861Y-73997602D01*
X160651286Y-75217273D01*
X160095858Y-76245905D01*
X158030029Y-75326139D01*
X156985445Y-74281555D01*
X156682109Y-74078873D01*
X156324300Y-74007700D01*
X154314034Y-74007700D01*
X152763500Y-72457166D01*
X152763500Y-70675500D01*
X152692327Y-70317691D01*
X152489645Y-70014355D01*
X151582400Y-69107110D01*
X151582400Y-66715771D01*
X151682220Y-66475377D01*
X151682579Y-66063629D01*
X151525342Y-65683085D01*
X151234446Y-65391681D01*
X150854177Y-65233780D01*
X150442429Y-65233421D01*
X150061885Y-65390658D01*
X149770481Y-65681554D01*
X149612580Y-66061823D01*
X149612221Y-66473571D01*
X149712400Y-66716024D01*
X149712400Y-69494400D01*
X149783573Y-69852209D01*
X149986255Y-70155545D01*
X150893500Y-71062790D01*
X150893500Y-72809100D01*
X150964673Y-73166909D01*
X151167355Y-73470245D01*
X151273906Y-73541440D01*
X153229760Y-75497294D01*
X153300955Y-75603845D01*
X153604291Y-75806527D01*
X153962100Y-75877700D01*
X155937010Y-75877700D01*
X156184864Y-76125554D01*
X156117084Y-76277789D01*
X156061332Y-76524178D01*
X156104113Y-76773148D01*
X156238914Y-76986794D01*
X156445212Y-77132592D01*
X157014729Y-77386157D01*
X156755481Y-77644954D01*
X156597580Y-78025223D01*
X156597221Y-78436971D01*
X156615209Y-78480505D01*
X155981624Y-78198415D01*
X155735234Y-78142663D01*
X155486264Y-78185444D01*
X155272618Y-78320245D01*
X155126820Y-78526544D01*
X154720084Y-79440089D01*
X154664332Y-79686478D01*
X154707113Y-79935448D01*
X154841914Y-80149094D01*
X155048212Y-80294892D01*
X157354970Y-81321927D01*
X145284472Y-103676038D01*
X135585279Y-86820968D01*
X137077489Y-86156593D01*
X137077321Y-86349071D01*
X137234558Y-86729615D01*
X137525454Y-87021019D01*
X137525887Y-87021199D01*
X143565542Y-93060853D01*
X143565544Y-93060856D01*
X143766829Y-93195349D01*
X143901322Y-93285215D01*
X144297400Y-93364000D01*
X144617894Y-93364000D01*
X144627953Y-93379054D01*
X145109722Y-93700961D01*
X145678007Y-93814000D01*
X145736193Y-93814000D01*
X146304478Y-93700961D01*
X146786247Y-93379054D01*
X147108154Y-92897285D01*
X147221193Y-92329000D01*
X147108154Y-91760715D01*
X146786247Y-91278946D01*
X146457074Y-91059000D01*
X146786247Y-90839054D01*
X147108154Y-90357285D01*
X147221193Y-89789000D01*
X147108154Y-89220715D01*
X146786247Y-88738946D01*
X146457074Y-88519000D01*
X146786247Y-88299054D01*
X147108154Y-87817285D01*
X147221193Y-87249000D01*
X147176443Y-87024025D01*
X149942434Y-84258034D01*
X150023410Y-84136845D01*
X150123439Y-83987141D01*
X150187000Y-83667600D01*
X150187000Y-73742792D01*
X150228919Y-73700946D01*
X150386820Y-73320677D01*
X150387179Y-72908929D01*
X150282814Y-72656346D01*
X150343219Y-72596046D01*
X150501120Y-72215777D01*
X150501300Y-72009004D01*
X150501301Y-72009000D01*
X150501300Y-72008996D01*
X150501479Y-71804029D01*
X150344242Y-71423485D01*
X150053346Y-71132081D01*
X149912355Y-71073537D01*
X149824277Y-71014685D01*
X149818984Y-71013632D01*
X149814466Y-71010680D01*
X149716602Y-70992253D01*
X149673077Y-70974180D01*
X149620417Y-70974134D01*
X149428200Y-70935899D01*
X149422905Y-70936952D01*
X149417603Y-70935954D01*
X147164762Y-70959021D01*
X147155257Y-70911235D01*
X147014909Y-70701191D01*
X146804865Y-70560843D01*
X146557100Y-70511560D01*
X144857100Y-70511560D01*
X144609335Y-70560843D01*
X144399291Y-70701191D01*
X144258943Y-70911235D01*
X144246458Y-70974000D01*
X143416190Y-70974000D01*
X149911545Y-64478645D01*
X150003619Y-64340846D01*
X150097368Y-64200540D01*
X151393600Y-64200540D01*
X151641365Y-64151257D01*
X151851409Y-64010909D01*
X151991757Y-63800865D01*
X151993600Y-63791600D01*
X151995443Y-63800865D01*
X152135791Y-64010909D01*
X152345835Y-64151257D01*
X152408600Y-64163742D01*
X152408600Y-65053200D01*
X152479773Y-65411009D01*
X152620029Y-65620918D01*
X152741258Y-65914315D01*
X153032154Y-66205719D01*
X153412423Y-66363620D01*
X153824171Y-66363979D01*
X154204715Y-66206742D01*
X154496119Y-65915846D01*
X154654020Y-65535577D01*
X154654379Y-65123829D01*
X154497142Y-64743285D01*
X154278600Y-64524361D01*
X154278600Y-64163742D01*
X154341365Y-64151257D01*
X154551409Y-64010909D01*
X154691757Y-63800865D01*
X154741040Y-63553100D01*
X154741040Y-62253100D01*
X154691757Y-62005335D01*
X154551409Y-61795291D01*
X154341365Y-61654943D01*
X154259243Y-61638608D01*
X154282257Y-61604165D01*
X154331540Y-61356400D01*
X154331540Y-60106400D01*
X154282257Y-59858635D01*
X154141909Y-59648591D01*
X153931865Y-59508243D01*
X153684100Y-59458960D01*
X152684100Y-59458960D01*
X152436335Y-59508243D01*
X152226291Y-59648591D01*
X152185446Y-59709720D01*
X152043798Y-59568073D01*
X151810409Y-59471400D01*
X151469850Y-59471400D01*
X151311100Y-59630150D01*
X151311100Y-60604400D01*
X151331100Y-60604400D01*
X151331100Y-60858400D01*
X151311100Y-60858400D01*
X151311100Y-60878400D01*
X151057100Y-60878400D01*
X151057100Y-60858400D01*
X151037100Y-60858400D01*
X151037100Y-60604400D01*
X151057100Y-60604400D01*
X151057100Y-59630150D01*
X150898350Y-59471400D01*
X150629397Y-59471400D01*
X150390306Y-58110423D01*
X150357192Y-58025110D01*
X150339339Y-57935360D01*
X150298812Y-57874707D01*
X150272415Y-57806700D01*
X150209175Y-57740555D01*
X150158334Y-57664466D01*
X149829740Y-57335872D01*
X149829740Y-57160400D01*
X149804876Y-57035400D01*
X149829740Y-56910400D01*
X149829740Y-56360400D01*
X149809083Y-56256548D01*
X149817300Y-56236710D01*
X149817300Y-56121150D01*
X149723412Y-56027262D01*
X149680074Y-55962402D01*
X149817300Y-55962402D01*
X149817300Y-55940300D01*
X152387300Y-55940300D01*
X152706841Y-55876739D01*
X152977734Y-55695734D01*
X153489528Y-55183940D01*
X154298400Y-55183940D01*
X154473300Y-55149151D01*
X154473300Y-58585100D01*
G36*
X137614823Y-61293915D02*
X137652275Y-61301365D01*
X139724655Y-63373745D01*
X140027991Y-63576427D01*
X140385800Y-63647600D01*
X140404923Y-63647600D01*
X140520391Y-63820409D01*
X140730435Y-63960757D01*
X140978200Y-64010040D01*
X142478200Y-64010040D01*
X142725965Y-63960757D01*
X142936009Y-63820409D01*
X143076357Y-63610365D01*
X143078200Y-63601100D01*
X143080043Y-63610365D01*
X143220391Y-63820409D01*
X143430435Y-63960757D01*
X143678200Y-64010040D01*
X145178200Y-64010040D01*
X145425965Y-63960757D01*
X145636009Y-63820409D01*
X145713453Y-63704507D01*
X146038760Y-64030383D01*
X146786438Y-64340846D01*
X147404225Y-64341385D01*
X142109457Y-69636153D01*
X135626660Y-69171394D01*
X135545458Y-69181579D01*
X135463974Y-69173923D01*
X135366196Y-69204064D01*
X135264677Y-69216798D01*
X135193550Y-69257285D01*
X135115344Y-69281393D01*
X135036548Y-69346654D01*
X134947624Y-69397271D01*
X134897406Y-69461894D01*
X134834377Y-69514096D01*
X133894577Y-70669796D01*
X133831338Y-70789399D01*
X133756173Y-70901891D01*
X133746714Y-70949446D01*
X133724051Y-70992307D01*
X133711395Y-71127005D01*
X133685000Y-71259700D01*
X133685000Y-72565129D01*
X133585180Y-72805523D01*
X133584821Y-73217271D01*
X133742058Y-73597815D01*
X134032954Y-73889219D01*
X134413223Y-74047120D01*
X134824971Y-74047479D01*
X135205515Y-73890242D01*
X135496919Y-73599346D01*
X135654820Y-73219077D01*
X135655179Y-72807329D01*
X135555000Y-72564876D01*
X135555000Y-72435865D01*
X135581623Y-72446920D01*
X135607913Y-72446943D01*
X137102579Y-72983197D01*
X137278069Y-73009383D01*
X137452100Y-73044000D01*
X144246458Y-73044000D01*
X144258943Y-73106765D01*
X144399291Y-73316809D01*
X144609335Y-73457157D01*
X144712808Y-73477739D01*
X144435455Y-73782076D01*
X144265624Y-74192110D01*
X144386945Y-74422000D01*
X145580100Y-74422000D01*
X145580100Y-74402000D01*
X145834100Y-74402000D01*
X145834100Y-74422000D01*
X145854100Y-74422000D01*
X145854100Y-74676000D01*
X145834100Y-74676000D01*
X145834100Y-74696000D01*
X145580100Y-74696000D01*
X145580100Y-74676000D01*
X144386945Y-74676000D01*
X144265624Y-74905890D01*
X144435455Y-75315924D01*
X144825742Y-75744183D01*
X144968653Y-75811298D01*
X144627953Y-76038946D01*
X144484259Y-76254000D01*
X143233568Y-76254000D01*
X142652827Y-75673259D01*
X142652879Y-75614029D01*
X142495642Y-75233485D01*
X142204746Y-74942081D01*
X141824477Y-74784180D01*
X141412729Y-74783821D01*
X141032185Y-74941058D01*
X140740781Y-75231954D01*
X140696363Y-75338925D01*
X140566446Y-75208781D01*
X140186177Y-75050880D01*
X139774429Y-75050521D01*
X139393885Y-75207758D01*
X139102481Y-75498654D01*
X139068223Y-75581155D01*
X139058727Y-75571659D01*
X139058779Y-75512429D01*
X138901542Y-75131885D01*
X138610646Y-74840481D01*
X138230377Y-74682580D01*
X137818629Y-74682221D01*
X137438085Y-74839458D01*
X137146681Y-75130354D01*
X137021602Y-75431579D01*
X136955029Y-75431521D01*
X136574485Y-75588758D01*
X136283081Y-75879654D01*
X136153597Y-76191488D01*
X134119923Y-77772656D01*
X133908636Y-77639344D01*
X133659666Y-77596563D01*
X133413276Y-77652315D01*
X130942289Y-78752469D01*
X130333860Y-77695153D01*
X132791139Y-76601102D01*
X133021918Y-76498353D01*
X133195809Y-76315110D01*
X133286339Y-76079269D01*
X133279726Y-75826737D01*
X133141208Y-75515621D01*
X132931613Y-75435165D01*
X129828414Y-76816799D01*
X129701049Y-76595468D01*
X132828302Y-75203125D01*
X132908758Y-74993530D01*
X132770240Y-74682414D01*
X132740383Y-74654081D01*
X132741019Y-74653446D01*
X132898920Y-74273177D01*
X132899100Y-74066404D01*
X132899101Y-74066400D01*
X132899100Y-74066396D01*
X132899279Y-73861429D01*
X132742042Y-73480885D01*
X132451146Y-73189481D01*
X132443442Y-73186282D01*
X132120477Y-72970485D01*
X131879720Y-72922595D01*
X131911168Y-72739578D01*
X131855416Y-72493189D01*
X131741183Y-72236616D01*
X134483125Y-67967191D01*
X134553872Y-67787218D01*
X134627645Y-67608421D01*
X135871340Y-61310800D01*
X137375900Y-61310800D01*
X137579486Y-61270304D01*
X137614823Y-61293915D01*
X137614823Y-61293915D01*
G37*
X137614823Y-61293915D02*
X137652275Y-61301365D01*
X139724655Y-63373745D01*
X140027991Y-63576427D01*
X140385800Y-63647600D01*
X140404923Y-63647600D01*
X140520391Y-63820409D01*
X140730435Y-63960757D01*
X140978200Y-64010040D01*
X142478200Y-64010040D01*
X142725965Y-63960757D01*
X142936009Y-63820409D01*
X143076357Y-63610365D01*
X143078200Y-63601100D01*
X143080043Y-63610365D01*
X143220391Y-63820409D01*
X143430435Y-63960757D01*
X143678200Y-64010040D01*
X145178200Y-64010040D01*
X145425965Y-63960757D01*
X145636009Y-63820409D01*
X145713453Y-63704507D01*
X146038760Y-64030383D01*
X146786438Y-64340846D01*
X147404225Y-64341385D01*
X142109457Y-69636153D01*
X135626660Y-69171394D01*
X135545458Y-69181579D01*
X135463974Y-69173923D01*
X135366196Y-69204064D01*
X135264677Y-69216798D01*
X135193550Y-69257285D01*
X135115344Y-69281393D01*
X135036548Y-69346654D01*
X134947624Y-69397271D01*
X134897406Y-69461894D01*
X134834377Y-69514096D01*
X133894577Y-70669796D01*
X133831338Y-70789399D01*
X133756173Y-70901891D01*
X133746714Y-70949446D01*
X133724051Y-70992307D01*
X133711395Y-71127005D01*
X133685000Y-71259700D01*
X133685000Y-72565129D01*
X133585180Y-72805523D01*
X133584821Y-73217271D01*
X133742058Y-73597815D01*
X134032954Y-73889219D01*
X134413223Y-74047120D01*
X134824971Y-74047479D01*
X135205515Y-73890242D01*
X135496919Y-73599346D01*
X135654820Y-73219077D01*
X135655179Y-72807329D01*
X135555000Y-72564876D01*
X135555000Y-72435865D01*
X135581623Y-72446920D01*
X135607913Y-72446943D01*
X137102579Y-72983197D01*
X137278069Y-73009383D01*
X137452100Y-73044000D01*
X144246458Y-73044000D01*
X144258943Y-73106765D01*
X144399291Y-73316809D01*
X144609335Y-73457157D01*
X144712808Y-73477739D01*
X144435455Y-73782076D01*
X144265624Y-74192110D01*
X144386945Y-74422000D01*
X145580100Y-74422000D01*
X145580100Y-74402000D01*
X145834100Y-74402000D01*
X145834100Y-74422000D01*
X145854100Y-74422000D01*
X145854100Y-74676000D01*
X145834100Y-74676000D01*
X145834100Y-74696000D01*
X145580100Y-74696000D01*
X145580100Y-74676000D01*
X144386945Y-74676000D01*
X144265624Y-74905890D01*
X144435455Y-75315924D01*
X144825742Y-75744183D01*
X144968653Y-75811298D01*
X144627953Y-76038946D01*
X144484259Y-76254000D01*
X143233568Y-76254000D01*
X142652827Y-75673259D01*
X142652879Y-75614029D01*
X142495642Y-75233485D01*
X142204746Y-74942081D01*
X141824477Y-74784180D01*
X141412729Y-74783821D01*
X141032185Y-74941058D01*
X140740781Y-75231954D01*
X140696363Y-75338925D01*
X140566446Y-75208781D01*
X140186177Y-75050880D01*
X139774429Y-75050521D01*
X139393885Y-75207758D01*
X139102481Y-75498654D01*
X139068223Y-75581155D01*
X139058727Y-75571659D01*
X139058779Y-75512429D01*
X138901542Y-75131885D01*
X138610646Y-74840481D01*
X138230377Y-74682580D01*
X137818629Y-74682221D01*
X137438085Y-74839458D01*
X137146681Y-75130354D01*
X137021602Y-75431579D01*
X136955029Y-75431521D01*
X136574485Y-75588758D01*
X136283081Y-75879654D01*
X136153597Y-76191488D01*
X134119923Y-77772656D01*
X133908636Y-77639344D01*
X133659666Y-77596563D01*
X133413276Y-77652315D01*
X130942289Y-78752469D01*
X130333860Y-77695153D01*
X132791139Y-76601102D01*
X133021918Y-76498353D01*
X133195809Y-76315110D01*
X133286339Y-76079269D01*
X133279726Y-75826737D01*
X133141208Y-75515621D01*
X132931613Y-75435165D01*
X129828414Y-76816799D01*
X129701049Y-76595468D01*
X132828302Y-75203125D01*
X132908758Y-74993530D01*
X132770240Y-74682414D01*
X132740383Y-74654081D01*
X132741019Y-74653446D01*
X132898920Y-74273177D01*
X132899100Y-74066404D01*
X132899101Y-74066400D01*
X132899100Y-74066396D01*
X132899279Y-73861429D01*
X132742042Y-73480885D01*
X132451146Y-73189481D01*
X132443442Y-73186282D01*
X132120477Y-72970485D01*
X131879720Y-72922595D01*
X131911168Y-72739578D01*
X131855416Y-72493189D01*
X131741183Y-72236616D01*
X134483125Y-67967191D01*
X134553872Y-67787218D01*
X134627645Y-67608421D01*
X135871340Y-61310800D01*
X137375900Y-61310800D01*
X137579486Y-61270304D01*
X137614823Y-61293915D01*
G36*
X163453005Y-70028594D02*
X162948956Y-69524544D01*
X162613177Y-69300185D01*
X162217100Y-69221399D01*
X162217095Y-69221400D01*
X161178547Y-69221400D01*
X160261524Y-68813115D01*
X160015134Y-68757363D01*
X159766164Y-68800144D01*
X159552518Y-68934945D01*
X159406720Y-69141244D01*
X159371032Y-69221400D01*
X158765387Y-69221400D01*
X158786057Y-69190465D01*
X158835340Y-68942700D01*
X158835340Y-61299700D01*
X160865500Y-61299700D01*
X161185041Y-61236139D01*
X161455934Y-61055134D01*
X161701028Y-60810040D01*
X162542600Y-60810040D01*
X162790365Y-60760757D01*
X163000409Y-60620409D01*
X163041254Y-60559280D01*
X163182902Y-60700927D01*
X163416291Y-60797600D01*
X164006850Y-60797600D01*
X164165600Y-60638850D01*
X164165600Y-59664600D01*
X164419600Y-59664600D01*
X164419600Y-60638850D01*
X164578350Y-60797600D01*
X165168909Y-60797600D01*
X165402298Y-60700927D01*
X165580927Y-60522299D01*
X165677600Y-60288910D01*
X165677600Y-59823350D01*
X165518850Y-59664600D01*
X164419600Y-59664600D01*
X164165600Y-59664600D01*
X164145600Y-59664600D01*
X164145600Y-59410600D01*
X164165600Y-59410600D01*
X164165600Y-58436350D01*
X164419600Y-58436350D01*
X164419600Y-59410600D01*
X165518850Y-59410600D01*
X165677600Y-59251850D01*
X165677600Y-58786290D01*
X165580927Y-58552901D01*
X165402298Y-58374273D01*
X165168909Y-58277600D01*
X164578350Y-58277600D01*
X164419600Y-58436350D01*
X164165600Y-58436350D01*
X164006850Y-58277600D01*
X163416291Y-58277600D01*
X163182902Y-58374273D01*
X163041254Y-58515920D01*
X163000409Y-58454791D01*
X162790365Y-58314443D01*
X162542600Y-58265160D01*
X161042600Y-58265160D01*
X160794835Y-58314443D01*
X160584791Y-58454791D01*
X160444443Y-58664835D01*
X160395160Y-58912600D01*
X160395160Y-59629700D01*
X157533768Y-59629700D01*
X156143300Y-58239232D01*
X156143300Y-57706269D01*
X156187900Y-57715140D01*
X158187900Y-57715140D01*
X158435665Y-57665857D01*
X158645709Y-57525509D01*
X158786057Y-57315465D01*
X158835340Y-57067700D01*
X158835340Y-53965200D01*
X160344360Y-53965200D01*
X160344360Y-54066600D01*
X160393643Y-54314365D01*
X160533991Y-54524409D01*
X160744035Y-54664757D01*
X160991800Y-54714040D01*
X162491800Y-54714040D01*
X162739565Y-54664757D01*
X162949609Y-54524409D01*
X162990454Y-54463280D01*
X163132102Y-54604927D01*
X163365491Y-54701600D01*
X163956050Y-54701600D01*
X164114800Y-54542850D01*
X164114800Y-53568600D01*
X164368800Y-53568600D01*
X164368800Y-54542850D01*
X164527550Y-54701600D01*
X165118109Y-54701600D01*
X165351498Y-54604927D01*
X165530127Y-54426299D01*
X165626800Y-54192910D01*
X165626800Y-53727350D01*
X165468050Y-53568600D01*
X164368800Y-53568600D01*
X164114800Y-53568600D01*
X164094800Y-53568600D01*
X164094800Y-53314600D01*
X164114800Y-53314600D01*
X164114800Y-52340350D01*
X164368800Y-52340350D01*
X164368800Y-53314600D01*
X165468050Y-53314600D01*
X165626800Y-53155850D01*
X165626800Y-52690290D01*
X165530127Y-52456901D01*
X165351498Y-52278273D01*
X165118109Y-52181600D01*
X164527550Y-52181600D01*
X164368800Y-52340350D01*
X164114800Y-52340350D01*
X163956050Y-52181600D01*
X163365491Y-52181600D01*
X163132102Y-52278273D01*
X162990454Y-52419920D01*
X162949609Y-52358791D01*
X162739565Y-52218443D01*
X162491800Y-52169160D01*
X160991800Y-52169160D01*
X160744035Y-52218443D01*
X160629161Y-52295200D01*
X158835340Y-52295200D01*
X158835340Y-49192700D01*
X158793171Y-48980700D01*
X159004000Y-48980700D01*
X159323541Y-48917139D01*
X159594434Y-48736134D01*
X160713697Y-47616871D01*
X160896300Y-47653193D01*
X161464585Y-47540154D01*
X161946354Y-47218247D01*
X162166300Y-46889074D01*
X162386246Y-47218247D01*
X162868015Y-47540154D01*
X163436300Y-47653193D01*
X164004585Y-47540154D01*
X164486354Y-47218247D01*
X164515703Y-47174323D01*
X164587973Y-47348798D01*
X164766601Y-47527427D01*
X164835505Y-47555968D01*
X164756481Y-47634854D01*
X164598580Y-48015123D01*
X164598221Y-48426871D01*
X164755458Y-48807415D01*
X165046354Y-49098819D01*
X165426623Y-49256720D01*
X165838371Y-49257079D01*
X166080824Y-49156900D01*
X167138410Y-49156900D01*
X167869600Y-49888090D01*
X167869600Y-50034658D01*
X167806835Y-50047143D01*
X167596791Y-50187491D01*
X167456443Y-50397535D01*
X167407160Y-50645300D01*
X167407160Y-51945300D01*
X167456443Y-52193065D01*
X167596791Y-52403109D01*
X167806835Y-52543457D01*
X168054600Y-52592740D01*
X169554600Y-52592740D01*
X169802365Y-52543457D01*
X170012409Y-52403109D01*
X170152757Y-52193065D01*
X170154600Y-52183800D01*
X170156443Y-52193065D01*
X170296791Y-52403109D01*
X170506835Y-52543457D01*
X170754600Y-52592740D01*
X172254600Y-52592740D01*
X172502365Y-52543457D01*
X172712409Y-52403109D01*
X172852757Y-52193065D01*
X172902040Y-51945300D01*
X172902040Y-50645300D01*
X172852757Y-50397535D01*
X172712409Y-50187491D01*
X172502365Y-50047143D01*
X172439600Y-50034658D01*
X172439600Y-47703240D01*
X172762600Y-47703240D01*
X173010365Y-47653957D01*
X173220409Y-47513609D01*
X173360757Y-47303565D01*
X173410040Y-47055800D01*
X173410040Y-45755800D01*
X173360757Y-45508035D01*
X173220409Y-45297991D01*
X173010365Y-45157643D01*
X172762600Y-45108360D01*
X171795909Y-45108360D01*
X171818527Y-45074509D01*
X171889700Y-44716700D01*
X171889700Y-43619133D01*
X172052465Y-43586757D01*
X172262509Y-43446409D01*
X172402857Y-43236365D01*
X172452140Y-42988600D01*
X172452140Y-41288600D01*
X172434804Y-41201447D01*
X179046687Y-41149678D01*
X163453005Y-70028594D01*
X163453005Y-70028594D01*
G37*
X163453005Y-70028594D02*
X162948956Y-69524544D01*
X162613177Y-69300185D01*
X162217100Y-69221399D01*
X162217095Y-69221400D01*
X161178547Y-69221400D01*
X160261524Y-68813115D01*
X160015134Y-68757363D01*
X159766164Y-68800144D01*
X159552518Y-68934945D01*
X159406720Y-69141244D01*
X159371032Y-69221400D01*
X158765387Y-69221400D01*
X158786057Y-69190465D01*
X158835340Y-68942700D01*
X158835340Y-61299700D01*
X160865500Y-61299700D01*
X161185041Y-61236139D01*
X161455934Y-61055134D01*
X161701028Y-60810040D01*
X162542600Y-60810040D01*
X162790365Y-60760757D01*
X163000409Y-60620409D01*
X163041254Y-60559280D01*
X163182902Y-60700927D01*
X163416291Y-60797600D01*
X164006850Y-60797600D01*
X164165600Y-60638850D01*
X164165600Y-59664600D01*
X164419600Y-59664600D01*
X164419600Y-60638850D01*
X164578350Y-60797600D01*
X165168909Y-60797600D01*
X165402298Y-60700927D01*
X165580927Y-60522299D01*
X165677600Y-60288910D01*
X165677600Y-59823350D01*
X165518850Y-59664600D01*
X164419600Y-59664600D01*
X164165600Y-59664600D01*
X164145600Y-59664600D01*
X164145600Y-59410600D01*
X164165600Y-59410600D01*
X164165600Y-58436350D01*
X164419600Y-58436350D01*
X164419600Y-59410600D01*
X165518850Y-59410600D01*
X165677600Y-59251850D01*
X165677600Y-58786290D01*
X165580927Y-58552901D01*
X165402298Y-58374273D01*
X165168909Y-58277600D01*
X164578350Y-58277600D01*
X164419600Y-58436350D01*
X164165600Y-58436350D01*
X164006850Y-58277600D01*
X163416291Y-58277600D01*
X163182902Y-58374273D01*
X163041254Y-58515920D01*
X163000409Y-58454791D01*
X162790365Y-58314443D01*
X162542600Y-58265160D01*
X161042600Y-58265160D01*
X160794835Y-58314443D01*
X160584791Y-58454791D01*
X160444443Y-58664835D01*
X160395160Y-58912600D01*
X160395160Y-59629700D01*
X157533768Y-59629700D01*
X156143300Y-58239232D01*
X156143300Y-57706269D01*
X156187900Y-57715140D01*
X158187900Y-57715140D01*
X158435665Y-57665857D01*
X158645709Y-57525509D01*
X158786057Y-57315465D01*
X158835340Y-57067700D01*
X158835340Y-53965200D01*
X160344360Y-53965200D01*
X160344360Y-54066600D01*
X160393643Y-54314365D01*
X160533991Y-54524409D01*
X160744035Y-54664757D01*
X160991800Y-54714040D01*
X162491800Y-54714040D01*
X162739565Y-54664757D01*
X162949609Y-54524409D01*
X162990454Y-54463280D01*
X163132102Y-54604927D01*
X163365491Y-54701600D01*
X163956050Y-54701600D01*
X164114800Y-54542850D01*
X164114800Y-53568600D01*
X164368800Y-53568600D01*
X164368800Y-54542850D01*
X164527550Y-54701600D01*
X165118109Y-54701600D01*
X165351498Y-54604927D01*
X165530127Y-54426299D01*
X165626800Y-54192910D01*
X165626800Y-53727350D01*
X165468050Y-53568600D01*
X164368800Y-53568600D01*
X164114800Y-53568600D01*
X164094800Y-53568600D01*
X164094800Y-53314600D01*
X164114800Y-53314600D01*
X164114800Y-52340350D01*
X164368800Y-52340350D01*
X164368800Y-53314600D01*
X165468050Y-53314600D01*
X165626800Y-53155850D01*
X165626800Y-52690290D01*
X165530127Y-52456901D01*
X165351498Y-52278273D01*
X165118109Y-52181600D01*
X164527550Y-52181600D01*
X164368800Y-52340350D01*
X164114800Y-52340350D01*
X163956050Y-52181600D01*
X163365491Y-52181600D01*
X163132102Y-52278273D01*
X162990454Y-52419920D01*
X162949609Y-52358791D01*
X162739565Y-52218443D01*
X162491800Y-52169160D01*
X160991800Y-52169160D01*
X160744035Y-52218443D01*
X160629161Y-52295200D01*
X158835340Y-52295200D01*
X158835340Y-49192700D01*
X158793171Y-48980700D01*
X159004000Y-48980700D01*
X159323541Y-48917139D01*
X159594434Y-48736134D01*
X160713697Y-47616871D01*
X160896300Y-47653193D01*
X161464585Y-47540154D01*
X161946354Y-47218247D01*
X162166300Y-46889074D01*
X162386246Y-47218247D01*
X162868015Y-47540154D01*
X163436300Y-47653193D01*
X164004585Y-47540154D01*
X164486354Y-47218247D01*
X164515703Y-47174323D01*
X164587973Y-47348798D01*
X164766601Y-47527427D01*
X164835505Y-47555968D01*
X164756481Y-47634854D01*
X164598580Y-48015123D01*
X164598221Y-48426871D01*
X164755458Y-48807415D01*
X165046354Y-49098819D01*
X165426623Y-49256720D01*
X165838371Y-49257079D01*
X166080824Y-49156900D01*
X167138410Y-49156900D01*
X167869600Y-49888090D01*
X167869600Y-50034658D01*
X167806835Y-50047143D01*
X167596791Y-50187491D01*
X167456443Y-50397535D01*
X167407160Y-50645300D01*
X167407160Y-51945300D01*
X167456443Y-52193065D01*
X167596791Y-52403109D01*
X167806835Y-52543457D01*
X168054600Y-52592740D01*
X169554600Y-52592740D01*
X169802365Y-52543457D01*
X170012409Y-52403109D01*
X170152757Y-52193065D01*
X170154600Y-52183800D01*
X170156443Y-52193065D01*
X170296791Y-52403109D01*
X170506835Y-52543457D01*
X170754600Y-52592740D01*
X172254600Y-52592740D01*
X172502365Y-52543457D01*
X172712409Y-52403109D01*
X172852757Y-52193065D01*
X172902040Y-51945300D01*
X172902040Y-50645300D01*
X172852757Y-50397535D01*
X172712409Y-50187491D01*
X172502365Y-50047143D01*
X172439600Y-50034658D01*
X172439600Y-47703240D01*
X172762600Y-47703240D01*
X173010365Y-47653957D01*
X173220409Y-47513609D01*
X173360757Y-47303565D01*
X173410040Y-47055800D01*
X173410040Y-45755800D01*
X173360757Y-45508035D01*
X173220409Y-45297991D01*
X173010365Y-45157643D01*
X172762600Y-45108360D01*
X171795909Y-45108360D01*
X171818527Y-45074509D01*
X171889700Y-44716700D01*
X171889700Y-43619133D01*
X172052465Y-43586757D01*
X172262509Y-43446409D01*
X172402857Y-43236365D01*
X172452140Y-42988600D01*
X172452140Y-41288600D01*
X172434804Y-41201447D01*
X179046687Y-41149678D01*
X163453005Y-70028594D01*
G36*
X126304560Y-46945000D02*
X126353843Y-47192765D01*
X126379000Y-47230415D01*
X126379000Y-47421250D01*
X126537750Y-47580000D01*
X126646921Y-47580000D01*
X126786660Y-48476371D01*
X126815983Y-48556454D01*
X126828307Y-48640841D01*
X126876436Y-48721550D01*
X126908745Y-48809787D01*
X126966482Y-48872552D01*
X127010161Y-48945799D01*
X127085508Y-49001944D01*
X127149128Y-49071104D01*
X127226492Y-49106998D01*
X127294874Y-49157952D01*
X127385972Y-49180989D01*
X127471215Y-49220538D01*
X127556425Y-49224093D01*
X127639103Y-49245001D01*
X134065303Y-49575201D01*
X134066537Y-49575021D01*
X134067745Y-49575323D01*
X136344933Y-49686198D01*
X136353921Y-49694548D01*
X136295085Y-49718858D01*
X136003681Y-50009754D01*
X135845780Y-50390023D01*
X135845421Y-50801771D01*
X136002658Y-51182315D01*
X136214873Y-51394900D01*
X136208846Y-51403920D01*
X136067198Y-51262273D01*
X135833809Y-51165600D01*
X135243250Y-51165600D01*
X135084500Y-51324350D01*
X135084500Y-52298600D01*
X135104500Y-52298600D01*
X135104500Y-52552600D01*
X135084500Y-52552600D01*
X135084500Y-54356000D01*
X135104500Y-54356000D01*
X135104500Y-54610000D01*
X135084500Y-54610000D01*
X135084500Y-55584250D01*
X135243250Y-55743000D01*
X135285700Y-55743000D01*
X135285700Y-58441374D01*
X135248260Y-58629600D01*
X135248260Y-59379694D01*
X135201526Y-59360411D01*
X135195331Y-59360419D01*
X133102300Y-57267388D01*
X133102300Y-56540405D01*
X133102301Y-56540400D01*
X133023515Y-56144323D01*
X133002342Y-56112635D01*
X132799156Y-55808544D01*
X132799153Y-55808542D01*
X132114961Y-55124350D01*
X132470561Y-54768750D01*
X133572500Y-54768750D01*
X133572500Y-55234310D01*
X133669173Y-55467699D01*
X133847802Y-55646327D01*
X134081191Y-55743000D01*
X134671750Y-55743000D01*
X134830500Y-55584250D01*
X134830500Y-54610000D01*
X133731250Y-54610000D01*
X133572500Y-54768750D01*
X132470561Y-54768750D01*
X132595317Y-54643994D01*
X132741019Y-54498546D01*
X132898920Y-54118277D01*
X132899100Y-53911504D01*
X132899101Y-53911500D01*
X132899100Y-53911496D01*
X132899279Y-53706529D01*
X132742042Y-53325985D01*
X132451146Y-53034581D01*
X132192998Y-52927389D01*
X132199440Y-52895000D01*
X132199440Y-52711350D01*
X133572500Y-52711350D01*
X133572500Y-53176910D01*
X133669173Y-53410299D01*
X133713174Y-53454300D01*
X133669173Y-53498301D01*
X133572500Y-53731690D01*
X133572500Y-54197250D01*
X133731250Y-54356000D01*
X134830500Y-54356000D01*
X134830500Y-52552600D01*
X133731250Y-52552600D01*
X133572500Y-52711350D01*
X132199440Y-52711350D01*
X132199440Y-51674290D01*
X133572500Y-51674290D01*
X133572500Y-52139850D01*
X133731250Y-52298600D01*
X134830500Y-52298600D01*
X134830500Y-51324350D01*
X134671750Y-51165600D01*
X134081191Y-51165600D01*
X133847802Y-51262273D01*
X133669173Y-51440901D01*
X133572500Y-51674290D01*
X132199440Y-51674290D01*
X132199440Y-50895000D01*
X132150157Y-50647235D01*
X132009809Y-50437191D01*
X131799765Y-50296843D01*
X131552000Y-50247560D01*
X130102000Y-50247560D01*
X129854235Y-50296843D01*
X129644191Y-50437191D01*
X129503843Y-50647235D01*
X129454560Y-50895000D01*
X129454560Y-52605370D01*
X125682393Y-48833203D01*
X125744015Y-48807742D01*
X126035419Y-48516846D01*
X126193320Y-48136577D01*
X126193679Y-47724829D01*
X126084838Y-47461412D01*
X126125000Y-47421250D01*
X126125000Y-47230415D01*
X126150157Y-47192765D01*
X126199440Y-46945000D01*
X126199440Y-46048000D01*
X126304560Y-46048000D01*
X126304560Y-46945000D01*
X126304560Y-46945000D01*
G37*
X126304560Y-46945000D02*
X126353843Y-47192765D01*
X126379000Y-47230415D01*
X126379000Y-47421250D01*
X126537750Y-47580000D01*
X126646921Y-47580000D01*
X126786660Y-48476371D01*
X126815983Y-48556454D01*
X126828307Y-48640841D01*
X126876436Y-48721550D01*
X126908745Y-48809787D01*
X126966482Y-48872552D01*
X127010161Y-48945799D01*
X127085508Y-49001944D01*
X127149128Y-49071104D01*
X127226492Y-49106998D01*
X127294874Y-49157952D01*
X127385972Y-49180989D01*
X127471215Y-49220538D01*
X127556425Y-49224093D01*
X127639103Y-49245001D01*
X134065303Y-49575201D01*
X134066537Y-49575021D01*
X134067745Y-49575323D01*
X136344933Y-49686198D01*
X136353921Y-49694548D01*
X136295085Y-49718858D01*
X136003681Y-50009754D01*
X135845780Y-50390023D01*
X135845421Y-50801771D01*
X136002658Y-51182315D01*
X136214873Y-51394900D01*
X136208846Y-51403920D01*
X136067198Y-51262273D01*
X135833809Y-51165600D01*
X135243250Y-51165600D01*
X135084500Y-51324350D01*
X135084500Y-52298600D01*
X135104500Y-52298600D01*
X135104500Y-52552600D01*
X135084500Y-52552600D01*
X135084500Y-54356000D01*
X135104500Y-54356000D01*
X135104500Y-54610000D01*
X135084500Y-54610000D01*
X135084500Y-55584250D01*
X135243250Y-55743000D01*
X135285700Y-55743000D01*
X135285700Y-58441374D01*
X135248260Y-58629600D01*
X135248260Y-59379694D01*
X135201526Y-59360411D01*
X135195331Y-59360419D01*
X133102300Y-57267388D01*
X133102300Y-56540405D01*
X133102301Y-56540400D01*
X133023515Y-56144323D01*
X133002342Y-56112635D01*
X132799156Y-55808544D01*
X132799153Y-55808542D01*
X132114961Y-55124350D01*
X132470561Y-54768750D01*
X133572500Y-54768750D01*
X133572500Y-55234310D01*
X133669173Y-55467699D01*
X133847802Y-55646327D01*
X134081191Y-55743000D01*
X134671750Y-55743000D01*
X134830500Y-55584250D01*
X134830500Y-54610000D01*
X133731250Y-54610000D01*
X133572500Y-54768750D01*
X132470561Y-54768750D01*
X132595317Y-54643994D01*
X132741019Y-54498546D01*
X132898920Y-54118277D01*
X132899100Y-53911504D01*
X132899101Y-53911500D01*
X132899100Y-53911496D01*
X132899279Y-53706529D01*
X132742042Y-53325985D01*
X132451146Y-53034581D01*
X132192998Y-52927389D01*
X132199440Y-52895000D01*
X132199440Y-52711350D01*
X133572500Y-52711350D01*
X133572500Y-53176910D01*
X133669173Y-53410299D01*
X133713174Y-53454300D01*
X133669173Y-53498301D01*
X133572500Y-53731690D01*
X133572500Y-54197250D01*
X133731250Y-54356000D01*
X134830500Y-54356000D01*
X134830500Y-52552600D01*
X133731250Y-52552600D01*
X133572500Y-52711350D01*
X132199440Y-52711350D01*
X132199440Y-51674290D01*
X133572500Y-51674290D01*
X133572500Y-52139850D01*
X133731250Y-52298600D01*
X134830500Y-52298600D01*
X134830500Y-51324350D01*
X134671750Y-51165600D01*
X134081191Y-51165600D01*
X133847802Y-51262273D01*
X133669173Y-51440901D01*
X133572500Y-51674290D01*
X132199440Y-51674290D01*
X132199440Y-50895000D01*
X132150157Y-50647235D01*
X132009809Y-50437191D01*
X131799765Y-50296843D01*
X131552000Y-50247560D01*
X130102000Y-50247560D01*
X129854235Y-50296843D01*
X129644191Y-50437191D01*
X129503843Y-50647235D01*
X129454560Y-50895000D01*
X129454560Y-52605370D01*
X125682393Y-48833203D01*
X125744015Y-48807742D01*
X126035419Y-48516846D01*
X126193320Y-48136577D01*
X126193679Y-47724829D01*
X126084838Y-47461412D01*
X126125000Y-47421250D01*
X126125000Y-47230415D01*
X126150157Y-47192765D01*
X126199440Y-46945000D01*
X126199440Y-46048000D01*
X126304560Y-46048000D01*
X126304560Y-46945000D01*
G36*
X146657300Y-51832840D02*
X146934860Y-51832840D01*
X146934860Y-52110400D01*
X146959724Y-52235400D01*
X146934860Y-52360400D01*
X146934860Y-52910400D01*
X146959724Y-53035400D01*
X146934860Y-53160400D01*
X146934860Y-53710400D01*
X146955517Y-53814252D01*
X146947300Y-53834090D01*
X146947300Y-53949650D01*
X147041188Y-54043538D01*
X147124491Y-54168209D01*
X147225049Y-54235400D01*
X147124491Y-54302591D01*
X147041188Y-54427262D01*
X146947300Y-54521150D01*
X146947300Y-54636710D01*
X146955517Y-54656548D01*
X146934860Y-54760400D01*
X146934860Y-55310400D01*
X146955517Y-55414252D01*
X146947300Y-55434090D01*
X146947300Y-55549650D01*
X147041188Y-55643538D01*
X147124491Y-55768209D01*
X147225049Y-55835400D01*
X147124491Y-55902591D01*
X147041188Y-56027262D01*
X146947300Y-56121150D01*
X146947300Y-56236710D01*
X146955517Y-56256548D01*
X146934860Y-56360400D01*
X146934860Y-56910400D01*
X146959724Y-57035400D01*
X146934860Y-57160400D01*
X146934860Y-57437960D01*
X146657300Y-57437960D01*
X146532300Y-57462824D01*
X146407300Y-57437960D01*
X145857300Y-57437960D01*
X145732300Y-57462824D01*
X145607300Y-57437960D01*
X145573637Y-57437960D01*
X145573879Y-57160929D01*
X145416642Y-56780385D01*
X145125746Y-56488981D01*
X144745477Y-56331080D01*
X144333729Y-56330721D01*
X143953185Y-56487958D01*
X143694203Y-56746488D01*
X143694153Y-56746413D01*
X143694279Y-56602129D01*
X143537042Y-56221585D01*
X143246146Y-55930181D01*
X142865877Y-55772280D01*
X142454129Y-55771921D01*
X142073585Y-55929158D01*
X141782181Y-56220054D01*
X141739475Y-56322901D01*
X141545077Y-56242180D01*
X141306183Y-56241972D01*
X141304876Y-56235400D01*
X141329740Y-56110400D01*
X141329740Y-55560400D01*
X141309083Y-55456548D01*
X141317300Y-55436710D01*
X141317300Y-55321150D01*
X141223412Y-55227262D01*
X141140109Y-55102591D01*
X141039551Y-55035400D01*
X141140109Y-54968209D01*
X141223412Y-54843538D01*
X141317300Y-54749650D01*
X141317300Y-54634090D01*
X141309083Y-54614252D01*
X141329740Y-54510400D01*
X141329740Y-53960400D01*
X141304876Y-53835400D01*
X141329740Y-53710400D01*
X141329740Y-53203383D01*
X141398223Y-53231820D01*
X141809971Y-53232179D01*
X142190515Y-53074942D01*
X142481919Y-52784046D01*
X142639820Y-52403777D01*
X142640179Y-51992029D01*
X142566981Y-51814875D01*
X142657300Y-51832840D01*
X143207300Y-51832840D01*
X143332300Y-51807976D01*
X143457300Y-51832840D01*
X143697300Y-51832840D01*
X143697300Y-53000532D01*
X143580159Y-53117673D01*
X143520929Y-53117621D01*
X143140385Y-53274858D01*
X142848981Y-53565754D01*
X142691080Y-53946023D01*
X142690721Y-54357771D01*
X142847958Y-54738315D01*
X143138854Y-55029719D01*
X143519123Y-55187620D01*
X143930871Y-55187979D01*
X144311415Y-55030742D01*
X144602819Y-54739846D01*
X144760720Y-54359577D01*
X144760773Y-54298795D01*
X145122734Y-53936834D01*
X145139662Y-53911500D01*
X145303739Y-53665941D01*
X145367300Y-53346400D01*
X145367300Y-51832840D01*
X145607300Y-51832840D01*
X145732300Y-51807976D01*
X145857300Y-51832840D01*
X146407300Y-51832840D01*
X146532300Y-51807976D01*
X146657300Y-51832840D01*
X146657300Y-51832840D01*
G37*
X146657300Y-51832840D02*
X146934860Y-51832840D01*
X146934860Y-52110400D01*
X146959724Y-52235400D01*
X146934860Y-52360400D01*
X146934860Y-52910400D01*
X146959724Y-53035400D01*
X146934860Y-53160400D01*
X146934860Y-53710400D01*
X146955517Y-53814252D01*
X146947300Y-53834090D01*
X146947300Y-53949650D01*
X147041188Y-54043538D01*
X147124491Y-54168209D01*
X147225049Y-54235400D01*
X147124491Y-54302591D01*
X147041188Y-54427262D01*
X146947300Y-54521150D01*
X146947300Y-54636710D01*
X146955517Y-54656548D01*
X146934860Y-54760400D01*
X146934860Y-55310400D01*
X146955517Y-55414252D01*
X146947300Y-55434090D01*
X146947300Y-55549650D01*
X147041188Y-55643538D01*
X147124491Y-55768209D01*
X147225049Y-55835400D01*
X147124491Y-55902591D01*
X147041188Y-56027262D01*
X146947300Y-56121150D01*
X146947300Y-56236710D01*
X146955517Y-56256548D01*
X146934860Y-56360400D01*
X146934860Y-56910400D01*
X146959724Y-57035400D01*
X146934860Y-57160400D01*
X146934860Y-57437960D01*
X146657300Y-57437960D01*
X146532300Y-57462824D01*
X146407300Y-57437960D01*
X145857300Y-57437960D01*
X145732300Y-57462824D01*
X145607300Y-57437960D01*
X145573637Y-57437960D01*
X145573879Y-57160929D01*
X145416642Y-56780385D01*
X145125746Y-56488981D01*
X144745477Y-56331080D01*
X144333729Y-56330721D01*
X143953185Y-56487958D01*
X143694203Y-56746488D01*
X143694153Y-56746413D01*
X143694279Y-56602129D01*
X143537042Y-56221585D01*
X143246146Y-55930181D01*
X142865877Y-55772280D01*
X142454129Y-55771921D01*
X142073585Y-55929158D01*
X141782181Y-56220054D01*
X141739475Y-56322901D01*
X141545077Y-56242180D01*
X141306183Y-56241972D01*
X141304876Y-56235400D01*
X141329740Y-56110400D01*
X141329740Y-55560400D01*
X141309083Y-55456548D01*
X141317300Y-55436710D01*
X141317300Y-55321150D01*
X141223412Y-55227262D01*
X141140109Y-55102591D01*
X141039551Y-55035400D01*
X141140109Y-54968209D01*
X141223412Y-54843538D01*
X141317300Y-54749650D01*
X141317300Y-54634090D01*
X141309083Y-54614252D01*
X141329740Y-54510400D01*
X141329740Y-53960400D01*
X141304876Y-53835400D01*
X141329740Y-53710400D01*
X141329740Y-53203383D01*
X141398223Y-53231820D01*
X141809971Y-53232179D01*
X142190515Y-53074942D01*
X142481919Y-52784046D01*
X142639820Y-52403777D01*
X142640179Y-51992029D01*
X142566981Y-51814875D01*
X142657300Y-51832840D01*
X143207300Y-51832840D01*
X143332300Y-51807976D01*
X143457300Y-51832840D01*
X143697300Y-51832840D01*
X143697300Y-53000532D01*
X143580159Y-53117673D01*
X143520929Y-53117621D01*
X143140385Y-53274858D01*
X142848981Y-53565754D01*
X142691080Y-53946023D01*
X142690721Y-54357771D01*
X142847958Y-54738315D01*
X143138854Y-55029719D01*
X143519123Y-55187620D01*
X143930871Y-55187979D01*
X144311415Y-55030742D01*
X144602819Y-54739846D01*
X144760720Y-54359577D01*
X144760773Y-54298795D01*
X145122734Y-53936834D01*
X145139662Y-53911500D01*
X145303739Y-53665941D01*
X145367300Y-53346400D01*
X145367300Y-51832840D01*
X145607300Y-51832840D01*
X145732300Y-51807976D01*
X145857300Y-51832840D01*
X146407300Y-51832840D01*
X146532300Y-51807976D01*
X146657300Y-51832840D01*
G36*
X151175400Y-53784500D02*
X151195400Y-53784500D01*
X151195400Y-54038500D01*
X151175400Y-54038500D01*
X151175400Y-54058500D01*
X150921400Y-54058500D01*
X150921400Y-54038500D01*
X150901400Y-54038500D01*
X150901400Y-53784500D01*
X150921400Y-53784500D01*
X150921400Y-53764500D01*
X151175400Y-53764500D01*
X151175400Y-53784500D01*
X151175400Y-53784500D01*
G37*
X151175400Y-53784500D02*
X151195400Y-53784500D01*
X151195400Y-54038500D01*
X151175400Y-54038500D01*
X151175400Y-54058500D01*
X150921400Y-54058500D01*
X150921400Y-54038500D01*
X150901400Y-54038500D01*
X150901400Y-53784500D01*
X150921400Y-53784500D01*
X150921400Y-53764500D01*
X151175400Y-53764500D01*
X151175400Y-53784500D01*
G36*
X168541700Y-42011600D02*
X168561700Y-42011600D01*
X168561700Y-42265600D01*
X168541700Y-42265600D01*
X168541700Y-43458755D01*
X168771590Y-43580076D01*
X169181624Y-43410245D01*
X169485961Y-43132892D01*
X169506543Y-43236365D01*
X169646891Y-43446409D01*
X169856935Y-43586757D01*
X170019700Y-43619133D01*
X170019700Y-44329410D01*
X169963355Y-44385755D01*
X169760673Y-44689091D01*
X169689500Y-45046900D01*
X169689500Y-45120800D01*
X169598350Y-45120800D01*
X169439600Y-45279550D01*
X169439600Y-46278800D01*
X169459600Y-46278800D01*
X169459600Y-46532800D01*
X169439600Y-46532800D01*
X169439600Y-47532050D01*
X169493580Y-47586030D01*
X168852850Y-48226760D01*
X168232461Y-47606371D01*
X168436291Y-47690800D01*
X169026850Y-47690800D01*
X169185600Y-47532050D01*
X169185600Y-46532800D01*
X168086350Y-46532800D01*
X167927600Y-46691550D01*
X167927600Y-47182110D01*
X168024273Y-47415499D01*
X168134662Y-47525888D01*
X167883509Y-47358073D01*
X167525700Y-47286900D01*
X167390266Y-47286900D01*
X167461300Y-47115409D01*
X167461300Y-46424850D01*
X167302550Y-46266100D01*
X166103300Y-46266100D01*
X166103300Y-46286100D01*
X165849300Y-46286100D01*
X165849300Y-46266100D01*
X165829300Y-46266100D01*
X165829300Y-46012100D01*
X165849300Y-46012100D01*
X165849300Y-44812850D01*
X166103300Y-44812850D01*
X166103300Y-46012100D01*
X167302550Y-46012100D01*
X167461300Y-45853350D01*
X167461300Y-45629490D01*
X167927600Y-45629490D01*
X167927600Y-46120050D01*
X168086350Y-46278800D01*
X169185600Y-46278800D01*
X169185600Y-45279550D01*
X169026850Y-45120800D01*
X168436291Y-45120800D01*
X168202902Y-45217473D01*
X168024273Y-45396101D01*
X167927600Y-45629490D01*
X167461300Y-45629490D01*
X167461300Y-45162791D01*
X167364627Y-44929402D01*
X167185999Y-44750773D01*
X166952610Y-44654100D01*
X166262050Y-44654100D01*
X166103300Y-44812850D01*
X165849300Y-44812850D01*
X165690550Y-44654100D01*
X164999990Y-44654100D01*
X164766601Y-44750773D01*
X164587973Y-44929402D01*
X164515703Y-45103877D01*
X164486354Y-45059953D01*
X164271300Y-44916259D01*
X164271300Y-43293554D01*
X164384754Y-43217747D01*
X164604700Y-42888574D01*
X164824646Y-43217747D01*
X165306415Y-43539654D01*
X165874700Y-43652693D01*
X166442985Y-43539654D01*
X166924754Y-43217747D01*
X167152402Y-42877047D01*
X167219517Y-43019958D01*
X167647776Y-43410245D01*
X168057810Y-43580076D01*
X168287700Y-43458755D01*
X168287700Y-42265600D01*
X168267700Y-42265600D01*
X168267700Y-42011600D01*
X168287700Y-42011600D01*
X168287700Y-41991600D01*
X168541700Y-41991600D01*
X168541700Y-42011600D01*
X168541700Y-42011600D01*
G37*
X168541700Y-42011600D02*
X168561700Y-42011600D01*
X168561700Y-42265600D01*
X168541700Y-42265600D01*
X168541700Y-43458755D01*
X168771590Y-43580076D01*
X169181624Y-43410245D01*
X169485961Y-43132892D01*
X169506543Y-43236365D01*
X169646891Y-43446409D01*
X169856935Y-43586757D01*
X170019700Y-43619133D01*
X170019700Y-44329410D01*
X169963355Y-44385755D01*
X169760673Y-44689091D01*
X169689500Y-45046900D01*
X169689500Y-45120800D01*
X169598350Y-45120800D01*
X169439600Y-45279550D01*
X169439600Y-46278800D01*
X169459600Y-46278800D01*
X169459600Y-46532800D01*
X169439600Y-46532800D01*
X169439600Y-47532050D01*
X169493580Y-47586030D01*
X168852850Y-48226760D01*
X168232461Y-47606371D01*
X168436291Y-47690800D01*
X169026850Y-47690800D01*
X169185600Y-47532050D01*
X169185600Y-46532800D01*
X168086350Y-46532800D01*
X167927600Y-46691550D01*
X167927600Y-47182110D01*
X168024273Y-47415499D01*
X168134662Y-47525888D01*
X167883509Y-47358073D01*
X167525700Y-47286900D01*
X167390266Y-47286900D01*
X167461300Y-47115409D01*
X167461300Y-46424850D01*
X167302550Y-46266100D01*
X166103300Y-46266100D01*
X166103300Y-46286100D01*
X165849300Y-46286100D01*
X165849300Y-46266100D01*
X165829300Y-46266100D01*
X165829300Y-46012100D01*
X165849300Y-46012100D01*
X165849300Y-44812850D01*
X166103300Y-44812850D01*
X166103300Y-46012100D01*
X167302550Y-46012100D01*
X167461300Y-45853350D01*
X167461300Y-45629490D01*
X167927600Y-45629490D01*
X167927600Y-46120050D01*
X168086350Y-46278800D01*
X169185600Y-46278800D01*
X169185600Y-45279550D01*
X169026850Y-45120800D01*
X168436291Y-45120800D01*
X168202902Y-45217473D01*
X168024273Y-45396101D01*
X167927600Y-45629490D01*
X167461300Y-45629490D01*
X167461300Y-45162791D01*
X167364627Y-44929402D01*
X167185999Y-44750773D01*
X166952610Y-44654100D01*
X166262050Y-44654100D01*
X166103300Y-44812850D01*
X165849300Y-44812850D01*
X165690550Y-44654100D01*
X164999990Y-44654100D01*
X164766601Y-44750773D01*
X164587973Y-44929402D01*
X164515703Y-45103877D01*
X164486354Y-45059953D01*
X164271300Y-44916259D01*
X164271300Y-43293554D01*
X164384754Y-43217747D01*
X164604700Y-42888574D01*
X164824646Y-43217747D01*
X165306415Y-43539654D01*
X165874700Y-43652693D01*
X166442985Y-43539654D01*
X166924754Y-43217747D01*
X167152402Y-42877047D01*
X167219517Y-43019958D01*
X167647776Y-43410245D01*
X168057810Y-43580076D01*
X168287700Y-43458755D01*
X168287700Y-42265600D01*
X168267700Y-42265600D01*
X168267700Y-42011600D01*
X168287700Y-42011600D01*
X168287700Y-41991600D01*
X168541700Y-41991600D01*
X168541700Y-42011600D01*
M02*
