M48
;DRILL file {KiCad no-vcs-found} date Mon Jul 23 22:49:55 2018
;FORMAT={-:-/ absolute / inch / decimal}
FMAT,2
INCH,TZ
T1C0.016
T2C0.039
T3C0.039
%
G90
G05
M72
T1
X8.119Y-2.319
X8.133Y-2.232
X8.1885Y-2.214
X8.2665Y-2.045
X8.2785Y-2.2575
X8.2865Y-2.3355
X8.2885Y-2.408
X8.298Y-1.926
X8.34Y-1.7315
X8.406Y-2.925
X8.492Y-2.484
X8.494Y-1.859
X8.4965Y-2.088
X8.535Y-2.5905
X8.5755Y-3.0015
X8.589Y-2.408
X8.6295Y-2.6655
X8.6655Y-2.952
X8.667Y-2.8455
X8.6855Y-3.159
X8.732Y-1.7555
X8.7555Y-3.0615
X8.7945Y-2.133
X8.8035Y-2.202
X8.821Y-3.651
X8.8455Y-1.951
X8.8665Y-2.5365
X8.8845Y-2.0055
X8.889Y-3.033
X8.899Y-2.763
X8.934Y-3.069
X8.952Y-3.544
X8.9615Y-1.809
X8.967Y-3.0195
X8.9805Y-4.004
X9.042Y-2.025
X9.075Y-2.643
X9.1805Y-3.665
X9.1995Y-2.133
X9.228Y-2.937
X9.2795Y-3.8535
X9.331Y-3.699
X9.344Y-2.179
X9.3565Y-2.299
X9.371Y-2.653
X9.4175Y-2.667
X9.453Y-3.3
X9.47Y-2.465
X9.5505Y-2.607
X9.6315Y-3.045
X9.639Y-2.724
X9.961Y-2.268
X10.096Y-2.17
T2
X9.9765Y-1.8
X9.9765Y-2.115
T3
X10.2515Y-1.8045
X9.1465Y-2.9975
X9.1635Y-2.436
X9.8245Y-2.127
X9.831Y-1.752
X9.684Y-2.148
X9.559Y-2.268
X9.545Y-2.0665
X9.306Y-3.3395
T0
M30
