M48
;DRILL file {KiCad no-vcs-found} date Mon Jul 23 22:53:46 2018
;FORMAT={-:-/ absolute / inch / decimal}
FMAT,2
INCH,TZ
T1C0.016
T2C0.039
T3C0.039
%
G90
G05
M72
T1
X1.685Y-2.1165
X1.7415Y-1.842
X1.7995Y-2.189
X1.802Y-2.8005
X1.846Y-2.3475
X1.879Y-2.257
X1.947Y-2.8575
X2.0835Y-2.5935
X2.094Y-2.91
X2.133Y-2.79
X2.136Y-2.97
X2.1515Y-3.74
X2.213Y-3.562
X2.2395Y-2.4705
X2.3385Y-3.294
X2.3385Y-3.9095
X2.3575Y-2.8215
X2.3595Y-3.0525
X2.388Y-3.7135
X2.4155Y-2.497
X2.4255Y-2.6625
X2.433Y-2.396
X2.485Y-3.684
X2.521Y-2.475
X2.532Y-2.607
X2.619Y-3.1725
X2.653Y-2.6225
X2.6655Y-3.1825
X2.686Y-2.4815
X2.719Y-3.001
X2.7545Y-2.7615
X2.825Y-2.3715
X3.069Y-2.1955
T2
X3.4335Y-1.811
X3.4335Y-1.911
X3.255Y-1.916
X3.255Y-2.016
T3
X2.044Y-3.8105
X1.2425Y-1.882
X2.6665Y-3.685
T0
M30
