G04 #@! TF.GenerationSoftware,KiCad,Pcbnew,no-vcs-found*
G04 #@! TF.CreationDate,2018-07-23T22:53:43+02:00*
G04 #@! TF.ProjectId,mycelium_pcb_sensor,6D7963656C69756D5F7063625F73656E,rev?*
G04 #@! TF.SameCoordinates,Original
G04 #@! TF.FileFunction,Copper,L1,Top,Signal*
G04 #@! TF.FilePolarity,Positive*
%FSLAX46Y46*%
G04 Gerber Fmt 4.6, Leading zero omitted, Abs format (unit mm)*
G04 Created by KiCad (PCBNEW no-vcs-found) date Mon Jul 23 22:53:43 2018*
%MOMM*%
%LPD*%
G01*
G04 APERTURE LIST*
%ADD10O,2.000000X2.000000*%
%ADD11R,2.000000X2.000000*%
%ADD12C,1.000000*%
%ADD13C,0.050000*%
%ADD14R,1.500000X3.200000*%
%ADD15R,3.200000X1.500000*%
%ADD16R,1.500000X1.250000*%
%ADD17C,2.800000*%
%ADD18R,0.508000X1.143000*%
%ADD19R,1.500000X1.300000*%
%ADD20R,4.600000X1.100000*%
%ADD21R,9.400000X10.800000*%
%ADD22R,4.550000X5.250000*%
%ADD23C,0.800000*%
%ADD24C,0.250000*%
%ADD25C,1.000000*%
%ADD26C,0.800000*%
%ADD27C,0.600000*%
%ADD28C,0.254000*%
G04 APERTURE END LIST*
D10*
X87210900Y-45999400D03*
D11*
X87210900Y-48539400D03*
D12*
X40627300Y-71475600D03*
D13*
G36*
X44484850Y-70305426D02*
X37176486Y-73559319D01*
X36769750Y-72645774D01*
X44078114Y-69391881D01*
X44484850Y-70305426D01*
X44484850Y-70305426D01*
G37*
D14*
X78676500Y-48584100D03*
X78676500Y-52584100D03*
D15*
X64586100Y-60185300D03*
X68586100Y-60185300D03*
D16*
X33497200Y-52476400D03*
X35997200Y-52476400D03*
X42194800Y-43561000D03*
X39694800Y-43561000D03*
X47617700Y-49644300D03*
X45117700Y-49644300D03*
D15*
X54654200Y-84582000D03*
X50654200Y-84582000D03*
X58718700Y-81407000D03*
X62718700Y-81407000D03*
D16*
X62224600Y-68986400D03*
X64724600Y-68986400D03*
D15*
X56940700Y-65874900D03*
X60940700Y-65874900D03*
D16*
X56916000Y-96545400D03*
X59416000Y-96545400D03*
X54285200Y-91821000D03*
X51785200Y-91821000D03*
D11*
X82677000Y-51206400D03*
D10*
X82677000Y-48666400D03*
D17*
X31559500Y-47802800D03*
X51917600Y-96786700D03*
X67729100Y-93599000D03*
D12*
X78003400Y-72199500D03*
D13*
G36*
X81454214Y-74283219D02*
X74145850Y-71029326D01*
X74552586Y-70115781D01*
X81860950Y-73369674D01*
X81454214Y-74283219D01*
X81454214Y-74283219D01*
G37*
D12*
X76606400Y-75387200D03*
D13*
G36*
X80057214Y-77470919D02*
X72748850Y-74217026D01*
X73155586Y-73303481D01*
X80463950Y-76557374D01*
X80057214Y-77470919D01*
X80057214Y-77470919D01*
G37*
D12*
X75044300Y-78536800D03*
D13*
G36*
X78495114Y-80620519D02*
X71186750Y-77366626D01*
X71593486Y-76453081D01*
X78901850Y-79706974D01*
X78495114Y-80620519D01*
X78495114Y-80620519D01*
G37*
D12*
X73672700Y-81699100D03*
D13*
G36*
X77123514Y-83782819D02*
X69815150Y-80528926D01*
X70221886Y-79615381D01*
X77530250Y-82869274D01*
X77123514Y-83782819D01*
X77123514Y-83782819D01*
G37*
D12*
X72250300Y-84886800D03*
D13*
G36*
X75701114Y-86970519D02*
X68392750Y-83716626D01*
X68799486Y-82803081D01*
X76107850Y-86056974D01*
X75701114Y-86970519D01*
X75701114Y-86970519D01*
G37*
D12*
X70916800Y-88061800D03*
D13*
G36*
X74367614Y-90145519D02*
X67059250Y-86891626D01*
X67465986Y-85978081D01*
X74774350Y-89231974D01*
X74367614Y-90145519D01*
X74367614Y-90145519D01*
G37*
D12*
X42024300Y-74650600D03*
D13*
G36*
X45881850Y-73480426D02*
X38573486Y-76734319D01*
X38166750Y-75820774D01*
X45475114Y-72566881D01*
X45881850Y-73480426D01*
X45881850Y-73480426D01*
G37*
D12*
X43421300Y-77863700D03*
D13*
G36*
X47278850Y-76693526D02*
X39970486Y-79947419D01*
X39563750Y-79033874D01*
X46872114Y-75779981D01*
X47278850Y-76693526D01*
X47278850Y-76693526D01*
G37*
D12*
X44754800Y-81076800D03*
D13*
G36*
X48612350Y-79906626D02*
X41303986Y-83160519D01*
X40897250Y-82246974D01*
X48205614Y-78993081D01*
X48612350Y-79906626D01*
X48612350Y-79906626D01*
G37*
D18*
X58166000Y-92862400D03*
X59436000Y-92862400D03*
X60706000Y-92862400D03*
X61976000Y-92862400D03*
X61976000Y-86512400D03*
X60706000Y-86512400D03*
X59436000Y-86512400D03*
X58166000Y-86512400D03*
D19*
X62035700Y-72898000D03*
X64735700Y-72898000D03*
X41728400Y-60858400D03*
X44428400Y-60858400D03*
X41728400Y-58343800D03*
X44428400Y-58343800D03*
X45055800Y-52184300D03*
X47755800Y-52184300D03*
X39721800Y-46837600D03*
X42421800Y-46837600D03*
X58080900Y-78333600D03*
X55380900Y-78333600D03*
X55223400Y-81381600D03*
X52523400Y-81381600D03*
X51748700Y-88722200D03*
X54448700Y-88722200D03*
X61743600Y-96431100D03*
X64443600Y-96431100D03*
D20*
X73427900Y-53568600D03*
X73427900Y-48488600D03*
D21*
X64277900Y-51028600D03*
D22*
X61852900Y-48253600D03*
X66702900Y-53803600D03*
X61852900Y-53803600D03*
X66702900Y-48253600D03*
D18*
X39192200Y-49479200D03*
X40462200Y-49479200D03*
X41732200Y-49479200D03*
X43002200Y-49479200D03*
X43002200Y-55829200D03*
X41732200Y-55829200D03*
X40462200Y-55829200D03*
X39192200Y-55829200D03*
X55854600Y-75184000D03*
X57124600Y-75184000D03*
X58394600Y-75184000D03*
X59664600Y-75184000D03*
X59664600Y-68834000D03*
X58394600Y-68834000D03*
X57124600Y-68834000D03*
X55854600Y-68834000D03*
D23*
X69964300Y-70142100D03*
X68224400Y-63030100D03*
X54648100Y-94996000D03*
X59397900Y-99301300D03*
X56210200Y-90474800D03*
X45770800Y-71132700D03*
X69062600Y-76225400D03*
X54254400Y-75438000D03*
X42799000Y-53759100D03*
X45707300Y-55600600D03*
X56883300Y-62750700D03*
X52920900Y-65874900D03*
X64312800Y-66217800D03*
X71755000Y-60236100D03*
X77952600Y-55765700D03*
X61353700Y-63423800D03*
X61798200Y-60858400D03*
X59397900Y-83667600D03*
X59931300Y-77533500D03*
X64033400Y-62865000D03*
X67386200Y-66611500D03*
X47726600Y-57327800D03*
X46888400Y-59626500D03*
X49453800Y-72580500D03*
X44234100Y-46786800D03*
X61607700Y-67627500D03*
X54178200Y-70866000D03*
X67703700Y-80835500D03*
X63119000Y-93573600D03*
X66522600Y-80581500D03*
X60655200Y-94322900D03*
X53187600Y-73914000D03*
X59880500Y-71666100D03*
D24*
X54648100Y-94996000D02*
X54285200Y-94996000D01*
X69062600Y-76225400D02*
X69176900Y-76111100D01*
X56940700Y-63137800D02*
X56940700Y-62808100D01*
X56940700Y-62808100D02*
X56883300Y-62750700D01*
D25*
X54285200Y-91821000D02*
X54285200Y-94996000D01*
X54285200Y-94996000D02*
X54285200Y-99511800D01*
X55397400Y-75209400D02*
X55397400Y-74599800D01*
X47739300Y-82867500D02*
X55397400Y-75209400D01*
X47739300Y-96278700D02*
X47739300Y-82867500D01*
X51384200Y-99923600D02*
X47739300Y-96278700D01*
X53873400Y-99923600D02*
X51384200Y-99923600D01*
X54285200Y-99511800D02*
X53873400Y-99923600D01*
D26*
X78676500Y-52584100D02*
X81299300Y-52584100D01*
X81299300Y-52584100D02*
X82677000Y-51206400D01*
X82677000Y-51206400D02*
X84543900Y-51206400D01*
X84543900Y-51206400D02*
X87210900Y-48539400D01*
D27*
X52920900Y-65874900D02*
X52920900Y-64046100D01*
X47218600Y-58343800D02*
X44428400Y-58343800D01*
X52920900Y-64046100D02*
X47218600Y-58343800D01*
X44428400Y-58343800D02*
X43980100Y-58343800D01*
X43980100Y-58343800D02*
X43002200Y-57365900D01*
X43002200Y-57365900D02*
X43002200Y-55829200D01*
D26*
X67316350Y-64522350D02*
X63734950Y-64522350D01*
X56940700Y-63137800D02*
X56940700Y-65874900D01*
X58216800Y-61861700D02*
X56940700Y-63137800D01*
X61468000Y-61861700D02*
X58216800Y-61861700D01*
X62915800Y-63309500D02*
X61468000Y-61861700D01*
X62915800Y-63703200D02*
X62915800Y-63309500D01*
X63734950Y-64522350D02*
X62915800Y-63703200D01*
D27*
X55854600Y-75184000D02*
X55854600Y-74599800D01*
X55854600Y-74599800D02*
X54902100Y-73647300D01*
X52882800Y-68084700D02*
X51796950Y-66998850D01*
X54902100Y-73647300D02*
X52882800Y-71628000D01*
X52882800Y-71628000D02*
X52882800Y-68084700D01*
X64724600Y-68986400D02*
X64724600Y-67114100D01*
X68586100Y-63252600D02*
X68586100Y-60185300D01*
X64724600Y-67114100D02*
X67316350Y-64522350D01*
X67316350Y-64522350D02*
X68586100Y-63252600D01*
X75044300Y-78536800D02*
X71602600Y-78536800D01*
X64724600Y-69730300D02*
X64724600Y-68986400D01*
X63360300Y-71094600D02*
X64724600Y-69730300D01*
X63360300Y-74218800D02*
X63360300Y-71094600D01*
X63931800Y-74790300D02*
X63360300Y-74218800D01*
X67856100Y-74790300D02*
X63931800Y-74790300D01*
X71602600Y-78536800D02*
X69176900Y-76111100D01*
X69176900Y-76111100D02*
X67856100Y-74790300D01*
X54285200Y-91821000D02*
X56210200Y-91821000D01*
X59436000Y-91871800D02*
X59436000Y-92862400D01*
X58699400Y-91135200D02*
X59436000Y-91871800D01*
X56896000Y-91135200D02*
X58699400Y-91135200D01*
X56210200Y-91821000D02*
X56896000Y-91135200D01*
X59416000Y-96545400D02*
X59416000Y-92882400D01*
X59416000Y-92882400D02*
X59436000Y-92862400D01*
D26*
X42075100Y-74764900D02*
X44030900Y-74764900D01*
X44030900Y-74764900D02*
X51796950Y-66998850D01*
X51796950Y-66998850D02*
X52920900Y-65874900D01*
X52920900Y-65874900D02*
X56940700Y-65874900D01*
X43002200Y-55829200D02*
X44030900Y-55829200D01*
X46367700Y-50894300D02*
X45117700Y-49644300D01*
D27*
X46367700Y-53492400D02*
X46367700Y-50894300D01*
D26*
X44030900Y-55829200D02*
X46367700Y-53492400D01*
X73427900Y-53568600D02*
X77692000Y-53568600D01*
X77692000Y-53568600D02*
X78676500Y-52584100D01*
X68586100Y-60185300D02*
X68808600Y-60185300D01*
X68808600Y-60185300D02*
X73427900Y-55566000D01*
X73427900Y-55566000D02*
X73427900Y-53568600D01*
X60940700Y-65874900D02*
X60940700Y-63836800D01*
X60940700Y-63836800D02*
X61353700Y-63423800D01*
X61798200Y-60858400D02*
X62471300Y-60185300D01*
X62471300Y-60185300D02*
X64586100Y-60185300D01*
X58166000Y-86512400D02*
X58166000Y-84899500D01*
X58166000Y-84899500D02*
X59397900Y-83667600D01*
X59931300Y-77533500D02*
X59664600Y-77266800D01*
X59664600Y-77266800D02*
X59664600Y-75184000D01*
X64735700Y-72898000D02*
X64735700Y-72106800D01*
X64586100Y-62312300D02*
X64586100Y-60185300D01*
X64033400Y-62865000D02*
X64586100Y-62312300D01*
X67386200Y-69456300D02*
X67386200Y-66611500D01*
X64735700Y-72106800D02*
X67386200Y-69456300D01*
X55854600Y-68834000D02*
X55854600Y-68237100D01*
X55854600Y-68237100D02*
X56616600Y-67475100D01*
X56616600Y-67475100D02*
X59340500Y-67475100D01*
X59340500Y-67475100D02*
X60940700Y-65874900D01*
D27*
X59664600Y-75184000D02*
X59664600Y-74752200D01*
D26*
X59664600Y-74752200D02*
X55854600Y-70942200D01*
X55854600Y-70942200D02*
X55854600Y-68834000D01*
X64735700Y-72898000D02*
X70205600Y-72898000D01*
X70205600Y-72898000D02*
X70878700Y-73571100D01*
X70878700Y-73571100D02*
X74790300Y-73571100D01*
X74790300Y-73571100D02*
X76606400Y-75387200D01*
X64443600Y-96431100D02*
X64443600Y-93437700D01*
X64443600Y-93437700D02*
X58877200Y-87871300D01*
X58877200Y-87871300D02*
X58534300Y-87871300D01*
X58534300Y-87871300D02*
X58166000Y-87503000D01*
X58166000Y-87503000D02*
X58166000Y-86512400D01*
X51785200Y-91821000D02*
X51785200Y-88758700D01*
D27*
X51785200Y-88758700D02*
X52133500Y-88410400D01*
X52133500Y-88410400D02*
X52133500Y-88315800D01*
D26*
X52133500Y-88315800D02*
X53936900Y-86512400D01*
X53936900Y-86512400D02*
X58166000Y-86512400D01*
X64586100Y-60185300D02*
X64586100Y-51336800D01*
X64586100Y-51336800D02*
X64277900Y-51028600D01*
D25*
X78676500Y-48584100D02*
X82594700Y-48584100D01*
X82759300Y-48584100D02*
X73523400Y-48584100D01*
X87210900Y-45999400D02*
X85344000Y-45999400D01*
X85344000Y-45999400D02*
X82759300Y-48584100D01*
X44428400Y-60858400D02*
X45656500Y-60858400D01*
X47755800Y-57298600D02*
X47755800Y-52184300D01*
X47726600Y-57327800D02*
X47755800Y-57298600D01*
X45656500Y-60858400D02*
X46888400Y-59626500D01*
X40627300Y-71475600D02*
X42011600Y-71475600D01*
X42011600Y-71475600D02*
X44428400Y-69058800D01*
X44428400Y-69058800D02*
X44428400Y-60858400D01*
D27*
X82594700Y-48584100D02*
X82677000Y-48666400D01*
D25*
X47617700Y-49644300D02*
X55194200Y-49644300D01*
X69059100Y-44119800D02*
X73427900Y-48488600D01*
X59334400Y-44119800D02*
X69059100Y-44119800D01*
X58280300Y-45173900D02*
X59334400Y-44119800D01*
X58280300Y-46558200D02*
X58280300Y-45173900D01*
X55194200Y-49644300D02*
X58280300Y-46558200D01*
X47617700Y-49644300D02*
X47617700Y-52046200D01*
D26*
X47617700Y-52046200D02*
X47755800Y-52184300D01*
D27*
X47755800Y-52184300D02*
X47755800Y-49782400D01*
X47755800Y-49782400D02*
X47617700Y-49644300D01*
D26*
X78003400Y-72199500D02*
X77114400Y-72199500D01*
D25*
X77114400Y-72199500D02*
X79654400Y-69659500D01*
X89293700Y-45999400D02*
X87210900Y-45999400D01*
X89789000Y-46494700D02*
X89293700Y-45999400D01*
X88887300Y-52006500D02*
X89789000Y-46494700D01*
X79654400Y-62407800D02*
X88887300Y-52006500D01*
X79654400Y-69659500D02*
X79654400Y-62407800D01*
D26*
X73523400Y-48584100D02*
X73427900Y-48488600D01*
X78003400Y-72199500D02*
X77495400Y-72199500D01*
X40627300Y-71475600D02*
X41452800Y-71475600D01*
D27*
X33497200Y-52476400D02*
X33497200Y-49740500D01*
X33497200Y-49740500D02*
X31559500Y-47802800D01*
X35997200Y-52476400D02*
X39331900Y-52476400D01*
X40462200Y-53606700D02*
X40462200Y-55829200D01*
X39331900Y-52476400D02*
X40462200Y-53606700D01*
X35997200Y-52476400D02*
X35997200Y-49232500D01*
X38392100Y-46837600D02*
X39721800Y-46837600D01*
X35997200Y-49232500D02*
X38392100Y-46837600D01*
X39721800Y-46837600D02*
X39721800Y-43588000D01*
X39721800Y-43588000D02*
X39694800Y-43561000D01*
X43421300Y-77863700D02*
X44170600Y-77863700D01*
X44170600Y-77863700D02*
X49453800Y-72580500D01*
X44234100Y-46786800D02*
X44183300Y-46837600D01*
X44183300Y-46837600D02*
X42421800Y-46837600D01*
X41732200Y-49479200D02*
X41732200Y-48107600D01*
X41732200Y-48107600D02*
X42421800Y-47418000D01*
X42421800Y-47418000D02*
X42421800Y-43788000D01*
X42421800Y-43788000D02*
X42194800Y-43561000D01*
X55223400Y-81381600D02*
X55223400Y-80793600D01*
X55223400Y-80793600D02*
X56718200Y-79298800D01*
X58394600Y-75819000D02*
X58394600Y-75184000D01*
X56718200Y-77495400D02*
X58394600Y-75819000D01*
X56718200Y-79298800D02*
X56718200Y-77495400D01*
X54654200Y-84582000D02*
X54654200Y-81950800D01*
X54654200Y-81950800D02*
X55223400Y-81381600D01*
X51917600Y-96786700D02*
X51917600Y-96558100D01*
X51917600Y-96558100D02*
X49288700Y-93929200D01*
X49288700Y-93929200D02*
X49288700Y-85947500D01*
X49288700Y-85947500D02*
X50654200Y-84582000D01*
X58718700Y-81407000D02*
X58718700Y-78971400D01*
X58718700Y-78971400D02*
X58080900Y-78333600D01*
X58718700Y-81407000D02*
X57746900Y-81407000D01*
X67729100Y-93599000D02*
X67729100Y-89509600D01*
X62718700Y-84499200D02*
X62718700Y-81407000D01*
X67729100Y-89509600D02*
X62718700Y-84499200D01*
X57124600Y-75184000D02*
X57124600Y-73850500D01*
X62224600Y-68244400D02*
X62224600Y-68986400D01*
X61607700Y-67627500D02*
X62224600Y-68244400D01*
X54368700Y-71056500D02*
X54178200Y-70866000D01*
X54368700Y-71094600D02*
X54368700Y-71056500D01*
X57124600Y-73850500D02*
X54368700Y-71094600D01*
X52523400Y-81381600D02*
X52523400Y-81191100D01*
X52523400Y-81191100D02*
X55714900Y-77999600D01*
X55714900Y-77999600D02*
X55714900Y-77050900D01*
X55714900Y-77050900D02*
X57124600Y-75641200D01*
X57124600Y-75641200D02*
X57124600Y-75184000D01*
X58394600Y-68834000D02*
X58394600Y-69900800D01*
X58394600Y-69900800D02*
X58978800Y-70485000D01*
X58978800Y-70485000D02*
X60726000Y-70485000D01*
X60726000Y-70485000D02*
X62224600Y-68986400D01*
X56916000Y-96545400D02*
X56916000Y-94112400D01*
X56916000Y-94112400D02*
X58166000Y-92862400D01*
X69380100Y-80518000D02*
X72491600Y-80518000D01*
X72491600Y-80518000D02*
X73672700Y-81699100D01*
X61976000Y-94183200D02*
X62509400Y-94183200D01*
X68021200Y-80518000D02*
X69380100Y-80518000D01*
X69380100Y-80518000D02*
X69900800Y-80518000D01*
X67703700Y-80835500D02*
X68021200Y-80518000D01*
X62509400Y-94183200D02*
X63119000Y-93573600D01*
X61976000Y-92862400D02*
X61976000Y-94183200D01*
X61976000Y-94183200D02*
X61976000Y-96198700D01*
X61976000Y-96198700D02*
X61743600Y-96431100D01*
X68256150Y-83267550D02*
X70415150Y-83267550D01*
X70415150Y-83267550D02*
X72224900Y-85077300D01*
X60706000Y-92862400D02*
X60706000Y-94272100D01*
X66675000Y-81686400D02*
X68256150Y-83267550D01*
X68256150Y-83267550D02*
X68351400Y-83362800D01*
X66675000Y-80733900D02*
X66675000Y-81686400D01*
X66522600Y-80581500D02*
X66675000Y-80733900D01*
X60706000Y-94272100D02*
X60655200Y-94322900D01*
X60706000Y-92862400D02*
X60706000Y-91528900D01*
X57899300Y-88722200D02*
X54448700Y-88722200D01*
X60706000Y-91528900D02*
X57899300Y-88722200D01*
X44869100Y-81356200D02*
X45770800Y-81356200D01*
X45770800Y-81356200D02*
X53187600Y-73914000D01*
X59880500Y-71666100D02*
X60312300Y-72097900D01*
X60312300Y-72097900D02*
X60312300Y-72898000D01*
X62035700Y-72898000D02*
X60312300Y-72898000D01*
X60312300Y-72898000D02*
X59296300Y-72898000D01*
X57124600Y-70726300D02*
X57124600Y-68834000D01*
X59296300Y-72898000D02*
X57124600Y-70726300D01*
X70853300Y-88239600D02*
X68922900Y-88239600D01*
X62035700Y-74265800D02*
X62035700Y-72898000D01*
X63131700Y-75361800D02*
X62035700Y-74265800D01*
X63131700Y-75476100D02*
X63131700Y-75361800D01*
X65570100Y-77914500D02*
X63131700Y-75476100D01*
X65570100Y-84886800D02*
X65570100Y-77914500D01*
X68922900Y-88239600D02*
X65570100Y-84886800D01*
X41728400Y-60858400D02*
X41728400Y-58343800D01*
X41728400Y-58343800D02*
X41728400Y-55833000D01*
X41728400Y-55833000D02*
X41732200Y-55829200D01*
X45055800Y-52184300D02*
X41287700Y-52184300D01*
X40462200Y-51358800D02*
X40462200Y-49479200D01*
X41287700Y-52184300D02*
X40462200Y-51358800D01*
D28*
G36*
X52806435Y-85930157D02*
X53014121Y-85971468D01*
X51560828Y-87424760D01*
X50998700Y-87424760D01*
X50750935Y-87474043D01*
X50540891Y-87614391D01*
X50400543Y-87824435D01*
X50351260Y-88072200D01*
X50351260Y-89372200D01*
X50400543Y-89619965D01*
X50540891Y-89830009D01*
X50750200Y-89969866D01*
X50750200Y-90622723D01*
X50577391Y-90738191D01*
X50437043Y-90948235D01*
X50387760Y-91196000D01*
X50387760Y-92446000D01*
X50437043Y-92693765D01*
X50577391Y-92903809D01*
X50787435Y-93044157D01*
X51035200Y-93093440D01*
X52535200Y-93093440D01*
X52782965Y-93044157D01*
X52993009Y-92903809D01*
X53033854Y-92842680D01*
X53175502Y-92984327D01*
X53408891Y-93081000D01*
X53999450Y-93081000D01*
X54158200Y-92922250D01*
X54158200Y-91948000D01*
X54412200Y-91948000D01*
X54412200Y-92922250D01*
X54570950Y-93081000D01*
X55161509Y-93081000D01*
X55394898Y-92984327D01*
X55573527Y-92805699D01*
X55670200Y-92572310D01*
X55670200Y-92106750D01*
X55511450Y-91948000D01*
X54412200Y-91948000D01*
X54158200Y-91948000D01*
X54138200Y-91948000D01*
X54138200Y-91694000D01*
X54158200Y-91694000D01*
X54158200Y-90719750D01*
X54412200Y-90719750D01*
X54412200Y-91694000D01*
X55511450Y-91694000D01*
X55670200Y-91535250D01*
X55670200Y-91069690D01*
X55573527Y-90836301D01*
X55394898Y-90657673D01*
X55161509Y-90561000D01*
X54570950Y-90561000D01*
X54412200Y-90719750D01*
X54158200Y-90719750D01*
X53999450Y-90561000D01*
X53408891Y-90561000D01*
X53175502Y-90657673D01*
X53033854Y-90799320D01*
X52993009Y-90738191D01*
X52820200Y-90622723D01*
X52820200Y-89921088D01*
X52956509Y-89830009D01*
X53096857Y-89619965D01*
X53098700Y-89610700D01*
X53100543Y-89619965D01*
X53240891Y-89830009D01*
X53450935Y-89970357D01*
X53698700Y-90019640D01*
X55198700Y-90019640D01*
X55446465Y-89970357D01*
X55656509Y-89830009D01*
X55771977Y-89657200D01*
X57512010Y-89657200D01*
X59616230Y-91761420D01*
X59563000Y-91814650D01*
X59563000Y-92735400D01*
X59583000Y-92735400D01*
X59583000Y-92989400D01*
X59563000Y-92989400D01*
X59563000Y-93910150D01*
X59663978Y-94011128D01*
X59620380Y-94116123D01*
X59620021Y-94527871D01*
X59777258Y-94908415D01*
X60068154Y-95199819D01*
X60274257Y-95285400D01*
X59701750Y-95285400D01*
X59543000Y-95444150D01*
X59543000Y-96418400D01*
X59563000Y-96418400D01*
X59563000Y-96672400D01*
X59543000Y-96672400D01*
X59543000Y-97646650D01*
X59701750Y-97805400D01*
X60292309Y-97805400D01*
X60525698Y-97708727D01*
X60631539Y-97602886D01*
X60745835Y-97679257D01*
X60993600Y-97728540D01*
X62493600Y-97728540D01*
X62741365Y-97679257D01*
X62951409Y-97538909D01*
X63091757Y-97328865D01*
X63093600Y-97319600D01*
X63095443Y-97328865D01*
X63235791Y-97538909D01*
X63445835Y-97679257D01*
X63693600Y-97728540D01*
X65193600Y-97728540D01*
X65441365Y-97679257D01*
X65651409Y-97538909D01*
X65791757Y-97328865D01*
X65841040Y-97081100D01*
X65841040Y-95781100D01*
X65791757Y-95533335D01*
X65651409Y-95323291D01*
X65478600Y-95207823D01*
X65478600Y-93437700D01*
X65434459Y-93215791D01*
X65399815Y-93041622D01*
X65300303Y-92892692D01*
X65175456Y-92705844D01*
X65175453Y-92705842D01*
X60065991Y-87596379D01*
X60071000Y-87593032D01*
X60204235Y-87682057D01*
X60452000Y-87731340D01*
X60960000Y-87731340D01*
X61207765Y-87682057D01*
X61341000Y-87593032D01*
X61474235Y-87682057D01*
X61722000Y-87731340D01*
X62230000Y-87731340D01*
X62477765Y-87682057D01*
X62687809Y-87541709D01*
X62828157Y-87331665D01*
X62877440Y-87083900D01*
X62877440Y-85980230D01*
X66794100Y-89896890D01*
X66794100Y-91783461D01*
X66577871Y-91872805D01*
X66004917Y-92444760D01*
X65694454Y-93192438D01*
X65693748Y-94002011D01*
X66002905Y-94750229D01*
X66574860Y-95323183D01*
X66791719Y-95413231D01*
X58919644Y-113994163D01*
X51484199Y-98810202D01*
X51511038Y-98821346D01*
X52320611Y-98822052D01*
X53068829Y-98512895D01*
X53641783Y-97940940D01*
X53952246Y-97193262D01*
X53952952Y-96383689D01*
X53761526Y-95920400D01*
X55518560Y-95920400D01*
X55518560Y-97170400D01*
X55567843Y-97418165D01*
X55708191Y-97628209D01*
X55918235Y-97768557D01*
X56166000Y-97817840D01*
X57666000Y-97817840D01*
X57913765Y-97768557D01*
X58123809Y-97628209D01*
X58164654Y-97567080D01*
X58306302Y-97708727D01*
X58539691Y-97805400D01*
X59130250Y-97805400D01*
X59289000Y-97646650D01*
X59289000Y-96672400D01*
X59269000Y-96672400D01*
X59269000Y-96418400D01*
X59289000Y-96418400D01*
X59289000Y-95444150D01*
X59130250Y-95285400D01*
X58539691Y-95285400D01*
X58306302Y-95382073D01*
X58164654Y-95523720D01*
X58123809Y-95462591D01*
X57913765Y-95322243D01*
X57851000Y-95309758D01*
X57851000Y-94499690D01*
X58269350Y-94081340D01*
X58420000Y-94081340D01*
X58667765Y-94032057D01*
X58796268Y-93946193D01*
X58822302Y-93972227D01*
X59055691Y-94068900D01*
X59150250Y-94068900D01*
X59309000Y-93910150D01*
X59309000Y-92989400D01*
X59289000Y-92989400D01*
X59289000Y-92735400D01*
X59309000Y-92735400D01*
X59309000Y-91814650D01*
X59150250Y-91655900D01*
X59055691Y-91655900D01*
X58822302Y-91752573D01*
X58796268Y-91778607D01*
X58667765Y-91692743D01*
X58420000Y-91643460D01*
X57912000Y-91643460D01*
X57664235Y-91692743D01*
X57454191Y-91833091D01*
X57313843Y-92043135D01*
X57264560Y-92290900D01*
X57264560Y-92441550D01*
X56254855Y-93451255D01*
X56052173Y-93754591D01*
X55981000Y-94112400D01*
X55981000Y-95309758D01*
X55918235Y-95322243D01*
X55708191Y-95462591D01*
X55567843Y-95672635D01*
X55518560Y-95920400D01*
X53761526Y-95920400D01*
X53643795Y-95635471D01*
X53071840Y-95062517D01*
X52324162Y-94752054D01*
X51514589Y-94751348D01*
X51456953Y-94775163D01*
X50223700Y-93541910D01*
X50223700Y-86334790D01*
X50579050Y-85979440D01*
X52254200Y-85979440D01*
X52501965Y-85930157D01*
X52654200Y-85828436D01*
X52806435Y-85930157D01*
X52806435Y-85930157D01*
G37*
X52806435Y-85930157D02*
X53014121Y-85971468D01*
X51560828Y-87424760D01*
X50998700Y-87424760D01*
X50750935Y-87474043D01*
X50540891Y-87614391D01*
X50400543Y-87824435D01*
X50351260Y-88072200D01*
X50351260Y-89372200D01*
X50400543Y-89619965D01*
X50540891Y-89830009D01*
X50750200Y-89969866D01*
X50750200Y-90622723D01*
X50577391Y-90738191D01*
X50437043Y-90948235D01*
X50387760Y-91196000D01*
X50387760Y-92446000D01*
X50437043Y-92693765D01*
X50577391Y-92903809D01*
X50787435Y-93044157D01*
X51035200Y-93093440D01*
X52535200Y-93093440D01*
X52782965Y-93044157D01*
X52993009Y-92903809D01*
X53033854Y-92842680D01*
X53175502Y-92984327D01*
X53408891Y-93081000D01*
X53999450Y-93081000D01*
X54158200Y-92922250D01*
X54158200Y-91948000D01*
X54412200Y-91948000D01*
X54412200Y-92922250D01*
X54570950Y-93081000D01*
X55161509Y-93081000D01*
X55394898Y-92984327D01*
X55573527Y-92805699D01*
X55670200Y-92572310D01*
X55670200Y-92106750D01*
X55511450Y-91948000D01*
X54412200Y-91948000D01*
X54158200Y-91948000D01*
X54138200Y-91948000D01*
X54138200Y-91694000D01*
X54158200Y-91694000D01*
X54158200Y-90719750D01*
X54412200Y-90719750D01*
X54412200Y-91694000D01*
X55511450Y-91694000D01*
X55670200Y-91535250D01*
X55670200Y-91069690D01*
X55573527Y-90836301D01*
X55394898Y-90657673D01*
X55161509Y-90561000D01*
X54570950Y-90561000D01*
X54412200Y-90719750D01*
X54158200Y-90719750D01*
X53999450Y-90561000D01*
X53408891Y-90561000D01*
X53175502Y-90657673D01*
X53033854Y-90799320D01*
X52993009Y-90738191D01*
X52820200Y-90622723D01*
X52820200Y-89921088D01*
X52956509Y-89830009D01*
X53096857Y-89619965D01*
X53098700Y-89610700D01*
X53100543Y-89619965D01*
X53240891Y-89830009D01*
X53450935Y-89970357D01*
X53698700Y-90019640D01*
X55198700Y-90019640D01*
X55446465Y-89970357D01*
X55656509Y-89830009D01*
X55771977Y-89657200D01*
X57512010Y-89657200D01*
X59616230Y-91761420D01*
X59563000Y-91814650D01*
X59563000Y-92735400D01*
X59583000Y-92735400D01*
X59583000Y-92989400D01*
X59563000Y-92989400D01*
X59563000Y-93910150D01*
X59663978Y-94011128D01*
X59620380Y-94116123D01*
X59620021Y-94527871D01*
X59777258Y-94908415D01*
X60068154Y-95199819D01*
X60274257Y-95285400D01*
X59701750Y-95285400D01*
X59543000Y-95444150D01*
X59543000Y-96418400D01*
X59563000Y-96418400D01*
X59563000Y-96672400D01*
X59543000Y-96672400D01*
X59543000Y-97646650D01*
X59701750Y-97805400D01*
X60292309Y-97805400D01*
X60525698Y-97708727D01*
X60631539Y-97602886D01*
X60745835Y-97679257D01*
X60993600Y-97728540D01*
X62493600Y-97728540D01*
X62741365Y-97679257D01*
X62951409Y-97538909D01*
X63091757Y-97328865D01*
X63093600Y-97319600D01*
X63095443Y-97328865D01*
X63235791Y-97538909D01*
X63445835Y-97679257D01*
X63693600Y-97728540D01*
X65193600Y-97728540D01*
X65441365Y-97679257D01*
X65651409Y-97538909D01*
X65791757Y-97328865D01*
X65841040Y-97081100D01*
X65841040Y-95781100D01*
X65791757Y-95533335D01*
X65651409Y-95323291D01*
X65478600Y-95207823D01*
X65478600Y-93437700D01*
X65434459Y-93215791D01*
X65399815Y-93041622D01*
X65300303Y-92892692D01*
X65175456Y-92705844D01*
X65175453Y-92705842D01*
X60065991Y-87596379D01*
X60071000Y-87593032D01*
X60204235Y-87682057D01*
X60452000Y-87731340D01*
X60960000Y-87731340D01*
X61207765Y-87682057D01*
X61341000Y-87593032D01*
X61474235Y-87682057D01*
X61722000Y-87731340D01*
X62230000Y-87731340D01*
X62477765Y-87682057D01*
X62687809Y-87541709D01*
X62828157Y-87331665D01*
X62877440Y-87083900D01*
X62877440Y-85980230D01*
X66794100Y-89896890D01*
X66794100Y-91783461D01*
X66577871Y-91872805D01*
X66004917Y-92444760D01*
X65694454Y-93192438D01*
X65693748Y-94002011D01*
X66002905Y-94750229D01*
X66574860Y-95323183D01*
X66791719Y-95413231D01*
X58919644Y-113994163D01*
X51484199Y-98810202D01*
X51511038Y-98821346D01*
X52320611Y-98822052D01*
X53068829Y-98512895D01*
X53641783Y-97940940D01*
X53952246Y-97193262D01*
X53952952Y-96383689D01*
X53761526Y-95920400D01*
X55518560Y-95920400D01*
X55518560Y-97170400D01*
X55567843Y-97418165D01*
X55708191Y-97628209D01*
X55918235Y-97768557D01*
X56166000Y-97817840D01*
X57666000Y-97817840D01*
X57913765Y-97768557D01*
X58123809Y-97628209D01*
X58164654Y-97567080D01*
X58306302Y-97708727D01*
X58539691Y-97805400D01*
X59130250Y-97805400D01*
X59289000Y-97646650D01*
X59289000Y-96672400D01*
X59269000Y-96672400D01*
X59269000Y-96418400D01*
X59289000Y-96418400D01*
X59289000Y-95444150D01*
X59130250Y-95285400D01*
X58539691Y-95285400D01*
X58306302Y-95382073D01*
X58164654Y-95523720D01*
X58123809Y-95462591D01*
X57913765Y-95322243D01*
X57851000Y-95309758D01*
X57851000Y-94499690D01*
X58269350Y-94081340D01*
X58420000Y-94081340D01*
X58667765Y-94032057D01*
X58796268Y-93946193D01*
X58822302Y-93972227D01*
X59055691Y-94068900D01*
X59150250Y-94068900D01*
X59309000Y-93910150D01*
X59309000Y-92989400D01*
X59289000Y-92989400D01*
X59289000Y-92735400D01*
X59309000Y-92735400D01*
X59309000Y-91814650D01*
X59150250Y-91655900D01*
X59055691Y-91655900D01*
X58822302Y-91752573D01*
X58796268Y-91778607D01*
X58667765Y-91692743D01*
X58420000Y-91643460D01*
X57912000Y-91643460D01*
X57664235Y-91692743D01*
X57454191Y-91833091D01*
X57313843Y-92043135D01*
X57264560Y-92290900D01*
X57264560Y-92441550D01*
X56254855Y-93451255D01*
X56052173Y-93754591D01*
X55981000Y-94112400D01*
X55981000Y-95309758D01*
X55918235Y-95322243D01*
X55708191Y-95462591D01*
X55567843Y-95672635D01*
X55518560Y-95920400D01*
X53761526Y-95920400D01*
X53643795Y-95635471D01*
X53071840Y-95062517D01*
X52324162Y-94752054D01*
X51514589Y-94751348D01*
X51456953Y-94775163D01*
X50223700Y-93541910D01*
X50223700Y-86334790D01*
X50579050Y-85979440D01*
X52254200Y-85979440D01*
X52501965Y-85930157D01*
X52654200Y-85828436D01*
X52806435Y-85930157D01*
G36*
X70756933Y-47422765D02*
X70670091Y-47480791D01*
X70529743Y-47690835D01*
X70480460Y-47938600D01*
X70480460Y-49038600D01*
X70529743Y-49286365D01*
X70670091Y-49496409D01*
X70880135Y-49636757D01*
X71127900Y-49686040D01*
X73357197Y-49686040D01*
X73523400Y-49719100D01*
X77279060Y-49719100D01*
X77279060Y-50184100D01*
X77328343Y-50431865D01*
X77429427Y-50583147D01*
X77388173Y-50624402D01*
X77291500Y-50857791D01*
X77291500Y-52298350D01*
X77450250Y-52457100D01*
X78549500Y-52457100D01*
X78549500Y-52437100D01*
X78803500Y-52437100D01*
X78803500Y-52457100D01*
X79902750Y-52457100D01*
X80061500Y-52298350D01*
X80061500Y-51492150D01*
X81042000Y-51492150D01*
X81042000Y-52332710D01*
X81138673Y-52566099D01*
X81317302Y-52744727D01*
X81550691Y-52841400D01*
X82391250Y-52841400D01*
X82550000Y-52682650D01*
X82550000Y-51333400D01*
X82804000Y-51333400D01*
X82804000Y-52682650D01*
X82962750Y-52841400D01*
X83803309Y-52841400D01*
X84036698Y-52744727D01*
X84215327Y-52566099D01*
X84312000Y-52332710D01*
X84312000Y-51492150D01*
X84153250Y-51333400D01*
X82804000Y-51333400D01*
X82550000Y-51333400D01*
X81200750Y-51333400D01*
X81042000Y-51492150D01*
X80061500Y-51492150D01*
X80061500Y-50857791D01*
X79964827Y-50624402D01*
X79923573Y-50583147D01*
X80024657Y-50431865D01*
X80073940Y-50184100D01*
X80073940Y-49719100D01*
X81266275Y-49719100D01*
X81138673Y-49846701D01*
X81042000Y-50080090D01*
X81042000Y-50920650D01*
X81200750Y-51079400D01*
X82550000Y-51079400D01*
X82550000Y-51059400D01*
X82804000Y-51059400D01*
X82804000Y-51079400D01*
X84153250Y-51079400D01*
X84312000Y-50920650D01*
X84312000Y-50080090D01*
X84215327Y-49846701D01*
X84036698Y-49668073D01*
X83983166Y-49645899D01*
X84219575Y-49292087D01*
X84312454Y-48825150D01*
X85575900Y-48825150D01*
X85575900Y-49665710D01*
X85672573Y-49899099D01*
X85851202Y-50077727D01*
X86084591Y-50174400D01*
X86925150Y-50174400D01*
X87083900Y-50015650D01*
X87083900Y-48666400D01*
X85734650Y-48666400D01*
X85575900Y-48825150D01*
X84312454Y-48825150D01*
X84344032Y-48666400D01*
X84333762Y-48614770D01*
X85604508Y-47344024D01*
X85575900Y-47413090D01*
X85575900Y-48253650D01*
X85734650Y-48412400D01*
X87083900Y-48412400D01*
X87083900Y-48392400D01*
X87337900Y-48392400D01*
X87337900Y-48412400D01*
X87357900Y-48412400D01*
X87357900Y-48666400D01*
X87337900Y-48666400D01*
X87337900Y-50015650D01*
X87496650Y-50174400D01*
X88036934Y-50174400D01*
X87820260Y-51498857D01*
X78805576Y-61654326D01*
X78710429Y-61816862D01*
X78605797Y-61973454D01*
X78599125Y-62006997D01*
X78581847Y-62036512D01*
X78556143Y-62223080D01*
X78519400Y-62407800D01*
X78519400Y-69189367D01*
X77146717Y-70562051D01*
X74815924Y-69524315D01*
X74569534Y-69468563D01*
X74320564Y-69511344D01*
X74106918Y-69646145D01*
X73961120Y-69852444D01*
X73554384Y-70765989D01*
X73498632Y-71012378D01*
X73541413Y-71261348D01*
X73676214Y-71474994D01*
X73882512Y-71620792D01*
X76056851Y-72588870D01*
X76065797Y-72633845D01*
X76311834Y-73002066D01*
X76680055Y-73248103D01*
X77114400Y-73334500D01*
X77502487Y-73257304D01*
X76919466Y-74236554D01*
X75522156Y-72839244D01*
X75186377Y-72614885D01*
X74790300Y-72536099D01*
X74790295Y-72536100D01*
X71307411Y-72536100D01*
X70937456Y-72166144D01*
X70601677Y-71941785D01*
X70205600Y-71862999D01*
X70205595Y-71863000D01*
X66443212Y-71863000D01*
X68118053Y-70188158D01*
X68118056Y-70188156D01*
X68342415Y-69852377D01*
X68380781Y-69659500D01*
X68421201Y-69456300D01*
X68421200Y-69456295D01*
X68421200Y-66611500D01*
X68421379Y-66406529D01*
X68264142Y-66025985D01*
X67973246Y-65734581D01*
X67592977Y-65576680D01*
X67181229Y-65576321D01*
X66800685Y-65733558D01*
X66509281Y-66024454D01*
X66351380Y-66404723D01*
X66351021Y-66816471D01*
X66351200Y-66816904D01*
X66351200Y-69027589D01*
X66108119Y-69270669D01*
X65950850Y-69113400D01*
X64851600Y-69113400D01*
X64851600Y-70087650D01*
X65010350Y-70246400D01*
X65132388Y-70246400D01*
X64003844Y-71374944D01*
X63832767Y-71630980D01*
X63737935Y-71649843D01*
X63527891Y-71790191D01*
X63387543Y-72000235D01*
X63385700Y-72009500D01*
X63383857Y-72000235D01*
X63243509Y-71790191D01*
X63033465Y-71649843D01*
X62785700Y-71600560D01*
X61285700Y-71600560D01*
X61106688Y-71636167D01*
X60973445Y-71436755D01*
X60918416Y-71381726D01*
X61083809Y-71348827D01*
X61387145Y-71146145D01*
X62274450Y-70258840D01*
X62974600Y-70258840D01*
X63222365Y-70209557D01*
X63432409Y-70069209D01*
X63473254Y-70008080D01*
X63614902Y-70149727D01*
X63848291Y-70246400D01*
X64438850Y-70246400D01*
X64597600Y-70087650D01*
X64597600Y-69113400D01*
X64577600Y-69113400D01*
X64577600Y-68859400D01*
X64597600Y-68859400D01*
X64597600Y-67885150D01*
X64851600Y-67885150D01*
X64851600Y-68859400D01*
X65950850Y-68859400D01*
X66109600Y-68700650D01*
X66109600Y-68235090D01*
X66012927Y-68001701D01*
X65834298Y-67823073D01*
X65600909Y-67726400D01*
X65010350Y-67726400D01*
X64851600Y-67885150D01*
X64597600Y-67885150D01*
X64438850Y-67726400D01*
X63848291Y-67726400D01*
X63614902Y-67823073D01*
X63473254Y-67964720D01*
X63432409Y-67903591D01*
X63222365Y-67763243D01*
X62974600Y-67713960D01*
X62973079Y-67713960D01*
X62885745Y-67583255D01*
X62585042Y-67282552D01*
X62577775Y-67264965D01*
X62788465Y-67223057D01*
X62998509Y-67082709D01*
X63138857Y-66872665D01*
X63188140Y-66624900D01*
X63188140Y-65124900D01*
X63138857Y-64877135D01*
X62998509Y-64667091D01*
X62788465Y-64526743D01*
X62540700Y-64477460D01*
X61975700Y-64477460D01*
X61975700Y-64265511D01*
X62084918Y-64156293D01*
X62230619Y-64010846D01*
X62388520Y-63630577D01*
X62388700Y-63423804D01*
X62388701Y-63423800D01*
X62388700Y-63423796D01*
X62388879Y-63218829D01*
X62231642Y-62838285D01*
X61940746Y-62546881D01*
X61560477Y-62388980D01*
X61353704Y-62388800D01*
X61353700Y-62388799D01*
X61353696Y-62388800D01*
X61148729Y-62388621D01*
X60768185Y-62545858D01*
X60476781Y-62836754D01*
X60476601Y-62837188D01*
X60208844Y-63104944D01*
X59984485Y-63440723D01*
X59905699Y-63836800D01*
X59905700Y-63836805D01*
X59905700Y-64477460D01*
X59340700Y-64477460D01*
X59092935Y-64526743D01*
X58941653Y-64627827D01*
X58900398Y-64586573D01*
X58667009Y-64489900D01*
X57226450Y-64489900D01*
X57067700Y-64648650D01*
X57067700Y-65747900D01*
X57087700Y-65747900D01*
X57087700Y-66001900D01*
X57067700Y-66001900D01*
X57067700Y-66021900D01*
X56813700Y-66021900D01*
X56813700Y-66001900D01*
X54864450Y-66001900D01*
X54705700Y-66160650D01*
X54705700Y-66751210D01*
X54802373Y-66984599D01*
X54981002Y-67163227D01*
X55214391Y-67259900D01*
X55368088Y-67259900D01*
X55122744Y-67505244D01*
X54898385Y-67841023D01*
X54819599Y-68237100D01*
X54819600Y-68237105D01*
X54819600Y-70043530D01*
X54765246Y-69989081D01*
X54384977Y-69831180D01*
X53973229Y-69830821D01*
X53592685Y-69988058D01*
X53301281Y-70278954D01*
X53143380Y-70659223D01*
X53143021Y-71070971D01*
X53300258Y-71451515D01*
X53591154Y-71742919D01*
X53768276Y-71816466D01*
X56034830Y-74083020D01*
X55981600Y-74136250D01*
X55981600Y-75057000D01*
X56001600Y-75057000D01*
X56001600Y-75311000D01*
X55981600Y-75311000D01*
X55981600Y-75331000D01*
X55727600Y-75331000D01*
X55727600Y-75311000D01*
X55124350Y-75311000D01*
X54965600Y-75469750D01*
X54965600Y-75881810D01*
X55062273Y-76115199D01*
X55195292Y-76248218D01*
X55053755Y-76389755D01*
X54851073Y-76693091D01*
X54782832Y-77036160D01*
X54630900Y-77036160D01*
X54383135Y-77085443D01*
X54173091Y-77225791D01*
X54032743Y-77435835D01*
X53983460Y-77683600D01*
X53983460Y-78408750D01*
X52308050Y-80084160D01*
X51773400Y-80084160D01*
X51525635Y-80133443D01*
X51315591Y-80273791D01*
X51175243Y-80483835D01*
X51125960Y-80731600D01*
X51125960Y-82031600D01*
X51175243Y-82279365D01*
X51315591Y-82489409D01*
X51525635Y-82629757D01*
X51773400Y-82679040D01*
X53273400Y-82679040D01*
X53521165Y-82629757D01*
X53719200Y-82497433D01*
X53719200Y-83184560D01*
X53054200Y-83184560D01*
X52806435Y-83233843D01*
X52654200Y-83335564D01*
X52501965Y-83233843D01*
X52254200Y-83184560D01*
X49054200Y-83184560D01*
X48806435Y-83233843D01*
X48596391Y-83374191D01*
X48456043Y-83584235D01*
X48406760Y-83832000D01*
X48406760Y-85332000D01*
X48450414Y-85551466D01*
X48424873Y-85589691D01*
X48353700Y-85947500D01*
X48353700Y-92417392D01*
X46979143Y-89610402D01*
X44170064Y-82593170D01*
X44854724Y-82288340D01*
X44869100Y-82291200D01*
X45770800Y-82291200D01*
X45771598Y-82291041D01*
X45772398Y-82291199D01*
X45950527Y-82255450D01*
X46128609Y-82220027D01*
X46129287Y-82219574D01*
X46130085Y-82219414D01*
X46280893Y-82118275D01*
X46431945Y-82017345D01*
X46432398Y-82016668D01*
X46433074Y-82016214D01*
X47204488Y-81242158D01*
X48875688Y-80498092D01*
X49081986Y-80352294D01*
X49216787Y-80138648D01*
X49259568Y-79889678D01*
X49203816Y-79643289D01*
X49078470Y-79361758D01*
X53534386Y-74890582D01*
X53773115Y-74791942D01*
X54064519Y-74501046D01*
X54070687Y-74486190D01*
X54965600Y-74486190D01*
X54965600Y-74898250D01*
X55124350Y-75057000D01*
X55727600Y-75057000D01*
X55727600Y-74136250D01*
X55568850Y-73977500D01*
X55474291Y-73977500D01*
X55240902Y-74074173D01*
X55062273Y-74252801D01*
X54965600Y-74486190D01*
X54070687Y-74486190D01*
X54222420Y-74120777D01*
X54222779Y-73709029D01*
X54065542Y-73328485D01*
X53774646Y-73037081D01*
X53394377Y-72879180D01*
X52982629Y-72878821D01*
X52602085Y-73036058D01*
X52310681Y-73326954D01*
X52209309Y-73571085D01*
X46958959Y-78839416D01*
X43316576Y-80461109D01*
X42876674Y-79362212D01*
X44142344Y-78798700D01*
X44170600Y-78798700D01*
X44528409Y-78727527D01*
X44831745Y-78524845D01*
X44891384Y-78465206D01*
X47542188Y-77284992D01*
X47748486Y-77139194D01*
X47883287Y-76925548D01*
X47926068Y-76676578D01*
X47870316Y-76430189D01*
X47579526Y-75777064D01*
X49798748Y-73557842D01*
X50039315Y-73458442D01*
X50330719Y-73167546D01*
X50488620Y-72787277D01*
X50488979Y-72375529D01*
X50331742Y-71994985D01*
X50040846Y-71703581D01*
X49660577Y-71545680D01*
X49248829Y-71545321D01*
X48868285Y-71702558D01*
X48576881Y-71993454D01*
X48476279Y-72235731D01*
X44652509Y-76059501D01*
X42023186Y-77230151D01*
X41569052Y-76095701D01*
X42224900Y-75803699D01*
X42305356Y-75594104D01*
X41959935Y-74818276D01*
X41941664Y-74826411D01*
X41892046Y-74714965D01*
X42191976Y-74714965D01*
X42537397Y-75490793D01*
X42746992Y-75571249D01*
X46024739Y-74111902D01*
X46255518Y-74009153D01*
X46429409Y-73825910D01*
X46519939Y-73590069D01*
X46513326Y-73337537D01*
X46374808Y-73026421D01*
X46165213Y-72945965D01*
X42191976Y-74714965D01*
X41892046Y-74714965D01*
X41838353Y-74594370D01*
X41856624Y-74586235D01*
X41511203Y-73810407D01*
X41301608Y-73729951D01*
X40724817Y-73986755D01*
X40612867Y-73707096D01*
X41743244Y-73707096D01*
X42088665Y-74482924D01*
X46061902Y-72713925D01*
X46142358Y-72504330D01*
X46003840Y-72193214D01*
X45820597Y-72019323D01*
X45584758Y-71928792D01*
X45332226Y-71935404D01*
X45101447Y-72038154D01*
X41823700Y-73497501D01*
X41743244Y-73707096D01*
X40612867Y-73707096D01*
X40283628Y-72884642D01*
X40899136Y-72610600D01*
X42011600Y-72610600D01*
X42445946Y-72524203D01*
X42814166Y-72278166D01*
X43751835Y-71340497D01*
X44748188Y-70896892D01*
X44954486Y-70751094D01*
X45089287Y-70537448D01*
X45132068Y-70288478D01*
X45076316Y-70042089D01*
X45068284Y-70024048D01*
X45230966Y-69861366D01*
X45477003Y-69493146D01*
X45506628Y-69344209D01*
X45563400Y-69058800D01*
X45563400Y-64998590D01*
X54705700Y-64998590D01*
X54705700Y-65589150D01*
X54864450Y-65747900D01*
X56813700Y-65747900D01*
X56813700Y-64648650D01*
X56654950Y-64489900D01*
X55214391Y-64489900D01*
X54981002Y-64586573D01*
X54802373Y-64765201D01*
X54705700Y-64998590D01*
X45563400Y-64998590D01*
X45563400Y-62014859D01*
X45595515Y-61993400D01*
X45656500Y-61993400D01*
X46090846Y-61907003D01*
X46459066Y-61660966D01*
X47690966Y-60429066D01*
X47937004Y-60060845D01*
X48023400Y-59626500D01*
X47937004Y-59192154D01*
X47690966Y-58823934D01*
X47322746Y-58577896D01*
X46888400Y-58491500D01*
X46454055Y-58577896D01*
X46085834Y-58823934D01*
X45813400Y-59096368D01*
X45813400Y-58629550D01*
X45654650Y-58470800D01*
X44555400Y-58470800D01*
X44555400Y-58490800D01*
X44301400Y-58490800D01*
X44301400Y-58470800D01*
X44281400Y-58470800D01*
X44281400Y-58216800D01*
X44301400Y-58216800D01*
X44301400Y-57217550D01*
X44555400Y-57217550D01*
X44555400Y-58216800D01*
X45654650Y-58216800D01*
X45813400Y-58058050D01*
X45813400Y-57567490D01*
X45716727Y-57334101D01*
X45538098Y-57155473D01*
X45304709Y-57058800D01*
X44714150Y-57058800D01*
X44555400Y-57217550D01*
X44301400Y-57217550D01*
X44142650Y-57058800D01*
X43552091Y-57058800D01*
X43318702Y-57155473D01*
X43140073Y-57334101D01*
X43082121Y-57474009D01*
X43076557Y-57446035D01*
X42936209Y-57235991D01*
X42726165Y-57095643D01*
X42663400Y-57083158D01*
X42663400Y-57035700D01*
X42716450Y-57035700D01*
X42875200Y-56876950D01*
X42875200Y-55956200D01*
X43129200Y-55956200D01*
X43129200Y-56876950D01*
X43287950Y-57035700D01*
X43382509Y-57035700D01*
X43615898Y-56939027D01*
X43794527Y-56760399D01*
X43891200Y-56527010D01*
X43891200Y-56114950D01*
X43732450Y-55956200D01*
X43129200Y-55956200D01*
X42875200Y-55956200D01*
X42855200Y-55956200D01*
X42855200Y-55702200D01*
X42875200Y-55702200D01*
X42875200Y-54781450D01*
X43129200Y-54781450D01*
X43129200Y-55702200D01*
X43732450Y-55702200D01*
X43891200Y-55543450D01*
X43891200Y-55131390D01*
X43794527Y-54898001D01*
X43615898Y-54719373D01*
X43382509Y-54622700D01*
X43287950Y-54622700D01*
X43129200Y-54781450D01*
X42875200Y-54781450D01*
X42716450Y-54622700D01*
X42621891Y-54622700D01*
X42388502Y-54719373D01*
X42362468Y-54745407D01*
X42233965Y-54659543D01*
X41986200Y-54610260D01*
X41478200Y-54610260D01*
X41397200Y-54626372D01*
X41397200Y-53606705D01*
X41397201Y-53606700D01*
X41326027Y-53248892D01*
X41326027Y-53248891D01*
X41232040Y-53108228D01*
X41287700Y-53119300D01*
X43732523Y-53119300D01*
X43847991Y-53292109D01*
X44058035Y-53432457D01*
X44305800Y-53481740D01*
X45805800Y-53481740D01*
X46053565Y-53432457D01*
X46263609Y-53292109D01*
X46403957Y-53082065D01*
X46405800Y-53072800D01*
X46407643Y-53082065D01*
X46547991Y-53292109D01*
X46620800Y-53340759D01*
X46620800Y-57181002D01*
X46591600Y-57327800D01*
X46677997Y-57762145D01*
X46924034Y-58130366D01*
X47292255Y-58376403D01*
X47726600Y-58462800D01*
X48160945Y-58376403D01*
X48529166Y-58130366D01*
X48558366Y-58101166D01*
X48587175Y-58058050D01*
X48804403Y-57732946D01*
X48890800Y-57298600D01*
X48890800Y-53340759D01*
X48963609Y-53292109D01*
X49103957Y-53082065D01*
X49153240Y-52834300D01*
X49153240Y-51534300D01*
X49103957Y-51286535D01*
X48963609Y-51076491D01*
X48753565Y-50936143D01*
X48752700Y-50935971D01*
X48752700Y-50779300D01*
X55194200Y-50779300D01*
X55628546Y-50692903D01*
X55996766Y-50446866D01*
X58930460Y-47513173D01*
X58930460Y-56428600D01*
X58979743Y-56676365D01*
X59120091Y-56886409D01*
X59330135Y-57026757D01*
X59577900Y-57076040D01*
X63551100Y-57076040D01*
X63551100Y-58787860D01*
X62986100Y-58787860D01*
X62738335Y-58837143D01*
X62528291Y-58977491D01*
X62403860Y-59163714D01*
X62075223Y-59229085D01*
X61739444Y-59453444D01*
X61739442Y-59453447D01*
X61066409Y-60126479D01*
X60921281Y-60271354D01*
X60763380Y-60651623D01*
X60763200Y-60858396D01*
X60763199Y-60858400D01*
X60763200Y-60858404D01*
X60763021Y-61063371D01*
X60920258Y-61443915D01*
X61211154Y-61735319D01*
X61591423Y-61893220D01*
X61798196Y-61893400D01*
X61798200Y-61893401D01*
X61798204Y-61893400D01*
X62003171Y-61893579D01*
X62383715Y-61736342D01*
X62647653Y-61472865D01*
X62738335Y-61533457D01*
X62986100Y-61582740D01*
X63551100Y-61582740D01*
X63551100Y-61883588D01*
X63301609Y-62133079D01*
X63156481Y-62277954D01*
X62998580Y-62658223D01*
X62998400Y-62864996D01*
X62998399Y-62865000D01*
X62998400Y-62865004D01*
X62998221Y-63069971D01*
X63155458Y-63450515D01*
X63446354Y-63741919D01*
X63826623Y-63899820D01*
X64033396Y-63900000D01*
X64033400Y-63900001D01*
X64033404Y-63900000D01*
X64238371Y-63900179D01*
X64618915Y-63742942D01*
X64910319Y-63452046D01*
X64910499Y-63451613D01*
X65317953Y-63044158D01*
X65317956Y-63044156D01*
X65542315Y-62708377D01*
X65552291Y-62658223D01*
X65621101Y-62312300D01*
X65621100Y-62312295D01*
X65621100Y-61582740D01*
X66186100Y-61582740D01*
X66433865Y-61533457D01*
X66585147Y-61432373D01*
X66626402Y-61473627D01*
X66859791Y-61570300D01*
X68300350Y-61570300D01*
X68459100Y-61411550D01*
X68459100Y-60312300D01*
X68713100Y-60312300D01*
X68713100Y-61411550D01*
X68871850Y-61570300D01*
X70312409Y-61570300D01*
X70545798Y-61473627D01*
X70724427Y-61294999D01*
X70821100Y-61061610D01*
X70821100Y-60471050D01*
X70662350Y-60312300D01*
X68713100Y-60312300D01*
X68459100Y-60312300D01*
X68439100Y-60312300D01*
X68439100Y-60058300D01*
X68459100Y-60058300D01*
X68459100Y-58959050D01*
X68713100Y-58959050D01*
X68713100Y-60058300D01*
X70662350Y-60058300D01*
X70821100Y-59899550D01*
X70821100Y-59308990D01*
X70724427Y-59075601D01*
X70545798Y-58896973D01*
X70312409Y-58800300D01*
X68871850Y-58800300D01*
X68713100Y-58959050D01*
X68459100Y-58959050D01*
X68300350Y-58800300D01*
X66859791Y-58800300D01*
X66626402Y-58896973D01*
X66585147Y-58938227D01*
X66433865Y-58837143D01*
X66186100Y-58787860D01*
X65621100Y-58787860D01*
X65621100Y-57076040D01*
X68977900Y-57076040D01*
X69225665Y-57026757D01*
X69435709Y-56886409D01*
X69576057Y-56676365D01*
X69625340Y-56428600D01*
X69625340Y-53854350D01*
X70492900Y-53854350D01*
X70492900Y-54244910D01*
X70589573Y-54478299D01*
X70768202Y-54656927D01*
X71001591Y-54753600D01*
X73142150Y-54753600D01*
X73300900Y-54594850D01*
X73300900Y-53695600D01*
X73554900Y-53695600D01*
X73554900Y-54594850D01*
X73713650Y-54753600D01*
X75854209Y-54753600D01*
X76087598Y-54656927D01*
X76266227Y-54478299D01*
X76362900Y-54244910D01*
X76362900Y-53854350D01*
X76204150Y-53695600D01*
X73554900Y-53695600D01*
X73300900Y-53695600D01*
X70651650Y-53695600D01*
X70492900Y-53854350D01*
X69625340Y-53854350D01*
X69625340Y-52892290D01*
X70492900Y-52892290D01*
X70492900Y-53282850D01*
X70651650Y-53441600D01*
X73300900Y-53441600D01*
X73300900Y-52542350D01*
X73554900Y-52542350D01*
X73554900Y-53441600D01*
X76204150Y-53441600D01*
X76362900Y-53282850D01*
X76362900Y-52892290D01*
X76353606Y-52869850D01*
X77291500Y-52869850D01*
X77291500Y-54310409D01*
X77388173Y-54543798D01*
X77566801Y-54722427D01*
X77800190Y-54819100D01*
X78390750Y-54819100D01*
X78549500Y-54660350D01*
X78549500Y-52711100D01*
X78803500Y-52711100D01*
X78803500Y-54660350D01*
X78962250Y-54819100D01*
X79552810Y-54819100D01*
X79786199Y-54722427D01*
X79964827Y-54543798D01*
X80061500Y-54310409D01*
X80061500Y-52869850D01*
X79902750Y-52711100D01*
X78803500Y-52711100D01*
X78549500Y-52711100D01*
X77450250Y-52711100D01*
X77291500Y-52869850D01*
X76353606Y-52869850D01*
X76266227Y-52658901D01*
X76087598Y-52480273D01*
X75854209Y-52383600D01*
X73713650Y-52383600D01*
X73554900Y-52542350D01*
X73300900Y-52542350D01*
X73142150Y-52383600D01*
X71001591Y-52383600D01*
X70768202Y-52480273D01*
X70589573Y-52658901D01*
X70492900Y-52892290D01*
X69625340Y-52892290D01*
X69625340Y-46291172D01*
X70756933Y-47422765D01*
X70756933Y-47422765D01*
G37*
X70756933Y-47422765D02*
X70670091Y-47480791D01*
X70529743Y-47690835D01*
X70480460Y-47938600D01*
X70480460Y-49038600D01*
X70529743Y-49286365D01*
X70670091Y-49496409D01*
X70880135Y-49636757D01*
X71127900Y-49686040D01*
X73357197Y-49686040D01*
X73523400Y-49719100D01*
X77279060Y-49719100D01*
X77279060Y-50184100D01*
X77328343Y-50431865D01*
X77429427Y-50583147D01*
X77388173Y-50624402D01*
X77291500Y-50857791D01*
X77291500Y-52298350D01*
X77450250Y-52457100D01*
X78549500Y-52457100D01*
X78549500Y-52437100D01*
X78803500Y-52437100D01*
X78803500Y-52457100D01*
X79902750Y-52457100D01*
X80061500Y-52298350D01*
X80061500Y-51492150D01*
X81042000Y-51492150D01*
X81042000Y-52332710D01*
X81138673Y-52566099D01*
X81317302Y-52744727D01*
X81550691Y-52841400D01*
X82391250Y-52841400D01*
X82550000Y-52682650D01*
X82550000Y-51333400D01*
X82804000Y-51333400D01*
X82804000Y-52682650D01*
X82962750Y-52841400D01*
X83803309Y-52841400D01*
X84036698Y-52744727D01*
X84215327Y-52566099D01*
X84312000Y-52332710D01*
X84312000Y-51492150D01*
X84153250Y-51333400D01*
X82804000Y-51333400D01*
X82550000Y-51333400D01*
X81200750Y-51333400D01*
X81042000Y-51492150D01*
X80061500Y-51492150D01*
X80061500Y-50857791D01*
X79964827Y-50624402D01*
X79923573Y-50583147D01*
X80024657Y-50431865D01*
X80073940Y-50184100D01*
X80073940Y-49719100D01*
X81266275Y-49719100D01*
X81138673Y-49846701D01*
X81042000Y-50080090D01*
X81042000Y-50920650D01*
X81200750Y-51079400D01*
X82550000Y-51079400D01*
X82550000Y-51059400D01*
X82804000Y-51059400D01*
X82804000Y-51079400D01*
X84153250Y-51079400D01*
X84312000Y-50920650D01*
X84312000Y-50080090D01*
X84215327Y-49846701D01*
X84036698Y-49668073D01*
X83983166Y-49645899D01*
X84219575Y-49292087D01*
X84312454Y-48825150D01*
X85575900Y-48825150D01*
X85575900Y-49665710D01*
X85672573Y-49899099D01*
X85851202Y-50077727D01*
X86084591Y-50174400D01*
X86925150Y-50174400D01*
X87083900Y-50015650D01*
X87083900Y-48666400D01*
X85734650Y-48666400D01*
X85575900Y-48825150D01*
X84312454Y-48825150D01*
X84344032Y-48666400D01*
X84333762Y-48614770D01*
X85604508Y-47344024D01*
X85575900Y-47413090D01*
X85575900Y-48253650D01*
X85734650Y-48412400D01*
X87083900Y-48412400D01*
X87083900Y-48392400D01*
X87337900Y-48392400D01*
X87337900Y-48412400D01*
X87357900Y-48412400D01*
X87357900Y-48666400D01*
X87337900Y-48666400D01*
X87337900Y-50015650D01*
X87496650Y-50174400D01*
X88036934Y-50174400D01*
X87820260Y-51498857D01*
X78805576Y-61654326D01*
X78710429Y-61816862D01*
X78605797Y-61973454D01*
X78599125Y-62006997D01*
X78581847Y-62036512D01*
X78556143Y-62223080D01*
X78519400Y-62407800D01*
X78519400Y-69189367D01*
X77146717Y-70562051D01*
X74815924Y-69524315D01*
X74569534Y-69468563D01*
X74320564Y-69511344D01*
X74106918Y-69646145D01*
X73961120Y-69852444D01*
X73554384Y-70765989D01*
X73498632Y-71012378D01*
X73541413Y-71261348D01*
X73676214Y-71474994D01*
X73882512Y-71620792D01*
X76056851Y-72588870D01*
X76065797Y-72633845D01*
X76311834Y-73002066D01*
X76680055Y-73248103D01*
X77114400Y-73334500D01*
X77502487Y-73257304D01*
X76919466Y-74236554D01*
X75522156Y-72839244D01*
X75186377Y-72614885D01*
X74790300Y-72536099D01*
X74790295Y-72536100D01*
X71307411Y-72536100D01*
X70937456Y-72166144D01*
X70601677Y-71941785D01*
X70205600Y-71862999D01*
X70205595Y-71863000D01*
X66443212Y-71863000D01*
X68118053Y-70188158D01*
X68118056Y-70188156D01*
X68342415Y-69852377D01*
X68380781Y-69659500D01*
X68421201Y-69456300D01*
X68421200Y-69456295D01*
X68421200Y-66611500D01*
X68421379Y-66406529D01*
X68264142Y-66025985D01*
X67973246Y-65734581D01*
X67592977Y-65576680D01*
X67181229Y-65576321D01*
X66800685Y-65733558D01*
X66509281Y-66024454D01*
X66351380Y-66404723D01*
X66351021Y-66816471D01*
X66351200Y-66816904D01*
X66351200Y-69027589D01*
X66108119Y-69270669D01*
X65950850Y-69113400D01*
X64851600Y-69113400D01*
X64851600Y-70087650D01*
X65010350Y-70246400D01*
X65132388Y-70246400D01*
X64003844Y-71374944D01*
X63832767Y-71630980D01*
X63737935Y-71649843D01*
X63527891Y-71790191D01*
X63387543Y-72000235D01*
X63385700Y-72009500D01*
X63383857Y-72000235D01*
X63243509Y-71790191D01*
X63033465Y-71649843D01*
X62785700Y-71600560D01*
X61285700Y-71600560D01*
X61106688Y-71636167D01*
X60973445Y-71436755D01*
X60918416Y-71381726D01*
X61083809Y-71348827D01*
X61387145Y-71146145D01*
X62274450Y-70258840D01*
X62974600Y-70258840D01*
X63222365Y-70209557D01*
X63432409Y-70069209D01*
X63473254Y-70008080D01*
X63614902Y-70149727D01*
X63848291Y-70246400D01*
X64438850Y-70246400D01*
X64597600Y-70087650D01*
X64597600Y-69113400D01*
X64577600Y-69113400D01*
X64577600Y-68859400D01*
X64597600Y-68859400D01*
X64597600Y-67885150D01*
X64851600Y-67885150D01*
X64851600Y-68859400D01*
X65950850Y-68859400D01*
X66109600Y-68700650D01*
X66109600Y-68235090D01*
X66012927Y-68001701D01*
X65834298Y-67823073D01*
X65600909Y-67726400D01*
X65010350Y-67726400D01*
X64851600Y-67885150D01*
X64597600Y-67885150D01*
X64438850Y-67726400D01*
X63848291Y-67726400D01*
X63614902Y-67823073D01*
X63473254Y-67964720D01*
X63432409Y-67903591D01*
X63222365Y-67763243D01*
X62974600Y-67713960D01*
X62973079Y-67713960D01*
X62885745Y-67583255D01*
X62585042Y-67282552D01*
X62577775Y-67264965D01*
X62788465Y-67223057D01*
X62998509Y-67082709D01*
X63138857Y-66872665D01*
X63188140Y-66624900D01*
X63188140Y-65124900D01*
X63138857Y-64877135D01*
X62998509Y-64667091D01*
X62788465Y-64526743D01*
X62540700Y-64477460D01*
X61975700Y-64477460D01*
X61975700Y-64265511D01*
X62084918Y-64156293D01*
X62230619Y-64010846D01*
X62388520Y-63630577D01*
X62388700Y-63423804D01*
X62388701Y-63423800D01*
X62388700Y-63423796D01*
X62388879Y-63218829D01*
X62231642Y-62838285D01*
X61940746Y-62546881D01*
X61560477Y-62388980D01*
X61353704Y-62388800D01*
X61353700Y-62388799D01*
X61353696Y-62388800D01*
X61148729Y-62388621D01*
X60768185Y-62545858D01*
X60476781Y-62836754D01*
X60476601Y-62837188D01*
X60208844Y-63104944D01*
X59984485Y-63440723D01*
X59905699Y-63836800D01*
X59905700Y-63836805D01*
X59905700Y-64477460D01*
X59340700Y-64477460D01*
X59092935Y-64526743D01*
X58941653Y-64627827D01*
X58900398Y-64586573D01*
X58667009Y-64489900D01*
X57226450Y-64489900D01*
X57067700Y-64648650D01*
X57067700Y-65747900D01*
X57087700Y-65747900D01*
X57087700Y-66001900D01*
X57067700Y-66001900D01*
X57067700Y-66021900D01*
X56813700Y-66021900D01*
X56813700Y-66001900D01*
X54864450Y-66001900D01*
X54705700Y-66160650D01*
X54705700Y-66751210D01*
X54802373Y-66984599D01*
X54981002Y-67163227D01*
X55214391Y-67259900D01*
X55368088Y-67259900D01*
X55122744Y-67505244D01*
X54898385Y-67841023D01*
X54819599Y-68237100D01*
X54819600Y-68237105D01*
X54819600Y-70043530D01*
X54765246Y-69989081D01*
X54384977Y-69831180D01*
X53973229Y-69830821D01*
X53592685Y-69988058D01*
X53301281Y-70278954D01*
X53143380Y-70659223D01*
X53143021Y-71070971D01*
X53300258Y-71451515D01*
X53591154Y-71742919D01*
X53768276Y-71816466D01*
X56034830Y-74083020D01*
X55981600Y-74136250D01*
X55981600Y-75057000D01*
X56001600Y-75057000D01*
X56001600Y-75311000D01*
X55981600Y-75311000D01*
X55981600Y-75331000D01*
X55727600Y-75331000D01*
X55727600Y-75311000D01*
X55124350Y-75311000D01*
X54965600Y-75469750D01*
X54965600Y-75881810D01*
X55062273Y-76115199D01*
X55195292Y-76248218D01*
X55053755Y-76389755D01*
X54851073Y-76693091D01*
X54782832Y-77036160D01*
X54630900Y-77036160D01*
X54383135Y-77085443D01*
X54173091Y-77225791D01*
X54032743Y-77435835D01*
X53983460Y-77683600D01*
X53983460Y-78408750D01*
X52308050Y-80084160D01*
X51773400Y-80084160D01*
X51525635Y-80133443D01*
X51315591Y-80273791D01*
X51175243Y-80483835D01*
X51125960Y-80731600D01*
X51125960Y-82031600D01*
X51175243Y-82279365D01*
X51315591Y-82489409D01*
X51525635Y-82629757D01*
X51773400Y-82679040D01*
X53273400Y-82679040D01*
X53521165Y-82629757D01*
X53719200Y-82497433D01*
X53719200Y-83184560D01*
X53054200Y-83184560D01*
X52806435Y-83233843D01*
X52654200Y-83335564D01*
X52501965Y-83233843D01*
X52254200Y-83184560D01*
X49054200Y-83184560D01*
X48806435Y-83233843D01*
X48596391Y-83374191D01*
X48456043Y-83584235D01*
X48406760Y-83832000D01*
X48406760Y-85332000D01*
X48450414Y-85551466D01*
X48424873Y-85589691D01*
X48353700Y-85947500D01*
X48353700Y-92417392D01*
X46979143Y-89610402D01*
X44170064Y-82593170D01*
X44854724Y-82288340D01*
X44869100Y-82291200D01*
X45770800Y-82291200D01*
X45771598Y-82291041D01*
X45772398Y-82291199D01*
X45950527Y-82255450D01*
X46128609Y-82220027D01*
X46129287Y-82219574D01*
X46130085Y-82219414D01*
X46280893Y-82118275D01*
X46431945Y-82017345D01*
X46432398Y-82016668D01*
X46433074Y-82016214D01*
X47204488Y-81242158D01*
X48875688Y-80498092D01*
X49081986Y-80352294D01*
X49216787Y-80138648D01*
X49259568Y-79889678D01*
X49203816Y-79643289D01*
X49078470Y-79361758D01*
X53534386Y-74890582D01*
X53773115Y-74791942D01*
X54064519Y-74501046D01*
X54070687Y-74486190D01*
X54965600Y-74486190D01*
X54965600Y-74898250D01*
X55124350Y-75057000D01*
X55727600Y-75057000D01*
X55727600Y-74136250D01*
X55568850Y-73977500D01*
X55474291Y-73977500D01*
X55240902Y-74074173D01*
X55062273Y-74252801D01*
X54965600Y-74486190D01*
X54070687Y-74486190D01*
X54222420Y-74120777D01*
X54222779Y-73709029D01*
X54065542Y-73328485D01*
X53774646Y-73037081D01*
X53394377Y-72879180D01*
X52982629Y-72878821D01*
X52602085Y-73036058D01*
X52310681Y-73326954D01*
X52209309Y-73571085D01*
X46958959Y-78839416D01*
X43316576Y-80461109D01*
X42876674Y-79362212D01*
X44142344Y-78798700D01*
X44170600Y-78798700D01*
X44528409Y-78727527D01*
X44831745Y-78524845D01*
X44891384Y-78465206D01*
X47542188Y-77284992D01*
X47748486Y-77139194D01*
X47883287Y-76925548D01*
X47926068Y-76676578D01*
X47870316Y-76430189D01*
X47579526Y-75777064D01*
X49798748Y-73557842D01*
X50039315Y-73458442D01*
X50330719Y-73167546D01*
X50488620Y-72787277D01*
X50488979Y-72375529D01*
X50331742Y-71994985D01*
X50040846Y-71703581D01*
X49660577Y-71545680D01*
X49248829Y-71545321D01*
X48868285Y-71702558D01*
X48576881Y-71993454D01*
X48476279Y-72235731D01*
X44652509Y-76059501D01*
X42023186Y-77230151D01*
X41569052Y-76095701D01*
X42224900Y-75803699D01*
X42305356Y-75594104D01*
X41959935Y-74818276D01*
X41941664Y-74826411D01*
X41892046Y-74714965D01*
X42191976Y-74714965D01*
X42537397Y-75490793D01*
X42746992Y-75571249D01*
X46024739Y-74111902D01*
X46255518Y-74009153D01*
X46429409Y-73825910D01*
X46519939Y-73590069D01*
X46513326Y-73337537D01*
X46374808Y-73026421D01*
X46165213Y-72945965D01*
X42191976Y-74714965D01*
X41892046Y-74714965D01*
X41838353Y-74594370D01*
X41856624Y-74586235D01*
X41511203Y-73810407D01*
X41301608Y-73729951D01*
X40724817Y-73986755D01*
X40612867Y-73707096D01*
X41743244Y-73707096D01*
X42088665Y-74482924D01*
X46061902Y-72713925D01*
X46142358Y-72504330D01*
X46003840Y-72193214D01*
X45820597Y-72019323D01*
X45584758Y-71928792D01*
X45332226Y-71935404D01*
X45101447Y-72038154D01*
X41823700Y-73497501D01*
X41743244Y-73707096D01*
X40612867Y-73707096D01*
X40283628Y-72884642D01*
X40899136Y-72610600D01*
X42011600Y-72610600D01*
X42445946Y-72524203D01*
X42814166Y-72278166D01*
X43751835Y-71340497D01*
X44748188Y-70896892D01*
X44954486Y-70751094D01*
X45089287Y-70537448D01*
X45132068Y-70288478D01*
X45076316Y-70042089D01*
X45068284Y-70024048D01*
X45230966Y-69861366D01*
X45477003Y-69493146D01*
X45506628Y-69344209D01*
X45563400Y-69058800D01*
X45563400Y-64998590D01*
X54705700Y-64998590D01*
X54705700Y-65589150D01*
X54864450Y-65747900D01*
X56813700Y-65747900D01*
X56813700Y-64648650D01*
X56654950Y-64489900D01*
X55214391Y-64489900D01*
X54981002Y-64586573D01*
X54802373Y-64765201D01*
X54705700Y-64998590D01*
X45563400Y-64998590D01*
X45563400Y-62014859D01*
X45595515Y-61993400D01*
X45656500Y-61993400D01*
X46090846Y-61907003D01*
X46459066Y-61660966D01*
X47690966Y-60429066D01*
X47937004Y-60060845D01*
X48023400Y-59626500D01*
X47937004Y-59192154D01*
X47690966Y-58823934D01*
X47322746Y-58577896D01*
X46888400Y-58491500D01*
X46454055Y-58577896D01*
X46085834Y-58823934D01*
X45813400Y-59096368D01*
X45813400Y-58629550D01*
X45654650Y-58470800D01*
X44555400Y-58470800D01*
X44555400Y-58490800D01*
X44301400Y-58490800D01*
X44301400Y-58470800D01*
X44281400Y-58470800D01*
X44281400Y-58216800D01*
X44301400Y-58216800D01*
X44301400Y-57217550D01*
X44555400Y-57217550D01*
X44555400Y-58216800D01*
X45654650Y-58216800D01*
X45813400Y-58058050D01*
X45813400Y-57567490D01*
X45716727Y-57334101D01*
X45538098Y-57155473D01*
X45304709Y-57058800D01*
X44714150Y-57058800D01*
X44555400Y-57217550D01*
X44301400Y-57217550D01*
X44142650Y-57058800D01*
X43552091Y-57058800D01*
X43318702Y-57155473D01*
X43140073Y-57334101D01*
X43082121Y-57474009D01*
X43076557Y-57446035D01*
X42936209Y-57235991D01*
X42726165Y-57095643D01*
X42663400Y-57083158D01*
X42663400Y-57035700D01*
X42716450Y-57035700D01*
X42875200Y-56876950D01*
X42875200Y-55956200D01*
X43129200Y-55956200D01*
X43129200Y-56876950D01*
X43287950Y-57035700D01*
X43382509Y-57035700D01*
X43615898Y-56939027D01*
X43794527Y-56760399D01*
X43891200Y-56527010D01*
X43891200Y-56114950D01*
X43732450Y-55956200D01*
X43129200Y-55956200D01*
X42875200Y-55956200D01*
X42855200Y-55956200D01*
X42855200Y-55702200D01*
X42875200Y-55702200D01*
X42875200Y-54781450D01*
X43129200Y-54781450D01*
X43129200Y-55702200D01*
X43732450Y-55702200D01*
X43891200Y-55543450D01*
X43891200Y-55131390D01*
X43794527Y-54898001D01*
X43615898Y-54719373D01*
X43382509Y-54622700D01*
X43287950Y-54622700D01*
X43129200Y-54781450D01*
X42875200Y-54781450D01*
X42716450Y-54622700D01*
X42621891Y-54622700D01*
X42388502Y-54719373D01*
X42362468Y-54745407D01*
X42233965Y-54659543D01*
X41986200Y-54610260D01*
X41478200Y-54610260D01*
X41397200Y-54626372D01*
X41397200Y-53606705D01*
X41397201Y-53606700D01*
X41326027Y-53248892D01*
X41326027Y-53248891D01*
X41232040Y-53108228D01*
X41287700Y-53119300D01*
X43732523Y-53119300D01*
X43847991Y-53292109D01*
X44058035Y-53432457D01*
X44305800Y-53481740D01*
X45805800Y-53481740D01*
X46053565Y-53432457D01*
X46263609Y-53292109D01*
X46403957Y-53082065D01*
X46405800Y-53072800D01*
X46407643Y-53082065D01*
X46547991Y-53292109D01*
X46620800Y-53340759D01*
X46620800Y-57181002D01*
X46591600Y-57327800D01*
X46677997Y-57762145D01*
X46924034Y-58130366D01*
X47292255Y-58376403D01*
X47726600Y-58462800D01*
X48160945Y-58376403D01*
X48529166Y-58130366D01*
X48558366Y-58101166D01*
X48587175Y-58058050D01*
X48804403Y-57732946D01*
X48890800Y-57298600D01*
X48890800Y-53340759D01*
X48963609Y-53292109D01*
X49103957Y-53082065D01*
X49153240Y-52834300D01*
X49153240Y-51534300D01*
X49103957Y-51286535D01*
X48963609Y-51076491D01*
X48753565Y-50936143D01*
X48752700Y-50935971D01*
X48752700Y-50779300D01*
X55194200Y-50779300D01*
X55628546Y-50692903D01*
X55996766Y-50446866D01*
X58930460Y-47513173D01*
X58930460Y-56428600D01*
X58979743Y-56676365D01*
X59120091Y-56886409D01*
X59330135Y-57026757D01*
X59577900Y-57076040D01*
X63551100Y-57076040D01*
X63551100Y-58787860D01*
X62986100Y-58787860D01*
X62738335Y-58837143D01*
X62528291Y-58977491D01*
X62403860Y-59163714D01*
X62075223Y-59229085D01*
X61739444Y-59453444D01*
X61739442Y-59453447D01*
X61066409Y-60126479D01*
X60921281Y-60271354D01*
X60763380Y-60651623D01*
X60763200Y-60858396D01*
X60763199Y-60858400D01*
X60763200Y-60858404D01*
X60763021Y-61063371D01*
X60920258Y-61443915D01*
X61211154Y-61735319D01*
X61591423Y-61893220D01*
X61798196Y-61893400D01*
X61798200Y-61893401D01*
X61798204Y-61893400D01*
X62003171Y-61893579D01*
X62383715Y-61736342D01*
X62647653Y-61472865D01*
X62738335Y-61533457D01*
X62986100Y-61582740D01*
X63551100Y-61582740D01*
X63551100Y-61883588D01*
X63301609Y-62133079D01*
X63156481Y-62277954D01*
X62998580Y-62658223D01*
X62998400Y-62864996D01*
X62998399Y-62865000D01*
X62998400Y-62865004D01*
X62998221Y-63069971D01*
X63155458Y-63450515D01*
X63446354Y-63741919D01*
X63826623Y-63899820D01*
X64033396Y-63900000D01*
X64033400Y-63900001D01*
X64033404Y-63900000D01*
X64238371Y-63900179D01*
X64618915Y-63742942D01*
X64910319Y-63452046D01*
X64910499Y-63451613D01*
X65317953Y-63044158D01*
X65317956Y-63044156D01*
X65542315Y-62708377D01*
X65552291Y-62658223D01*
X65621101Y-62312300D01*
X65621100Y-62312295D01*
X65621100Y-61582740D01*
X66186100Y-61582740D01*
X66433865Y-61533457D01*
X66585147Y-61432373D01*
X66626402Y-61473627D01*
X66859791Y-61570300D01*
X68300350Y-61570300D01*
X68459100Y-61411550D01*
X68459100Y-60312300D01*
X68713100Y-60312300D01*
X68713100Y-61411550D01*
X68871850Y-61570300D01*
X70312409Y-61570300D01*
X70545798Y-61473627D01*
X70724427Y-61294999D01*
X70821100Y-61061610D01*
X70821100Y-60471050D01*
X70662350Y-60312300D01*
X68713100Y-60312300D01*
X68459100Y-60312300D01*
X68439100Y-60312300D01*
X68439100Y-60058300D01*
X68459100Y-60058300D01*
X68459100Y-58959050D01*
X68713100Y-58959050D01*
X68713100Y-60058300D01*
X70662350Y-60058300D01*
X70821100Y-59899550D01*
X70821100Y-59308990D01*
X70724427Y-59075601D01*
X70545798Y-58896973D01*
X70312409Y-58800300D01*
X68871850Y-58800300D01*
X68713100Y-58959050D01*
X68459100Y-58959050D01*
X68300350Y-58800300D01*
X66859791Y-58800300D01*
X66626402Y-58896973D01*
X66585147Y-58938227D01*
X66433865Y-58837143D01*
X66186100Y-58787860D01*
X65621100Y-58787860D01*
X65621100Y-57076040D01*
X68977900Y-57076040D01*
X69225665Y-57026757D01*
X69435709Y-56886409D01*
X69576057Y-56676365D01*
X69625340Y-56428600D01*
X69625340Y-53854350D01*
X70492900Y-53854350D01*
X70492900Y-54244910D01*
X70589573Y-54478299D01*
X70768202Y-54656927D01*
X71001591Y-54753600D01*
X73142150Y-54753600D01*
X73300900Y-54594850D01*
X73300900Y-53695600D01*
X73554900Y-53695600D01*
X73554900Y-54594850D01*
X73713650Y-54753600D01*
X75854209Y-54753600D01*
X76087598Y-54656927D01*
X76266227Y-54478299D01*
X76362900Y-54244910D01*
X76362900Y-53854350D01*
X76204150Y-53695600D01*
X73554900Y-53695600D01*
X73300900Y-53695600D01*
X70651650Y-53695600D01*
X70492900Y-53854350D01*
X69625340Y-53854350D01*
X69625340Y-52892290D01*
X70492900Y-52892290D01*
X70492900Y-53282850D01*
X70651650Y-53441600D01*
X73300900Y-53441600D01*
X73300900Y-52542350D01*
X73554900Y-52542350D01*
X73554900Y-53441600D01*
X76204150Y-53441600D01*
X76362900Y-53282850D01*
X76362900Y-52892290D01*
X76353606Y-52869850D01*
X77291500Y-52869850D01*
X77291500Y-54310409D01*
X77388173Y-54543798D01*
X77566801Y-54722427D01*
X77800190Y-54819100D01*
X78390750Y-54819100D01*
X78549500Y-54660350D01*
X78549500Y-52711100D01*
X78803500Y-52711100D01*
X78803500Y-54660350D01*
X78962250Y-54819100D01*
X79552810Y-54819100D01*
X79786199Y-54722427D01*
X79964827Y-54543798D01*
X80061500Y-54310409D01*
X80061500Y-52869850D01*
X79902750Y-52711100D01*
X78803500Y-52711100D01*
X78549500Y-52711100D01*
X77450250Y-52711100D01*
X77291500Y-52869850D01*
X76353606Y-52869850D01*
X76266227Y-52658901D01*
X76087598Y-52480273D01*
X75854209Y-52383600D01*
X73713650Y-52383600D01*
X73554900Y-52542350D01*
X73300900Y-52542350D01*
X73142150Y-52383600D01*
X71001591Y-52383600D01*
X70768202Y-52480273D01*
X70589573Y-52658901D01*
X70492900Y-52892290D01*
X69625340Y-52892290D01*
X69625340Y-46291172D01*
X70756933Y-47422765D01*
G36*
X63387543Y-73795765D02*
X63527891Y-74005809D01*
X63737935Y-74146157D01*
X63985700Y-74195440D01*
X65485700Y-74195440D01*
X65733465Y-74146157D01*
X65943509Y-74005809D01*
X65992159Y-73933000D01*
X69776888Y-73933000D01*
X70146842Y-74302953D01*
X70146844Y-74302956D01*
X70459171Y-74511645D01*
X70482623Y-74527315D01*
X70878700Y-74606101D01*
X70878705Y-74606100D01*
X72243506Y-74606100D01*
X72279214Y-74662694D01*
X72485512Y-74808492D01*
X75721229Y-76249126D01*
X75087464Y-77313606D01*
X71967153Y-75924354D01*
X71736374Y-75821604D01*
X71483842Y-75814992D01*
X71248003Y-75905523D01*
X71064760Y-76079414D01*
X70926242Y-76390530D01*
X71006698Y-76600125D01*
X74568181Y-78185799D01*
X74437330Y-78405578D01*
X70903387Y-76832165D01*
X70693792Y-76912621D01*
X70555274Y-77223737D01*
X70548661Y-77476269D01*
X70639191Y-77712110D01*
X70813082Y-77895353D01*
X71043861Y-77998102D01*
X73918047Y-79277772D01*
X73416338Y-80120448D01*
X73152745Y-79856855D01*
X72849409Y-79654173D01*
X72491600Y-79583000D01*
X71740950Y-79583000D01*
X70485224Y-79023915D01*
X70238834Y-78968163D01*
X69989864Y-79010944D01*
X69776218Y-79145745D01*
X69630420Y-79352044D01*
X69527592Y-79583000D01*
X68021200Y-79583000D01*
X67663391Y-79654173D01*
X67360055Y-79856855D01*
X67358752Y-79858158D01*
X67290930Y-79886182D01*
X67109646Y-79704581D01*
X66729377Y-79546680D01*
X66505100Y-79546484D01*
X66505100Y-77914500D01*
X66433927Y-77556691D01*
X66231245Y-77253355D01*
X63998915Y-75021025D01*
X63995527Y-75003991D01*
X63792845Y-74700655D01*
X63156282Y-74064092D01*
X63243509Y-74005809D01*
X63383857Y-73795765D01*
X63385700Y-73786500D01*
X63387543Y-73795765D01*
X63387543Y-73795765D01*
G37*
X63387543Y-73795765D02*
X63527891Y-74005809D01*
X63737935Y-74146157D01*
X63985700Y-74195440D01*
X65485700Y-74195440D01*
X65733465Y-74146157D01*
X65943509Y-74005809D01*
X65992159Y-73933000D01*
X69776888Y-73933000D01*
X70146842Y-74302953D01*
X70146844Y-74302956D01*
X70459171Y-74511645D01*
X70482623Y-74527315D01*
X70878700Y-74606101D01*
X70878705Y-74606100D01*
X72243506Y-74606100D01*
X72279214Y-74662694D01*
X72485512Y-74808492D01*
X75721229Y-76249126D01*
X75087464Y-77313606D01*
X71967153Y-75924354D01*
X71736374Y-75821604D01*
X71483842Y-75814992D01*
X71248003Y-75905523D01*
X71064760Y-76079414D01*
X70926242Y-76390530D01*
X71006698Y-76600125D01*
X74568181Y-78185799D01*
X74437330Y-78405578D01*
X70903387Y-76832165D01*
X70693792Y-76912621D01*
X70555274Y-77223737D01*
X70548661Y-77476269D01*
X70639191Y-77712110D01*
X70813082Y-77895353D01*
X71043861Y-77998102D01*
X73918047Y-79277772D01*
X73416338Y-80120448D01*
X73152745Y-79856855D01*
X72849409Y-79654173D01*
X72491600Y-79583000D01*
X71740950Y-79583000D01*
X70485224Y-79023915D01*
X70238834Y-78968163D01*
X69989864Y-79010944D01*
X69776218Y-79145745D01*
X69630420Y-79352044D01*
X69527592Y-79583000D01*
X68021200Y-79583000D01*
X67663391Y-79654173D01*
X67360055Y-79856855D01*
X67358752Y-79858158D01*
X67290930Y-79886182D01*
X67109646Y-79704581D01*
X66729377Y-79546680D01*
X66505100Y-79546484D01*
X66505100Y-77914500D01*
X66433927Y-77556691D01*
X66231245Y-77253355D01*
X63998915Y-75021025D01*
X63995527Y-75003991D01*
X63792845Y-74700655D01*
X63156282Y-74064092D01*
X63243509Y-74005809D01*
X63383857Y-73795765D01*
X63385700Y-73786500D01*
X63387543Y-73795765D01*
G36*
X46409891Y-50727109D02*
X46482700Y-50775759D01*
X46482700Y-51174205D01*
X46407643Y-51286535D01*
X46405800Y-51295800D01*
X46403957Y-51286535D01*
X46263609Y-51076491D01*
X46053565Y-50936143D01*
X45893478Y-50904300D01*
X45994009Y-50904300D01*
X46227398Y-50807627D01*
X46369046Y-50665980D01*
X46409891Y-50727109D01*
X46409891Y-50727109D01*
G37*
X46409891Y-50727109D02*
X46482700Y-50775759D01*
X46482700Y-51174205D01*
X46407643Y-51286535D01*
X46405800Y-51295800D01*
X46403957Y-51286535D01*
X46263609Y-51076491D01*
X46053565Y-50936143D01*
X45893478Y-50904300D01*
X45994009Y-50904300D01*
X46227398Y-50807627D01*
X46369046Y-50665980D01*
X46409891Y-50727109D01*
G36*
X90493318Y-45593886D02*
X90096266Y-45196834D01*
X90053716Y-45168403D01*
X89728046Y-44950797D01*
X89293700Y-44864400D01*
X88413164Y-44864400D01*
X88399052Y-44843280D01*
X87868619Y-44488857D01*
X87242932Y-44364400D01*
X87178868Y-44364400D01*
X86553181Y-44488857D01*
X86022748Y-44843280D01*
X86008636Y-44864400D01*
X85344000Y-44864400D01*
X84909654Y-44950797D01*
X84583984Y-45168403D01*
X84541434Y-45196834D01*
X82706868Y-47031400D01*
X82644968Y-47031400D01*
X82019281Y-47155857D01*
X81580411Y-47449100D01*
X80073940Y-47449100D01*
X80073940Y-46984100D01*
X80024657Y-46736335D01*
X79884309Y-46526291D01*
X79674265Y-46385943D01*
X79426500Y-46336660D01*
X77926500Y-46336660D01*
X77678735Y-46385943D01*
X77468691Y-46526291D01*
X77328343Y-46736335D01*
X77279060Y-46984100D01*
X77279060Y-47449100D01*
X76138280Y-47449100D01*
X75975665Y-47340443D01*
X75727900Y-47291160D01*
X73835592Y-47291160D01*
X69861666Y-43317234D01*
X69731397Y-43230191D01*
X69493446Y-43071197D01*
X69059100Y-42984800D01*
X59334400Y-42984800D01*
X58900055Y-43071196D01*
X58531834Y-43317233D01*
X57477734Y-44371334D01*
X57231697Y-44739554D01*
X57145300Y-45173900D01*
X57145300Y-46088067D01*
X54724068Y-48509300D01*
X48747400Y-48509300D01*
X48615465Y-48421143D01*
X48367700Y-48371860D01*
X46867700Y-48371860D01*
X46619935Y-48421143D01*
X46409891Y-48561491D01*
X46369046Y-48622620D01*
X46227398Y-48480973D01*
X45994009Y-48384300D01*
X45403450Y-48384300D01*
X45244700Y-48543050D01*
X45244700Y-49517300D01*
X45264700Y-49517300D01*
X45264700Y-49771300D01*
X45244700Y-49771300D01*
X45244700Y-49791300D01*
X44990700Y-49791300D01*
X44990700Y-49771300D01*
X44970700Y-49771300D01*
X44970700Y-49517300D01*
X44990700Y-49517300D01*
X44990700Y-48543050D01*
X44831950Y-48384300D01*
X44241391Y-48384300D01*
X44008002Y-48480973D01*
X43844216Y-48644758D01*
X43714009Y-48449891D01*
X43503965Y-48309543D01*
X43256200Y-48260260D01*
X42901830Y-48260260D01*
X43027050Y-48135040D01*
X43171800Y-48135040D01*
X43419565Y-48085757D01*
X43629609Y-47945409D01*
X43745077Y-47772600D01*
X43909269Y-47772600D01*
X44027323Y-47821620D01*
X44439071Y-47821979D01*
X44819615Y-47664742D01*
X45111019Y-47373846D01*
X45268920Y-46993577D01*
X45269279Y-46581829D01*
X45112042Y-46201285D01*
X44821146Y-45909881D01*
X44440877Y-45751980D01*
X44029129Y-45751621D01*
X43727477Y-45876260D01*
X43629609Y-45729791D01*
X43419565Y-45589443D01*
X43356800Y-45576958D01*
X43356800Y-44674418D01*
X43402609Y-44643809D01*
X43542957Y-44433765D01*
X43592240Y-44186000D01*
X43592240Y-42936000D01*
X43542957Y-42688235D01*
X43510132Y-42639110D01*
X91517255Y-42545346D01*
X90493318Y-45593886D01*
X90493318Y-45593886D01*
G37*
X90493318Y-45593886D02*
X90096266Y-45196834D01*
X90053716Y-45168403D01*
X89728046Y-44950797D01*
X89293700Y-44864400D01*
X88413164Y-44864400D01*
X88399052Y-44843280D01*
X87868619Y-44488857D01*
X87242932Y-44364400D01*
X87178868Y-44364400D01*
X86553181Y-44488857D01*
X86022748Y-44843280D01*
X86008636Y-44864400D01*
X85344000Y-44864400D01*
X84909654Y-44950797D01*
X84583984Y-45168403D01*
X84541434Y-45196834D01*
X82706868Y-47031400D01*
X82644968Y-47031400D01*
X82019281Y-47155857D01*
X81580411Y-47449100D01*
X80073940Y-47449100D01*
X80073940Y-46984100D01*
X80024657Y-46736335D01*
X79884309Y-46526291D01*
X79674265Y-46385943D01*
X79426500Y-46336660D01*
X77926500Y-46336660D01*
X77678735Y-46385943D01*
X77468691Y-46526291D01*
X77328343Y-46736335D01*
X77279060Y-46984100D01*
X77279060Y-47449100D01*
X76138280Y-47449100D01*
X75975665Y-47340443D01*
X75727900Y-47291160D01*
X73835592Y-47291160D01*
X69861666Y-43317234D01*
X69731397Y-43230191D01*
X69493446Y-43071197D01*
X69059100Y-42984800D01*
X59334400Y-42984800D01*
X58900055Y-43071196D01*
X58531834Y-43317233D01*
X57477734Y-44371334D01*
X57231697Y-44739554D01*
X57145300Y-45173900D01*
X57145300Y-46088067D01*
X54724068Y-48509300D01*
X48747400Y-48509300D01*
X48615465Y-48421143D01*
X48367700Y-48371860D01*
X46867700Y-48371860D01*
X46619935Y-48421143D01*
X46409891Y-48561491D01*
X46369046Y-48622620D01*
X46227398Y-48480973D01*
X45994009Y-48384300D01*
X45403450Y-48384300D01*
X45244700Y-48543050D01*
X45244700Y-49517300D01*
X45264700Y-49517300D01*
X45264700Y-49771300D01*
X45244700Y-49771300D01*
X45244700Y-49791300D01*
X44990700Y-49791300D01*
X44990700Y-49771300D01*
X44970700Y-49771300D01*
X44970700Y-49517300D01*
X44990700Y-49517300D01*
X44990700Y-48543050D01*
X44831950Y-48384300D01*
X44241391Y-48384300D01*
X44008002Y-48480973D01*
X43844216Y-48644758D01*
X43714009Y-48449891D01*
X43503965Y-48309543D01*
X43256200Y-48260260D01*
X42901830Y-48260260D01*
X43027050Y-48135040D01*
X43171800Y-48135040D01*
X43419565Y-48085757D01*
X43629609Y-47945409D01*
X43745077Y-47772600D01*
X43909269Y-47772600D01*
X44027323Y-47821620D01*
X44439071Y-47821979D01*
X44819615Y-47664742D01*
X45111019Y-47373846D01*
X45268920Y-46993577D01*
X45269279Y-46581829D01*
X45112042Y-46201285D01*
X44821146Y-45909881D01*
X44440877Y-45751980D01*
X44029129Y-45751621D01*
X43727477Y-45876260D01*
X43629609Y-45729791D01*
X43419565Y-45589443D01*
X43356800Y-45576958D01*
X43356800Y-44674418D01*
X43402609Y-44643809D01*
X43542957Y-44433765D01*
X43592240Y-44186000D01*
X43592240Y-42936000D01*
X43542957Y-42688235D01*
X43510132Y-42639110D01*
X91517255Y-42545346D01*
X90493318Y-45593886D01*
M02*
